%TF.GenerationSoftware,KiCad,Pcbnew,6.0.11-2627ca5db0~126~ubuntu20.04.1*%
%TF.CreationDate,2023-06-25T12:50:43-04:00*%
%TF.ProjectId,SDR-Transceiver,5344522d-5472-4616-9e73-636569766572,rev?*%
%TF.SameCoordinates,Original*%
%TF.FileFunction,Drillmap*%
%TF.FilePolarity,Positive*%
%FSLAX45Y45*%
G04 Gerber Fmt 4.5, Leading zero omitted, Abs format (unit mm)*
G04 Created by KiCad (PCBNEW 6.0.11-2627ca5db0~126~ubuntu20.04.1) date 2023-06-25 12:50:43*
%MOMM*%
%LPD*%
G01*
G04 APERTURE LIST*
%ADD10C,0.100000*%
%ADD11C,0.200000*%
%ADD12C,0.040000*%
%ADD13C,0.050000*%
%ADD14C,0.060000*%
%ADD15C,0.080000*%
%ADD16C,0.130000*%
%ADD17C,0.150000*%
%ADD18C,0.220000*%
%ADD19C,0.250000*%
%ADD20C,0.320000*%
G04 APERTURE END LIST*
D10*
X5400000Y-4400000D02*
X21800000Y-4400000D01*
X21800000Y-4400000D02*
X21800000Y-14400000D01*
X21800000Y-14400000D02*
X5400000Y-14400000D01*
X5400000Y-14400000D02*
X5400000Y-4400000D01*
D11*
D12*
X5680000Y-5680000D02*
X5720000Y-5720000D01*
X5720000Y-5680000D02*
X5680000Y-5720000D01*
X5680000Y-5980000D02*
X5720000Y-6020000D01*
X5720000Y-5980000D02*
X5680000Y-6020000D01*
X5680000Y-6280000D02*
X5720000Y-6320000D01*
X5720000Y-6280000D02*
X5680000Y-6320000D01*
X5680000Y-6580000D02*
X5720000Y-6620000D01*
X5720000Y-6580000D02*
X5680000Y-6620000D01*
X5680000Y-6880000D02*
X5720000Y-6920000D01*
X5720000Y-6880000D02*
X5680000Y-6920000D01*
X5680000Y-7180000D02*
X5720000Y-7220000D01*
X5720000Y-7180000D02*
X5680000Y-7220000D01*
X5680000Y-7480000D02*
X5720000Y-7520000D01*
X5720000Y-7480000D02*
X5680000Y-7520000D01*
X5680000Y-7780000D02*
X5720000Y-7820000D01*
X5720000Y-7780000D02*
X5680000Y-7820000D01*
X5680000Y-8080000D02*
X5720000Y-8120000D01*
X5720000Y-8080000D02*
X5680000Y-8120000D01*
X5680000Y-8380000D02*
X5720000Y-8420000D01*
X5720000Y-8380000D02*
X5680000Y-8420000D01*
X5680000Y-8680000D02*
X5720000Y-8720000D01*
X5720000Y-8680000D02*
X5680000Y-8720000D01*
X5680000Y-8980000D02*
X5720000Y-9020000D01*
X5720000Y-8980000D02*
X5680000Y-9020000D01*
X5680000Y-9280000D02*
X5720000Y-9320000D01*
X5720000Y-9280000D02*
X5680000Y-9320000D01*
X5680000Y-9580000D02*
X5720000Y-9620000D01*
X5720000Y-9580000D02*
X5680000Y-9620000D01*
X5680000Y-9880000D02*
X5720000Y-9920000D01*
X5720000Y-9880000D02*
X5680000Y-9920000D01*
X5680000Y-10180000D02*
X5720000Y-10220000D01*
X5720000Y-10180000D02*
X5680000Y-10220000D01*
X5680000Y-10480000D02*
X5720000Y-10520000D01*
X5720000Y-10480000D02*
X5680000Y-10520000D01*
X5680000Y-10780000D02*
X5720000Y-10820000D01*
X5720000Y-10780000D02*
X5680000Y-10820000D01*
X5680000Y-11080000D02*
X5720000Y-11120000D01*
X5720000Y-11080000D02*
X5680000Y-11120000D01*
X5680000Y-11380000D02*
X5720000Y-11420000D01*
X5720000Y-11380000D02*
X5680000Y-11420000D01*
X5680000Y-11680000D02*
X5720000Y-11720000D01*
X5720000Y-11680000D02*
X5680000Y-11720000D01*
X5680000Y-11980000D02*
X5720000Y-12020000D01*
X5720000Y-11980000D02*
X5680000Y-12020000D01*
X5680000Y-12280000D02*
X5720000Y-12320000D01*
X5720000Y-12280000D02*
X5680000Y-12320000D01*
X5680000Y-12680000D02*
X5720000Y-12720000D01*
X5720000Y-12680000D02*
X5680000Y-12720000D01*
X5680000Y-13080000D02*
X5720000Y-13120000D01*
X5720000Y-13080000D02*
X5680000Y-13120000D01*
X6080000Y-11680000D02*
X6120000Y-11720000D01*
X6120000Y-11680000D02*
X6080000Y-11720000D01*
X6080000Y-11980000D02*
X6120000Y-12020000D01*
X6120000Y-11980000D02*
X6080000Y-12020000D01*
X6080000Y-12280000D02*
X6120000Y-12320000D01*
X6120000Y-12280000D02*
X6080000Y-12320000D01*
X6080000Y-12680000D02*
X6120000Y-12720000D01*
X6120000Y-12680000D02*
X6080000Y-12720000D01*
X6080000Y-13080000D02*
X6120000Y-13120000D01*
X6120000Y-13080000D02*
X6080000Y-13120000D01*
X6480000Y-11680000D02*
X6520000Y-11720000D01*
X6520000Y-11680000D02*
X6480000Y-11720000D01*
X6580000Y-5680000D02*
X6620000Y-5720000D01*
X6620000Y-5680000D02*
X6580000Y-5720000D01*
X6580000Y-7180000D02*
X6620000Y-7220000D01*
X6620000Y-7180000D02*
X6580000Y-7220000D01*
X6580000Y-7480000D02*
X6620000Y-7520000D01*
X6620000Y-7480000D02*
X6580000Y-7520000D01*
X6580000Y-7780000D02*
X6620000Y-7820000D01*
X6620000Y-7780000D02*
X6580000Y-7820000D01*
X6580000Y-8080000D02*
X6620000Y-8120000D01*
X6620000Y-8080000D02*
X6580000Y-8120000D01*
X6580000Y-8380000D02*
X6620000Y-8420000D01*
X6620000Y-8380000D02*
X6580000Y-8420000D01*
X6580000Y-8680000D02*
X6620000Y-8720000D01*
X6620000Y-8680000D02*
X6580000Y-8720000D01*
X6580000Y-8980000D02*
X6620000Y-9020000D01*
X6620000Y-8980000D02*
X6580000Y-9020000D01*
X6580000Y-9280000D02*
X6620000Y-9320000D01*
X6620000Y-9280000D02*
X6580000Y-9320000D01*
X6880000Y-5680000D02*
X6920000Y-5720000D01*
X6920000Y-5680000D02*
X6880000Y-5720000D01*
X7180000Y-5680000D02*
X7220000Y-5720000D01*
X7220000Y-5680000D02*
X7180000Y-5720000D01*
X7180000Y-5980000D02*
X7220000Y-6020000D01*
X7220000Y-5980000D02*
X7180000Y-6020000D01*
X7480000Y-5680000D02*
X7520000Y-5720000D01*
X7520000Y-5680000D02*
X7480000Y-5720000D01*
X7480000Y-5980000D02*
X7520000Y-6020000D01*
X7520000Y-5980000D02*
X7480000Y-6020000D01*
X7480000Y-6280000D02*
X7520000Y-6320000D01*
X7520000Y-6280000D02*
X7480000Y-6320000D01*
X7580000Y-7580000D02*
X7620000Y-7620000D01*
X7620000Y-7580000D02*
X7580000Y-7620000D01*
X7580000Y-7880000D02*
X7620000Y-7920000D01*
X7620000Y-7880000D02*
X7580000Y-7920000D01*
X7580000Y-8180000D02*
X7620000Y-8220000D01*
X7620000Y-8180000D02*
X7580000Y-8220000D01*
X7580000Y-8480000D02*
X7620000Y-8520000D01*
X7620000Y-8480000D02*
X7580000Y-8520000D01*
X7580000Y-8780000D02*
X7620000Y-8820000D01*
X7620000Y-8780000D02*
X7580000Y-8820000D01*
X7580000Y-9080000D02*
X7620000Y-9120000D01*
X7620000Y-9080000D02*
X7580000Y-9120000D01*
X7580000Y-9380000D02*
X7620000Y-9420000D01*
X7620000Y-9380000D02*
X7580000Y-9420000D01*
X7580000Y-9680000D02*
X7620000Y-9720000D01*
X7620000Y-9680000D02*
X7580000Y-9720000D01*
X7580000Y-9980000D02*
X7620000Y-10020000D01*
X7620000Y-9980000D02*
X7580000Y-10020000D01*
X7780000Y-5680000D02*
X7820000Y-5720000D01*
X7820000Y-5680000D02*
X7780000Y-5720000D01*
X7780000Y-5980000D02*
X7820000Y-6020000D01*
X7820000Y-5980000D02*
X7780000Y-6020000D01*
X7780000Y-6280000D02*
X7820000Y-6320000D01*
X7820000Y-6280000D02*
X7780000Y-6320000D01*
X7780000Y-6580000D02*
X7820000Y-6620000D01*
X7820000Y-6580000D02*
X7780000Y-6620000D01*
X7880000Y-7580000D02*
X7920000Y-7620000D01*
X7920000Y-7580000D02*
X7880000Y-7620000D01*
X7880000Y-7880000D02*
X7920000Y-7920000D01*
X7920000Y-7880000D02*
X7880000Y-7920000D01*
X7880000Y-8180000D02*
X7920000Y-8220000D01*
X7920000Y-8180000D02*
X7880000Y-8220000D01*
X7880000Y-8480000D02*
X7920000Y-8520000D01*
X7920000Y-8480000D02*
X7880000Y-8520000D01*
X7880000Y-8780000D02*
X7920000Y-8820000D01*
X7920000Y-8780000D02*
X7880000Y-8820000D01*
X7880000Y-9080000D02*
X7920000Y-9120000D01*
X7920000Y-9080000D02*
X7880000Y-9120000D01*
X7880000Y-9380000D02*
X7920000Y-9420000D01*
X7920000Y-9380000D02*
X7880000Y-9420000D01*
X7880000Y-9680000D02*
X7920000Y-9720000D01*
X7920000Y-9680000D02*
X7880000Y-9720000D01*
X7880000Y-9980000D02*
X7920000Y-10020000D01*
X7920000Y-9980000D02*
X7880000Y-10020000D01*
X8080000Y-5680000D02*
X8120000Y-5720000D01*
X8120000Y-5680000D02*
X8080000Y-5720000D01*
X8080000Y-5980000D02*
X8120000Y-6020000D01*
X8120000Y-5980000D02*
X8080000Y-6020000D01*
X8080000Y-6280000D02*
X8120000Y-6320000D01*
X8120000Y-6280000D02*
X8080000Y-6320000D01*
X8080000Y-6580000D02*
X8120000Y-6620000D01*
X8120000Y-6580000D02*
X8080000Y-6620000D01*
X8980000Y-8980000D02*
X9020000Y-9020000D01*
X9020000Y-8980000D02*
X8980000Y-9020000D01*
X8980000Y-9280000D02*
X9020000Y-9320000D01*
X9020000Y-9280000D02*
X8980000Y-9320000D01*
X8980000Y-9580000D02*
X9020000Y-9620000D01*
X9020000Y-9580000D02*
X8980000Y-9620000D01*
X8980000Y-9880000D02*
X9020000Y-9920000D01*
X9020000Y-9880000D02*
X8980000Y-9920000D01*
X9280000Y-8980000D02*
X9320000Y-9020000D01*
X9320000Y-8980000D02*
X9280000Y-9020000D01*
X9280000Y-9280000D02*
X9320000Y-9320000D01*
X9320000Y-9280000D02*
X9280000Y-9320000D01*
X9280000Y-9580000D02*
X9320000Y-9620000D01*
X9320000Y-9580000D02*
X9280000Y-9620000D01*
X9280000Y-9880000D02*
X9320000Y-9920000D01*
X9320000Y-9880000D02*
X9280000Y-9920000D01*
X9380000Y-12080000D02*
X9420000Y-12120000D01*
X9420000Y-12080000D02*
X9380000Y-12120000D01*
X9480000Y-6280000D02*
X9520000Y-6320000D01*
X9520000Y-6280000D02*
X9480000Y-6320000D01*
X9480000Y-6580000D02*
X9520000Y-6620000D01*
X9520000Y-6580000D02*
X9480000Y-6620000D01*
X9480000Y-6880000D02*
X9520000Y-6920000D01*
X9520000Y-6880000D02*
X9480000Y-6920000D01*
X9580000Y-8480000D02*
X9620000Y-8520000D01*
X9620000Y-8480000D02*
X9580000Y-8520000D01*
X9580000Y-8980000D02*
X9620000Y-9020000D01*
X9620000Y-8980000D02*
X9580000Y-9020000D01*
X9580000Y-9280000D02*
X9620000Y-9320000D01*
X9620000Y-9280000D02*
X9580000Y-9320000D01*
X9680000Y-9880000D02*
X9720000Y-9920000D01*
X9720000Y-9880000D02*
X9680000Y-9920000D01*
X9680000Y-12080000D02*
X9720000Y-12120000D01*
X9720000Y-12080000D02*
X9680000Y-12120000D01*
X9680000Y-12380000D02*
X9720000Y-12420000D01*
X9720000Y-12380000D02*
X9680000Y-12420000D01*
X9880000Y-8180000D02*
X9920000Y-8220000D01*
X9920000Y-8180000D02*
X9880000Y-8220000D01*
X9880000Y-8480000D02*
X9920000Y-8520000D01*
X9920000Y-8480000D02*
X9880000Y-8520000D01*
X9880000Y-8980000D02*
X9920000Y-9020000D01*
X9920000Y-8980000D02*
X9880000Y-9020000D01*
X9880000Y-9280000D02*
X9920000Y-9320000D01*
X9920000Y-9280000D02*
X9880000Y-9320000D01*
X9980000Y-12080000D02*
X10020000Y-12120000D01*
X10020000Y-12080000D02*
X9980000Y-12120000D01*
X9980000Y-12380000D02*
X10020000Y-12420000D01*
X10020000Y-12380000D02*
X9980000Y-12420000D01*
X9980000Y-12680000D02*
X10020000Y-12720000D01*
X10020000Y-12680000D02*
X9980000Y-12720000D01*
X9980000Y-12980000D02*
X10020000Y-13020000D01*
X10020000Y-12980000D02*
X9980000Y-13020000D01*
X9980000Y-13280000D02*
X10020000Y-13320000D01*
X10020000Y-13280000D02*
X9980000Y-13320000D01*
X9980000Y-13580000D02*
X10020000Y-13620000D01*
X10020000Y-13580000D02*
X9980000Y-13620000D01*
X9980000Y-13880000D02*
X10020000Y-13920000D01*
X10020000Y-13880000D02*
X9980000Y-13920000D01*
X9980000Y-14180000D02*
X10020000Y-14220000D01*
X10020000Y-14180000D02*
X9980000Y-14220000D01*
X10080000Y-6580000D02*
X10120000Y-6620000D01*
X10120000Y-6580000D02*
X10080000Y-6620000D01*
X10080000Y-6880000D02*
X10120000Y-6920000D01*
X10120000Y-6880000D02*
X10080000Y-6920000D01*
X10280000Y-12080000D02*
X10320000Y-12120000D01*
X10320000Y-12080000D02*
X10280000Y-12120000D01*
X10280000Y-12380000D02*
X10320000Y-12420000D01*
X10320000Y-12380000D02*
X10280000Y-12420000D01*
X10280000Y-12680000D02*
X10320000Y-12720000D01*
X10320000Y-12680000D02*
X10280000Y-12720000D01*
X10280000Y-12980000D02*
X10320000Y-13020000D01*
X10320000Y-12980000D02*
X10280000Y-13020000D01*
X10280000Y-13280000D02*
X10320000Y-13320000D01*
X10320000Y-13280000D02*
X10280000Y-13320000D01*
X10280000Y-13580000D02*
X10320000Y-13620000D01*
X10320000Y-13580000D02*
X10280000Y-13620000D01*
X10280000Y-13880000D02*
X10320000Y-13920000D01*
X10320000Y-13880000D02*
X10280000Y-13920000D01*
X10280000Y-14180000D02*
X10320000Y-14220000D01*
X10320000Y-14180000D02*
X10280000Y-14220000D01*
X10480000Y-5980000D02*
X10520000Y-6020000D01*
X10520000Y-5980000D02*
X10480000Y-6020000D01*
X10480000Y-6280000D02*
X10520000Y-6320000D01*
X10520000Y-6280000D02*
X10480000Y-6320000D01*
X10480000Y-6580000D02*
X10520000Y-6620000D01*
X10520000Y-6580000D02*
X10480000Y-6620000D01*
X10480000Y-6880000D02*
X10520000Y-6920000D01*
X10520000Y-6880000D02*
X10480000Y-6920000D01*
X10480000Y-7580000D02*
X10520000Y-7620000D01*
X10520000Y-7580000D02*
X10480000Y-7620000D01*
X10480000Y-7880000D02*
X10520000Y-7920000D01*
X10520000Y-7880000D02*
X10480000Y-7920000D01*
X10480000Y-8180000D02*
X10520000Y-8220000D01*
X10520000Y-8180000D02*
X10480000Y-8220000D01*
X10480000Y-8480000D02*
X10520000Y-8520000D01*
X10520000Y-8480000D02*
X10480000Y-8520000D01*
X10480000Y-8780000D02*
X10520000Y-8820000D01*
X10520000Y-8780000D02*
X10480000Y-8820000D01*
X10580000Y-4680000D02*
X10620000Y-4720000D01*
X10620000Y-4680000D02*
X10580000Y-4720000D01*
X10580000Y-12380000D02*
X10620000Y-12420000D01*
X10620000Y-12380000D02*
X10580000Y-12420000D01*
X10580000Y-12680000D02*
X10620000Y-12720000D01*
X10620000Y-12680000D02*
X10580000Y-12720000D01*
X10580000Y-12980000D02*
X10620000Y-13020000D01*
X10620000Y-12980000D02*
X10580000Y-13020000D01*
X10580000Y-13280000D02*
X10620000Y-13320000D01*
X10620000Y-13280000D02*
X10580000Y-13320000D01*
X10580000Y-13580000D02*
X10620000Y-13620000D01*
X10620000Y-13580000D02*
X10580000Y-13620000D01*
X10580000Y-13880000D02*
X10620000Y-13920000D01*
X10620000Y-13880000D02*
X10580000Y-13920000D01*
X10580000Y-14180000D02*
X10620000Y-14220000D01*
X10620000Y-14180000D02*
X10580000Y-14220000D01*
X10780000Y-5680000D02*
X10820000Y-5720000D01*
X10820000Y-5680000D02*
X10780000Y-5720000D01*
X10780000Y-5980000D02*
X10820000Y-6020000D01*
X10820000Y-5980000D02*
X10780000Y-6020000D01*
X10780000Y-6280000D02*
X10820000Y-6320000D01*
X10820000Y-6280000D02*
X10780000Y-6320000D01*
X10780000Y-6580000D02*
X10820000Y-6620000D01*
X10820000Y-6580000D02*
X10780000Y-6620000D01*
X10780000Y-6880000D02*
X10820000Y-6920000D01*
X10820000Y-6880000D02*
X10780000Y-6920000D01*
X10780000Y-7880000D02*
X10820000Y-7920000D01*
X10820000Y-7880000D02*
X10780000Y-7920000D01*
X10780000Y-8180000D02*
X10820000Y-8220000D01*
X10820000Y-8180000D02*
X10780000Y-8220000D01*
X10780000Y-8480000D02*
X10820000Y-8520000D01*
X10820000Y-8480000D02*
X10780000Y-8520000D01*
X10870300Y-10189700D02*
X10910300Y-10229700D01*
X10910300Y-10189700D02*
X10870300Y-10229700D01*
X10880000Y-4680000D02*
X10920000Y-4720000D01*
X10920000Y-4680000D02*
X10880000Y-4720000D01*
X10880000Y-12680000D02*
X10920000Y-12720000D01*
X10920000Y-12680000D02*
X10880000Y-12720000D01*
X10880000Y-12980000D02*
X10920000Y-13020000D01*
X10920000Y-12980000D02*
X10880000Y-13020000D01*
X10880000Y-13280000D02*
X10920000Y-13320000D01*
X10920000Y-13280000D02*
X10880000Y-13320000D01*
X10880000Y-13580000D02*
X10920000Y-13620000D01*
X10920000Y-13580000D02*
X10880000Y-13620000D01*
X10880000Y-13880000D02*
X10920000Y-13920000D01*
X10920000Y-13880000D02*
X10880000Y-13920000D01*
X10880000Y-14180000D02*
X10920000Y-14220000D01*
X10920000Y-14180000D02*
X10880000Y-14220000D01*
X11080000Y-5680000D02*
X11120000Y-5720000D01*
X11120000Y-5680000D02*
X11080000Y-5720000D01*
X11080000Y-5980000D02*
X11120000Y-6020000D01*
X11120000Y-5980000D02*
X11080000Y-6020000D01*
X11180000Y-4680000D02*
X11220000Y-4720000D01*
X11220000Y-4680000D02*
X11180000Y-4720000D01*
X11480000Y-4680000D02*
X11520000Y-4720000D01*
X11520000Y-4680000D02*
X11480000Y-4720000D01*
X11780000Y-4680000D02*
X11820000Y-4720000D01*
X11820000Y-4680000D02*
X11780000Y-4720000D01*
X11851200Y-7509800D02*
X11891200Y-7549800D01*
X11891200Y-7509800D02*
X11851200Y-7549800D01*
X11880000Y-5580000D02*
X11920000Y-5620000D01*
X11920000Y-5580000D02*
X11880000Y-5620000D01*
X11981500Y-8628700D02*
X12021500Y-8668700D01*
X12021500Y-8628700D02*
X11981500Y-8668700D01*
X12080000Y-4680000D02*
X12120000Y-4720000D01*
X12120000Y-4680000D02*
X12080000Y-4720000D01*
X12180000Y-5580000D02*
X12220000Y-5620000D01*
X12220000Y-5580000D02*
X12180000Y-5620000D01*
X12184700Y-8984300D02*
X12224700Y-9024300D01*
X12224700Y-8984300D02*
X12184700Y-9024300D01*
X12362500Y-6697500D02*
X12402500Y-6737500D01*
X12402500Y-6697500D02*
X12362500Y-6737500D01*
X12480000Y-5580000D02*
X12520000Y-5620000D01*
X12520000Y-5580000D02*
X12480000Y-5620000D01*
X12514900Y-8450900D02*
X12554900Y-8490900D01*
X12554900Y-8450900D02*
X12514900Y-8490900D01*
X12591100Y-9238300D02*
X12631100Y-9278300D01*
X12631100Y-9238300D02*
X12591100Y-9278300D01*
X12616500Y-7208300D02*
X12656500Y-7248300D01*
X12656500Y-7208300D02*
X12616500Y-7248300D01*
X12780000Y-5580000D02*
X12820000Y-5620000D01*
X12820000Y-5580000D02*
X12780000Y-5620000D01*
X12908600Y-12578400D02*
X12948600Y-12618400D01*
X12948600Y-12578400D02*
X12908600Y-12618400D01*
X12921300Y-11448100D02*
X12961300Y-11488100D01*
X12961300Y-11448100D02*
X12921300Y-11488100D01*
X12984800Y-8768400D02*
X13024800Y-8808400D01*
X13024800Y-8768400D02*
X12984800Y-8808400D01*
X12997500Y-13302300D02*
X13037500Y-13342300D01*
X13037500Y-13302300D02*
X12997500Y-13342300D01*
X13080000Y-5580000D02*
X13120000Y-5620000D01*
X13120000Y-5580000D02*
X13080000Y-5620000D01*
X13149900Y-10609900D02*
X13189900Y-10649900D01*
X13189900Y-10609900D02*
X13149900Y-10649900D01*
X13175300Y-7130100D02*
X13215300Y-7170100D01*
X13215300Y-7130100D02*
X13175300Y-7170100D01*
X13180000Y-4680000D02*
X13220000Y-4720000D01*
X13220000Y-4680000D02*
X13180000Y-4720000D01*
X13280000Y-6180000D02*
X13320000Y-6220000D01*
X13320000Y-6180000D02*
X13280000Y-6220000D01*
X13280000Y-8831900D02*
X13320000Y-8871900D01*
X13320000Y-8831900D02*
X13280000Y-8871900D01*
X13380000Y-5580000D02*
X13420000Y-5620000D01*
X13420000Y-5580000D02*
X13380000Y-5620000D01*
X13380000Y-7980000D02*
X13420000Y-8020000D01*
X13420000Y-7980000D02*
X13380000Y-8020000D01*
X13580000Y-7580000D02*
X13620000Y-7620000D01*
X13620000Y-7580000D02*
X13580000Y-7620000D01*
X13708700Y-11498900D02*
X13748700Y-11538900D01*
X13748700Y-11498900D02*
X13708700Y-11538900D01*
X13980000Y-5880000D02*
X14020000Y-5920000D01*
X14020000Y-5880000D02*
X13980000Y-5920000D01*
X13980000Y-7080000D02*
X14020000Y-7120000D01*
X14020000Y-7080000D02*
X13980000Y-7120000D01*
X13995450Y-9484950D02*
X14035450Y-9524950D01*
X14035450Y-9484950D02*
X13995450Y-9524950D01*
X14318300Y-10889300D02*
X14358300Y-10929300D01*
X14358300Y-10889300D02*
X14318300Y-10929300D01*
X14380000Y-4980000D02*
X14420000Y-5020000D01*
X14420000Y-4980000D02*
X14380000Y-5020000D01*
X14400850Y-6074350D02*
X14440850Y-6114350D01*
X14440850Y-6074350D02*
X14400850Y-6114350D01*
X14407200Y-7630100D02*
X14447200Y-7670100D01*
X14447200Y-7630100D02*
X14407200Y-7670100D01*
X14709600Y-11510659D02*
X14749600Y-11550659D01*
X14749600Y-11510659D02*
X14709600Y-11550659D01*
X14842950Y-10462909D02*
X14882950Y-10502909D01*
X14882950Y-10462909D02*
X14842950Y-10502909D01*
X14851700Y-8354000D02*
X14891700Y-8394000D01*
X14891700Y-8354000D02*
X14851700Y-8394000D01*
X14874700Y-10812159D02*
X14914700Y-10852159D01*
X14914700Y-10812159D02*
X14874700Y-10852159D01*
X14880000Y-11980000D02*
X14920000Y-12020000D01*
X14920000Y-11980000D02*
X14880000Y-12020000D01*
X14966130Y-7071430D02*
X15006130Y-7111430D01*
X15006130Y-7071430D02*
X14966130Y-7111430D01*
X14978700Y-5839400D02*
X15018700Y-5879400D01*
X15018700Y-5839400D02*
X14978700Y-5879400D01*
X15054900Y-11498900D02*
X15094900Y-11538900D01*
X15094900Y-11498900D02*
X15054900Y-11538900D01*
X15065200Y-10558159D02*
X15105200Y-10598159D01*
X15105200Y-10558159D02*
X15065200Y-10598159D01*
X15380000Y-13480000D02*
X15420000Y-13520000D01*
X15420000Y-13480000D02*
X15380000Y-13520000D01*
X15380000Y-13780000D02*
X15420000Y-13820000D01*
X15420000Y-13780000D02*
X15380000Y-13820000D01*
X15461300Y-7434900D02*
X15501300Y-7474900D01*
X15501300Y-7434900D02*
X15461300Y-7474900D01*
X15461300Y-13022900D02*
X15501300Y-13062900D01*
X15501300Y-13022900D02*
X15461300Y-13062900D01*
X15512100Y-10228900D02*
X15552100Y-10268900D01*
X15552100Y-10228900D02*
X15512100Y-10268900D01*
X15680000Y-12580000D02*
X15720000Y-12620000D01*
X15720000Y-12580000D02*
X15680000Y-12620000D01*
X15680000Y-12880000D02*
X15720000Y-12920000D01*
X15720000Y-12880000D02*
X15680000Y-12920000D01*
X15680000Y-13180000D02*
X15720000Y-13220000D01*
X15720000Y-13180000D02*
X15680000Y-13220000D01*
X15680000Y-13480000D02*
X15720000Y-13520000D01*
X15720000Y-13480000D02*
X15680000Y-13520000D01*
X15680000Y-13780000D02*
X15720000Y-13820000D01*
X15720000Y-13780000D02*
X15680000Y-13820000D01*
X15842300Y-5479100D02*
X15882300Y-5519100D01*
X15882300Y-5479100D02*
X15842300Y-5519100D01*
X15980000Y-12080000D02*
X16020000Y-12120000D01*
X16020000Y-12080000D02*
X15980000Y-12120000D01*
X15980000Y-12580000D02*
X16020000Y-12620000D01*
X16020000Y-12580000D02*
X15980000Y-12620000D01*
X15980000Y-12880000D02*
X16020000Y-12920000D01*
X16020000Y-12880000D02*
X15980000Y-12920000D01*
X15980000Y-13180000D02*
X16020000Y-13220000D01*
X16020000Y-13180000D02*
X15980000Y-13220000D01*
X15980000Y-13480000D02*
X16020000Y-13520000D01*
X16020000Y-13480000D02*
X15980000Y-13520000D01*
X15980000Y-13780000D02*
X16020000Y-13820000D01*
X16020000Y-13780000D02*
X15980000Y-13820000D01*
X16016759Y-11067100D02*
X16056759Y-11107100D01*
X16056759Y-11067100D02*
X16016759Y-11107100D01*
X16020100Y-11321100D02*
X16060100Y-11361100D01*
X16060100Y-11321100D02*
X16020100Y-11361100D01*
X16144700Y-10939159D02*
X16184700Y-10979159D01*
X16184700Y-10939159D02*
X16144700Y-10979159D01*
X16271700Y-10812159D02*
X16311700Y-10852159D01*
X16311700Y-10812159D02*
X16271700Y-10852159D01*
X16280000Y-12080000D02*
X16320000Y-12120000D01*
X16320000Y-12080000D02*
X16280000Y-12120000D01*
X16280000Y-12580000D02*
X16320000Y-12620000D01*
X16320000Y-12580000D02*
X16280000Y-12620000D01*
X16280000Y-12880000D02*
X16320000Y-12920000D01*
X16320000Y-12880000D02*
X16280000Y-12920000D01*
X16280000Y-13180000D02*
X16320000Y-13220000D01*
X16320000Y-13180000D02*
X16280000Y-13220000D01*
X16280000Y-13480000D02*
X16320000Y-13520000D01*
X16320000Y-13480000D02*
X16280000Y-13520000D01*
X16280000Y-13780000D02*
X16320000Y-13820000D01*
X16320000Y-13780000D02*
X16280000Y-13820000D01*
X16580000Y-13780000D02*
X16620000Y-13820000D01*
X16620000Y-13780000D02*
X16580000Y-13820000D01*
X16580000Y-14080000D02*
X16620000Y-14120000D01*
X16620000Y-14080000D02*
X16580000Y-14120000D01*
X16655100Y-8806500D02*
X16695100Y-8846500D01*
X16695100Y-8806500D02*
X16655100Y-8846500D01*
X16731300Y-6398200D02*
X16771300Y-6438200D01*
X16771300Y-6398200D02*
X16731300Y-6438200D01*
X16782100Y-10686100D02*
X16822100Y-10726100D01*
X16822100Y-10686100D02*
X16782100Y-10726100D01*
X16880000Y-13780000D02*
X16920000Y-13820000D01*
X16920000Y-13780000D02*
X16880000Y-13820000D01*
X16880000Y-14080000D02*
X16920000Y-14120000D01*
X16920000Y-14080000D02*
X16880000Y-14120000D01*
X16883700Y-6698300D02*
X16923700Y-6738300D01*
X16923700Y-6698300D02*
X16883700Y-6738300D01*
X16883700Y-12337100D02*
X16923700Y-12377100D01*
X16923700Y-12337100D02*
X16883700Y-12377100D01*
X16947070Y-6918770D02*
X16987070Y-6958770D01*
X16987070Y-6918770D02*
X16947070Y-6958770D01*
X16973785Y-7512285D02*
X17013785Y-7552285D01*
X17013785Y-7512285D02*
X16973785Y-7552285D01*
X16980000Y-4980000D02*
X17020000Y-5020000D01*
X17020000Y-4980000D02*
X16980000Y-5020000D01*
X17010700Y-7236400D02*
X17050700Y-7276400D01*
X17050700Y-7236400D02*
X17010700Y-7276400D01*
X17010700Y-11219500D02*
X17050700Y-11259500D01*
X17050700Y-11219500D02*
X17010700Y-11259500D01*
X17036100Y-6474400D02*
X17076100Y-6514400D01*
X17076100Y-6474400D02*
X17036100Y-6514400D01*
X17086900Y-7892100D02*
X17126900Y-7932100D01*
X17126900Y-7892100D02*
X17086900Y-7932100D01*
X17180000Y-13780000D02*
X17220000Y-13820000D01*
X17220000Y-13780000D02*
X17180000Y-13820000D01*
X17180000Y-14080000D02*
X17220000Y-14120000D01*
X17220000Y-14080000D02*
X17180000Y-14120000D01*
X17280000Y-4980000D02*
X17320000Y-5020000D01*
X17320000Y-4980000D02*
X17280000Y-5020000D01*
X17467900Y-11549700D02*
X17507900Y-11589700D01*
X17507900Y-11549700D02*
X17467900Y-11589700D01*
X17480000Y-13780000D02*
X17520000Y-13820000D01*
X17520000Y-13780000D02*
X17480000Y-13820000D01*
X17480000Y-14080000D02*
X17520000Y-14120000D01*
X17520000Y-14080000D02*
X17480000Y-14120000D01*
X17580000Y-4980000D02*
X17620000Y-5020000D01*
X17620000Y-4980000D02*
X17580000Y-5020000D01*
X17780000Y-8680000D02*
X17820000Y-8720000D01*
X17820000Y-8680000D02*
X17780000Y-8720000D01*
X17780000Y-8980000D02*
X17820000Y-9020000D01*
X17820000Y-8980000D02*
X17780000Y-9020000D01*
X17780000Y-9280000D02*
X17820000Y-9320000D01*
X17820000Y-9280000D02*
X17780000Y-9320000D01*
X17780000Y-13780000D02*
X17820000Y-13820000D01*
X17820000Y-13780000D02*
X17780000Y-13820000D01*
X17780000Y-14080000D02*
X17820000Y-14120000D01*
X17820000Y-14080000D02*
X17780000Y-14120000D01*
X17880000Y-4980000D02*
X17920000Y-5020000D01*
X17920000Y-4980000D02*
X17880000Y-5020000D01*
X18001300Y-7312600D02*
X18041300Y-7352600D01*
X18041300Y-7312600D02*
X18001300Y-7352600D01*
X18001300Y-13149900D02*
X18041300Y-13189900D01*
X18041300Y-13149900D02*
X18001300Y-13189900D01*
X18052100Y-7160200D02*
X18092100Y-7200200D01*
X18092100Y-7160200D02*
X18052100Y-7200200D01*
X18080000Y-8380000D02*
X18120000Y-8420000D01*
X18120000Y-8380000D02*
X18080000Y-8420000D01*
X18080000Y-8680000D02*
X18120000Y-8720000D01*
X18120000Y-8680000D02*
X18080000Y-8720000D01*
X18080000Y-8980000D02*
X18120000Y-9020000D01*
X18120000Y-8980000D02*
X18080000Y-9020000D01*
X18080000Y-9280000D02*
X18120000Y-9320000D01*
X18120000Y-9280000D02*
X18080000Y-9320000D01*
X18080000Y-13780000D02*
X18120000Y-13820000D01*
X18120000Y-13780000D02*
X18080000Y-13820000D01*
X18080000Y-14080000D02*
X18120000Y-14120000D01*
X18120000Y-14080000D02*
X18080000Y-14120000D01*
X18102900Y-6906200D02*
X18142900Y-6946200D01*
X18142900Y-6906200D02*
X18102900Y-6946200D01*
X18180000Y-4980000D02*
X18220000Y-5020000D01*
X18220000Y-4980000D02*
X18180000Y-5020000D01*
X18229900Y-13327700D02*
X18269900Y-13367700D01*
X18269900Y-13327700D02*
X18229900Y-13367700D01*
X18380000Y-6680000D02*
X18420000Y-6720000D01*
X18420000Y-6680000D02*
X18380000Y-6720000D01*
X18380000Y-6980000D02*
X18420000Y-7020000D01*
X18420000Y-6980000D02*
X18380000Y-7020000D01*
X18380000Y-8080000D02*
X18420000Y-8120000D01*
X18420000Y-8080000D02*
X18380000Y-8120000D01*
X18380000Y-8380000D02*
X18420000Y-8420000D01*
X18420000Y-8380000D02*
X18380000Y-8420000D01*
X18380000Y-8680000D02*
X18420000Y-8720000D01*
X18420000Y-8680000D02*
X18380000Y-8720000D01*
X18380000Y-13480000D02*
X18420000Y-13520000D01*
X18420000Y-13480000D02*
X18380000Y-13520000D01*
X18380000Y-13780000D02*
X18420000Y-13820000D01*
X18420000Y-13780000D02*
X18380000Y-13820000D01*
X18380000Y-14080000D02*
X18420000Y-14120000D01*
X18420000Y-14080000D02*
X18380000Y-14120000D01*
X18480000Y-4980000D02*
X18520000Y-5020000D01*
X18520000Y-4980000D02*
X18480000Y-5020000D01*
X18496600Y-11333800D02*
X18536600Y-11373800D01*
X18536600Y-11333800D02*
X18496600Y-11373800D01*
X18680000Y-6680000D02*
X18720000Y-6720000D01*
X18720000Y-6680000D02*
X18680000Y-6720000D01*
X18680000Y-6980000D02*
X18720000Y-7020000D01*
X18720000Y-6980000D02*
X18680000Y-7020000D01*
X18680000Y-7780000D02*
X18720000Y-7820000D01*
X18720000Y-7780000D02*
X18680000Y-7820000D01*
X18680000Y-8080000D02*
X18720000Y-8120000D01*
X18720000Y-8080000D02*
X18680000Y-8120000D01*
X18680000Y-8380000D02*
X18720000Y-8420000D01*
X18720000Y-8380000D02*
X18680000Y-8420000D01*
X18680000Y-8680000D02*
X18720000Y-8720000D01*
X18720000Y-8680000D02*
X18680000Y-8720000D01*
X18680000Y-13480000D02*
X18720000Y-13520000D01*
X18720000Y-13480000D02*
X18680000Y-13520000D01*
X18680000Y-13780000D02*
X18720000Y-13820000D01*
X18720000Y-13780000D02*
X18680000Y-13820000D01*
X18680000Y-14080000D02*
X18720000Y-14120000D01*
X18720000Y-14080000D02*
X18680000Y-14120000D01*
X18737900Y-7384100D02*
X18777900Y-7424100D01*
X18777900Y-7384100D02*
X18737900Y-7424100D01*
X18980000Y-6380000D02*
X19020000Y-6420000D01*
X19020000Y-6380000D02*
X18980000Y-6420000D01*
X18980000Y-6680000D02*
X19020000Y-6720000D01*
X19020000Y-6680000D02*
X18980000Y-6720000D01*
X18980000Y-6980000D02*
X19020000Y-7020000D01*
X19020000Y-6980000D02*
X18980000Y-7020000D01*
X18980000Y-7780000D02*
X19020000Y-7820000D01*
X19020000Y-7780000D02*
X18980000Y-7820000D01*
X18980000Y-8080000D02*
X19020000Y-8120000D01*
X19020000Y-8080000D02*
X18980000Y-8120000D01*
X18980000Y-8380000D02*
X19020000Y-8420000D01*
X19020000Y-8380000D02*
X18980000Y-8420000D01*
X18980000Y-8680000D02*
X19020000Y-8720000D01*
X19020000Y-8680000D02*
X18980000Y-8720000D01*
X18980000Y-13480000D02*
X19020000Y-13520000D01*
X19020000Y-13480000D02*
X18980000Y-13520000D01*
X18980000Y-13780000D02*
X19020000Y-13820000D01*
X19020000Y-13780000D02*
X18980000Y-13820000D01*
X18980000Y-14080000D02*
X19020000Y-14120000D01*
X19020000Y-14080000D02*
X18980000Y-14120000D01*
X19119180Y-12097350D02*
X19159180Y-12137350D01*
X19159180Y-12097350D02*
X19119180Y-12137350D01*
X19280000Y-6380000D02*
X19320000Y-6420000D01*
X19320000Y-6380000D02*
X19280000Y-6420000D01*
X19280000Y-6680000D02*
X19320000Y-6720000D01*
X19320000Y-6680000D02*
X19280000Y-6720000D01*
X19280000Y-6980000D02*
X19320000Y-7020000D01*
X19320000Y-6980000D02*
X19280000Y-7020000D01*
X19280000Y-7780000D02*
X19320000Y-7820000D01*
X19320000Y-7780000D02*
X19280000Y-7820000D01*
X19280000Y-8080000D02*
X19320000Y-8120000D01*
X19320000Y-8080000D02*
X19280000Y-8120000D01*
X19280000Y-8380000D02*
X19320000Y-8420000D01*
X19320000Y-8380000D02*
X19280000Y-8420000D01*
X19280000Y-8680000D02*
X19320000Y-8720000D01*
X19320000Y-8680000D02*
X19280000Y-8720000D01*
X19280000Y-13480000D02*
X19320000Y-13520000D01*
X19320000Y-13480000D02*
X19280000Y-13520000D01*
X19280000Y-13780000D02*
X19320000Y-13820000D01*
X19320000Y-13780000D02*
X19280000Y-13820000D01*
X19280000Y-14080000D02*
X19320000Y-14120000D01*
X19320000Y-14080000D02*
X19280000Y-14120000D01*
X19462562Y-12806238D02*
X19502562Y-12846238D01*
X19502562Y-12806238D02*
X19462562Y-12846238D01*
X19580000Y-13180000D02*
X19620000Y-13220000D01*
X19620000Y-13180000D02*
X19580000Y-13220000D01*
X19580000Y-13480000D02*
X19620000Y-13520000D01*
X19620000Y-13480000D02*
X19580000Y-13520000D01*
X19580000Y-13780000D02*
X19620000Y-13820000D01*
X19620000Y-13780000D02*
X19580000Y-13820000D01*
X19580000Y-14080000D02*
X19620000Y-14120000D01*
X19620000Y-14080000D02*
X19580000Y-14120000D01*
X19680000Y-5780000D02*
X19720000Y-5820000D01*
X19720000Y-5780000D02*
X19680000Y-5820000D01*
X19680000Y-6080000D02*
X19720000Y-6120000D01*
X19720000Y-6080000D02*
X19680000Y-6120000D01*
X19880000Y-13180000D02*
X19920000Y-13220000D01*
X19920000Y-13180000D02*
X19880000Y-13220000D01*
X19880000Y-13480000D02*
X19920000Y-13520000D01*
X19920000Y-13480000D02*
X19880000Y-13520000D01*
X19880000Y-13780000D02*
X19920000Y-13820000D01*
X19920000Y-13780000D02*
X19880000Y-13820000D01*
X19880000Y-14080000D02*
X19920000Y-14120000D01*
X19920000Y-14080000D02*
X19880000Y-14120000D01*
X19980000Y-5780000D02*
X20020000Y-5820000D01*
X20020000Y-5780000D02*
X19980000Y-5820000D01*
X19980000Y-6080000D02*
X20020000Y-6120000D01*
X20020000Y-6080000D02*
X19980000Y-6120000D01*
X19980000Y-6380000D02*
X20020000Y-6420000D01*
X20020000Y-6380000D02*
X19980000Y-6420000D01*
X19980000Y-6680000D02*
X20020000Y-6720000D01*
X20020000Y-6680000D02*
X19980000Y-6720000D01*
X19980000Y-6980000D02*
X20020000Y-7020000D01*
X20020000Y-6980000D02*
X19980000Y-7020000D01*
X19980000Y-7780000D02*
X20020000Y-7820000D01*
X20020000Y-7780000D02*
X19980000Y-7820000D01*
X19980000Y-8080000D02*
X20020000Y-8120000D01*
X20020000Y-8080000D02*
X19980000Y-8120000D01*
X19980000Y-8380000D02*
X20020000Y-8420000D01*
X20020000Y-8380000D02*
X19980000Y-8420000D01*
X20180000Y-13180000D02*
X20220000Y-13220000D01*
X20220000Y-13180000D02*
X20180000Y-13220000D01*
X20180000Y-13480000D02*
X20220000Y-13520000D01*
X20220000Y-13480000D02*
X20180000Y-13520000D01*
X20180000Y-13780000D02*
X20220000Y-13820000D01*
X20220000Y-13780000D02*
X20180000Y-13820000D01*
X20180000Y-14080000D02*
X20220000Y-14120000D01*
X20220000Y-14080000D02*
X20180000Y-14120000D01*
X20280000Y-5780000D02*
X20320000Y-5820000D01*
X20320000Y-5780000D02*
X20280000Y-5820000D01*
X20280000Y-6080000D02*
X20320000Y-6120000D01*
X20320000Y-6080000D02*
X20280000Y-6120000D01*
X20280000Y-6380000D02*
X20320000Y-6420000D01*
X20320000Y-6380000D02*
X20280000Y-6420000D01*
X20280000Y-6680000D02*
X20320000Y-6720000D01*
X20320000Y-6680000D02*
X20280000Y-6720000D01*
X20280000Y-6980000D02*
X20320000Y-7020000D01*
X20320000Y-6980000D02*
X20280000Y-7020000D01*
X20280000Y-7780000D02*
X20320000Y-7820000D01*
X20320000Y-7780000D02*
X20280000Y-7820000D01*
X20280000Y-8080000D02*
X20320000Y-8120000D01*
X20320000Y-8080000D02*
X20280000Y-8120000D01*
X20480000Y-13180000D02*
X20520000Y-13220000D01*
X20520000Y-13180000D02*
X20480000Y-13220000D01*
X20480000Y-13480000D02*
X20520000Y-13520000D01*
X20520000Y-13480000D02*
X20480000Y-13520000D01*
X20480000Y-13780000D02*
X20520000Y-13820000D01*
X20520000Y-13780000D02*
X20480000Y-13820000D01*
X20480000Y-14080000D02*
X20520000Y-14120000D01*
X20520000Y-14080000D02*
X20480000Y-14120000D01*
X20580000Y-6080000D02*
X20620000Y-6120000D01*
X20620000Y-6080000D02*
X20580000Y-6120000D01*
X20580000Y-6380000D02*
X20620000Y-6420000D01*
X20620000Y-6380000D02*
X20580000Y-6420000D01*
X20580000Y-6680000D02*
X20620000Y-6720000D01*
X20620000Y-6680000D02*
X20580000Y-6720000D01*
X20580000Y-6980000D02*
X20620000Y-7020000D01*
X20620000Y-6980000D02*
X20580000Y-7020000D01*
X20580000Y-7780000D02*
X20620000Y-7820000D01*
X20620000Y-7780000D02*
X20580000Y-7820000D01*
X20780000Y-13180000D02*
X20820000Y-13220000D01*
X20820000Y-13180000D02*
X20780000Y-13220000D01*
X20780000Y-13480000D02*
X20820000Y-13520000D01*
X20820000Y-13480000D02*
X20780000Y-13520000D01*
X20780000Y-13780000D02*
X20820000Y-13820000D01*
X20820000Y-13780000D02*
X20780000Y-13820000D01*
X20780000Y-14080000D02*
X20820000Y-14120000D01*
X20820000Y-14080000D02*
X20780000Y-14120000D01*
X20880000Y-6380000D02*
X20920000Y-6420000D01*
X20920000Y-6380000D02*
X20880000Y-6420000D01*
X20880000Y-6680000D02*
X20920000Y-6720000D01*
X20920000Y-6680000D02*
X20880000Y-6720000D01*
X20880000Y-7780000D02*
X20920000Y-7820000D01*
X20920000Y-7780000D02*
X20880000Y-7820000D01*
X20980000Y-5780000D02*
X21020000Y-5820000D01*
X21020000Y-5780000D02*
X20980000Y-5820000D01*
D13*
X5585000Y-4800000D02*
G75*
G03*
X5585000Y-4800000I-25000J0D01*
G01*
X5585000Y-14000000D02*
G75*
G03*
X5585000Y-14000000I-25000J0D01*
G01*
X5655294Y-4630294D02*
G75*
G03*
X5655294Y-4630294I-25000J0D01*
G01*
X5655294Y-4969706D02*
G75*
G03*
X5655294Y-4969706I-25000J0D01*
G01*
X5655294Y-13830294D02*
G75*
G03*
X5655294Y-13830294I-25000J0D01*
G01*
X5655294Y-14169706D02*
G75*
G03*
X5655294Y-14169706I-25000J0D01*
G01*
X5825000Y-4560000D02*
G75*
G03*
X5825000Y-4560000I-25000J0D01*
G01*
X5825000Y-5040000D02*
G75*
G03*
X5825000Y-5040000I-25000J0D01*
G01*
X5825000Y-13760000D02*
G75*
G03*
X5825000Y-13760000I-25000J0D01*
G01*
X5825000Y-14240000D02*
G75*
G03*
X5825000Y-14240000I-25000J0D01*
G01*
X5994706Y-4630294D02*
G75*
G03*
X5994706Y-4630294I-25000J0D01*
G01*
X5994706Y-4969706D02*
G75*
G03*
X5994706Y-4969706I-25000J0D01*
G01*
X5994706Y-13830294D02*
G75*
G03*
X5994706Y-13830294I-25000J0D01*
G01*
X5994706Y-14169706D02*
G75*
G03*
X5994706Y-14169706I-25000J0D01*
G01*
X6065000Y-4800000D02*
G75*
G03*
X6065000Y-4800000I-25000J0D01*
G01*
X6065000Y-14000000D02*
G75*
G03*
X6065000Y-14000000I-25000J0D01*
G01*
X20586580Y-11812550D02*
G75*
G03*
X20586580Y-11812550I-25000J0D01*
G01*
X21185000Y-4800000D02*
G75*
G03*
X21185000Y-4800000I-25000J0D01*
G01*
X21185000Y-14000000D02*
G75*
G03*
X21185000Y-14000000I-25000J0D01*
G01*
X21255294Y-4630294D02*
G75*
G03*
X21255294Y-4630294I-25000J0D01*
G01*
X21255294Y-4969706D02*
G75*
G03*
X21255294Y-4969706I-25000J0D01*
G01*
X21255294Y-13830294D02*
G75*
G03*
X21255294Y-13830294I-25000J0D01*
G01*
X21255294Y-14169706D02*
G75*
G03*
X21255294Y-14169706I-25000J0D01*
G01*
X21425000Y-4560000D02*
G75*
G03*
X21425000Y-4560000I-25000J0D01*
G01*
X21425000Y-5040000D02*
G75*
G03*
X21425000Y-5040000I-25000J0D01*
G01*
X21425000Y-13760000D02*
G75*
G03*
X21425000Y-13760000I-25000J0D01*
G01*
X21425000Y-14240000D02*
G75*
G03*
X21425000Y-14240000I-25000J0D01*
G01*
X21594706Y-4630294D02*
G75*
G03*
X21594706Y-4630294I-25000J0D01*
G01*
X21594706Y-4969706D02*
G75*
G03*
X21594706Y-4969706I-25000J0D01*
G01*
X21594706Y-13830294D02*
G75*
G03*
X21594706Y-13830294I-25000J0D01*
G01*
X21594706Y-14169706D02*
G75*
G03*
X21594706Y-14169706I-25000J0D01*
G01*
X21665000Y-4800000D02*
G75*
G03*
X21665000Y-4800000I-25000J0D01*
G01*
X21665000Y-14000000D02*
G75*
G03*
X21665000Y-14000000I-25000J0D01*
G01*
D14*
X15021700Y-9341659D02*
X15021700Y-9401659D01*
X14991700Y-9371659D02*
X15051700Y-9371659D01*
X15275700Y-9341659D02*
X15275700Y-9401659D01*
X15245700Y-9371659D02*
X15305700Y-9371659D01*
X15529700Y-9341659D02*
X15529700Y-9401659D01*
X15499700Y-9371659D02*
X15559700Y-9371659D01*
X15783700Y-10103659D02*
X15783700Y-10163659D01*
X15753700Y-10133659D02*
X15813700Y-10133659D01*
X16037700Y-10103659D02*
X16037700Y-10163659D01*
X16007700Y-10133659D02*
X16067700Y-10133659D01*
X16291700Y-10103659D02*
X16291700Y-10163659D01*
X16261700Y-10133659D02*
X16321700Y-10133659D01*
X17208500Y-5321400D02*
X17208500Y-5381400D01*
X17178500Y-5351400D02*
X17238500Y-5351400D01*
X17462500Y-5321400D02*
X17462500Y-5381400D01*
X17432500Y-5351400D02*
X17492500Y-5351400D01*
X17716500Y-5321400D02*
X17716500Y-5381400D01*
X17686500Y-5351400D02*
X17746500Y-5351400D01*
X17970500Y-6083400D02*
X17970500Y-6143400D01*
X17940500Y-6113400D02*
X18000500Y-6113400D01*
X18224500Y-6083400D02*
X18224500Y-6143400D01*
X18194500Y-6113400D02*
X18254500Y-6113400D01*
X18478500Y-6083400D02*
X18478500Y-6143400D01*
X18448500Y-6113400D02*
X18508500Y-6113400D01*
X19977380Y-11045950D02*
X19977380Y-11105950D01*
X19947380Y-11075950D02*
X20007380Y-11075950D01*
X19977380Y-11325350D02*
X19977380Y-11385350D01*
X19947380Y-11355350D02*
X20007380Y-11355350D01*
D15*
X20653085Y-10099385D02*
X20653085Y-10042816D01*
X20596516Y-10042816D01*
X20596516Y-10099385D01*
X20653085Y-10099385D01*
X20653085Y-10353385D02*
X20653085Y-10296816D01*
X20596516Y-10296816D01*
X20596516Y-10353385D01*
X20653085Y-10353385D01*
D10*
X6137500Y-6057000D02*
X6187500Y-6007000D01*
X6137500Y-5957000D01*
X6087500Y-6007000D01*
X6137500Y-6057000D01*
X6137500Y-6311000D02*
X6187500Y-6261000D01*
X6137500Y-6211000D01*
X6087500Y-6261000D01*
X6137500Y-6311000D01*
X6137500Y-6565000D02*
X6187500Y-6515000D01*
X6137500Y-6465000D01*
X6087500Y-6515000D01*
X6137500Y-6565000D01*
X6137500Y-6819000D02*
X6187500Y-6769000D01*
X6137500Y-6719000D01*
X6087500Y-6769000D01*
X6137500Y-6819000D01*
X6137500Y-7073000D02*
X6187500Y-7023000D01*
X6137500Y-6973000D01*
X6087500Y-7023000D01*
X6137500Y-7073000D01*
X6137500Y-7327000D02*
X6187500Y-7277000D01*
X6137500Y-7227000D01*
X6087500Y-7277000D01*
X6137500Y-7327000D01*
X6137500Y-7581000D02*
X6187500Y-7531000D01*
X6137500Y-7481000D01*
X6087500Y-7531000D01*
X6137500Y-7581000D01*
X6137500Y-7835000D02*
X6187500Y-7785000D01*
X6137500Y-7735000D01*
X6087500Y-7785000D01*
X6137500Y-7835000D01*
X6137500Y-8089000D02*
X6187500Y-8039000D01*
X6137500Y-7989000D01*
X6087500Y-8039000D01*
X6137500Y-8089000D01*
X6137500Y-8343000D02*
X6187500Y-8293000D01*
X6137500Y-8243000D01*
X6087500Y-8293000D01*
X6137500Y-8343000D01*
X6137500Y-8597000D02*
X6187500Y-8547000D01*
X6137500Y-8497000D01*
X6087500Y-8547000D01*
X6137500Y-8597000D01*
X6137500Y-8851000D02*
X6187500Y-8801000D01*
X6137500Y-8751000D01*
X6087500Y-8801000D01*
X6137500Y-8851000D01*
X6137500Y-9105000D02*
X6187500Y-9055000D01*
X6137500Y-9005000D01*
X6087500Y-9055000D01*
X6137500Y-9105000D01*
X6137500Y-9359000D02*
X6187500Y-9309000D01*
X6137500Y-9259000D01*
X6087500Y-9309000D01*
X6137500Y-9359000D01*
X6137500Y-9613000D02*
X6187500Y-9563000D01*
X6137500Y-9513000D01*
X6087500Y-9563000D01*
X6137500Y-9613000D01*
X6137500Y-9867000D02*
X6187500Y-9817000D01*
X6137500Y-9767000D01*
X6087500Y-9817000D01*
X6137500Y-9867000D01*
X6137500Y-10121000D02*
X6187500Y-10071000D01*
X6137500Y-10021000D01*
X6087500Y-10071000D01*
X6137500Y-10121000D01*
X6137500Y-10375000D02*
X6187500Y-10325000D01*
X6137500Y-10275000D01*
X6087500Y-10325000D01*
X6137500Y-10375000D01*
X6137500Y-10629000D02*
X6187500Y-10579000D01*
X6137500Y-10529000D01*
X6087500Y-10579000D01*
X6137500Y-10629000D01*
X6137500Y-10883000D02*
X6187500Y-10833000D01*
X6137500Y-10783000D01*
X6087500Y-10833000D01*
X6137500Y-10883000D01*
X6137500Y-11137000D02*
X6187500Y-11087000D01*
X6137500Y-11037000D01*
X6087500Y-11087000D01*
X6137500Y-11137000D01*
X6137500Y-11391000D02*
X6187500Y-11341000D01*
X6137500Y-11291000D01*
X6087500Y-11341000D01*
X6137500Y-11391000D01*
X6800000Y-12572200D02*
X6850000Y-12522200D01*
X6800000Y-12472200D01*
X6750000Y-12522200D01*
X6800000Y-12572200D01*
X6800000Y-14022200D02*
X6850000Y-13972200D01*
X6800000Y-13922200D01*
X6750000Y-13972200D01*
X6800000Y-14022200D01*
X7050000Y-12572200D02*
X7100000Y-12522200D01*
X7050000Y-12472200D01*
X7000000Y-12522200D01*
X7050000Y-12572200D01*
X7300000Y-12572200D02*
X7350000Y-12522200D01*
X7300000Y-12472200D01*
X7250000Y-12522200D01*
X7300000Y-12572200D01*
X7300000Y-14022200D02*
X7350000Y-13972200D01*
X7300000Y-13922200D01*
X7250000Y-13972200D01*
X7300000Y-14022200D01*
X8637500Y-6057000D02*
X8687500Y-6007000D01*
X8637500Y-5957000D01*
X8587500Y-6007000D01*
X8637500Y-6057000D01*
X8637500Y-6311000D02*
X8687500Y-6261000D01*
X8637500Y-6211000D01*
X8587500Y-6261000D01*
X8637500Y-6311000D01*
X8637500Y-6565000D02*
X8687500Y-6515000D01*
X8637500Y-6465000D01*
X8587500Y-6515000D01*
X8637500Y-6565000D01*
X8637500Y-6819000D02*
X8687500Y-6769000D01*
X8637500Y-6719000D01*
X8587500Y-6769000D01*
X8637500Y-6819000D01*
X8637500Y-7073000D02*
X8687500Y-7023000D01*
X8637500Y-6973000D01*
X8587500Y-7023000D01*
X8637500Y-7073000D01*
X8637500Y-7327000D02*
X8687500Y-7277000D01*
X8637500Y-7227000D01*
X8587500Y-7277000D01*
X8637500Y-7327000D01*
X8637500Y-7581000D02*
X8687500Y-7531000D01*
X8637500Y-7481000D01*
X8587500Y-7531000D01*
X8637500Y-7581000D01*
X8637500Y-7835000D02*
X8687500Y-7785000D01*
X8637500Y-7735000D01*
X8587500Y-7785000D01*
X8637500Y-7835000D01*
X8637500Y-8089000D02*
X8687500Y-8039000D01*
X8637500Y-7989000D01*
X8587500Y-8039000D01*
X8637500Y-8089000D01*
X8637500Y-8343000D02*
X8687500Y-8293000D01*
X8637500Y-8243000D01*
X8587500Y-8293000D01*
X8637500Y-8343000D01*
X8637500Y-8597000D02*
X8687500Y-8547000D01*
X8637500Y-8497000D01*
X8587500Y-8547000D01*
X8637500Y-8597000D01*
X8637500Y-8851000D02*
X8687500Y-8801000D01*
X8637500Y-8751000D01*
X8587500Y-8801000D01*
X8637500Y-8851000D01*
X8637500Y-9105000D02*
X8687500Y-9055000D01*
X8637500Y-9005000D01*
X8587500Y-9055000D01*
X8637500Y-9105000D01*
X8637500Y-9359000D02*
X8687500Y-9309000D01*
X8637500Y-9259000D01*
X8587500Y-9309000D01*
X8637500Y-9359000D01*
X8637500Y-9613000D02*
X8687500Y-9563000D01*
X8637500Y-9513000D01*
X8587500Y-9563000D01*
X8637500Y-9613000D01*
X8637500Y-9867000D02*
X8687500Y-9817000D01*
X8637500Y-9767000D01*
X8587500Y-9817000D01*
X8637500Y-9867000D01*
X8637500Y-10121000D02*
X8687500Y-10071000D01*
X8637500Y-10021000D01*
X8587500Y-10071000D01*
X8637500Y-10121000D01*
X8637500Y-10375000D02*
X8687500Y-10325000D01*
X8637500Y-10275000D01*
X8587500Y-10325000D01*
X8637500Y-10375000D01*
X8637500Y-10629000D02*
X8687500Y-10579000D01*
X8637500Y-10529000D01*
X8587500Y-10579000D01*
X8637500Y-10629000D01*
X8637500Y-10883000D02*
X8687500Y-10833000D01*
X8637500Y-10783000D01*
X8587500Y-10833000D01*
X8637500Y-10883000D01*
X8637500Y-11137000D02*
X8687500Y-11087000D01*
X8637500Y-11037000D01*
X8587500Y-11087000D01*
X8637500Y-11137000D01*
X8637500Y-11391000D02*
X8687500Y-11341000D01*
X8637500Y-11291000D01*
X8587500Y-11341000D01*
X8637500Y-11391000D01*
X8900000Y-12572200D02*
X8950000Y-12522200D01*
X8900000Y-12472200D01*
X8850000Y-12522200D01*
X8900000Y-12572200D01*
X8900000Y-14022200D02*
X8950000Y-13972200D01*
X8900000Y-13922200D01*
X8850000Y-13972200D01*
X8900000Y-14022200D01*
X9150000Y-6288000D02*
X9200000Y-6238000D01*
X9150000Y-6188000D01*
X9100000Y-6238000D01*
X9150000Y-6288000D01*
X9150000Y-6542000D02*
X9200000Y-6492000D01*
X9150000Y-6442000D01*
X9100000Y-6492000D01*
X9150000Y-6542000D01*
X9150000Y-6796000D02*
X9200000Y-6746000D01*
X9150000Y-6696000D01*
X9100000Y-6746000D01*
X9150000Y-6796000D01*
X9150000Y-7050000D02*
X9200000Y-7000000D01*
X9150000Y-6950000D01*
X9100000Y-7000000D01*
X9150000Y-7050000D01*
X9150000Y-7304000D02*
X9200000Y-7254000D01*
X9150000Y-7204000D01*
X9100000Y-7254000D01*
X9150000Y-7304000D01*
X9150000Y-7558000D02*
X9200000Y-7508000D01*
X9150000Y-7458000D01*
X9100000Y-7508000D01*
X9150000Y-7558000D01*
X9150000Y-7812000D02*
X9200000Y-7762000D01*
X9150000Y-7712000D01*
X9100000Y-7762000D01*
X9150000Y-7812000D01*
X9150000Y-8066000D02*
X9200000Y-8016000D01*
X9150000Y-7966000D01*
X9100000Y-8016000D01*
X9150000Y-8066000D01*
X9150000Y-8320000D02*
X9200000Y-8270000D01*
X9150000Y-8220000D01*
X9100000Y-8270000D01*
X9150000Y-8320000D01*
X9150000Y-8574000D02*
X9200000Y-8524000D01*
X9150000Y-8474000D01*
X9100000Y-8524000D01*
X9150000Y-8574000D01*
X9150000Y-12572200D02*
X9200000Y-12522200D01*
X9150000Y-12472200D01*
X9100000Y-12522200D01*
X9150000Y-12572200D01*
X9400000Y-12572200D02*
X9450000Y-12522200D01*
X9400000Y-12472200D01*
X9350000Y-12522200D01*
X9400000Y-12572200D01*
X9400000Y-14022200D02*
X9450000Y-13972200D01*
X9400000Y-13922200D01*
X9350000Y-13972200D01*
X9400000Y-14022200D01*
X11225000Y-6288000D02*
X11275000Y-6238000D01*
X11225000Y-6188000D01*
X11175000Y-6238000D01*
X11225000Y-6288000D01*
X11225000Y-6542000D02*
X11275000Y-6492000D01*
X11225000Y-6442000D01*
X11175000Y-6492000D01*
X11225000Y-6542000D01*
X11225000Y-6796000D02*
X11275000Y-6746000D01*
X11225000Y-6696000D01*
X11175000Y-6746000D01*
X11225000Y-6796000D01*
X11225000Y-7050000D02*
X11275000Y-7000000D01*
X11225000Y-6950000D01*
X11175000Y-7000000D01*
X11225000Y-7050000D01*
X11225000Y-7304000D02*
X11275000Y-7254000D01*
X11225000Y-7204000D01*
X11175000Y-7254000D01*
X11225000Y-7304000D01*
X11225000Y-7558000D02*
X11275000Y-7508000D01*
X11225000Y-7458000D01*
X11175000Y-7508000D01*
X11225000Y-7558000D01*
X11225000Y-7812000D02*
X11275000Y-7762000D01*
X11225000Y-7712000D01*
X11175000Y-7762000D01*
X11225000Y-7812000D01*
X11225000Y-8066000D02*
X11275000Y-8016000D01*
X11225000Y-7966000D01*
X11175000Y-8016000D01*
X11225000Y-8066000D01*
X11225000Y-8320000D02*
X11275000Y-8270000D01*
X11225000Y-8220000D01*
X11175000Y-8270000D01*
X11225000Y-8320000D01*
X11225000Y-8574000D02*
X11275000Y-8524000D01*
X11225000Y-8474000D01*
X11175000Y-8524000D01*
X11225000Y-8574000D01*
X13296900Y-14210500D02*
X13346900Y-14160500D01*
X13296900Y-14110500D01*
X13246900Y-14160500D01*
X13296900Y-14210500D01*
X13550900Y-14210500D02*
X13600900Y-14160500D01*
X13550900Y-14110500D01*
X13500900Y-14160500D01*
X13550900Y-14210500D01*
X13804900Y-14210500D02*
X13854900Y-14160500D01*
X13804900Y-14110500D01*
X13754900Y-14160500D01*
X13804900Y-14210500D01*
X14058900Y-14210500D02*
X14108900Y-14160500D01*
X14058900Y-14110500D01*
X14008900Y-14160500D01*
X14058900Y-14210500D01*
X14312900Y-14210500D02*
X14362900Y-14160500D01*
X14312900Y-14110500D01*
X14262900Y-14160500D01*
X14312900Y-14210500D01*
X14566900Y-14210500D02*
X14616900Y-14160500D01*
X14566900Y-14110500D01*
X14516900Y-14160500D01*
X14566900Y-14210500D01*
X14719300Y-5015700D02*
X14769300Y-4965700D01*
X14719300Y-4915700D01*
X14669300Y-4965700D01*
X14719300Y-5015700D01*
X14820900Y-14210500D02*
X14870900Y-14160500D01*
X14820900Y-14110500D01*
X14770900Y-14160500D01*
X14820900Y-14210500D01*
X14973300Y-5015700D02*
X15023300Y-4965700D01*
X14973300Y-4915700D01*
X14923300Y-4965700D01*
X14973300Y-5015700D01*
X15227300Y-5015700D02*
X15277300Y-4965700D01*
X15227300Y-4915700D01*
X15177300Y-4965700D01*
X15227300Y-5015700D01*
X15481300Y-5015700D02*
X15531300Y-4965700D01*
X15481300Y-4915700D01*
X15431300Y-4965700D01*
X15481300Y-5015700D01*
X16969030Y-9512500D02*
X17019030Y-9462500D01*
X16969030Y-9412500D01*
X16919030Y-9462500D01*
X16969030Y-9512500D01*
X16969030Y-13112500D02*
X17019030Y-13062500D01*
X16969030Y-13012500D01*
X16919030Y-13062500D01*
X16969030Y-13112500D01*
X17223030Y-9512500D02*
X17273030Y-9462500D01*
X17223030Y-9412500D01*
X17173030Y-9462500D01*
X17223030Y-9512500D01*
X17223030Y-13112500D02*
X17273030Y-13062500D01*
X17223030Y-13012500D01*
X17173030Y-13062500D01*
X17223030Y-13112500D01*
X17462780Y-11989550D02*
X17512780Y-11939550D01*
X17462780Y-11889550D01*
X17412780Y-11939550D01*
X17462780Y-11989550D01*
X17462780Y-12497550D02*
X17512780Y-12447550D01*
X17462780Y-12397550D01*
X17412780Y-12447550D01*
X17462780Y-12497550D01*
X17477030Y-9512500D02*
X17527030Y-9462500D01*
X17477030Y-9412500D01*
X17427030Y-9462500D01*
X17477030Y-9512500D01*
X17477030Y-10071300D02*
X17527030Y-10021300D01*
X17477030Y-9971300D01*
X17427030Y-10021300D01*
X17477030Y-10071300D01*
X17477030Y-10579300D02*
X17527030Y-10529300D01*
X17477030Y-10479300D01*
X17427030Y-10529300D01*
X17477030Y-10579300D01*
X17477030Y-13112500D02*
X17527030Y-13062500D01*
X17477030Y-13012500D01*
X17427030Y-13062500D01*
X17477030Y-13112500D01*
X17970780Y-11989550D02*
X18020780Y-11939550D01*
X17970780Y-11889550D01*
X17920780Y-11939550D01*
X17970780Y-11989550D01*
X17970780Y-12497550D02*
X18020780Y-12447550D01*
X17970780Y-12397550D01*
X17920780Y-12447550D01*
X17970780Y-12497550D01*
X17985030Y-10071300D02*
X18035030Y-10021300D01*
X17985030Y-9971300D01*
X17935030Y-10021300D01*
X17985030Y-10071300D01*
X17985030Y-10579300D02*
X18035030Y-10529300D01*
X17985030Y-10479300D01*
X17935030Y-10529300D01*
X17985030Y-10579300D01*
X18224780Y-11989550D02*
X18274780Y-11939550D01*
X18224780Y-11889550D01*
X18174780Y-11939550D01*
X18224780Y-11989550D01*
X18224780Y-12497550D02*
X18274780Y-12447550D01*
X18224780Y-12397550D01*
X18174780Y-12447550D01*
X18224780Y-12497550D01*
X18239030Y-10071300D02*
X18289030Y-10021300D01*
X18239030Y-9971300D01*
X18189030Y-10021300D01*
X18239030Y-10071300D01*
X18239030Y-10579300D02*
X18289030Y-10529300D01*
X18239030Y-10479300D01*
X18189030Y-10529300D01*
X18239030Y-10579300D01*
X18478780Y-11989550D02*
X18528780Y-11939550D01*
X18478780Y-11889550D01*
X18428780Y-11939550D01*
X18478780Y-11989550D01*
X18478780Y-12497550D02*
X18528780Y-12447550D01*
X18478780Y-12397550D01*
X18428780Y-12447550D01*
X18478780Y-12497550D01*
X18493030Y-10071300D02*
X18543030Y-10021300D01*
X18493030Y-9971300D01*
X18443030Y-10021300D01*
X18493030Y-10071300D01*
X18493030Y-10579300D02*
X18543030Y-10529300D01*
X18493030Y-10479300D01*
X18443030Y-10529300D01*
X18493030Y-10579300D01*
X18899430Y-9512500D02*
X18949430Y-9462500D01*
X18899430Y-9412500D01*
X18849430Y-9462500D01*
X18899430Y-9512500D01*
X18899430Y-13112500D02*
X18949430Y-13062500D01*
X18899430Y-13012500D01*
X18849430Y-13062500D01*
X18899430Y-13112500D01*
X19153430Y-9512500D02*
X19203430Y-9462500D01*
X19153430Y-9412500D01*
X19103430Y-9462500D01*
X19153430Y-9512500D01*
X19153430Y-13112500D02*
X19203430Y-13062500D01*
X19153430Y-13012500D01*
X19103430Y-13062500D01*
X19153430Y-13112500D01*
X19407430Y-9512500D02*
X19457430Y-9462500D01*
X19407430Y-9412500D01*
X19357430Y-9462500D01*
X19407430Y-9512500D01*
X19407430Y-13112500D02*
X19457430Y-13062500D01*
X19407430Y-13012500D01*
X19357430Y-13062500D01*
X19407430Y-13112500D01*
X21400000Y-5593460D02*
X21450000Y-5543460D01*
X21400000Y-5493460D01*
X21350000Y-5543460D01*
X21400000Y-5593460D01*
X21400000Y-5847460D02*
X21450000Y-5797460D01*
X21400000Y-5747460D01*
X21350000Y-5797460D01*
X21400000Y-5847460D01*
X21400000Y-6101460D02*
X21450000Y-6051460D01*
X21400000Y-6001460D01*
X21350000Y-6051460D01*
X21400000Y-6101460D01*
X21400000Y-6355460D02*
X21450000Y-6305460D01*
X21400000Y-6255460D01*
X21350000Y-6305460D01*
X21400000Y-6355460D01*
X21400000Y-6609460D02*
X21450000Y-6559460D01*
X21400000Y-6509460D01*
X21350000Y-6559460D01*
X21400000Y-6609460D01*
X21400000Y-6863460D02*
X21450000Y-6813460D01*
X21400000Y-6763460D01*
X21350000Y-6813460D01*
X21400000Y-6863460D01*
X21400000Y-7117460D02*
X21450000Y-7067460D01*
X21400000Y-7017460D01*
X21350000Y-7067460D01*
X21400000Y-7117460D01*
D16*
X9103460Y-5185000D02*
X9233460Y-5315000D01*
X9233460Y-5185000D02*
X9103460Y-5315000D01*
X9233460Y-5250000D02*
G75*
G03*
X9233460Y-5250000I-65000J0D01*
G01*
X9363460Y-5185000D02*
X9493460Y-5315000D01*
X9493460Y-5185000D02*
X9363460Y-5315000D01*
X9493460Y-5250000D02*
G75*
G03*
X9493460Y-5250000I-65000J0D01*
G01*
X9613460Y-4685000D02*
X9743460Y-4815000D01*
X9743460Y-4685000D02*
X9613460Y-4815000D01*
X9743460Y-4750000D02*
G75*
G03*
X9743460Y-4750000I-65000J0D01*
G01*
X9863460Y-5185000D02*
X9993460Y-5315000D01*
X9993460Y-5185000D02*
X9863460Y-5315000D01*
X9993460Y-5250000D02*
G75*
G03*
X9993460Y-5250000I-65000J0D01*
G01*
X10123460Y-5185000D02*
X10253460Y-5315000D01*
X10253460Y-5185000D02*
X10123460Y-5315000D01*
X10253460Y-5250000D02*
G75*
G03*
X10253460Y-5250000I-65000J0D01*
G01*
X20770340Y-7996040D02*
X20900340Y-8126040D01*
X20900340Y-7996040D02*
X20770340Y-8126040D01*
X20900340Y-8061040D02*
G75*
G03*
X20900340Y-8061040I-65000J0D01*
G01*
X20770340Y-8256040D02*
X20900340Y-8386040D01*
X20900340Y-8256040D02*
X20770340Y-8386040D01*
X20900340Y-8321040D02*
G75*
G03*
X20900340Y-8321040I-65000J0D01*
G01*
X20770340Y-8756040D02*
X20900340Y-8886040D01*
X20900340Y-8756040D02*
X20770340Y-8886040D01*
X20900340Y-8821040D02*
G75*
G03*
X20900340Y-8821040I-65000J0D01*
G01*
X20770340Y-9016040D02*
X20900340Y-9146040D01*
X20900340Y-9016040D02*
X20770340Y-9146040D01*
X20900340Y-9081040D02*
G75*
G03*
X20900340Y-9081040I-65000J0D01*
G01*
X21270340Y-8506040D02*
X21400340Y-8636040D01*
X21400340Y-8506040D02*
X21270340Y-8636040D01*
X21400340Y-8571040D02*
G75*
G03*
X21400340Y-8571040I-65000J0D01*
G01*
D17*
X6415000Y-13197200D02*
X6565000Y-13347200D01*
X6565000Y-13197200D02*
X6415000Y-13347200D01*
X6490000Y-13197200D02*
X6490000Y-13347200D01*
X6415000Y-13272200D02*
X6565000Y-13272200D01*
D11*
X6415000Y-13207200D02*
X6415000Y-13337200D01*
X6565000Y-13207200D02*
X6565000Y-13337200D01*
X6415000Y-13337200D02*
G75*
G03*
X6565000Y-13337200I75000J0D01*
G01*
X6565000Y-13207200D02*
G75*
G03*
X6415000Y-13207200I-75000J0D01*
G01*
D17*
X7535000Y-13197200D02*
X7685000Y-13347200D01*
X7685000Y-13197200D02*
X7535000Y-13347200D01*
X7610000Y-13197200D02*
X7610000Y-13347200D01*
X7535000Y-13272200D02*
X7685000Y-13272200D01*
D11*
X7535000Y-13207200D02*
X7535000Y-13337200D01*
X7685000Y-13207200D02*
X7685000Y-13337200D01*
X7535000Y-13337200D02*
G75*
G03*
X7685000Y-13337200I75000J0D01*
G01*
X7685000Y-13207200D02*
G75*
G03*
X7535000Y-13207200I-75000J0D01*
G01*
D17*
X8515000Y-13197200D02*
X8665000Y-13347200D01*
X8665000Y-13197200D02*
X8515000Y-13347200D01*
X8590000Y-13197200D02*
X8590000Y-13347200D01*
X8515000Y-13272200D02*
X8665000Y-13272200D01*
D11*
X8515000Y-13207200D02*
X8515000Y-13337200D01*
X8665000Y-13207200D02*
X8665000Y-13337200D01*
X8515000Y-13337200D02*
G75*
G03*
X8665000Y-13337200I75000J0D01*
G01*
X8665000Y-13207200D02*
G75*
G03*
X8515000Y-13207200I-75000J0D01*
G01*
D17*
X9635000Y-13197200D02*
X9785000Y-13347200D01*
X9785000Y-13197200D02*
X9635000Y-13347200D01*
X9710000Y-13197200D02*
X9710000Y-13347200D01*
X9635000Y-13272200D02*
X9785000Y-13272200D01*
D11*
X9635000Y-13207200D02*
X9635000Y-13337200D01*
X9785000Y-13207200D02*
X9785000Y-13337200D01*
X9635000Y-13337200D02*
G75*
G03*
X9785000Y-13337200I75000J0D01*
G01*
X9785000Y-13207200D02*
G75*
G03*
X9635000Y-13207200I-75000J0D01*
G01*
D18*
X21022800Y-9707100D02*
X21242800Y-9927100D01*
X21242800Y-9707100D02*
X21022800Y-9927100D01*
X21210583Y-9894883D02*
X21210583Y-9739318D01*
X21055018Y-9739318D01*
X21055018Y-9894883D01*
X21210583Y-9894883D01*
X21022800Y-10723100D02*
X21242800Y-10943100D01*
X21242800Y-10723100D02*
X21022800Y-10943100D01*
X21210583Y-10910883D02*
X21210583Y-10755318D01*
X21055018Y-10755318D01*
X21055018Y-10910883D01*
X21210583Y-10910883D01*
D19*
X11546300Y-12816300D02*
X11796300Y-13066300D01*
X11796300Y-12816300D02*
X11546300Y-13066300D01*
X11671300Y-13066300D02*
X11796300Y-12941300D01*
X11671300Y-12816300D01*
X11546300Y-12941300D01*
X11671300Y-13066300D01*
X11546300Y-13416300D02*
X11796300Y-13666300D01*
X11796300Y-13416300D02*
X11546300Y-13666300D01*
X11671300Y-13666300D02*
X11796300Y-13541300D01*
X11671300Y-13416300D01*
X11546300Y-13541300D01*
X11671300Y-13666300D01*
X12016300Y-13116300D02*
X12266300Y-13366300D01*
X12266300Y-13116300D02*
X12016300Y-13366300D01*
X12141300Y-13366300D02*
X12266300Y-13241300D01*
X12141300Y-13116300D01*
X12016300Y-13241300D01*
X12141300Y-13366300D01*
D20*
X5800000Y-4640000D02*
X5800000Y-4960000D01*
X5640000Y-4800000D02*
X5960000Y-4800000D01*
X5960000Y-4800000D02*
G75*
G03*
X5960000Y-4800000I-160000J0D01*
G01*
X5800000Y-13840000D02*
X5800000Y-14160000D01*
X5640000Y-14000000D02*
X5960000Y-14000000D01*
X5960000Y-14000000D02*
G75*
G03*
X5960000Y-14000000I-160000J0D01*
G01*
X21400000Y-4640000D02*
X21400000Y-4960000D01*
X21240000Y-4800000D02*
X21560000Y-4800000D01*
X21560000Y-4800000D02*
G75*
G03*
X21560000Y-4800000I-160000J0D01*
G01*
X21400000Y-13840000D02*
X21400000Y-14160000D01*
X21240000Y-14000000D02*
X21560000Y-14000000D01*
X21560000Y-14000000D02*
G75*
G03*
X21560000Y-14000000I-160000J0D01*
G01*
D11*
X5652619Y-14715476D02*
X5652619Y-14515476D01*
X5700238Y-14515476D01*
X5728809Y-14525000D01*
X5747857Y-14544048D01*
X5757381Y-14563095D01*
X5766905Y-14601190D01*
X5766905Y-14629762D01*
X5757381Y-14667857D01*
X5747857Y-14686905D01*
X5728809Y-14705952D01*
X5700238Y-14715476D01*
X5652619Y-14715476D01*
X5852619Y-14715476D02*
X5852619Y-14582143D01*
X5852619Y-14620238D02*
X5862143Y-14601190D01*
X5871667Y-14591667D01*
X5890714Y-14582143D01*
X5909762Y-14582143D01*
X5976428Y-14715476D02*
X5976428Y-14582143D01*
X5976428Y-14515476D02*
X5966905Y-14525000D01*
X5976428Y-14534524D01*
X5985952Y-14525000D01*
X5976428Y-14515476D01*
X5976428Y-14534524D01*
X6100238Y-14715476D02*
X6081190Y-14705952D01*
X6071667Y-14686905D01*
X6071667Y-14515476D01*
X6205000Y-14715476D02*
X6185952Y-14705952D01*
X6176428Y-14686905D01*
X6176428Y-14515476D01*
X6433571Y-14715476D02*
X6433571Y-14515476D01*
X6500238Y-14658333D01*
X6566905Y-14515476D01*
X6566905Y-14715476D01*
X6747857Y-14715476D02*
X6747857Y-14610714D01*
X6738333Y-14591667D01*
X6719286Y-14582143D01*
X6681190Y-14582143D01*
X6662143Y-14591667D01*
X6747857Y-14705952D02*
X6728809Y-14715476D01*
X6681190Y-14715476D01*
X6662143Y-14705952D01*
X6652619Y-14686905D01*
X6652619Y-14667857D01*
X6662143Y-14648809D01*
X6681190Y-14639286D01*
X6728809Y-14639286D01*
X6747857Y-14629762D01*
X6843095Y-14582143D02*
X6843095Y-14782143D01*
X6843095Y-14591667D02*
X6862143Y-14582143D01*
X6900238Y-14582143D01*
X6919286Y-14591667D01*
X6928809Y-14601190D01*
X6938333Y-14620238D01*
X6938333Y-14677381D01*
X6928809Y-14696428D01*
X6919286Y-14705952D01*
X6900238Y-14715476D01*
X6862143Y-14715476D01*
X6843095Y-14705952D01*
X7024048Y-14696428D02*
X7033571Y-14705952D01*
X7024048Y-14715476D01*
X7014524Y-14705952D01*
X7024048Y-14696428D01*
X7024048Y-14715476D01*
X7024048Y-14591667D02*
X7033571Y-14601190D01*
X7024048Y-14610714D01*
X7014524Y-14601190D01*
X7024048Y-14591667D01*
X7024048Y-14610714D01*
D12*
X5355000Y-15025000D02*
X5395000Y-15065000D01*
X5395000Y-15025000D02*
X5355000Y-15065000D01*
D11*
X5690714Y-14935476D02*
X5709762Y-14935476D01*
X5728809Y-14945000D01*
X5738333Y-14954524D01*
X5747857Y-14973571D01*
X5757381Y-15011667D01*
X5757381Y-15059286D01*
X5747857Y-15097381D01*
X5738333Y-15116428D01*
X5728809Y-15125952D01*
X5709762Y-15135476D01*
X5690714Y-15135476D01*
X5671667Y-15125952D01*
X5662143Y-15116428D01*
X5652619Y-15097381D01*
X5643095Y-15059286D01*
X5643095Y-15011667D01*
X5652619Y-14973571D01*
X5662143Y-14954524D01*
X5671667Y-14945000D01*
X5690714Y-14935476D01*
X5843095Y-15116428D02*
X5852619Y-15125952D01*
X5843095Y-15135476D01*
X5833571Y-15125952D01*
X5843095Y-15116428D01*
X5843095Y-15135476D01*
X6024048Y-15002143D02*
X6024048Y-15135476D01*
X5976428Y-14925952D02*
X5928809Y-15068809D01*
X6052619Y-15068809D01*
X6166905Y-14935476D02*
X6185952Y-14935476D01*
X6205000Y-14945000D01*
X6214524Y-14954524D01*
X6224048Y-14973571D01*
X6233571Y-15011667D01*
X6233571Y-15059286D01*
X6224048Y-15097381D01*
X6214524Y-15116428D01*
X6205000Y-15125952D01*
X6185952Y-15135476D01*
X6166905Y-15135476D01*
X6147857Y-15125952D01*
X6138333Y-15116428D01*
X6128809Y-15097381D01*
X6119286Y-15059286D01*
X6119286Y-15011667D01*
X6128809Y-14973571D01*
X6138333Y-14954524D01*
X6147857Y-14945000D01*
X6166905Y-14935476D01*
X6357381Y-14935476D02*
X6376428Y-14935476D01*
X6395476Y-14945000D01*
X6405000Y-14954524D01*
X6414524Y-14973571D01*
X6424048Y-15011667D01*
X6424048Y-15059286D01*
X6414524Y-15097381D01*
X6405000Y-15116428D01*
X6395476Y-15125952D01*
X6376428Y-15135476D01*
X6357381Y-15135476D01*
X6338333Y-15125952D01*
X6328809Y-15116428D01*
X6319286Y-15097381D01*
X6309762Y-15059286D01*
X6309762Y-15011667D01*
X6319286Y-14973571D01*
X6328809Y-14954524D01*
X6338333Y-14945000D01*
X6357381Y-14935476D01*
X6509762Y-15135476D02*
X6509762Y-15002143D01*
X6509762Y-15021190D02*
X6519286Y-15011667D01*
X6538333Y-15002143D01*
X6566905Y-15002143D01*
X6585952Y-15011667D01*
X6595476Y-15030714D01*
X6595476Y-15135476D01*
X6595476Y-15030714D02*
X6605000Y-15011667D01*
X6624048Y-15002143D01*
X6652619Y-15002143D01*
X6671667Y-15011667D01*
X6681190Y-15030714D01*
X6681190Y-15135476D01*
X6776428Y-15135476D02*
X6776428Y-15002143D01*
X6776428Y-15021190D02*
X6785952Y-15011667D01*
X6805000Y-15002143D01*
X6833571Y-15002143D01*
X6852619Y-15011667D01*
X6862143Y-15030714D01*
X6862143Y-15135476D01*
X6862143Y-15030714D02*
X6871667Y-15011667D01*
X6890714Y-15002143D01*
X6919286Y-15002143D01*
X6938333Y-15011667D01*
X6947857Y-15030714D01*
X6947857Y-15135476D01*
X7338333Y-14925952D02*
X7166905Y-15183095D01*
X7595476Y-14935476D02*
X7614524Y-14935476D01*
X7633571Y-14945000D01*
X7643095Y-14954524D01*
X7652619Y-14973571D01*
X7662143Y-15011667D01*
X7662143Y-15059286D01*
X7652619Y-15097381D01*
X7643095Y-15116428D01*
X7633571Y-15125952D01*
X7614524Y-15135476D01*
X7595476Y-15135476D01*
X7576428Y-15125952D01*
X7566905Y-15116428D01*
X7557381Y-15097381D01*
X7547857Y-15059286D01*
X7547857Y-15011667D01*
X7557381Y-14973571D01*
X7566905Y-14954524D01*
X7576428Y-14945000D01*
X7595476Y-14935476D01*
X7747857Y-15116428D02*
X7757381Y-15125952D01*
X7747857Y-15135476D01*
X7738333Y-15125952D01*
X7747857Y-15116428D01*
X7747857Y-15135476D01*
X7881190Y-14935476D02*
X7900238Y-14935476D01*
X7919286Y-14945000D01*
X7928809Y-14954524D01*
X7938333Y-14973571D01*
X7947857Y-15011667D01*
X7947857Y-15059286D01*
X7938333Y-15097381D01*
X7928809Y-15116428D01*
X7919286Y-15125952D01*
X7900238Y-15135476D01*
X7881190Y-15135476D01*
X7862143Y-15125952D01*
X7852619Y-15116428D01*
X7843095Y-15097381D01*
X7833571Y-15059286D01*
X7833571Y-15011667D01*
X7843095Y-14973571D01*
X7852619Y-14954524D01*
X7862143Y-14945000D01*
X7881190Y-14935476D01*
X8138333Y-15135476D02*
X8024048Y-15135476D01*
X8081190Y-15135476D02*
X8081190Y-14935476D01*
X8062143Y-14964048D01*
X8043095Y-14983095D01*
X8024048Y-14992619D01*
X8319286Y-14935476D02*
X8224048Y-14935476D01*
X8214524Y-15030714D01*
X8224048Y-15021190D01*
X8243095Y-15011667D01*
X8290714Y-15011667D01*
X8309762Y-15021190D01*
X8319286Y-15030714D01*
X8328809Y-15049762D01*
X8328809Y-15097381D01*
X8319286Y-15116428D01*
X8309762Y-15125952D01*
X8290714Y-15135476D01*
X8243095Y-15135476D01*
X8224048Y-15125952D01*
X8214524Y-15116428D01*
X8395476Y-14935476D02*
X8528810Y-14935476D01*
X8443095Y-15135476D01*
X8595476Y-14935476D02*
X8595476Y-14973571D01*
X8671667Y-14935476D02*
X8671667Y-14973571D01*
X8966905Y-15211667D02*
X8957381Y-15202143D01*
X8938333Y-15173571D01*
X8928810Y-15154524D01*
X8919286Y-15125952D01*
X8909762Y-15078333D01*
X8909762Y-15040238D01*
X8919286Y-14992619D01*
X8928810Y-14964048D01*
X8938333Y-14945000D01*
X8957381Y-14916428D01*
X8966905Y-14906905D01*
X9024048Y-14935476D02*
X9147857Y-14935476D01*
X9081190Y-15011667D01*
X9109762Y-15011667D01*
X9128810Y-15021190D01*
X9138333Y-15030714D01*
X9147857Y-15049762D01*
X9147857Y-15097381D01*
X9138333Y-15116428D01*
X9128810Y-15125952D01*
X9109762Y-15135476D01*
X9052619Y-15135476D01*
X9033571Y-15125952D01*
X9024048Y-15116428D01*
X9319286Y-15002143D02*
X9319286Y-15135476D01*
X9271667Y-14925952D02*
X9224048Y-15068809D01*
X9347857Y-15068809D01*
X9452619Y-15021190D02*
X9433571Y-15011667D01*
X9424048Y-15002143D01*
X9414524Y-14983095D01*
X9414524Y-14973571D01*
X9424048Y-14954524D01*
X9433571Y-14945000D01*
X9452619Y-14935476D01*
X9490714Y-14935476D01*
X9509762Y-14945000D01*
X9519286Y-14954524D01*
X9528810Y-14973571D01*
X9528810Y-14983095D01*
X9519286Y-15002143D01*
X9509762Y-15011667D01*
X9490714Y-15021190D01*
X9452619Y-15021190D01*
X9433571Y-15030714D01*
X9424048Y-15040238D01*
X9414524Y-15059286D01*
X9414524Y-15097381D01*
X9424048Y-15116428D01*
X9433571Y-15125952D01*
X9452619Y-15135476D01*
X9490714Y-15135476D01*
X9509762Y-15125952D01*
X9519286Y-15116428D01*
X9528810Y-15097381D01*
X9528810Y-15059286D01*
X9519286Y-15040238D01*
X9509762Y-15030714D01*
X9490714Y-15021190D01*
X9766905Y-15135476D02*
X9766905Y-14935476D01*
X9852619Y-15135476D02*
X9852619Y-15030714D01*
X9843095Y-15011667D01*
X9824048Y-15002143D01*
X9795476Y-15002143D01*
X9776429Y-15011667D01*
X9766905Y-15021190D01*
X9976429Y-15135476D02*
X9957381Y-15125952D01*
X9947857Y-15116428D01*
X9938333Y-15097381D01*
X9938333Y-15040238D01*
X9947857Y-15021190D01*
X9957381Y-15011667D01*
X9976429Y-15002143D01*
X10005000Y-15002143D01*
X10024048Y-15011667D01*
X10033571Y-15021190D01*
X10043095Y-15040238D01*
X10043095Y-15097381D01*
X10033571Y-15116428D01*
X10024048Y-15125952D01*
X10005000Y-15135476D01*
X9976429Y-15135476D01*
X10157381Y-15135476D02*
X10138333Y-15125952D01*
X10128810Y-15106905D01*
X10128810Y-14935476D01*
X10309762Y-15125952D02*
X10290714Y-15135476D01*
X10252619Y-15135476D01*
X10233571Y-15125952D01*
X10224048Y-15106905D01*
X10224048Y-15030714D01*
X10233571Y-15011667D01*
X10252619Y-15002143D01*
X10290714Y-15002143D01*
X10309762Y-15011667D01*
X10319286Y-15030714D01*
X10319286Y-15049762D01*
X10224048Y-15068809D01*
X10395476Y-15125952D02*
X10414524Y-15135476D01*
X10452619Y-15135476D01*
X10471667Y-15125952D01*
X10481190Y-15106905D01*
X10481190Y-15097381D01*
X10471667Y-15078333D01*
X10452619Y-15068809D01*
X10424048Y-15068809D01*
X10405000Y-15059286D01*
X10395476Y-15040238D01*
X10395476Y-15030714D01*
X10405000Y-15011667D01*
X10424048Y-15002143D01*
X10452619Y-15002143D01*
X10471667Y-15011667D01*
X10547857Y-15211667D02*
X10557381Y-15202143D01*
X10576429Y-15173571D01*
X10585952Y-15154524D01*
X10595476Y-15125952D01*
X10605000Y-15078333D01*
X10605000Y-15040238D01*
X10595476Y-14992619D01*
X10585952Y-14964048D01*
X10576429Y-14945000D01*
X10557381Y-14916428D01*
X10547857Y-14906905D01*
D13*
X5395000Y-15309000D02*
G75*
G03*
X5395000Y-15309000I-25000J0D01*
G01*
D11*
X5690714Y-15199476D02*
X5709762Y-15199476D01*
X5728809Y-15209000D01*
X5738333Y-15218524D01*
X5747857Y-15237571D01*
X5757381Y-15275667D01*
X5757381Y-15323286D01*
X5747857Y-15361381D01*
X5738333Y-15380428D01*
X5728809Y-15389952D01*
X5709762Y-15399476D01*
X5690714Y-15399476D01*
X5671667Y-15389952D01*
X5662143Y-15380428D01*
X5652619Y-15361381D01*
X5643095Y-15323286D01*
X5643095Y-15275667D01*
X5652619Y-15237571D01*
X5662143Y-15218524D01*
X5671667Y-15209000D01*
X5690714Y-15199476D01*
X5843095Y-15380428D02*
X5852619Y-15389952D01*
X5843095Y-15399476D01*
X5833571Y-15389952D01*
X5843095Y-15380428D01*
X5843095Y-15399476D01*
X6033571Y-15199476D02*
X5938333Y-15199476D01*
X5928809Y-15294714D01*
X5938333Y-15285190D01*
X5957381Y-15275667D01*
X6005000Y-15275667D01*
X6024048Y-15285190D01*
X6033571Y-15294714D01*
X6043095Y-15313762D01*
X6043095Y-15361381D01*
X6033571Y-15380428D01*
X6024048Y-15389952D01*
X6005000Y-15399476D01*
X5957381Y-15399476D01*
X5938333Y-15389952D01*
X5928809Y-15380428D01*
X6166905Y-15199476D02*
X6185952Y-15199476D01*
X6205000Y-15209000D01*
X6214524Y-15218524D01*
X6224048Y-15237571D01*
X6233571Y-15275667D01*
X6233571Y-15323286D01*
X6224048Y-15361381D01*
X6214524Y-15380428D01*
X6205000Y-15389952D01*
X6185952Y-15399476D01*
X6166905Y-15399476D01*
X6147857Y-15389952D01*
X6138333Y-15380428D01*
X6128809Y-15361381D01*
X6119286Y-15323286D01*
X6119286Y-15275667D01*
X6128809Y-15237571D01*
X6138333Y-15218524D01*
X6147857Y-15209000D01*
X6166905Y-15199476D01*
X6357381Y-15199476D02*
X6376428Y-15199476D01*
X6395476Y-15209000D01*
X6405000Y-15218524D01*
X6414524Y-15237571D01*
X6424048Y-15275667D01*
X6424048Y-15323286D01*
X6414524Y-15361381D01*
X6405000Y-15380428D01*
X6395476Y-15389952D01*
X6376428Y-15399476D01*
X6357381Y-15399476D01*
X6338333Y-15389952D01*
X6328809Y-15380428D01*
X6319286Y-15361381D01*
X6309762Y-15323286D01*
X6309762Y-15275667D01*
X6319286Y-15237571D01*
X6328809Y-15218524D01*
X6338333Y-15209000D01*
X6357381Y-15199476D01*
X6509762Y-15399476D02*
X6509762Y-15266143D01*
X6509762Y-15285190D02*
X6519286Y-15275667D01*
X6538333Y-15266143D01*
X6566905Y-15266143D01*
X6585952Y-15275667D01*
X6595476Y-15294714D01*
X6595476Y-15399476D01*
X6595476Y-15294714D02*
X6605000Y-15275667D01*
X6624048Y-15266143D01*
X6652619Y-15266143D01*
X6671667Y-15275667D01*
X6681190Y-15294714D01*
X6681190Y-15399476D01*
X6776428Y-15399476D02*
X6776428Y-15266143D01*
X6776428Y-15285190D02*
X6785952Y-15275667D01*
X6805000Y-15266143D01*
X6833571Y-15266143D01*
X6852619Y-15275667D01*
X6862143Y-15294714D01*
X6862143Y-15399476D01*
X6862143Y-15294714D02*
X6871667Y-15275667D01*
X6890714Y-15266143D01*
X6919286Y-15266143D01*
X6938333Y-15275667D01*
X6947857Y-15294714D01*
X6947857Y-15399476D01*
X7338333Y-15189952D02*
X7166905Y-15447095D01*
X7595476Y-15199476D02*
X7614524Y-15199476D01*
X7633571Y-15209000D01*
X7643095Y-15218524D01*
X7652619Y-15237571D01*
X7662143Y-15275667D01*
X7662143Y-15323286D01*
X7652619Y-15361381D01*
X7643095Y-15380428D01*
X7633571Y-15389952D01*
X7614524Y-15399476D01*
X7595476Y-15399476D01*
X7576428Y-15389952D01*
X7566905Y-15380428D01*
X7557381Y-15361381D01*
X7547857Y-15323286D01*
X7547857Y-15275667D01*
X7557381Y-15237571D01*
X7566905Y-15218524D01*
X7576428Y-15209000D01*
X7595476Y-15199476D01*
X7747857Y-15380428D02*
X7757381Y-15389952D01*
X7747857Y-15399476D01*
X7738333Y-15389952D01*
X7747857Y-15380428D01*
X7747857Y-15399476D01*
X7881190Y-15199476D02*
X7900238Y-15199476D01*
X7919286Y-15209000D01*
X7928809Y-15218524D01*
X7938333Y-15237571D01*
X7947857Y-15275667D01*
X7947857Y-15323286D01*
X7938333Y-15361381D01*
X7928809Y-15380428D01*
X7919286Y-15389952D01*
X7900238Y-15399476D01*
X7881190Y-15399476D01*
X7862143Y-15389952D01*
X7852619Y-15380428D01*
X7843095Y-15361381D01*
X7833571Y-15323286D01*
X7833571Y-15275667D01*
X7843095Y-15237571D01*
X7852619Y-15218524D01*
X7862143Y-15209000D01*
X7881190Y-15199476D01*
X8138333Y-15399476D02*
X8024048Y-15399476D01*
X8081190Y-15399476D02*
X8081190Y-15199476D01*
X8062143Y-15228048D01*
X8043095Y-15247095D01*
X8024048Y-15256619D01*
X8233571Y-15399476D02*
X8271667Y-15399476D01*
X8290714Y-15389952D01*
X8300238Y-15380428D01*
X8319286Y-15351857D01*
X8328809Y-15313762D01*
X8328809Y-15237571D01*
X8319286Y-15218524D01*
X8309762Y-15209000D01*
X8290714Y-15199476D01*
X8252619Y-15199476D01*
X8233571Y-15209000D01*
X8224048Y-15218524D01*
X8214524Y-15237571D01*
X8214524Y-15285190D01*
X8224048Y-15304238D01*
X8233571Y-15313762D01*
X8252619Y-15323286D01*
X8290714Y-15323286D01*
X8309762Y-15313762D01*
X8319286Y-15304238D01*
X8328809Y-15285190D01*
X8395476Y-15199476D02*
X8528810Y-15199476D01*
X8443095Y-15399476D01*
X8595476Y-15199476D02*
X8595476Y-15237571D01*
X8671667Y-15199476D02*
X8671667Y-15237571D01*
X8966905Y-15475667D02*
X8957381Y-15466143D01*
X8938333Y-15437571D01*
X8928810Y-15418524D01*
X8919286Y-15389952D01*
X8909762Y-15342333D01*
X8909762Y-15304238D01*
X8919286Y-15256619D01*
X8928810Y-15228048D01*
X8938333Y-15209000D01*
X8957381Y-15180428D01*
X8966905Y-15170905D01*
X9024048Y-15199476D02*
X9147857Y-15199476D01*
X9081190Y-15275667D01*
X9109762Y-15275667D01*
X9128810Y-15285190D01*
X9138333Y-15294714D01*
X9147857Y-15313762D01*
X9147857Y-15361381D01*
X9138333Y-15380428D01*
X9128810Y-15389952D01*
X9109762Y-15399476D01*
X9052619Y-15399476D01*
X9033571Y-15389952D01*
X9024048Y-15380428D01*
X9214524Y-15199476D02*
X9338333Y-15199476D01*
X9271667Y-15275667D01*
X9300238Y-15275667D01*
X9319286Y-15285190D01*
X9328810Y-15294714D01*
X9338333Y-15313762D01*
X9338333Y-15361381D01*
X9328810Y-15380428D01*
X9319286Y-15389952D01*
X9300238Y-15399476D01*
X9243095Y-15399476D01*
X9224048Y-15389952D01*
X9214524Y-15380428D01*
X9576429Y-15399476D02*
X9576429Y-15199476D01*
X9662143Y-15399476D02*
X9662143Y-15294714D01*
X9652619Y-15275667D01*
X9633571Y-15266143D01*
X9605000Y-15266143D01*
X9585952Y-15275667D01*
X9576429Y-15285190D01*
X9785952Y-15399476D02*
X9766905Y-15389952D01*
X9757381Y-15380428D01*
X9747857Y-15361381D01*
X9747857Y-15304238D01*
X9757381Y-15285190D01*
X9766905Y-15275667D01*
X9785952Y-15266143D01*
X9814524Y-15266143D01*
X9833571Y-15275667D01*
X9843095Y-15285190D01*
X9852619Y-15304238D01*
X9852619Y-15361381D01*
X9843095Y-15380428D01*
X9833571Y-15389952D01*
X9814524Y-15399476D01*
X9785952Y-15399476D01*
X9966905Y-15399476D02*
X9947857Y-15389952D01*
X9938333Y-15370905D01*
X9938333Y-15199476D01*
X10119286Y-15389952D02*
X10100238Y-15399476D01*
X10062143Y-15399476D01*
X10043095Y-15389952D01*
X10033571Y-15370905D01*
X10033571Y-15294714D01*
X10043095Y-15275667D01*
X10062143Y-15266143D01*
X10100238Y-15266143D01*
X10119286Y-15275667D01*
X10128810Y-15294714D01*
X10128810Y-15313762D01*
X10033571Y-15332809D01*
X10205000Y-15389952D02*
X10224048Y-15399476D01*
X10262143Y-15399476D01*
X10281190Y-15389952D01*
X10290714Y-15370905D01*
X10290714Y-15361381D01*
X10281190Y-15342333D01*
X10262143Y-15332809D01*
X10233571Y-15332809D01*
X10214524Y-15323286D01*
X10205000Y-15304238D01*
X10205000Y-15294714D01*
X10214524Y-15275667D01*
X10233571Y-15266143D01*
X10262143Y-15266143D01*
X10281190Y-15275667D01*
X10357381Y-15475667D02*
X10366905Y-15466143D01*
X10385952Y-15437571D01*
X10395476Y-15418524D01*
X10405000Y-15389952D01*
X10414524Y-15342333D01*
X10414524Y-15304238D01*
X10405000Y-15256619D01*
X10395476Y-15228048D01*
X10385952Y-15209000D01*
X10366905Y-15180428D01*
X10357381Y-15170905D01*
D14*
X5365000Y-15543000D02*
X5365000Y-15603000D01*
X5335000Y-15573000D02*
X5395000Y-15573000D01*
D11*
X5690714Y-15463476D02*
X5709762Y-15463476D01*
X5728809Y-15473000D01*
X5738333Y-15482524D01*
X5747857Y-15501571D01*
X5757381Y-15539667D01*
X5757381Y-15587286D01*
X5747857Y-15625381D01*
X5738333Y-15644428D01*
X5728809Y-15653952D01*
X5709762Y-15663476D01*
X5690714Y-15663476D01*
X5671667Y-15653952D01*
X5662143Y-15644428D01*
X5652619Y-15625381D01*
X5643095Y-15587286D01*
X5643095Y-15539667D01*
X5652619Y-15501571D01*
X5662143Y-15482524D01*
X5671667Y-15473000D01*
X5690714Y-15463476D01*
X5843095Y-15644428D02*
X5852619Y-15653952D01*
X5843095Y-15663476D01*
X5833571Y-15653952D01*
X5843095Y-15644428D01*
X5843095Y-15663476D01*
X6024048Y-15463476D02*
X5985952Y-15463476D01*
X5966905Y-15473000D01*
X5957381Y-15482524D01*
X5938333Y-15511095D01*
X5928809Y-15549190D01*
X5928809Y-15625381D01*
X5938333Y-15644428D01*
X5947857Y-15653952D01*
X5966905Y-15663476D01*
X6005000Y-15663476D01*
X6024048Y-15653952D01*
X6033571Y-15644428D01*
X6043095Y-15625381D01*
X6043095Y-15577762D01*
X6033571Y-15558714D01*
X6024048Y-15549190D01*
X6005000Y-15539667D01*
X5966905Y-15539667D01*
X5947857Y-15549190D01*
X5938333Y-15558714D01*
X5928809Y-15577762D01*
X6166905Y-15463476D02*
X6185952Y-15463476D01*
X6205000Y-15473000D01*
X6214524Y-15482524D01*
X6224048Y-15501571D01*
X6233571Y-15539667D01*
X6233571Y-15587286D01*
X6224048Y-15625381D01*
X6214524Y-15644428D01*
X6205000Y-15653952D01*
X6185952Y-15663476D01*
X6166905Y-15663476D01*
X6147857Y-15653952D01*
X6138333Y-15644428D01*
X6128809Y-15625381D01*
X6119286Y-15587286D01*
X6119286Y-15539667D01*
X6128809Y-15501571D01*
X6138333Y-15482524D01*
X6147857Y-15473000D01*
X6166905Y-15463476D01*
X6357381Y-15463476D02*
X6376428Y-15463476D01*
X6395476Y-15473000D01*
X6405000Y-15482524D01*
X6414524Y-15501571D01*
X6424048Y-15539667D01*
X6424048Y-15587286D01*
X6414524Y-15625381D01*
X6405000Y-15644428D01*
X6395476Y-15653952D01*
X6376428Y-15663476D01*
X6357381Y-15663476D01*
X6338333Y-15653952D01*
X6328809Y-15644428D01*
X6319286Y-15625381D01*
X6309762Y-15587286D01*
X6309762Y-15539667D01*
X6319286Y-15501571D01*
X6328809Y-15482524D01*
X6338333Y-15473000D01*
X6357381Y-15463476D01*
X6509762Y-15663476D02*
X6509762Y-15530143D01*
X6509762Y-15549190D02*
X6519286Y-15539667D01*
X6538333Y-15530143D01*
X6566905Y-15530143D01*
X6585952Y-15539667D01*
X6595476Y-15558714D01*
X6595476Y-15663476D01*
X6595476Y-15558714D02*
X6605000Y-15539667D01*
X6624048Y-15530143D01*
X6652619Y-15530143D01*
X6671667Y-15539667D01*
X6681190Y-15558714D01*
X6681190Y-15663476D01*
X6776428Y-15663476D02*
X6776428Y-15530143D01*
X6776428Y-15549190D02*
X6785952Y-15539667D01*
X6805000Y-15530143D01*
X6833571Y-15530143D01*
X6852619Y-15539667D01*
X6862143Y-15558714D01*
X6862143Y-15663476D01*
X6862143Y-15558714D02*
X6871667Y-15539667D01*
X6890714Y-15530143D01*
X6919286Y-15530143D01*
X6938333Y-15539667D01*
X6947857Y-15558714D01*
X6947857Y-15663476D01*
X7338333Y-15453952D02*
X7166905Y-15711095D01*
X7595476Y-15463476D02*
X7614524Y-15463476D01*
X7633571Y-15473000D01*
X7643095Y-15482524D01*
X7652619Y-15501571D01*
X7662143Y-15539667D01*
X7662143Y-15587286D01*
X7652619Y-15625381D01*
X7643095Y-15644428D01*
X7633571Y-15653952D01*
X7614524Y-15663476D01*
X7595476Y-15663476D01*
X7576428Y-15653952D01*
X7566905Y-15644428D01*
X7557381Y-15625381D01*
X7547857Y-15587286D01*
X7547857Y-15539667D01*
X7557381Y-15501571D01*
X7566905Y-15482524D01*
X7576428Y-15473000D01*
X7595476Y-15463476D01*
X7747857Y-15644428D02*
X7757381Y-15653952D01*
X7747857Y-15663476D01*
X7738333Y-15653952D01*
X7747857Y-15644428D01*
X7747857Y-15663476D01*
X7881190Y-15463476D02*
X7900238Y-15463476D01*
X7919286Y-15473000D01*
X7928809Y-15482524D01*
X7938333Y-15501571D01*
X7947857Y-15539667D01*
X7947857Y-15587286D01*
X7938333Y-15625381D01*
X7928809Y-15644428D01*
X7919286Y-15653952D01*
X7900238Y-15663476D01*
X7881190Y-15663476D01*
X7862143Y-15653952D01*
X7852619Y-15644428D01*
X7843095Y-15625381D01*
X7833571Y-15587286D01*
X7833571Y-15539667D01*
X7843095Y-15501571D01*
X7852619Y-15482524D01*
X7862143Y-15473000D01*
X7881190Y-15463476D01*
X8024048Y-15482524D02*
X8033571Y-15473000D01*
X8052619Y-15463476D01*
X8100238Y-15463476D01*
X8119286Y-15473000D01*
X8128809Y-15482524D01*
X8138333Y-15501571D01*
X8138333Y-15520619D01*
X8128809Y-15549190D01*
X8014524Y-15663476D01*
X8138333Y-15663476D01*
X8205000Y-15463476D02*
X8328809Y-15463476D01*
X8262143Y-15539667D01*
X8290714Y-15539667D01*
X8309762Y-15549190D01*
X8319286Y-15558714D01*
X8328809Y-15577762D01*
X8328809Y-15625381D01*
X8319286Y-15644428D01*
X8309762Y-15653952D01*
X8290714Y-15663476D01*
X8233571Y-15663476D01*
X8214524Y-15653952D01*
X8205000Y-15644428D01*
X8500238Y-15463476D02*
X8462143Y-15463476D01*
X8443095Y-15473000D01*
X8433571Y-15482524D01*
X8414524Y-15511095D01*
X8405000Y-15549190D01*
X8405000Y-15625381D01*
X8414524Y-15644428D01*
X8424048Y-15653952D01*
X8443095Y-15663476D01*
X8481190Y-15663476D01*
X8500238Y-15653952D01*
X8509762Y-15644428D01*
X8519286Y-15625381D01*
X8519286Y-15577762D01*
X8509762Y-15558714D01*
X8500238Y-15549190D01*
X8481190Y-15539667D01*
X8443095Y-15539667D01*
X8424048Y-15549190D01*
X8414524Y-15558714D01*
X8405000Y-15577762D01*
X8595476Y-15463476D02*
X8595476Y-15501571D01*
X8671667Y-15463476D02*
X8671667Y-15501571D01*
X8966905Y-15739667D02*
X8957381Y-15730143D01*
X8938333Y-15701571D01*
X8928810Y-15682524D01*
X8919286Y-15653952D01*
X8909762Y-15606333D01*
X8909762Y-15568238D01*
X8919286Y-15520619D01*
X8928810Y-15492048D01*
X8938333Y-15473000D01*
X8957381Y-15444428D01*
X8966905Y-15434905D01*
X9147857Y-15663476D02*
X9033571Y-15663476D01*
X9090714Y-15663476D02*
X9090714Y-15463476D01*
X9071667Y-15492048D01*
X9052619Y-15511095D01*
X9033571Y-15520619D01*
X9319286Y-15530143D02*
X9319286Y-15663476D01*
X9271667Y-15453952D02*
X9224048Y-15596809D01*
X9347857Y-15596809D01*
X9576429Y-15663476D02*
X9576429Y-15463476D01*
X9662143Y-15663476D02*
X9662143Y-15558714D01*
X9652619Y-15539667D01*
X9633571Y-15530143D01*
X9605000Y-15530143D01*
X9585952Y-15539667D01*
X9576429Y-15549190D01*
X9785952Y-15663476D02*
X9766905Y-15653952D01*
X9757381Y-15644428D01*
X9747857Y-15625381D01*
X9747857Y-15568238D01*
X9757381Y-15549190D01*
X9766905Y-15539667D01*
X9785952Y-15530143D01*
X9814524Y-15530143D01*
X9833571Y-15539667D01*
X9843095Y-15549190D01*
X9852619Y-15568238D01*
X9852619Y-15625381D01*
X9843095Y-15644428D01*
X9833571Y-15653952D01*
X9814524Y-15663476D01*
X9785952Y-15663476D01*
X9966905Y-15663476D02*
X9947857Y-15653952D01*
X9938333Y-15634905D01*
X9938333Y-15463476D01*
X10119286Y-15653952D02*
X10100238Y-15663476D01*
X10062143Y-15663476D01*
X10043095Y-15653952D01*
X10033571Y-15634905D01*
X10033571Y-15558714D01*
X10043095Y-15539667D01*
X10062143Y-15530143D01*
X10100238Y-15530143D01*
X10119286Y-15539667D01*
X10128810Y-15558714D01*
X10128810Y-15577762D01*
X10033571Y-15596809D01*
X10205000Y-15653952D02*
X10224048Y-15663476D01*
X10262143Y-15663476D01*
X10281190Y-15653952D01*
X10290714Y-15634905D01*
X10290714Y-15625381D01*
X10281190Y-15606333D01*
X10262143Y-15596809D01*
X10233571Y-15596809D01*
X10214524Y-15587286D01*
X10205000Y-15568238D01*
X10205000Y-15558714D01*
X10214524Y-15539667D01*
X10233571Y-15530143D01*
X10262143Y-15530143D01*
X10281190Y-15539667D01*
X10357381Y-15739667D02*
X10366905Y-15730143D01*
X10385952Y-15701571D01*
X10395476Y-15682524D01*
X10405000Y-15653952D01*
X10414524Y-15606333D01*
X10414524Y-15568238D01*
X10405000Y-15520619D01*
X10395476Y-15492048D01*
X10385952Y-15473000D01*
X10366905Y-15444428D01*
X10357381Y-15434905D01*
D15*
X5383285Y-15865284D02*
X5383285Y-15808715D01*
X5326716Y-15808715D01*
X5326716Y-15865284D01*
X5383285Y-15865284D01*
D11*
X5690714Y-15727476D02*
X5709762Y-15727476D01*
X5728809Y-15737000D01*
X5738333Y-15746524D01*
X5747857Y-15765571D01*
X5757381Y-15803667D01*
X5757381Y-15851286D01*
X5747857Y-15889381D01*
X5738333Y-15908428D01*
X5728809Y-15917952D01*
X5709762Y-15927476D01*
X5690714Y-15927476D01*
X5671667Y-15917952D01*
X5662143Y-15908428D01*
X5652619Y-15889381D01*
X5643095Y-15851286D01*
X5643095Y-15803667D01*
X5652619Y-15765571D01*
X5662143Y-15746524D01*
X5671667Y-15737000D01*
X5690714Y-15727476D01*
X5843095Y-15908428D02*
X5852619Y-15917952D01*
X5843095Y-15927476D01*
X5833571Y-15917952D01*
X5843095Y-15908428D01*
X5843095Y-15927476D01*
X5966905Y-15813190D02*
X5947857Y-15803667D01*
X5938333Y-15794143D01*
X5928809Y-15775095D01*
X5928809Y-15765571D01*
X5938333Y-15746524D01*
X5947857Y-15737000D01*
X5966905Y-15727476D01*
X6005000Y-15727476D01*
X6024048Y-15737000D01*
X6033571Y-15746524D01*
X6043095Y-15765571D01*
X6043095Y-15775095D01*
X6033571Y-15794143D01*
X6024048Y-15803667D01*
X6005000Y-15813190D01*
X5966905Y-15813190D01*
X5947857Y-15822714D01*
X5938333Y-15832238D01*
X5928809Y-15851286D01*
X5928809Y-15889381D01*
X5938333Y-15908428D01*
X5947857Y-15917952D01*
X5966905Y-15927476D01*
X6005000Y-15927476D01*
X6024048Y-15917952D01*
X6033571Y-15908428D01*
X6043095Y-15889381D01*
X6043095Y-15851286D01*
X6033571Y-15832238D01*
X6024048Y-15822714D01*
X6005000Y-15813190D01*
X6166905Y-15727476D02*
X6185952Y-15727476D01*
X6205000Y-15737000D01*
X6214524Y-15746524D01*
X6224048Y-15765571D01*
X6233571Y-15803667D01*
X6233571Y-15851286D01*
X6224048Y-15889381D01*
X6214524Y-15908428D01*
X6205000Y-15917952D01*
X6185952Y-15927476D01*
X6166905Y-15927476D01*
X6147857Y-15917952D01*
X6138333Y-15908428D01*
X6128809Y-15889381D01*
X6119286Y-15851286D01*
X6119286Y-15803667D01*
X6128809Y-15765571D01*
X6138333Y-15746524D01*
X6147857Y-15737000D01*
X6166905Y-15727476D01*
X6357381Y-15727476D02*
X6376428Y-15727476D01*
X6395476Y-15737000D01*
X6405000Y-15746524D01*
X6414524Y-15765571D01*
X6424048Y-15803667D01*
X6424048Y-15851286D01*
X6414524Y-15889381D01*
X6405000Y-15908428D01*
X6395476Y-15917952D01*
X6376428Y-15927476D01*
X6357381Y-15927476D01*
X6338333Y-15917952D01*
X6328809Y-15908428D01*
X6319286Y-15889381D01*
X6309762Y-15851286D01*
X6309762Y-15803667D01*
X6319286Y-15765571D01*
X6328809Y-15746524D01*
X6338333Y-15737000D01*
X6357381Y-15727476D01*
X6509762Y-15927476D02*
X6509762Y-15794143D01*
X6509762Y-15813190D02*
X6519286Y-15803667D01*
X6538333Y-15794143D01*
X6566905Y-15794143D01*
X6585952Y-15803667D01*
X6595476Y-15822714D01*
X6595476Y-15927476D01*
X6595476Y-15822714D02*
X6605000Y-15803667D01*
X6624048Y-15794143D01*
X6652619Y-15794143D01*
X6671667Y-15803667D01*
X6681190Y-15822714D01*
X6681190Y-15927476D01*
X6776428Y-15927476D02*
X6776428Y-15794143D01*
X6776428Y-15813190D02*
X6785952Y-15803667D01*
X6805000Y-15794143D01*
X6833571Y-15794143D01*
X6852619Y-15803667D01*
X6862143Y-15822714D01*
X6862143Y-15927476D01*
X6862143Y-15822714D02*
X6871667Y-15803667D01*
X6890714Y-15794143D01*
X6919286Y-15794143D01*
X6938333Y-15803667D01*
X6947857Y-15822714D01*
X6947857Y-15927476D01*
X7338333Y-15717952D02*
X7166905Y-15975095D01*
X7595476Y-15727476D02*
X7614524Y-15727476D01*
X7633571Y-15737000D01*
X7643095Y-15746524D01*
X7652619Y-15765571D01*
X7662143Y-15803667D01*
X7662143Y-15851286D01*
X7652619Y-15889381D01*
X7643095Y-15908428D01*
X7633571Y-15917952D01*
X7614524Y-15927476D01*
X7595476Y-15927476D01*
X7576428Y-15917952D01*
X7566905Y-15908428D01*
X7557381Y-15889381D01*
X7547857Y-15851286D01*
X7547857Y-15803667D01*
X7557381Y-15765571D01*
X7566905Y-15746524D01*
X7576428Y-15737000D01*
X7595476Y-15727476D01*
X7747857Y-15908428D02*
X7757381Y-15917952D01*
X7747857Y-15927476D01*
X7738333Y-15917952D01*
X7747857Y-15908428D01*
X7747857Y-15927476D01*
X7881190Y-15727476D02*
X7900238Y-15727476D01*
X7919286Y-15737000D01*
X7928809Y-15746524D01*
X7938333Y-15765571D01*
X7947857Y-15803667D01*
X7947857Y-15851286D01*
X7938333Y-15889381D01*
X7928809Y-15908428D01*
X7919286Y-15917952D01*
X7900238Y-15927476D01*
X7881190Y-15927476D01*
X7862143Y-15917952D01*
X7852619Y-15908428D01*
X7843095Y-15889381D01*
X7833571Y-15851286D01*
X7833571Y-15803667D01*
X7843095Y-15765571D01*
X7852619Y-15746524D01*
X7862143Y-15737000D01*
X7881190Y-15727476D01*
X8014524Y-15727476D02*
X8138333Y-15727476D01*
X8071667Y-15803667D01*
X8100238Y-15803667D01*
X8119286Y-15813190D01*
X8128809Y-15822714D01*
X8138333Y-15841762D01*
X8138333Y-15889381D01*
X8128809Y-15908428D01*
X8119286Y-15917952D01*
X8100238Y-15927476D01*
X8043095Y-15927476D01*
X8024048Y-15917952D01*
X8014524Y-15908428D01*
X8328809Y-15927476D02*
X8214524Y-15927476D01*
X8271667Y-15927476D02*
X8271667Y-15727476D01*
X8252619Y-15756048D01*
X8233571Y-15775095D01*
X8214524Y-15784619D01*
X8509762Y-15727476D02*
X8414524Y-15727476D01*
X8405000Y-15822714D01*
X8414524Y-15813190D01*
X8433571Y-15803667D01*
X8481190Y-15803667D01*
X8500238Y-15813190D01*
X8509762Y-15822714D01*
X8519286Y-15841762D01*
X8519286Y-15889381D01*
X8509762Y-15908428D01*
X8500238Y-15917952D01*
X8481190Y-15927476D01*
X8433571Y-15927476D01*
X8414524Y-15917952D01*
X8405000Y-15908428D01*
X8595476Y-15727476D02*
X8595476Y-15765571D01*
X8671667Y-15727476D02*
X8671667Y-15765571D01*
X8966905Y-16003667D02*
X8957381Y-15994143D01*
X8938333Y-15965571D01*
X8928810Y-15946524D01*
X8919286Y-15917952D01*
X8909762Y-15870333D01*
X8909762Y-15832238D01*
X8919286Y-15784619D01*
X8928810Y-15756048D01*
X8938333Y-15737000D01*
X8957381Y-15708428D01*
X8966905Y-15698905D01*
X9033571Y-15746524D02*
X9043095Y-15737000D01*
X9062143Y-15727476D01*
X9109762Y-15727476D01*
X9128810Y-15737000D01*
X9138333Y-15746524D01*
X9147857Y-15765571D01*
X9147857Y-15784619D01*
X9138333Y-15813190D01*
X9024048Y-15927476D01*
X9147857Y-15927476D01*
X9385952Y-15927476D02*
X9385952Y-15727476D01*
X9471667Y-15927476D02*
X9471667Y-15822714D01*
X9462143Y-15803667D01*
X9443095Y-15794143D01*
X9414524Y-15794143D01*
X9395476Y-15803667D01*
X9385952Y-15813190D01*
X9595476Y-15927476D02*
X9576429Y-15917952D01*
X9566905Y-15908428D01*
X9557381Y-15889381D01*
X9557381Y-15832238D01*
X9566905Y-15813190D01*
X9576429Y-15803667D01*
X9595476Y-15794143D01*
X9624048Y-15794143D01*
X9643095Y-15803667D01*
X9652619Y-15813190D01*
X9662143Y-15832238D01*
X9662143Y-15889381D01*
X9652619Y-15908428D01*
X9643095Y-15917952D01*
X9624048Y-15927476D01*
X9595476Y-15927476D01*
X9776429Y-15927476D02*
X9757381Y-15917952D01*
X9747857Y-15898905D01*
X9747857Y-15727476D01*
X9928810Y-15917952D02*
X9909762Y-15927476D01*
X9871667Y-15927476D01*
X9852619Y-15917952D01*
X9843095Y-15898905D01*
X9843095Y-15822714D01*
X9852619Y-15803667D01*
X9871667Y-15794143D01*
X9909762Y-15794143D01*
X9928810Y-15803667D01*
X9938333Y-15822714D01*
X9938333Y-15841762D01*
X9843095Y-15860809D01*
X10014524Y-15917952D02*
X10033571Y-15927476D01*
X10071667Y-15927476D01*
X10090714Y-15917952D01*
X10100238Y-15898905D01*
X10100238Y-15889381D01*
X10090714Y-15870333D01*
X10071667Y-15860809D01*
X10043095Y-15860809D01*
X10024048Y-15851286D01*
X10014524Y-15832238D01*
X10014524Y-15822714D01*
X10024048Y-15803667D01*
X10043095Y-15794143D01*
X10071667Y-15794143D01*
X10090714Y-15803667D01*
X10166905Y-16003667D02*
X10176429Y-15994143D01*
X10195476Y-15965571D01*
X10205000Y-15946524D01*
X10214524Y-15917952D01*
X10224048Y-15870333D01*
X10224048Y-15832238D01*
X10214524Y-15784619D01*
X10205000Y-15756048D01*
X10195476Y-15737000D01*
X10176429Y-15708428D01*
X10166905Y-15698905D01*
D10*
X5345000Y-16151000D02*
X5395000Y-16101000D01*
X5345000Y-16051000D01*
X5295000Y-16101000D01*
X5345000Y-16151000D01*
D11*
X5757381Y-16191476D02*
X5643095Y-16191476D01*
X5700238Y-16191476D02*
X5700238Y-15991476D01*
X5681190Y-16020048D01*
X5662143Y-16039095D01*
X5643095Y-16048619D01*
X5843095Y-16172428D02*
X5852619Y-16181952D01*
X5843095Y-16191476D01*
X5833571Y-16181952D01*
X5843095Y-16172428D01*
X5843095Y-16191476D01*
X5976428Y-15991476D02*
X5995476Y-15991476D01*
X6014524Y-16001000D01*
X6024048Y-16010524D01*
X6033571Y-16029571D01*
X6043095Y-16067667D01*
X6043095Y-16115286D01*
X6033571Y-16153381D01*
X6024048Y-16172428D01*
X6014524Y-16181952D01*
X5995476Y-16191476D01*
X5976428Y-16191476D01*
X5957381Y-16181952D01*
X5947857Y-16172428D01*
X5938333Y-16153381D01*
X5928809Y-16115286D01*
X5928809Y-16067667D01*
X5938333Y-16029571D01*
X5947857Y-16010524D01*
X5957381Y-16001000D01*
X5976428Y-15991476D01*
X6166905Y-15991476D02*
X6185952Y-15991476D01*
X6205000Y-16001000D01*
X6214524Y-16010524D01*
X6224048Y-16029571D01*
X6233571Y-16067667D01*
X6233571Y-16115286D01*
X6224048Y-16153381D01*
X6214524Y-16172428D01*
X6205000Y-16181952D01*
X6185952Y-16191476D01*
X6166905Y-16191476D01*
X6147857Y-16181952D01*
X6138333Y-16172428D01*
X6128809Y-16153381D01*
X6119286Y-16115286D01*
X6119286Y-16067667D01*
X6128809Y-16029571D01*
X6138333Y-16010524D01*
X6147857Y-16001000D01*
X6166905Y-15991476D01*
X6357381Y-15991476D02*
X6376428Y-15991476D01*
X6395476Y-16001000D01*
X6405000Y-16010524D01*
X6414524Y-16029571D01*
X6424048Y-16067667D01*
X6424048Y-16115286D01*
X6414524Y-16153381D01*
X6405000Y-16172428D01*
X6395476Y-16181952D01*
X6376428Y-16191476D01*
X6357381Y-16191476D01*
X6338333Y-16181952D01*
X6328809Y-16172428D01*
X6319286Y-16153381D01*
X6309762Y-16115286D01*
X6309762Y-16067667D01*
X6319286Y-16029571D01*
X6328809Y-16010524D01*
X6338333Y-16001000D01*
X6357381Y-15991476D01*
X6509762Y-16191476D02*
X6509762Y-16058143D01*
X6509762Y-16077190D02*
X6519286Y-16067667D01*
X6538333Y-16058143D01*
X6566905Y-16058143D01*
X6585952Y-16067667D01*
X6595476Y-16086714D01*
X6595476Y-16191476D01*
X6595476Y-16086714D02*
X6605000Y-16067667D01*
X6624048Y-16058143D01*
X6652619Y-16058143D01*
X6671667Y-16067667D01*
X6681190Y-16086714D01*
X6681190Y-16191476D01*
X6776428Y-16191476D02*
X6776428Y-16058143D01*
X6776428Y-16077190D02*
X6785952Y-16067667D01*
X6805000Y-16058143D01*
X6833571Y-16058143D01*
X6852619Y-16067667D01*
X6862143Y-16086714D01*
X6862143Y-16191476D01*
X6862143Y-16086714D02*
X6871667Y-16067667D01*
X6890714Y-16058143D01*
X6919286Y-16058143D01*
X6938333Y-16067667D01*
X6947857Y-16086714D01*
X6947857Y-16191476D01*
X7338333Y-15981952D02*
X7166905Y-16239095D01*
X7595476Y-15991476D02*
X7614524Y-15991476D01*
X7633571Y-16001000D01*
X7643095Y-16010524D01*
X7652619Y-16029571D01*
X7662143Y-16067667D01*
X7662143Y-16115286D01*
X7652619Y-16153381D01*
X7643095Y-16172428D01*
X7633571Y-16181952D01*
X7614524Y-16191476D01*
X7595476Y-16191476D01*
X7576428Y-16181952D01*
X7566905Y-16172428D01*
X7557381Y-16153381D01*
X7547857Y-16115286D01*
X7547857Y-16067667D01*
X7557381Y-16029571D01*
X7566905Y-16010524D01*
X7576428Y-16001000D01*
X7595476Y-15991476D01*
X7747857Y-16172428D02*
X7757381Y-16181952D01*
X7747857Y-16191476D01*
X7738333Y-16181952D01*
X7747857Y-16172428D01*
X7747857Y-16191476D01*
X7881190Y-15991476D02*
X7900238Y-15991476D01*
X7919286Y-16001000D01*
X7928809Y-16010524D01*
X7938333Y-16029571D01*
X7947857Y-16067667D01*
X7947857Y-16115286D01*
X7938333Y-16153381D01*
X7928809Y-16172428D01*
X7919286Y-16181952D01*
X7900238Y-16191476D01*
X7881190Y-16191476D01*
X7862143Y-16181952D01*
X7852619Y-16172428D01*
X7843095Y-16153381D01*
X7833571Y-16115286D01*
X7833571Y-16067667D01*
X7843095Y-16029571D01*
X7852619Y-16010524D01*
X7862143Y-16001000D01*
X7881190Y-15991476D01*
X8014524Y-15991476D02*
X8138333Y-15991476D01*
X8071667Y-16067667D01*
X8100238Y-16067667D01*
X8119286Y-16077190D01*
X8128809Y-16086714D01*
X8138333Y-16105762D01*
X8138333Y-16153381D01*
X8128809Y-16172428D01*
X8119286Y-16181952D01*
X8100238Y-16191476D01*
X8043095Y-16191476D01*
X8024048Y-16181952D01*
X8014524Y-16172428D01*
X8233571Y-16191476D02*
X8271667Y-16191476D01*
X8290714Y-16181952D01*
X8300238Y-16172428D01*
X8319286Y-16143857D01*
X8328809Y-16105762D01*
X8328809Y-16029571D01*
X8319286Y-16010524D01*
X8309762Y-16001000D01*
X8290714Y-15991476D01*
X8252619Y-15991476D01*
X8233571Y-16001000D01*
X8224048Y-16010524D01*
X8214524Y-16029571D01*
X8214524Y-16077190D01*
X8224048Y-16096238D01*
X8233571Y-16105762D01*
X8252619Y-16115286D01*
X8290714Y-16115286D01*
X8309762Y-16105762D01*
X8319286Y-16096238D01*
X8328809Y-16077190D01*
X8500238Y-16058143D02*
X8500238Y-16191476D01*
X8452619Y-15981952D02*
X8405000Y-16124809D01*
X8528810Y-16124809D01*
X8595476Y-15991476D02*
X8595476Y-16029571D01*
X8671667Y-15991476D02*
X8671667Y-16029571D01*
X8966905Y-16267667D02*
X8957381Y-16258143D01*
X8938333Y-16229571D01*
X8928810Y-16210524D01*
X8919286Y-16181952D01*
X8909762Y-16134333D01*
X8909762Y-16096238D01*
X8919286Y-16048619D01*
X8928810Y-16020048D01*
X8938333Y-16001000D01*
X8957381Y-15972428D01*
X8966905Y-15962905D01*
X9147857Y-16191476D02*
X9033571Y-16191476D01*
X9090714Y-16191476D02*
X9090714Y-15991476D01*
X9071667Y-16020048D01*
X9052619Y-16039095D01*
X9033571Y-16048619D01*
X9224048Y-16010524D02*
X9233571Y-16001000D01*
X9252619Y-15991476D01*
X9300238Y-15991476D01*
X9319286Y-16001000D01*
X9328810Y-16010524D01*
X9338333Y-16029571D01*
X9338333Y-16048619D01*
X9328810Y-16077190D01*
X9214524Y-16191476D01*
X9338333Y-16191476D01*
X9462143Y-15991476D02*
X9481190Y-15991476D01*
X9500238Y-16001000D01*
X9509762Y-16010524D01*
X9519286Y-16029571D01*
X9528810Y-16067667D01*
X9528810Y-16115286D01*
X9519286Y-16153381D01*
X9509762Y-16172428D01*
X9500238Y-16181952D01*
X9481190Y-16191476D01*
X9462143Y-16191476D01*
X9443095Y-16181952D01*
X9433571Y-16172428D01*
X9424048Y-16153381D01*
X9414524Y-16115286D01*
X9414524Y-16067667D01*
X9424048Y-16029571D01*
X9433571Y-16010524D01*
X9443095Y-16001000D01*
X9462143Y-15991476D01*
X9766905Y-16191476D02*
X9766905Y-15991476D01*
X9852619Y-16191476D02*
X9852619Y-16086714D01*
X9843095Y-16067667D01*
X9824048Y-16058143D01*
X9795476Y-16058143D01*
X9776429Y-16067667D01*
X9766905Y-16077190D01*
X9976429Y-16191476D02*
X9957381Y-16181952D01*
X9947857Y-16172428D01*
X9938333Y-16153381D01*
X9938333Y-16096238D01*
X9947857Y-16077190D01*
X9957381Y-16067667D01*
X9976429Y-16058143D01*
X10005000Y-16058143D01*
X10024048Y-16067667D01*
X10033571Y-16077190D01*
X10043095Y-16096238D01*
X10043095Y-16153381D01*
X10033571Y-16172428D01*
X10024048Y-16181952D01*
X10005000Y-16191476D01*
X9976429Y-16191476D01*
X10157381Y-16191476D02*
X10138333Y-16181952D01*
X10128810Y-16162905D01*
X10128810Y-15991476D01*
X10309762Y-16181952D02*
X10290714Y-16191476D01*
X10252619Y-16191476D01*
X10233571Y-16181952D01*
X10224048Y-16162905D01*
X10224048Y-16086714D01*
X10233571Y-16067667D01*
X10252619Y-16058143D01*
X10290714Y-16058143D01*
X10309762Y-16067667D01*
X10319286Y-16086714D01*
X10319286Y-16105762D01*
X10224048Y-16124809D01*
X10395476Y-16181952D02*
X10414524Y-16191476D01*
X10452619Y-16191476D01*
X10471667Y-16181952D01*
X10481190Y-16162905D01*
X10481190Y-16153381D01*
X10471667Y-16134333D01*
X10452619Y-16124809D01*
X10424048Y-16124809D01*
X10405000Y-16115286D01*
X10395476Y-16096238D01*
X10395476Y-16086714D01*
X10405000Y-16067667D01*
X10424048Y-16058143D01*
X10452619Y-16058143D01*
X10471667Y-16067667D01*
X10547857Y-16267667D02*
X10557381Y-16258143D01*
X10576429Y-16229571D01*
X10585952Y-16210524D01*
X10595476Y-16181952D01*
X10605000Y-16134333D01*
X10605000Y-16096238D01*
X10595476Y-16048619D01*
X10585952Y-16020048D01*
X10576429Y-16001000D01*
X10557381Y-15972428D01*
X10547857Y-15962905D01*
D16*
X5265000Y-16300000D02*
X5395000Y-16430000D01*
X5395000Y-16300000D02*
X5265000Y-16430000D01*
X5395000Y-16365000D02*
G75*
G03*
X5395000Y-16365000I-65000J0D01*
G01*
D11*
X5757381Y-16455476D02*
X5643095Y-16455476D01*
X5700238Y-16455476D02*
X5700238Y-16255476D01*
X5681190Y-16284048D01*
X5662143Y-16303095D01*
X5643095Y-16312619D01*
X5843095Y-16436428D02*
X5852619Y-16445952D01*
X5843095Y-16455476D01*
X5833571Y-16445952D01*
X5843095Y-16436428D01*
X5843095Y-16455476D01*
X5919286Y-16255476D02*
X6043095Y-16255476D01*
X5976428Y-16331667D01*
X6005000Y-16331667D01*
X6024048Y-16341190D01*
X6033571Y-16350714D01*
X6043095Y-16369762D01*
X6043095Y-16417381D01*
X6033571Y-16436428D01*
X6024048Y-16445952D01*
X6005000Y-16455476D01*
X5947857Y-16455476D01*
X5928809Y-16445952D01*
X5919286Y-16436428D01*
X6166905Y-16255476D02*
X6185952Y-16255476D01*
X6205000Y-16265000D01*
X6214524Y-16274524D01*
X6224048Y-16293571D01*
X6233571Y-16331667D01*
X6233571Y-16379286D01*
X6224048Y-16417381D01*
X6214524Y-16436428D01*
X6205000Y-16445952D01*
X6185952Y-16455476D01*
X6166905Y-16455476D01*
X6147857Y-16445952D01*
X6138333Y-16436428D01*
X6128809Y-16417381D01*
X6119286Y-16379286D01*
X6119286Y-16331667D01*
X6128809Y-16293571D01*
X6138333Y-16274524D01*
X6147857Y-16265000D01*
X6166905Y-16255476D01*
X6357381Y-16255476D02*
X6376428Y-16255476D01*
X6395476Y-16265000D01*
X6405000Y-16274524D01*
X6414524Y-16293571D01*
X6424048Y-16331667D01*
X6424048Y-16379286D01*
X6414524Y-16417381D01*
X6405000Y-16436428D01*
X6395476Y-16445952D01*
X6376428Y-16455476D01*
X6357381Y-16455476D01*
X6338333Y-16445952D01*
X6328809Y-16436428D01*
X6319286Y-16417381D01*
X6309762Y-16379286D01*
X6309762Y-16331667D01*
X6319286Y-16293571D01*
X6328809Y-16274524D01*
X6338333Y-16265000D01*
X6357381Y-16255476D01*
X6509762Y-16455476D02*
X6509762Y-16322143D01*
X6509762Y-16341190D02*
X6519286Y-16331667D01*
X6538333Y-16322143D01*
X6566905Y-16322143D01*
X6585952Y-16331667D01*
X6595476Y-16350714D01*
X6595476Y-16455476D01*
X6595476Y-16350714D02*
X6605000Y-16331667D01*
X6624048Y-16322143D01*
X6652619Y-16322143D01*
X6671667Y-16331667D01*
X6681190Y-16350714D01*
X6681190Y-16455476D01*
X6776428Y-16455476D02*
X6776428Y-16322143D01*
X6776428Y-16341190D02*
X6785952Y-16331667D01*
X6805000Y-16322143D01*
X6833571Y-16322143D01*
X6852619Y-16331667D01*
X6862143Y-16350714D01*
X6862143Y-16455476D01*
X6862143Y-16350714D02*
X6871667Y-16331667D01*
X6890714Y-16322143D01*
X6919286Y-16322143D01*
X6938333Y-16331667D01*
X6947857Y-16350714D01*
X6947857Y-16455476D01*
X7338333Y-16245952D02*
X7166905Y-16503095D01*
X7595476Y-16255476D02*
X7614524Y-16255476D01*
X7633571Y-16265000D01*
X7643095Y-16274524D01*
X7652619Y-16293571D01*
X7662143Y-16331667D01*
X7662143Y-16379286D01*
X7652619Y-16417381D01*
X7643095Y-16436428D01*
X7633571Y-16445952D01*
X7614524Y-16455476D01*
X7595476Y-16455476D01*
X7576428Y-16445952D01*
X7566905Y-16436428D01*
X7557381Y-16417381D01*
X7547857Y-16379286D01*
X7547857Y-16331667D01*
X7557381Y-16293571D01*
X7566905Y-16274524D01*
X7576428Y-16265000D01*
X7595476Y-16255476D01*
X7747857Y-16436428D02*
X7757381Y-16445952D01*
X7747857Y-16455476D01*
X7738333Y-16445952D01*
X7747857Y-16436428D01*
X7747857Y-16455476D01*
X7881190Y-16255476D02*
X7900238Y-16255476D01*
X7919286Y-16265000D01*
X7928809Y-16274524D01*
X7938333Y-16293571D01*
X7947857Y-16331667D01*
X7947857Y-16379286D01*
X7938333Y-16417381D01*
X7928809Y-16436428D01*
X7919286Y-16445952D01*
X7900238Y-16455476D01*
X7881190Y-16455476D01*
X7862143Y-16445952D01*
X7852619Y-16436428D01*
X7843095Y-16417381D01*
X7833571Y-16379286D01*
X7833571Y-16331667D01*
X7843095Y-16293571D01*
X7852619Y-16274524D01*
X7862143Y-16265000D01*
X7881190Y-16255476D01*
X8128809Y-16255476D02*
X8033571Y-16255476D01*
X8024048Y-16350714D01*
X8033571Y-16341190D01*
X8052619Y-16331667D01*
X8100238Y-16331667D01*
X8119286Y-16341190D01*
X8128809Y-16350714D01*
X8138333Y-16369762D01*
X8138333Y-16417381D01*
X8128809Y-16436428D01*
X8119286Y-16445952D01*
X8100238Y-16455476D01*
X8052619Y-16455476D01*
X8033571Y-16445952D01*
X8024048Y-16436428D01*
X8328809Y-16455476D02*
X8214524Y-16455476D01*
X8271667Y-16455476D02*
X8271667Y-16255476D01*
X8252619Y-16284048D01*
X8233571Y-16303095D01*
X8214524Y-16312619D01*
X8405000Y-16274524D02*
X8414524Y-16265000D01*
X8433571Y-16255476D01*
X8481190Y-16255476D01*
X8500238Y-16265000D01*
X8509762Y-16274524D01*
X8519286Y-16293571D01*
X8519286Y-16312619D01*
X8509762Y-16341190D01*
X8395476Y-16455476D01*
X8519286Y-16455476D01*
X8595476Y-16255476D02*
X8595476Y-16293571D01*
X8671667Y-16255476D02*
X8671667Y-16293571D01*
X8966905Y-16531667D02*
X8957381Y-16522143D01*
X8938333Y-16493571D01*
X8928810Y-16474524D01*
X8919286Y-16445952D01*
X8909762Y-16398333D01*
X8909762Y-16360238D01*
X8919286Y-16312619D01*
X8928810Y-16284048D01*
X8938333Y-16265000D01*
X8957381Y-16236428D01*
X8966905Y-16226905D01*
X9147857Y-16455476D02*
X9033571Y-16455476D01*
X9090714Y-16455476D02*
X9090714Y-16255476D01*
X9071667Y-16284048D01*
X9052619Y-16303095D01*
X9033571Y-16312619D01*
X9271667Y-16255476D02*
X9290714Y-16255476D01*
X9309762Y-16265000D01*
X9319286Y-16274524D01*
X9328810Y-16293571D01*
X9338333Y-16331667D01*
X9338333Y-16379286D01*
X9328810Y-16417381D01*
X9319286Y-16436428D01*
X9309762Y-16445952D01*
X9290714Y-16455476D01*
X9271667Y-16455476D01*
X9252619Y-16445952D01*
X9243095Y-16436428D01*
X9233571Y-16417381D01*
X9224048Y-16379286D01*
X9224048Y-16331667D01*
X9233571Y-16293571D01*
X9243095Y-16274524D01*
X9252619Y-16265000D01*
X9271667Y-16255476D01*
X9576429Y-16455476D02*
X9576429Y-16255476D01*
X9662143Y-16455476D02*
X9662143Y-16350714D01*
X9652619Y-16331667D01*
X9633571Y-16322143D01*
X9605000Y-16322143D01*
X9585952Y-16331667D01*
X9576429Y-16341190D01*
X9785952Y-16455476D02*
X9766905Y-16445952D01*
X9757381Y-16436428D01*
X9747857Y-16417381D01*
X9747857Y-16360238D01*
X9757381Y-16341190D01*
X9766905Y-16331667D01*
X9785952Y-16322143D01*
X9814524Y-16322143D01*
X9833571Y-16331667D01*
X9843095Y-16341190D01*
X9852619Y-16360238D01*
X9852619Y-16417381D01*
X9843095Y-16436428D01*
X9833571Y-16445952D01*
X9814524Y-16455476D01*
X9785952Y-16455476D01*
X9966905Y-16455476D02*
X9947857Y-16445952D01*
X9938333Y-16426905D01*
X9938333Y-16255476D01*
X10119286Y-16445952D02*
X10100238Y-16455476D01*
X10062143Y-16455476D01*
X10043095Y-16445952D01*
X10033571Y-16426905D01*
X10033571Y-16350714D01*
X10043095Y-16331667D01*
X10062143Y-16322143D01*
X10100238Y-16322143D01*
X10119286Y-16331667D01*
X10128810Y-16350714D01*
X10128810Y-16369762D01*
X10033571Y-16388809D01*
X10205000Y-16445952D02*
X10224048Y-16455476D01*
X10262143Y-16455476D01*
X10281190Y-16445952D01*
X10290714Y-16426905D01*
X10290714Y-16417381D01*
X10281190Y-16398333D01*
X10262143Y-16388809D01*
X10233571Y-16388809D01*
X10214524Y-16379286D01*
X10205000Y-16360238D01*
X10205000Y-16350714D01*
X10214524Y-16331667D01*
X10233571Y-16322143D01*
X10262143Y-16322143D01*
X10281190Y-16331667D01*
X10357381Y-16531667D02*
X10366905Y-16522143D01*
X10385952Y-16493571D01*
X10395476Y-16474524D01*
X10405000Y-16445952D01*
X10414524Y-16398333D01*
X10414524Y-16360238D01*
X10405000Y-16312619D01*
X10395476Y-16284048D01*
X10385952Y-16265000D01*
X10366905Y-16236428D01*
X10357381Y-16226905D01*
D17*
X5245000Y-16554000D02*
X5395000Y-16704000D01*
X5395000Y-16554000D02*
X5245000Y-16704000D01*
X5320000Y-16554000D02*
X5320000Y-16704000D01*
X5245000Y-16629000D02*
X5395000Y-16629000D01*
D11*
X5757381Y-16719476D02*
X5643095Y-16719476D01*
X5700238Y-16719476D02*
X5700238Y-16519476D01*
X5681190Y-16548048D01*
X5662143Y-16567095D01*
X5643095Y-16576619D01*
X5843095Y-16700428D02*
X5852619Y-16709952D01*
X5843095Y-16719476D01*
X5833571Y-16709952D01*
X5843095Y-16700428D01*
X5843095Y-16719476D01*
X6033571Y-16519476D02*
X5938333Y-16519476D01*
X5928809Y-16614714D01*
X5938333Y-16605190D01*
X5957381Y-16595667D01*
X6005000Y-16595667D01*
X6024048Y-16605190D01*
X6033571Y-16614714D01*
X6043095Y-16633762D01*
X6043095Y-16681381D01*
X6033571Y-16700428D01*
X6024048Y-16709952D01*
X6005000Y-16719476D01*
X5957381Y-16719476D01*
X5938333Y-16709952D01*
X5928809Y-16700428D01*
X6166905Y-16519476D02*
X6185952Y-16519476D01*
X6205000Y-16529000D01*
X6214524Y-16538524D01*
X6224048Y-16557571D01*
X6233571Y-16595667D01*
X6233571Y-16643286D01*
X6224048Y-16681381D01*
X6214524Y-16700428D01*
X6205000Y-16709952D01*
X6185952Y-16719476D01*
X6166905Y-16719476D01*
X6147857Y-16709952D01*
X6138333Y-16700428D01*
X6128809Y-16681381D01*
X6119286Y-16643286D01*
X6119286Y-16595667D01*
X6128809Y-16557571D01*
X6138333Y-16538524D01*
X6147857Y-16529000D01*
X6166905Y-16519476D01*
X6357381Y-16519476D02*
X6376428Y-16519476D01*
X6395476Y-16529000D01*
X6405000Y-16538524D01*
X6414524Y-16557571D01*
X6424048Y-16595667D01*
X6424048Y-16643286D01*
X6414524Y-16681381D01*
X6405000Y-16700428D01*
X6395476Y-16709952D01*
X6376428Y-16719476D01*
X6357381Y-16719476D01*
X6338333Y-16709952D01*
X6328809Y-16700428D01*
X6319286Y-16681381D01*
X6309762Y-16643286D01*
X6309762Y-16595667D01*
X6319286Y-16557571D01*
X6328809Y-16538524D01*
X6338333Y-16529000D01*
X6357381Y-16519476D01*
X6509762Y-16719476D02*
X6509762Y-16586143D01*
X6509762Y-16605190D02*
X6519286Y-16595667D01*
X6538333Y-16586143D01*
X6566905Y-16586143D01*
X6585952Y-16595667D01*
X6595476Y-16614714D01*
X6595476Y-16719476D01*
X6595476Y-16614714D02*
X6605000Y-16595667D01*
X6624048Y-16586143D01*
X6652619Y-16586143D01*
X6671667Y-16595667D01*
X6681190Y-16614714D01*
X6681190Y-16719476D01*
X6776428Y-16719476D02*
X6776428Y-16586143D01*
X6776428Y-16605190D02*
X6785952Y-16595667D01*
X6805000Y-16586143D01*
X6833571Y-16586143D01*
X6852619Y-16595667D01*
X6862143Y-16614714D01*
X6862143Y-16719476D01*
X6862143Y-16614714D02*
X6871667Y-16595667D01*
X6890714Y-16586143D01*
X6919286Y-16586143D01*
X6938333Y-16595667D01*
X6947857Y-16614714D01*
X6947857Y-16719476D01*
X7338333Y-16509952D02*
X7166905Y-16767095D01*
X7595476Y-16519476D02*
X7614524Y-16519476D01*
X7633571Y-16529000D01*
X7643095Y-16538524D01*
X7652619Y-16557571D01*
X7662143Y-16595667D01*
X7662143Y-16643286D01*
X7652619Y-16681381D01*
X7643095Y-16700428D01*
X7633571Y-16709952D01*
X7614524Y-16719476D01*
X7595476Y-16719476D01*
X7576428Y-16709952D01*
X7566905Y-16700428D01*
X7557381Y-16681381D01*
X7547857Y-16643286D01*
X7547857Y-16595667D01*
X7557381Y-16557571D01*
X7566905Y-16538524D01*
X7576428Y-16529000D01*
X7595476Y-16519476D01*
X7747857Y-16700428D02*
X7757381Y-16709952D01*
X7747857Y-16719476D01*
X7738333Y-16709952D01*
X7747857Y-16700428D01*
X7747857Y-16719476D01*
X7881190Y-16519476D02*
X7900238Y-16519476D01*
X7919286Y-16529000D01*
X7928809Y-16538524D01*
X7938333Y-16557571D01*
X7947857Y-16595667D01*
X7947857Y-16643286D01*
X7938333Y-16681381D01*
X7928809Y-16700428D01*
X7919286Y-16709952D01*
X7900238Y-16719476D01*
X7881190Y-16719476D01*
X7862143Y-16709952D01*
X7852619Y-16700428D01*
X7843095Y-16681381D01*
X7833571Y-16643286D01*
X7833571Y-16595667D01*
X7843095Y-16557571D01*
X7852619Y-16538524D01*
X7862143Y-16529000D01*
X7881190Y-16519476D01*
X8128809Y-16519476D02*
X8033571Y-16519476D01*
X8024048Y-16614714D01*
X8033571Y-16605190D01*
X8052619Y-16595667D01*
X8100238Y-16595667D01*
X8119286Y-16605190D01*
X8128809Y-16614714D01*
X8138333Y-16633762D01*
X8138333Y-16681381D01*
X8128809Y-16700428D01*
X8119286Y-16709952D01*
X8100238Y-16719476D01*
X8052619Y-16719476D01*
X8033571Y-16709952D01*
X8024048Y-16700428D01*
X8233571Y-16719476D02*
X8271667Y-16719476D01*
X8290714Y-16709952D01*
X8300238Y-16700428D01*
X8319286Y-16671857D01*
X8328809Y-16633762D01*
X8328809Y-16557571D01*
X8319286Y-16538524D01*
X8309762Y-16529000D01*
X8290714Y-16519476D01*
X8252619Y-16519476D01*
X8233571Y-16529000D01*
X8224048Y-16538524D01*
X8214524Y-16557571D01*
X8214524Y-16605190D01*
X8224048Y-16624238D01*
X8233571Y-16633762D01*
X8252619Y-16643286D01*
X8290714Y-16643286D01*
X8309762Y-16633762D01*
X8319286Y-16624238D01*
X8328809Y-16605190D01*
X8519286Y-16719476D02*
X8405000Y-16719476D01*
X8462143Y-16719476D02*
X8462143Y-16519476D01*
X8443095Y-16548048D01*
X8424048Y-16567095D01*
X8405000Y-16576619D01*
X8595476Y-16519476D02*
X8595476Y-16557571D01*
X8671667Y-16519476D02*
X8671667Y-16557571D01*
X8966905Y-16795667D02*
X8957381Y-16786143D01*
X8938333Y-16757571D01*
X8928810Y-16738524D01*
X8919286Y-16709952D01*
X8909762Y-16662333D01*
X8909762Y-16624238D01*
X8919286Y-16576619D01*
X8928810Y-16548048D01*
X8938333Y-16529000D01*
X8957381Y-16500428D01*
X8966905Y-16490905D01*
X9081190Y-16519476D02*
X9100238Y-16519476D01*
X9119286Y-16529000D01*
X9128810Y-16538524D01*
X9138333Y-16557571D01*
X9147857Y-16595667D01*
X9147857Y-16643286D01*
X9138333Y-16681381D01*
X9128810Y-16700428D01*
X9119286Y-16709952D01*
X9100238Y-16719476D01*
X9081190Y-16719476D01*
X9062143Y-16709952D01*
X9052619Y-16700428D01*
X9043095Y-16681381D01*
X9033571Y-16643286D01*
X9033571Y-16595667D01*
X9043095Y-16557571D01*
X9052619Y-16538524D01*
X9062143Y-16529000D01*
X9081190Y-16519476D01*
X9385952Y-16719476D02*
X9385952Y-16519476D01*
X9471667Y-16719476D02*
X9471667Y-16614714D01*
X9462143Y-16595667D01*
X9443095Y-16586143D01*
X9414524Y-16586143D01*
X9395476Y-16595667D01*
X9385952Y-16605190D01*
X9595476Y-16719476D02*
X9576429Y-16709952D01*
X9566905Y-16700428D01*
X9557381Y-16681381D01*
X9557381Y-16624238D01*
X9566905Y-16605190D01*
X9576429Y-16595667D01*
X9595476Y-16586143D01*
X9624048Y-16586143D01*
X9643095Y-16595667D01*
X9652619Y-16605190D01*
X9662143Y-16624238D01*
X9662143Y-16681381D01*
X9652619Y-16700428D01*
X9643095Y-16709952D01*
X9624048Y-16719476D01*
X9595476Y-16719476D01*
X9776429Y-16719476D02*
X9757381Y-16709952D01*
X9747857Y-16690905D01*
X9747857Y-16519476D01*
X9928810Y-16709952D02*
X9909762Y-16719476D01*
X9871667Y-16719476D01*
X9852619Y-16709952D01*
X9843095Y-16690905D01*
X9843095Y-16614714D01*
X9852619Y-16595667D01*
X9871667Y-16586143D01*
X9909762Y-16586143D01*
X9928810Y-16595667D01*
X9938333Y-16614714D01*
X9938333Y-16633762D01*
X9843095Y-16652809D01*
X10014524Y-16709952D02*
X10033571Y-16719476D01*
X10071667Y-16719476D01*
X10090714Y-16709952D01*
X10100238Y-16690905D01*
X10100238Y-16681381D01*
X10090714Y-16662333D01*
X10071667Y-16652809D01*
X10043095Y-16652809D01*
X10024048Y-16643286D01*
X10014524Y-16624238D01*
X10014524Y-16614714D01*
X10024048Y-16595667D01*
X10043095Y-16586143D01*
X10071667Y-16586143D01*
X10090714Y-16595667D01*
X10338333Y-16643286D02*
X10490714Y-16643286D01*
X10414524Y-16719476D02*
X10414524Y-16567095D01*
X10824048Y-16586143D02*
X10824048Y-16719476D01*
X10776429Y-16509952D02*
X10728810Y-16652809D01*
X10852619Y-16652809D01*
X11071667Y-16709952D02*
X11090714Y-16719476D01*
X11128810Y-16719476D01*
X11147857Y-16709952D01*
X11157381Y-16690905D01*
X11157381Y-16681381D01*
X11147857Y-16662333D01*
X11128810Y-16652809D01*
X11100238Y-16652809D01*
X11081190Y-16643286D01*
X11071667Y-16624238D01*
X11071667Y-16614714D01*
X11081190Y-16595667D01*
X11100238Y-16586143D01*
X11128810Y-16586143D01*
X11147857Y-16595667D01*
X11271667Y-16719476D02*
X11252619Y-16709952D01*
X11243095Y-16690905D01*
X11243095Y-16519476D01*
X11376428Y-16719476D02*
X11357381Y-16709952D01*
X11347857Y-16700428D01*
X11338333Y-16681381D01*
X11338333Y-16624238D01*
X11347857Y-16605190D01*
X11357381Y-16595667D01*
X11376428Y-16586143D01*
X11405000Y-16586143D01*
X11424048Y-16595667D01*
X11433571Y-16605190D01*
X11443095Y-16624238D01*
X11443095Y-16681381D01*
X11433571Y-16700428D01*
X11424048Y-16709952D01*
X11405000Y-16719476D01*
X11376428Y-16719476D01*
X11500238Y-16586143D02*
X11576428Y-16586143D01*
X11528809Y-16519476D02*
X11528809Y-16690905D01*
X11538333Y-16709952D01*
X11557381Y-16719476D01*
X11576428Y-16719476D01*
X11633571Y-16709952D02*
X11652619Y-16719476D01*
X11690714Y-16719476D01*
X11709762Y-16709952D01*
X11719286Y-16690905D01*
X11719286Y-16681381D01*
X11709762Y-16662333D01*
X11690714Y-16652809D01*
X11662143Y-16652809D01*
X11643095Y-16643286D01*
X11633571Y-16624238D01*
X11633571Y-16614714D01*
X11643095Y-16595667D01*
X11662143Y-16586143D01*
X11690714Y-16586143D01*
X11709762Y-16595667D01*
X11785952Y-16795667D02*
X11795476Y-16786143D01*
X11814524Y-16757571D01*
X11824048Y-16738524D01*
X11833571Y-16709952D01*
X11843095Y-16662333D01*
X11843095Y-16624238D01*
X11833571Y-16576619D01*
X11824048Y-16548048D01*
X11814524Y-16529000D01*
X11795476Y-16500428D01*
X11785952Y-16490905D01*
X5195000Y-16799000D02*
X5395000Y-16999000D01*
X5395000Y-16799000D02*
X5195000Y-16999000D01*
X5365711Y-16969711D02*
X5365711Y-16828289D01*
X5224289Y-16828289D01*
X5224289Y-16969711D01*
X5365711Y-16969711D01*
X5643095Y-16808524D02*
X5652619Y-16799000D01*
X5671667Y-16789476D01*
X5719286Y-16789476D01*
X5738333Y-16799000D01*
X5747857Y-16808524D01*
X5757381Y-16827571D01*
X5757381Y-16846619D01*
X5747857Y-16875190D01*
X5633571Y-16989476D01*
X5757381Y-16989476D01*
X5843095Y-16970429D02*
X5852619Y-16979952D01*
X5843095Y-16989476D01*
X5833571Y-16979952D01*
X5843095Y-16970429D01*
X5843095Y-16989476D01*
X5928809Y-16808524D02*
X5938333Y-16799000D01*
X5957381Y-16789476D01*
X6005000Y-16789476D01*
X6024048Y-16799000D01*
X6033571Y-16808524D01*
X6043095Y-16827571D01*
X6043095Y-16846619D01*
X6033571Y-16875190D01*
X5919286Y-16989476D01*
X6043095Y-16989476D01*
X6166905Y-16789476D02*
X6185952Y-16789476D01*
X6205000Y-16799000D01*
X6214524Y-16808524D01*
X6224048Y-16827571D01*
X6233571Y-16865667D01*
X6233571Y-16913286D01*
X6224048Y-16951381D01*
X6214524Y-16970429D01*
X6205000Y-16979952D01*
X6185952Y-16989476D01*
X6166905Y-16989476D01*
X6147857Y-16979952D01*
X6138333Y-16970429D01*
X6128809Y-16951381D01*
X6119286Y-16913286D01*
X6119286Y-16865667D01*
X6128809Y-16827571D01*
X6138333Y-16808524D01*
X6147857Y-16799000D01*
X6166905Y-16789476D01*
X6357381Y-16789476D02*
X6376428Y-16789476D01*
X6395476Y-16799000D01*
X6405000Y-16808524D01*
X6414524Y-16827571D01*
X6424048Y-16865667D01*
X6424048Y-16913286D01*
X6414524Y-16951381D01*
X6405000Y-16970429D01*
X6395476Y-16979952D01*
X6376428Y-16989476D01*
X6357381Y-16989476D01*
X6338333Y-16979952D01*
X6328809Y-16970429D01*
X6319286Y-16951381D01*
X6309762Y-16913286D01*
X6309762Y-16865667D01*
X6319286Y-16827571D01*
X6328809Y-16808524D01*
X6338333Y-16799000D01*
X6357381Y-16789476D01*
X6509762Y-16989476D02*
X6509762Y-16856143D01*
X6509762Y-16875190D02*
X6519286Y-16865667D01*
X6538333Y-16856143D01*
X6566905Y-16856143D01*
X6585952Y-16865667D01*
X6595476Y-16884714D01*
X6595476Y-16989476D01*
X6595476Y-16884714D02*
X6605000Y-16865667D01*
X6624048Y-16856143D01*
X6652619Y-16856143D01*
X6671667Y-16865667D01*
X6681190Y-16884714D01*
X6681190Y-16989476D01*
X6776428Y-16989476D02*
X6776428Y-16856143D01*
X6776428Y-16875190D02*
X6785952Y-16865667D01*
X6805000Y-16856143D01*
X6833571Y-16856143D01*
X6852619Y-16865667D01*
X6862143Y-16884714D01*
X6862143Y-16989476D01*
X6862143Y-16884714D02*
X6871667Y-16865667D01*
X6890714Y-16856143D01*
X6919286Y-16856143D01*
X6938333Y-16865667D01*
X6947857Y-16884714D01*
X6947857Y-16989476D01*
X7338333Y-16779952D02*
X7166905Y-17037095D01*
X7595476Y-16789476D02*
X7614524Y-16789476D01*
X7633571Y-16799000D01*
X7643095Y-16808524D01*
X7652619Y-16827571D01*
X7662143Y-16865667D01*
X7662143Y-16913286D01*
X7652619Y-16951381D01*
X7643095Y-16970429D01*
X7633571Y-16979952D01*
X7614524Y-16989476D01*
X7595476Y-16989476D01*
X7576428Y-16979952D01*
X7566905Y-16970429D01*
X7557381Y-16951381D01*
X7547857Y-16913286D01*
X7547857Y-16865667D01*
X7557381Y-16827571D01*
X7566905Y-16808524D01*
X7576428Y-16799000D01*
X7595476Y-16789476D01*
X7747857Y-16970429D02*
X7757381Y-16979952D01*
X7747857Y-16989476D01*
X7738333Y-16979952D01*
X7747857Y-16970429D01*
X7747857Y-16989476D01*
X7881190Y-16789476D02*
X7900238Y-16789476D01*
X7919286Y-16799000D01*
X7928809Y-16808524D01*
X7938333Y-16827571D01*
X7947857Y-16865667D01*
X7947857Y-16913286D01*
X7938333Y-16951381D01*
X7928809Y-16970429D01*
X7919286Y-16979952D01*
X7900238Y-16989476D01*
X7881190Y-16989476D01*
X7862143Y-16979952D01*
X7852619Y-16970429D01*
X7843095Y-16951381D01*
X7833571Y-16913286D01*
X7833571Y-16865667D01*
X7843095Y-16827571D01*
X7852619Y-16808524D01*
X7862143Y-16799000D01*
X7881190Y-16789476D01*
X8062143Y-16875190D02*
X8043095Y-16865667D01*
X8033571Y-16856143D01*
X8024048Y-16837095D01*
X8024048Y-16827571D01*
X8033571Y-16808524D01*
X8043095Y-16799000D01*
X8062143Y-16789476D01*
X8100238Y-16789476D01*
X8119286Y-16799000D01*
X8128809Y-16808524D01*
X8138333Y-16827571D01*
X8138333Y-16837095D01*
X8128809Y-16856143D01*
X8119286Y-16865667D01*
X8100238Y-16875190D01*
X8062143Y-16875190D01*
X8043095Y-16884714D01*
X8033571Y-16894238D01*
X8024048Y-16913286D01*
X8024048Y-16951381D01*
X8033571Y-16970429D01*
X8043095Y-16979952D01*
X8062143Y-16989476D01*
X8100238Y-16989476D01*
X8119286Y-16979952D01*
X8128809Y-16970429D01*
X8138333Y-16951381D01*
X8138333Y-16913286D01*
X8128809Y-16894238D01*
X8119286Y-16884714D01*
X8100238Y-16875190D01*
X8309762Y-16789476D02*
X8271667Y-16789476D01*
X8252619Y-16799000D01*
X8243095Y-16808524D01*
X8224048Y-16837095D01*
X8214524Y-16875190D01*
X8214524Y-16951381D01*
X8224048Y-16970429D01*
X8233571Y-16979952D01*
X8252619Y-16989476D01*
X8290714Y-16989476D01*
X8309762Y-16979952D01*
X8319286Y-16970429D01*
X8328809Y-16951381D01*
X8328809Y-16903762D01*
X8319286Y-16884714D01*
X8309762Y-16875190D01*
X8290714Y-16865667D01*
X8252619Y-16865667D01*
X8233571Y-16875190D01*
X8224048Y-16884714D01*
X8214524Y-16903762D01*
X8500238Y-16789476D02*
X8462143Y-16789476D01*
X8443095Y-16799000D01*
X8433571Y-16808524D01*
X8414524Y-16837095D01*
X8405000Y-16875190D01*
X8405000Y-16951381D01*
X8414524Y-16970429D01*
X8424048Y-16979952D01*
X8443095Y-16989476D01*
X8481190Y-16989476D01*
X8500238Y-16979952D01*
X8509762Y-16970429D01*
X8519286Y-16951381D01*
X8519286Y-16903762D01*
X8509762Y-16884714D01*
X8500238Y-16875190D01*
X8481190Y-16865667D01*
X8443095Y-16865667D01*
X8424048Y-16875190D01*
X8414524Y-16884714D01*
X8405000Y-16903762D01*
X8595476Y-16789476D02*
X8595476Y-16827571D01*
X8671667Y-16789476D02*
X8671667Y-16827571D01*
X8966905Y-17065667D02*
X8957381Y-17056143D01*
X8938333Y-17027571D01*
X8928810Y-17008524D01*
X8919286Y-16979952D01*
X8909762Y-16932333D01*
X8909762Y-16894238D01*
X8919286Y-16846619D01*
X8928810Y-16818048D01*
X8938333Y-16799000D01*
X8957381Y-16770428D01*
X8966905Y-16760905D01*
X9033571Y-16808524D02*
X9043095Y-16799000D01*
X9062143Y-16789476D01*
X9109762Y-16789476D01*
X9128810Y-16799000D01*
X9138333Y-16808524D01*
X9147857Y-16827571D01*
X9147857Y-16846619D01*
X9138333Y-16875190D01*
X9024048Y-16989476D01*
X9147857Y-16989476D01*
X9385952Y-16989476D02*
X9385952Y-16789476D01*
X9471667Y-16989476D02*
X9471667Y-16884714D01*
X9462143Y-16865667D01*
X9443095Y-16856143D01*
X9414524Y-16856143D01*
X9395476Y-16865667D01*
X9385952Y-16875190D01*
X9595476Y-16989476D02*
X9576429Y-16979952D01*
X9566905Y-16970429D01*
X9557381Y-16951381D01*
X9557381Y-16894238D01*
X9566905Y-16875190D01*
X9576429Y-16865667D01*
X9595476Y-16856143D01*
X9624048Y-16856143D01*
X9643095Y-16865667D01*
X9652619Y-16875190D01*
X9662143Y-16894238D01*
X9662143Y-16951381D01*
X9652619Y-16970429D01*
X9643095Y-16979952D01*
X9624048Y-16989476D01*
X9595476Y-16989476D01*
X9776429Y-16989476D02*
X9757381Y-16979952D01*
X9747857Y-16960905D01*
X9747857Y-16789476D01*
X9928810Y-16979952D02*
X9909762Y-16989476D01*
X9871667Y-16989476D01*
X9852619Y-16979952D01*
X9843095Y-16960905D01*
X9843095Y-16884714D01*
X9852619Y-16865667D01*
X9871667Y-16856143D01*
X9909762Y-16856143D01*
X9928810Y-16865667D01*
X9938333Y-16884714D01*
X9938333Y-16903762D01*
X9843095Y-16922810D01*
X10014524Y-16979952D02*
X10033571Y-16989476D01*
X10071667Y-16989476D01*
X10090714Y-16979952D01*
X10100238Y-16960905D01*
X10100238Y-16951381D01*
X10090714Y-16932333D01*
X10071667Y-16922810D01*
X10043095Y-16922810D01*
X10024048Y-16913286D01*
X10014524Y-16894238D01*
X10014524Y-16884714D01*
X10024048Y-16865667D01*
X10043095Y-16856143D01*
X10071667Y-16856143D01*
X10090714Y-16865667D01*
X10166905Y-17065667D02*
X10176429Y-17056143D01*
X10195476Y-17027571D01*
X10205000Y-17008524D01*
X10214524Y-16979952D01*
X10224048Y-16932333D01*
X10224048Y-16894238D01*
X10214524Y-16846619D01*
X10205000Y-16818048D01*
X10195476Y-16799000D01*
X10176429Y-16770428D01*
X10166905Y-16760905D01*
X5195000Y-17119000D02*
X5395000Y-17319000D01*
X5395000Y-17119000D02*
X5195000Y-17319000D01*
X5295000Y-17319000D02*
X5395000Y-17219000D01*
X5295000Y-17119000D01*
X5195000Y-17219000D01*
X5295000Y-17319000D01*
X5643095Y-17128524D02*
X5652619Y-17119000D01*
X5671667Y-17109476D01*
X5719286Y-17109476D01*
X5738333Y-17119000D01*
X5747857Y-17128524D01*
X5757381Y-17147571D01*
X5757381Y-17166619D01*
X5747857Y-17195190D01*
X5633571Y-17309476D01*
X5757381Y-17309476D01*
X5843095Y-17290429D02*
X5852619Y-17299952D01*
X5843095Y-17309476D01*
X5833571Y-17299952D01*
X5843095Y-17290429D01*
X5843095Y-17309476D01*
X6033571Y-17109476D02*
X5938333Y-17109476D01*
X5928809Y-17204714D01*
X5938333Y-17195190D01*
X5957381Y-17185667D01*
X6005000Y-17185667D01*
X6024048Y-17195190D01*
X6033571Y-17204714D01*
X6043095Y-17223762D01*
X6043095Y-17271381D01*
X6033571Y-17290429D01*
X6024048Y-17299952D01*
X6005000Y-17309476D01*
X5957381Y-17309476D01*
X5938333Y-17299952D01*
X5928809Y-17290429D01*
X6166905Y-17109476D02*
X6185952Y-17109476D01*
X6205000Y-17119000D01*
X6214524Y-17128524D01*
X6224048Y-17147571D01*
X6233571Y-17185667D01*
X6233571Y-17233286D01*
X6224048Y-17271381D01*
X6214524Y-17290429D01*
X6205000Y-17299952D01*
X6185952Y-17309476D01*
X6166905Y-17309476D01*
X6147857Y-17299952D01*
X6138333Y-17290429D01*
X6128809Y-17271381D01*
X6119286Y-17233286D01*
X6119286Y-17185667D01*
X6128809Y-17147571D01*
X6138333Y-17128524D01*
X6147857Y-17119000D01*
X6166905Y-17109476D01*
X6357381Y-17109476D02*
X6376428Y-17109476D01*
X6395476Y-17119000D01*
X6405000Y-17128524D01*
X6414524Y-17147571D01*
X6424048Y-17185667D01*
X6424048Y-17233286D01*
X6414524Y-17271381D01*
X6405000Y-17290429D01*
X6395476Y-17299952D01*
X6376428Y-17309476D01*
X6357381Y-17309476D01*
X6338333Y-17299952D01*
X6328809Y-17290429D01*
X6319286Y-17271381D01*
X6309762Y-17233286D01*
X6309762Y-17185667D01*
X6319286Y-17147571D01*
X6328809Y-17128524D01*
X6338333Y-17119000D01*
X6357381Y-17109476D01*
X6509762Y-17309476D02*
X6509762Y-17176143D01*
X6509762Y-17195190D02*
X6519286Y-17185667D01*
X6538333Y-17176143D01*
X6566905Y-17176143D01*
X6585952Y-17185667D01*
X6595476Y-17204714D01*
X6595476Y-17309476D01*
X6595476Y-17204714D02*
X6605000Y-17185667D01*
X6624048Y-17176143D01*
X6652619Y-17176143D01*
X6671667Y-17185667D01*
X6681190Y-17204714D01*
X6681190Y-17309476D01*
X6776428Y-17309476D02*
X6776428Y-17176143D01*
X6776428Y-17195190D02*
X6785952Y-17185667D01*
X6805000Y-17176143D01*
X6833571Y-17176143D01*
X6852619Y-17185667D01*
X6862143Y-17204714D01*
X6862143Y-17309476D01*
X6862143Y-17204714D02*
X6871667Y-17185667D01*
X6890714Y-17176143D01*
X6919286Y-17176143D01*
X6938333Y-17185667D01*
X6947857Y-17204714D01*
X6947857Y-17309476D01*
X7338333Y-17099952D02*
X7166905Y-17357095D01*
X7595476Y-17109476D02*
X7614524Y-17109476D01*
X7633571Y-17119000D01*
X7643095Y-17128524D01*
X7652619Y-17147571D01*
X7662143Y-17185667D01*
X7662143Y-17233286D01*
X7652619Y-17271381D01*
X7643095Y-17290429D01*
X7633571Y-17299952D01*
X7614524Y-17309476D01*
X7595476Y-17309476D01*
X7576428Y-17299952D01*
X7566905Y-17290429D01*
X7557381Y-17271381D01*
X7547857Y-17233286D01*
X7547857Y-17185667D01*
X7557381Y-17147571D01*
X7566905Y-17128524D01*
X7576428Y-17119000D01*
X7595476Y-17109476D01*
X7747857Y-17290429D02*
X7757381Y-17299952D01*
X7747857Y-17309476D01*
X7738333Y-17299952D01*
X7747857Y-17290429D01*
X7747857Y-17309476D01*
X7881190Y-17109476D02*
X7900238Y-17109476D01*
X7919286Y-17119000D01*
X7928809Y-17128524D01*
X7938333Y-17147571D01*
X7947857Y-17185667D01*
X7947857Y-17233286D01*
X7938333Y-17271381D01*
X7928809Y-17290429D01*
X7919286Y-17299952D01*
X7900238Y-17309476D01*
X7881190Y-17309476D01*
X7862143Y-17299952D01*
X7852619Y-17290429D01*
X7843095Y-17271381D01*
X7833571Y-17233286D01*
X7833571Y-17185667D01*
X7843095Y-17147571D01*
X7852619Y-17128524D01*
X7862143Y-17119000D01*
X7881190Y-17109476D01*
X8043095Y-17309476D02*
X8081190Y-17309476D01*
X8100238Y-17299952D01*
X8109762Y-17290429D01*
X8128809Y-17261857D01*
X8138333Y-17223762D01*
X8138333Y-17147571D01*
X8128809Y-17128524D01*
X8119286Y-17119000D01*
X8100238Y-17109476D01*
X8062143Y-17109476D01*
X8043095Y-17119000D01*
X8033571Y-17128524D01*
X8024048Y-17147571D01*
X8024048Y-17195190D01*
X8033571Y-17214238D01*
X8043095Y-17223762D01*
X8062143Y-17233286D01*
X8100238Y-17233286D01*
X8119286Y-17223762D01*
X8128809Y-17214238D01*
X8138333Y-17195190D01*
X8252619Y-17195190D02*
X8233571Y-17185667D01*
X8224048Y-17176143D01*
X8214524Y-17157095D01*
X8214524Y-17147571D01*
X8224048Y-17128524D01*
X8233571Y-17119000D01*
X8252619Y-17109476D01*
X8290714Y-17109476D01*
X8309762Y-17119000D01*
X8319286Y-17128524D01*
X8328809Y-17147571D01*
X8328809Y-17157095D01*
X8319286Y-17176143D01*
X8309762Y-17185667D01*
X8290714Y-17195190D01*
X8252619Y-17195190D01*
X8233571Y-17204714D01*
X8224048Y-17214238D01*
X8214524Y-17233286D01*
X8214524Y-17271381D01*
X8224048Y-17290429D01*
X8233571Y-17299952D01*
X8252619Y-17309476D01*
X8290714Y-17309476D01*
X8309762Y-17299952D01*
X8319286Y-17290429D01*
X8328809Y-17271381D01*
X8328809Y-17233286D01*
X8319286Y-17214238D01*
X8309762Y-17204714D01*
X8290714Y-17195190D01*
X8500238Y-17176143D02*
X8500238Y-17309476D01*
X8452619Y-17099952D02*
X8405000Y-17242810D01*
X8528810Y-17242810D01*
X8595476Y-17109476D02*
X8595476Y-17147571D01*
X8671667Y-17109476D02*
X8671667Y-17147571D01*
X8966905Y-17385667D02*
X8957381Y-17376143D01*
X8938333Y-17347571D01*
X8928810Y-17328524D01*
X8919286Y-17299952D01*
X8909762Y-17252333D01*
X8909762Y-17214238D01*
X8919286Y-17166619D01*
X8928810Y-17138048D01*
X8938333Y-17119000D01*
X8957381Y-17090429D01*
X8966905Y-17080905D01*
X9024048Y-17109476D02*
X9147857Y-17109476D01*
X9081190Y-17185667D01*
X9109762Y-17185667D01*
X9128810Y-17195190D01*
X9138333Y-17204714D01*
X9147857Y-17223762D01*
X9147857Y-17271381D01*
X9138333Y-17290429D01*
X9128810Y-17299952D01*
X9109762Y-17309476D01*
X9052619Y-17309476D01*
X9033571Y-17299952D01*
X9024048Y-17290429D01*
X9385952Y-17309476D02*
X9385952Y-17109476D01*
X9471667Y-17309476D02*
X9471667Y-17204714D01*
X9462143Y-17185667D01*
X9443095Y-17176143D01*
X9414524Y-17176143D01*
X9395476Y-17185667D01*
X9385952Y-17195190D01*
X9595476Y-17309476D02*
X9576429Y-17299952D01*
X9566905Y-17290429D01*
X9557381Y-17271381D01*
X9557381Y-17214238D01*
X9566905Y-17195190D01*
X9576429Y-17185667D01*
X9595476Y-17176143D01*
X9624048Y-17176143D01*
X9643095Y-17185667D01*
X9652619Y-17195190D01*
X9662143Y-17214238D01*
X9662143Y-17271381D01*
X9652619Y-17290429D01*
X9643095Y-17299952D01*
X9624048Y-17309476D01*
X9595476Y-17309476D01*
X9776429Y-17309476D02*
X9757381Y-17299952D01*
X9747857Y-17280905D01*
X9747857Y-17109476D01*
X9928810Y-17299952D02*
X9909762Y-17309476D01*
X9871667Y-17309476D01*
X9852619Y-17299952D01*
X9843095Y-17280905D01*
X9843095Y-17204714D01*
X9852619Y-17185667D01*
X9871667Y-17176143D01*
X9909762Y-17176143D01*
X9928810Y-17185667D01*
X9938333Y-17204714D01*
X9938333Y-17223762D01*
X9843095Y-17242810D01*
X10014524Y-17299952D02*
X10033571Y-17309476D01*
X10071667Y-17309476D01*
X10090714Y-17299952D01*
X10100238Y-17280905D01*
X10100238Y-17271381D01*
X10090714Y-17252333D01*
X10071667Y-17242810D01*
X10043095Y-17242810D01*
X10024048Y-17233286D01*
X10014524Y-17214238D01*
X10014524Y-17204714D01*
X10024048Y-17185667D01*
X10043095Y-17176143D01*
X10071667Y-17176143D01*
X10090714Y-17185667D01*
X10166905Y-17385667D02*
X10176429Y-17376143D01*
X10195476Y-17347571D01*
X10205000Y-17328524D01*
X10214524Y-17299952D01*
X10224048Y-17252333D01*
X10224048Y-17214238D01*
X10214524Y-17166619D01*
X10205000Y-17138048D01*
X10195476Y-17119000D01*
X10176429Y-17090429D01*
X10166905Y-17080905D01*
X5295000Y-17439000D02*
X5295000Y-17639000D01*
X5195000Y-17539000D02*
X5395000Y-17539000D01*
X5395000Y-17539000D02*
G75*
G03*
X5395000Y-17539000I-100000J0D01*
G01*
X5633571Y-17429476D02*
X5757381Y-17429476D01*
X5690714Y-17505667D01*
X5719286Y-17505667D01*
X5738333Y-17515190D01*
X5747857Y-17524714D01*
X5757381Y-17543762D01*
X5757381Y-17591381D01*
X5747857Y-17610429D01*
X5738333Y-17619952D01*
X5719286Y-17629476D01*
X5662143Y-17629476D01*
X5643095Y-17619952D01*
X5633571Y-17610429D01*
X5843095Y-17610429D02*
X5852619Y-17619952D01*
X5843095Y-17629476D01*
X5833571Y-17619952D01*
X5843095Y-17610429D01*
X5843095Y-17629476D01*
X5928809Y-17448524D02*
X5938333Y-17439000D01*
X5957381Y-17429476D01*
X6005000Y-17429476D01*
X6024048Y-17439000D01*
X6033571Y-17448524D01*
X6043095Y-17467571D01*
X6043095Y-17486619D01*
X6033571Y-17515190D01*
X5919286Y-17629476D01*
X6043095Y-17629476D01*
X6166905Y-17429476D02*
X6185952Y-17429476D01*
X6205000Y-17439000D01*
X6214524Y-17448524D01*
X6224048Y-17467571D01*
X6233571Y-17505667D01*
X6233571Y-17553286D01*
X6224048Y-17591381D01*
X6214524Y-17610429D01*
X6205000Y-17619952D01*
X6185952Y-17629476D01*
X6166905Y-17629476D01*
X6147857Y-17619952D01*
X6138333Y-17610429D01*
X6128809Y-17591381D01*
X6119286Y-17553286D01*
X6119286Y-17505667D01*
X6128809Y-17467571D01*
X6138333Y-17448524D01*
X6147857Y-17439000D01*
X6166905Y-17429476D01*
X6357381Y-17429476D02*
X6376428Y-17429476D01*
X6395476Y-17439000D01*
X6405000Y-17448524D01*
X6414524Y-17467571D01*
X6424048Y-17505667D01*
X6424048Y-17553286D01*
X6414524Y-17591381D01*
X6405000Y-17610429D01*
X6395476Y-17619952D01*
X6376428Y-17629476D01*
X6357381Y-17629476D01*
X6338333Y-17619952D01*
X6328809Y-17610429D01*
X6319286Y-17591381D01*
X6309762Y-17553286D01*
X6309762Y-17505667D01*
X6319286Y-17467571D01*
X6328809Y-17448524D01*
X6338333Y-17439000D01*
X6357381Y-17429476D01*
X6509762Y-17629476D02*
X6509762Y-17496143D01*
X6509762Y-17515190D02*
X6519286Y-17505667D01*
X6538333Y-17496143D01*
X6566905Y-17496143D01*
X6585952Y-17505667D01*
X6595476Y-17524714D01*
X6595476Y-17629476D01*
X6595476Y-17524714D02*
X6605000Y-17505667D01*
X6624048Y-17496143D01*
X6652619Y-17496143D01*
X6671667Y-17505667D01*
X6681190Y-17524714D01*
X6681190Y-17629476D01*
X6776428Y-17629476D02*
X6776428Y-17496143D01*
X6776428Y-17515190D02*
X6785952Y-17505667D01*
X6805000Y-17496143D01*
X6833571Y-17496143D01*
X6852619Y-17505667D01*
X6862143Y-17524714D01*
X6862143Y-17629476D01*
X6862143Y-17524714D02*
X6871667Y-17505667D01*
X6890714Y-17496143D01*
X6919286Y-17496143D01*
X6938333Y-17505667D01*
X6947857Y-17524714D01*
X6947857Y-17629476D01*
X7338333Y-17419952D02*
X7166905Y-17677095D01*
X7595476Y-17429476D02*
X7614524Y-17429476D01*
X7633571Y-17439000D01*
X7643095Y-17448524D01*
X7652619Y-17467571D01*
X7662143Y-17505667D01*
X7662143Y-17553286D01*
X7652619Y-17591381D01*
X7643095Y-17610429D01*
X7633571Y-17619952D01*
X7614524Y-17629476D01*
X7595476Y-17629476D01*
X7576428Y-17619952D01*
X7566905Y-17610429D01*
X7557381Y-17591381D01*
X7547857Y-17553286D01*
X7547857Y-17505667D01*
X7557381Y-17467571D01*
X7566905Y-17448524D01*
X7576428Y-17439000D01*
X7595476Y-17429476D01*
X7747857Y-17610429D02*
X7757381Y-17619952D01*
X7747857Y-17629476D01*
X7738333Y-17619952D01*
X7747857Y-17610429D01*
X7747857Y-17629476D01*
X7947857Y-17629476D02*
X7833571Y-17629476D01*
X7890714Y-17629476D02*
X7890714Y-17429476D01*
X7871667Y-17458048D01*
X7852619Y-17477095D01*
X7833571Y-17486619D01*
X8024048Y-17448524D02*
X8033571Y-17439000D01*
X8052619Y-17429476D01*
X8100238Y-17429476D01*
X8119286Y-17439000D01*
X8128809Y-17448524D01*
X8138333Y-17467571D01*
X8138333Y-17486619D01*
X8128809Y-17515190D01*
X8014524Y-17629476D01*
X8138333Y-17629476D01*
X8309762Y-17429476D02*
X8271667Y-17429476D01*
X8252619Y-17439000D01*
X8243095Y-17448524D01*
X8224048Y-17477095D01*
X8214524Y-17515190D01*
X8214524Y-17591381D01*
X8224048Y-17610429D01*
X8233571Y-17619952D01*
X8252619Y-17629476D01*
X8290714Y-17629476D01*
X8309762Y-17619952D01*
X8319286Y-17610429D01*
X8328809Y-17591381D01*
X8328809Y-17543762D01*
X8319286Y-17524714D01*
X8309762Y-17515190D01*
X8290714Y-17505667D01*
X8252619Y-17505667D01*
X8233571Y-17515190D01*
X8224048Y-17524714D01*
X8214524Y-17543762D01*
X8452619Y-17429476D02*
X8471667Y-17429476D01*
X8490714Y-17439000D01*
X8500238Y-17448524D01*
X8509762Y-17467571D01*
X8519286Y-17505667D01*
X8519286Y-17553286D01*
X8509762Y-17591381D01*
X8500238Y-17610429D01*
X8490714Y-17619952D01*
X8471667Y-17629476D01*
X8452619Y-17629476D01*
X8433571Y-17619952D01*
X8424048Y-17610429D01*
X8414524Y-17591381D01*
X8405000Y-17553286D01*
X8405000Y-17505667D01*
X8414524Y-17467571D01*
X8424048Y-17448524D01*
X8433571Y-17439000D01*
X8452619Y-17429476D01*
X8595476Y-17429476D02*
X8595476Y-17467571D01*
X8671667Y-17429476D02*
X8671667Y-17467571D01*
X8966905Y-17705667D02*
X8957381Y-17696143D01*
X8938333Y-17667571D01*
X8928810Y-17648524D01*
X8919286Y-17619952D01*
X8909762Y-17572333D01*
X8909762Y-17534238D01*
X8919286Y-17486619D01*
X8928810Y-17458048D01*
X8938333Y-17439000D01*
X8957381Y-17410429D01*
X8966905Y-17400905D01*
X9128810Y-17496143D02*
X9128810Y-17629476D01*
X9081190Y-17419952D02*
X9033571Y-17562810D01*
X9157381Y-17562810D01*
X9385952Y-17629476D02*
X9385952Y-17429476D01*
X9471667Y-17629476D02*
X9471667Y-17524714D01*
X9462143Y-17505667D01*
X9443095Y-17496143D01*
X9414524Y-17496143D01*
X9395476Y-17505667D01*
X9385952Y-17515190D01*
X9595476Y-17629476D02*
X9576429Y-17619952D01*
X9566905Y-17610429D01*
X9557381Y-17591381D01*
X9557381Y-17534238D01*
X9566905Y-17515190D01*
X9576429Y-17505667D01*
X9595476Y-17496143D01*
X9624048Y-17496143D01*
X9643095Y-17505667D01*
X9652619Y-17515190D01*
X9662143Y-17534238D01*
X9662143Y-17591381D01*
X9652619Y-17610429D01*
X9643095Y-17619952D01*
X9624048Y-17629476D01*
X9595476Y-17629476D01*
X9776429Y-17629476D02*
X9757381Y-17619952D01*
X9747857Y-17600905D01*
X9747857Y-17429476D01*
X9928810Y-17619952D02*
X9909762Y-17629476D01*
X9871667Y-17629476D01*
X9852619Y-17619952D01*
X9843095Y-17600905D01*
X9843095Y-17524714D01*
X9852619Y-17505667D01*
X9871667Y-17496143D01*
X9909762Y-17496143D01*
X9928810Y-17505667D01*
X9938333Y-17524714D01*
X9938333Y-17543762D01*
X9843095Y-17562810D01*
X10014524Y-17619952D02*
X10033571Y-17629476D01*
X10071667Y-17629476D01*
X10090714Y-17619952D01*
X10100238Y-17600905D01*
X10100238Y-17591381D01*
X10090714Y-17572333D01*
X10071667Y-17562810D01*
X10043095Y-17562810D01*
X10024048Y-17553286D01*
X10014524Y-17534238D01*
X10014524Y-17524714D01*
X10024048Y-17505667D01*
X10043095Y-17496143D01*
X10071667Y-17496143D01*
X10090714Y-17505667D01*
X10166905Y-17705667D02*
X10176429Y-17696143D01*
X10195476Y-17667571D01*
X10205000Y-17648524D01*
X10214524Y-17619952D01*
X10224048Y-17572333D01*
X10224048Y-17534238D01*
X10214524Y-17486619D01*
X10205000Y-17458048D01*
X10195476Y-17439000D01*
X10176429Y-17410429D01*
X10166905Y-17400905D01*
M02*
