%TF.GenerationSoftware,KiCad,Pcbnew,6.0.10-86aedd382b~118~ubuntu20.04.1*%
%TF.CreationDate,2023-02-20T07:12:31-05:00*%
%TF.ProjectId,SDR-Transceiver,5344522d-5472-4616-9e73-636569766572,rev?*%
%TF.SameCoordinates,Original*%
%TF.FileFunction,Drillmap*%
%TF.FilePolarity,Positive*%
%FSLAX45Y45*%
G04 Gerber Fmt 4.5, Leading zero omitted, Abs format (unit mm)*
G04 Created by KiCad (PCBNEW 6.0.10-86aedd382b~118~ubuntu20.04.1) date 2023-02-20 07:12:31*
%MOMM*%
%LPD*%
G01*
G04 APERTURE LIST*
%ADD10C,0.100000*%
%ADD11C,0.200000*%
%ADD12C,0.040000*%
%ADD13C,0.050000*%
%ADD14C,0.060000*%
%ADD15C,0.080000*%
%ADD16C,0.130000*%
%ADD17C,0.150000*%
%ADD18C,0.220000*%
%ADD19C,0.250000*%
%ADD20C,0.320000*%
G04 APERTURE END LIST*
D10*
X6780500Y-4439900D02*
X21780500Y-4439900D01*
X21780500Y-4439900D02*
X21780500Y-14439900D01*
X21780500Y-14439900D02*
X6780500Y-14439900D01*
X6780500Y-14439900D02*
X6780500Y-4439900D01*
D11*
D12*
X7358700Y-8196900D02*
X7398700Y-8236900D01*
X7398700Y-8196900D02*
X7358700Y-8236900D01*
X8349300Y-8039600D02*
X8389300Y-8079600D01*
X8389300Y-8039600D02*
X8349300Y-8079600D01*
X8552500Y-8349300D02*
X8592500Y-8389300D01*
X8592500Y-8349300D02*
X8552500Y-8389300D01*
X9111300Y-7511100D02*
X9151300Y-7551100D01*
X9151300Y-7511100D02*
X9111300Y-7551100D01*
X9466900Y-8374700D02*
X9506900Y-8414700D01*
X9506900Y-8374700D02*
X9466900Y-8414700D01*
X9924100Y-9822500D02*
X9964100Y-9862500D01*
X9964100Y-9822500D02*
X9924100Y-9862500D01*
X10482900Y-7912600D02*
X10522900Y-7952600D01*
X10522900Y-7912600D02*
X10482900Y-7952600D01*
X10584500Y-8349300D02*
X10624500Y-8389300D01*
X10624500Y-8349300D02*
X10584500Y-8389300D01*
X10762300Y-5352100D02*
X10802300Y-5392100D01*
X10802300Y-5352100D02*
X10762300Y-5392100D01*
X11359200Y-10724200D02*
X11399200Y-10764200D01*
X11399200Y-10724200D02*
X11359200Y-10764200D01*
X11371900Y-10990900D02*
X11411900Y-11030900D01*
X11411900Y-10990900D02*
X11371900Y-11030900D01*
X11384600Y-9682800D02*
X11424600Y-9722800D01*
X11424600Y-9682800D02*
X11384600Y-9722800D01*
X11388000Y-9944600D02*
X11428000Y-9984600D01*
X11428000Y-9944600D02*
X11388000Y-9984600D01*
X11727500Y-11219500D02*
X11767500Y-11259500D01*
X11767500Y-11219500D02*
X11727500Y-11259500D01*
X11851200Y-7509800D02*
X11891200Y-7549800D01*
X11891200Y-7509800D02*
X11851200Y-7549800D01*
X11981500Y-8628700D02*
X12021500Y-8668700D01*
X12021500Y-8628700D02*
X11981500Y-8668700D01*
X12083100Y-10711500D02*
X12123100Y-10751500D01*
X12123100Y-10711500D02*
X12083100Y-10751500D01*
X12083100Y-10990900D02*
X12123100Y-11030900D01*
X12123100Y-10990900D02*
X12083100Y-11030900D01*
X12184700Y-8984300D02*
X12224700Y-9024300D01*
X12224700Y-8984300D02*
X12184700Y-9024300D01*
X12260900Y-5301300D02*
X12300900Y-5341300D01*
X12300900Y-5301300D02*
X12260900Y-5341300D01*
X12337100Y-12006900D02*
X12377100Y-12046900D01*
X12377100Y-12006900D02*
X12337100Y-12046900D01*
X12362500Y-6624100D02*
X12402500Y-6664100D01*
X12402500Y-6624100D02*
X12362500Y-6664100D01*
X12514900Y-8450900D02*
X12554900Y-8490900D01*
X12554900Y-8450900D02*
X12514900Y-8490900D01*
X12591100Y-9238300D02*
X12631100Y-9278300D01*
X12631100Y-9238300D02*
X12591100Y-9278300D01*
X12616500Y-7208300D02*
X12656500Y-7248300D01*
X12656500Y-7208300D02*
X12616500Y-7248300D01*
X12743500Y-6215700D02*
X12783500Y-6255700D01*
X12783500Y-6215700D02*
X12743500Y-6255700D01*
X12870500Y-10025700D02*
X12910500Y-10065700D01*
X12910500Y-10025700D02*
X12870500Y-10065700D01*
X12895900Y-9771700D02*
X12935900Y-9811700D01*
X12935900Y-9771700D02*
X12895900Y-9811700D01*
X12895900Y-10355900D02*
X12935900Y-10395900D01*
X12935900Y-10355900D02*
X12895900Y-10395900D01*
X12908600Y-12578400D02*
X12948600Y-12618400D01*
X12948600Y-12578400D02*
X12908600Y-12618400D01*
X12921300Y-11448100D02*
X12961300Y-11488100D01*
X12961300Y-11448100D02*
X12921300Y-11488100D01*
X12984800Y-8768400D02*
X13024800Y-8808400D01*
X13024800Y-8768400D02*
X12984800Y-8808400D01*
X12997500Y-13302300D02*
X13037500Y-13342300D01*
X13037500Y-13302300D02*
X12997500Y-13342300D01*
X13149900Y-10609900D02*
X13189900Y-10649900D01*
X13189900Y-10609900D02*
X13149900Y-10649900D01*
X13175300Y-7130100D02*
X13215300Y-7170100D01*
X13215300Y-7130100D02*
X13175300Y-7170100D01*
X13200700Y-8831900D02*
X13240700Y-8871900D01*
X13240700Y-8831900D02*
X13200700Y-8871900D01*
X13353100Y-7257100D02*
X13393100Y-7297100D01*
X13393100Y-7257100D02*
X13353100Y-7297100D01*
X13429300Y-6317300D02*
X13469300Y-6357300D01*
X13469300Y-6317300D02*
X13429300Y-6357300D01*
X13657900Y-7892100D02*
X13697900Y-7932100D01*
X13697900Y-7892100D02*
X13657900Y-7932100D01*
X13708700Y-11498900D02*
X13748700Y-11538900D01*
X13748700Y-11498900D02*
X13708700Y-11538900D01*
X13995450Y-9484950D02*
X14035450Y-9524950D01*
X14035450Y-9484950D02*
X13995450Y-9524950D01*
X14318300Y-10889300D02*
X14358300Y-10929300D01*
X14358300Y-10889300D02*
X14318300Y-10929300D01*
X14400850Y-6074350D02*
X14440850Y-6114350D01*
X14440850Y-6074350D02*
X14400850Y-6114350D01*
X14407200Y-7630100D02*
X14447200Y-7670100D01*
X14447200Y-7630100D02*
X14407200Y-7670100D01*
X14709600Y-11510659D02*
X14749600Y-11550659D01*
X14749600Y-11510659D02*
X14709600Y-11550659D01*
X14842950Y-10462909D02*
X14882950Y-10502909D01*
X14882950Y-10462909D02*
X14842950Y-10502909D01*
X14851700Y-8354000D02*
X14891700Y-8394000D01*
X14891700Y-8354000D02*
X14851700Y-8394000D01*
X14874700Y-10812159D02*
X14914700Y-10852159D01*
X14914700Y-10812159D02*
X14874700Y-10852159D01*
X14966130Y-7071430D02*
X15006130Y-7111430D01*
X15006130Y-7071430D02*
X14966130Y-7111430D01*
X14978700Y-5839400D02*
X15018700Y-5879400D01*
X15018700Y-5839400D02*
X14978700Y-5879400D01*
X15054900Y-11498900D02*
X15094900Y-11538900D01*
X15094900Y-11498900D02*
X15054900Y-11538900D01*
X15065200Y-10558159D02*
X15105200Y-10598159D01*
X15105200Y-10558159D02*
X15065200Y-10598159D01*
X15461300Y-7434900D02*
X15501300Y-7474900D01*
X15501300Y-7434900D02*
X15461300Y-7474900D01*
X15461300Y-13022900D02*
X15501300Y-13062900D01*
X15501300Y-13022900D02*
X15461300Y-13062900D01*
X15512100Y-10228900D02*
X15552100Y-10268900D01*
X15552100Y-10228900D02*
X15512100Y-10268900D01*
X15842300Y-5479100D02*
X15882300Y-5519100D01*
X15882300Y-5479100D02*
X15842300Y-5519100D01*
X15931200Y-4729800D02*
X15971200Y-4769800D01*
X15971200Y-4729800D02*
X15931200Y-4769800D01*
X16016759Y-11067100D02*
X16056759Y-11107100D01*
X16056759Y-11067100D02*
X16016759Y-11107100D01*
X16020100Y-11321100D02*
X16060100Y-11361100D01*
X16060100Y-11321100D02*
X16020100Y-11361100D01*
X16144700Y-10939159D02*
X16184700Y-10979159D01*
X16184700Y-10939159D02*
X16144700Y-10979159D01*
X16271700Y-10812159D02*
X16311700Y-10852159D01*
X16311700Y-10812159D02*
X16271700Y-10852159D01*
X16655100Y-8806500D02*
X16695100Y-8846500D01*
X16695100Y-8806500D02*
X16655100Y-8846500D01*
X16731300Y-6398200D02*
X16771300Y-6438200D01*
X16771300Y-6398200D02*
X16731300Y-6438200D01*
X16782100Y-10686100D02*
X16822100Y-10726100D01*
X16822100Y-10686100D02*
X16782100Y-10726100D01*
X16883700Y-6698300D02*
X16923700Y-6738300D01*
X16923700Y-6698300D02*
X16883700Y-6738300D01*
X16883700Y-12337100D02*
X16923700Y-12377100D01*
X16923700Y-12337100D02*
X16883700Y-12377100D01*
X16947070Y-6918770D02*
X16987070Y-6958770D01*
X16987070Y-6918770D02*
X16947070Y-6958770D01*
X16973785Y-7512285D02*
X17013785Y-7552285D01*
X17013785Y-7512285D02*
X16973785Y-7552285D01*
X17010700Y-7236400D02*
X17050700Y-7276400D01*
X17050700Y-7236400D02*
X17010700Y-7276400D01*
X17010700Y-11219500D02*
X17050700Y-11259500D01*
X17050700Y-11219500D02*
X17010700Y-11259500D01*
X17036100Y-6474400D02*
X17076100Y-6514400D01*
X17076100Y-6474400D02*
X17036100Y-6514400D01*
X17086900Y-7892100D02*
X17126900Y-7932100D01*
X17126900Y-7892100D02*
X17086900Y-7932100D01*
X17467900Y-11549700D02*
X17507900Y-11589700D01*
X17507900Y-11549700D02*
X17467900Y-11589700D01*
X18001300Y-7312600D02*
X18041300Y-7352600D01*
X18041300Y-7312600D02*
X18001300Y-7352600D01*
X18001300Y-13149900D02*
X18041300Y-13189900D01*
X18041300Y-13149900D02*
X18001300Y-13189900D01*
X18052100Y-7160200D02*
X18092100Y-7200200D01*
X18092100Y-7160200D02*
X18052100Y-7200200D01*
X18102900Y-6906200D02*
X18142900Y-6946200D01*
X18142900Y-6906200D02*
X18102900Y-6946200D01*
X18229900Y-13327700D02*
X18269900Y-13367700D01*
X18269900Y-13327700D02*
X18229900Y-13367700D01*
X18496600Y-11333800D02*
X18536600Y-11373800D01*
X18536600Y-11333800D02*
X18496600Y-11373800D01*
X18737900Y-7384100D02*
X18777900Y-7424100D01*
X18777900Y-7384100D02*
X18737900Y-7424100D01*
X19119180Y-12097350D02*
X19159180Y-12137350D01*
X19159180Y-12097350D02*
X19119180Y-12137350D01*
X19462562Y-12806238D02*
X19502562Y-12846238D01*
X19502562Y-12806238D02*
X19462562Y-12846238D01*
D13*
X6973200Y-14046200D02*
G75*
G03*
X6973200Y-14046200I-25000J0D01*
G01*
X6998600Y-4851400D02*
G75*
G03*
X6998600Y-4851400I-25000J0D01*
G01*
X7043494Y-13876494D02*
G75*
G03*
X7043494Y-13876494I-25000J0D01*
G01*
X7043494Y-14215906D02*
G75*
G03*
X7043494Y-14215906I-25000J0D01*
G01*
X7068894Y-4681694D02*
G75*
G03*
X7068894Y-4681694I-25000J0D01*
G01*
X7068894Y-5021106D02*
G75*
G03*
X7068894Y-5021106I-25000J0D01*
G01*
X7213200Y-13806200D02*
G75*
G03*
X7213200Y-13806200I-25000J0D01*
G01*
X7213200Y-14286200D02*
G75*
G03*
X7213200Y-14286200I-25000J0D01*
G01*
X7238600Y-4611400D02*
G75*
G03*
X7238600Y-4611400I-25000J0D01*
G01*
X7238600Y-5091400D02*
G75*
G03*
X7238600Y-5091400I-25000J0D01*
G01*
X7382906Y-13876494D02*
G75*
G03*
X7382906Y-13876494I-25000J0D01*
G01*
X7382906Y-14215906D02*
G75*
G03*
X7382906Y-14215906I-25000J0D01*
G01*
X7408306Y-4681694D02*
G75*
G03*
X7408306Y-4681694I-25000J0D01*
G01*
X7408306Y-5021106D02*
G75*
G03*
X7408306Y-5021106I-25000J0D01*
G01*
X7453200Y-14046200D02*
G75*
G03*
X7453200Y-14046200I-25000J0D01*
G01*
X7478600Y-4851400D02*
G75*
G03*
X7478600Y-4851400I-25000J0D01*
G01*
X20586580Y-11812550D02*
G75*
G03*
X20586580Y-11812550I-25000J0D01*
G01*
X21146400Y-4851400D02*
G75*
G03*
X21146400Y-4851400I-25000J0D01*
G01*
X21146400Y-14046200D02*
G75*
G03*
X21146400Y-14046200I-25000J0D01*
G01*
X21216694Y-4681694D02*
G75*
G03*
X21216694Y-4681694I-25000J0D01*
G01*
X21216694Y-5021106D02*
G75*
G03*
X21216694Y-5021106I-25000J0D01*
G01*
X21216694Y-13876494D02*
G75*
G03*
X21216694Y-13876494I-25000J0D01*
G01*
X21216694Y-14215906D02*
G75*
G03*
X21216694Y-14215906I-25000J0D01*
G01*
X21386400Y-4611400D02*
G75*
G03*
X21386400Y-4611400I-25000J0D01*
G01*
X21386400Y-5091400D02*
G75*
G03*
X21386400Y-5091400I-25000J0D01*
G01*
X21386400Y-13806200D02*
G75*
G03*
X21386400Y-13806200I-25000J0D01*
G01*
X21386400Y-14286200D02*
G75*
G03*
X21386400Y-14286200I-25000J0D01*
G01*
X21556106Y-4681694D02*
G75*
G03*
X21556106Y-4681694I-25000J0D01*
G01*
X21556106Y-5021106D02*
G75*
G03*
X21556106Y-5021106I-25000J0D01*
G01*
X21556106Y-13876494D02*
G75*
G03*
X21556106Y-13876494I-25000J0D01*
G01*
X21556106Y-14215906D02*
G75*
G03*
X21556106Y-14215906I-25000J0D01*
G01*
X21626400Y-4851400D02*
G75*
G03*
X21626400Y-4851400I-25000J0D01*
G01*
X21626400Y-14046200D02*
G75*
G03*
X21626400Y-14046200I-25000J0D01*
G01*
D14*
X15021700Y-9341659D02*
X15021700Y-9401659D01*
X14991700Y-9371659D02*
X15051700Y-9371659D01*
X15275700Y-9341659D02*
X15275700Y-9401659D01*
X15245700Y-9371659D02*
X15305700Y-9371659D01*
X15529700Y-9341659D02*
X15529700Y-9401659D01*
X15499700Y-9371659D02*
X15559700Y-9371659D01*
X15783700Y-10103659D02*
X15783700Y-10163659D01*
X15753700Y-10133659D02*
X15813700Y-10133659D01*
X16037700Y-10103659D02*
X16037700Y-10163659D01*
X16007700Y-10133659D02*
X16067700Y-10133659D01*
X16291700Y-10103659D02*
X16291700Y-10163659D01*
X16261700Y-10133659D02*
X16321700Y-10133659D01*
X17208500Y-5321400D02*
X17208500Y-5381400D01*
X17178500Y-5351400D02*
X17238500Y-5351400D01*
X17462500Y-5321400D02*
X17462500Y-5381400D01*
X17432500Y-5351400D02*
X17492500Y-5351400D01*
X17716500Y-5321400D02*
X17716500Y-5381400D01*
X17686500Y-5351400D02*
X17746500Y-5351400D01*
X17970500Y-6083400D02*
X17970500Y-6143400D01*
X17940500Y-6113400D02*
X18000500Y-6113400D01*
X18224500Y-6083400D02*
X18224500Y-6143400D01*
X18194500Y-6113400D02*
X18254500Y-6113400D01*
X18478500Y-6083400D02*
X18478500Y-6143400D01*
X18448500Y-6113400D02*
X18508500Y-6113400D01*
X19977380Y-11045950D02*
X19977380Y-11105950D01*
X19947380Y-11075950D02*
X20007380Y-11075950D01*
X19977380Y-11325350D02*
X19977380Y-11385350D01*
X19947380Y-11355350D02*
X20007380Y-11355350D01*
D15*
X20653085Y-9845385D02*
X20653085Y-9788816D01*
X20596516Y-9788816D01*
X20596516Y-9845385D01*
X20653085Y-9845385D01*
X20653085Y-10099385D02*
X20653085Y-10042816D01*
X20596516Y-10042816D01*
X20596516Y-10099385D01*
X20653085Y-10099385D01*
D10*
X7810500Y-7474600D02*
X7860500Y-7424600D01*
X7810500Y-7374600D01*
X7760500Y-7424600D01*
X7810500Y-7474600D01*
X7810500Y-7728600D02*
X7860500Y-7678600D01*
X7810500Y-7628600D01*
X7760500Y-7678600D01*
X7810500Y-7728600D01*
X7810500Y-7982600D02*
X7860500Y-7932600D01*
X7810500Y-7882600D01*
X7760500Y-7932600D01*
X7810500Y-7982600D01*
X7810500Y-8236600D02*
X7860500Y-8186600D01*
X7810500Y-8136600D01*
X7760500Y-8186600D01*
X7810500Y-8236600D01*
X7810500Y-8490600D02*
X7860500Y-8440600D01*
X7810500Y-8390600D01*
X7760500Y-8440600D01*
X7810500Y-8490600D01*
X7810500Y-8744600D02*
X7860500Y-8694600D01*
X7810500Y-8644600D01*
X7760500Y-8694600D01*
X7810500Y-8744600D01*
X7810500Y-8998600D02*
X7860500Y-8948600D01*
X7810500Y-8898600D01*
X7760500Y-8948600D01*
X7810500Y-8998600D01*
X7810500Y-9252600D02*
X7860500Y-9202600D01*
X7810500Y-9152600D01*
X7760500Y-9202600D01*
X7810500Y-9252600D01*
X7810500Y-9506600D02*
X7860500Y-9456600D01*
X7810500Y-9406600D01*
X7760500Y-9456600D01*
X7810500Y-9506600D01*
X7810500Y-9760600D02*
X7860500Y-9710600D01*
X7810500Y-9660600D01*
X7760500Y-9710600D01*
X7810500Y-9760600D01*
X7810500Y-10014600D02*
X7860500Y-9964600D01*
X7810500Y-9914600D01*
X7760500Y-9964600D01*
X7810500Y-10014600D01*
X7810500Y-10268600D02*
X7860500Y-10218600D01*
X7810500Y-10168600D01*
X7760500Y-10218600D01*
X7810500Y-10268600D01*
X7810500Y-10522600D02*
X7860500Y-10472600D01*
X7810500Y-10422600D01*
X7760500Y-10472600D01*
X7810500Y-10522600D01*
X7810500Y-10776600D02*
X7860500Y-10726600D01*
X7810500Y-10676600D01*
X7760500Y-10726600D01*
X7810500Y-10776600D01*
X7810500Y-11030600D02*
X7860500Y-10980600D01*
X7810500Y-10930600D01*
X7760500Y-10980600D01*
X7810500Y-11030600D01*
X7810500Y-11284600D02*
X7860500Y-11234600D01*
X7810500Y-11184600D01*
X7760500Y-11234600D01*
X7810500Y-11284600D01*
X8009000Y-12572200D02*
X8059000Y-12522200D01*
X8009000Y-12472200D01*
X7959000Y-12522200D01*
X8009000Y-12572200D01*
X8009000Y-14022200D02*
X8059000Y-13972200D01*
X8009000Y-13922200D01*
X7959000Y-13972200D01*
X8009000Y-14022200D01*
X8259000Y-12572200D02*
X8309000Y-12522200D01*
X8259000Y-12472200D01*
X8209000Y-12522200D01*
X8259000Y-12572200D01*
X8509000Y-12572200D02*
X8559000Y-12522200D01*
X8509000Y-12472200D01*
X8459000Y-12522200D01*
X8509000Y-12572200D01*
X8509000Y-14022200D02*
X8559000Y-13972200D01*
X8509000Y-13922200D01*
X8459000Y-13972200D01*
X8509000Y-14022200D01*
X8701500Y-5038600D02*
X8751500Y-4988600D01*
X8701500Y-4938600D01*
X8651500Y-4988600D01*
X8701500Y-5038600D01*
X8955500Y-5038600D02*
X9005500Y-4988600D01*
X8955500Y-4938600D01*
X8905500Y-4988600D01*
X8955500Y-5038600D01*
X9209500Y-5038600D02*
X9259500Y-4988600D01*
X9209500Y-4938600D01*
X9159500Y-4988600D01*
X9209500Y-5038600D01*
X9463500Y-5038600D02*
X9513500Y-4988600D01*
X9463500Y-4938600D01*
X9413500Y-4988600D01*
X9463500Y-5038600D01*
X9634600Y-12572200D02*
X9684600Y-12522200D01*
X9634600Y-12472200D01*
X9584600Y-12522200D01*
X9634600Y-12572200D01*
X9634600Y-14022200D02*
X9684600Y-13972200D01*
X9634600Y-13922200D01*
X9584600Y-13972200D01*
X9634600Y-14022200D01*
X9717500Y-5038600D02*
X9767500Y-4988600D01*
X9717500Y-4938600D01*
X9667500Y-4988600D01*
X9717500Y-5038600D01*
X9884600Y-12572200D02*
X9934600Y-12522200D01*
X9884600Y-12472200D01*
X9834600Y-12522200D01*
X9884600Y-12572200D01*
X9971500Y-5038600D02*
X10021500Y-4988600D01*
X9971500Y-4938600D01*
X9921500Y-4988600D01*
X9971500Y-5038600D01*
X10134600Y-12572200D02*
X10184600Y-12522200D01*
X10134600Y-12472200D01*
X10084600Y-12522200D01*
X10134600Y-12572200D01*
X10134600Y-14022200D02*
X10184600Y-13972200D01*
X10134600Y-13922200D01*
X10084600Y-13972200D01*
X10134600Y-14022200D01*
X10225500Y-5038600D02*
X10275500Y-4988600D01*
X10225500Y-4938600D01*
X10175500Y-4988600D01*
X10225500Y-5038600D01*
X11112500Y-7474600D02*
X11162500Y-7424600D01*
X11112500Y-7374600D01*
X11062500Y-7424600D01*
X11112500Y-7474600D01*
X11112500Y-7728600D02*
X11162500Y-7678600D01*
X11112500Y-7628600D01*
X11062500Y-7678600D01*
X11112500Y-7728600D01*
X11112500Y-7982600D02*
X11162500Y-7932600D01*
X11112500Y-7882600D01*
X11062500Y-7932600D01*
X11112500Y-7982600D01*
X11112500Y-8236600D02*
X11162500Y-8186600D01*
X11112500Y-8136600D01*
X11062500Y-8186600D01*
X11112500Y-8236600D01*
X11112500Y-8490600D02*
X11162500Y-8440600D01*
X11112500Y-8390600D01*
X11062500Y-8440600D01*
X11112500Y-8490600D01*
X11112500Y-8744600D02*
X11162500Y-8694600D01*
X11112500Y-8644600D01*
X11062500Y-8694600D01*
X11112500Y-8744600D01*
X11112500Y-8998600D02*
X11162500Y-8948600D01*
X11112500Y-8898600D01*
X11062500Y-8948600D01*
X11112500Y-8998600D01*
X11112500Y-9252600D02*
X11162500Y-9202600D01*
X11112500Y-9152600D01*
X11062500Y-9202600D01*
X11112500Y-9252600D01*
X11112500Y-9506600D02*
X11162500Y-9456600D01*
X11112500Y-9406600D01*
X11062500Y-9456600D01*
X11112500Y-9506600D01*
X11112500Y-9760600D02*
X11162500Y-9710600D01*
X11112500Y-9660600D01*
X11062500Y-9710600D01*
X11112500Y-9760600D01*
X11112500Y-10014600D02*
X11162500Y-9964600D01*
X11112500Y-9914600D01*
X11062500Y-9964600D01*
X11112500Y-10014600D01*
X11112500Y-10268600D02*
X11162500Y-10218600D01*
X11112500Y-10168600D01*
X11062500Y-10218600D01*
X11112500Y-10268600D01*
X11112500Y-10522600D02*
X11162500Y-10472600D01*
X11112500Y-10422600D01*
X11062500Y-10472600D01*
X11112500Y-10522600D01*
X11112500Y-10776600D02*
X11162500Y-10726600D01*
X11112500Y-10676600D01*
X11062500Y-10726600D01*
X11112500Y-10776600D01*
X11112500Y-11030600D02*
X11162500Y-10980600D01*
X11112500Y-10930600D01*
X11062500Y-10980600D01*
X11112500Y-11030600D01*
X11112500Y-11284600D02*
X11162500Y-11234600D01*
X11112500Y-11184600D01*
X11062500Y-11234600D01*
X11112500Y-11284600D01*
X11529800Y-5015700D02*
X11579800Y-4965700D01*
X11529800Y-4915700D01*
X11479800Y-4965700D01*
X11529800Y-5015700D01*
X11783800Y-5015700D02*
X11833800Y-4965700D01*
X11783800Y-4915700D01*
X11733800Y-4965700D01*
X11783800Y-5015700D01*
X12037800Y-5015700D02*
X12087800Y-4965700D01*
X12037800Y-4915700D01*
X11987800Y-4965700D01*
X12037800Y-5015700D01*
X12291800Y-5015700D02*
X12341800Y-4965700D01*
X12291800Y-4915700D01*
X12241800Y-4965700D01*
X12291800Y-5015700D01*
X12545800Y-5015700D02*
X12595800Y-4965700D01*
X12545800Y-4915700D01*
X12495800Y-4965700D01*
X12545800Y-5015700D01*
X12799800Y-5015700D02*
X12849800Y-4965700D01*
X12799800Y-4915700D01*
X12749800Y-4965700D01*
X12799800Y-5015700D01*
X13053800Y-5015700D02*
X13103800Y-4965700D01*
X13053800Y-4915700D01*
X13003800Y-4965700D01*
X13053800Y-5015700D01*
X13296900Y-14210500D02*
X13346900Y-14160500D01*
X13296900Y-14110500D01*
X13246900Y-14160500D01*
X13296900Y-14210500D01*
X13550900Y-14210500D02*
X13600900Y-14160500D01*
X13550900Y-14110500D01*
X13500900Y-14160500D01*
X13550900Y-14210500D01*
X13804900Y-14210500D02*
X13854900Y-14160500D01*
X13804900Y-14110500D01*
X13754900Y-14160500D01*
X13804900Y-14210500D01*
X14058900Y-14210500D02*
X14108900Y-14160500D01*
X14058900Y-14110500D01*
X14008900Y-14160500D01*
X14058900Y-14210500D01*
X14312900Y-14210500D02*
X14362900Y-14160500D01*
X14312900Y-14110500D01*
X14262900Y-14160500D01*
X14312900Y-14210500D01*
X14566900Y-14210500D02*
X14616900Y-14160500D01*
X14566900Y-14110500D01*
X14516900Y-14160500D01*
X14566900Y-14210500D01*
X14719300Y-5015700D02*
X14769300Y-4965700D01*
X14719300Y-4915700D01*
X14669300Y-4965700D01*
X14719300Y-5015700D01*
X14820900Y-14210500D02*
X14870900Y-14160500D01*
X14820900Y-14110500D01*
X14770900Y-14160500D01*
X14820900Y-14210500D01*
X14973300Y-5015700D02*
X15023300Y-4965700D01*
X14973300Y-4915700D01*
X14923300Y-4965700D01*
X14973300Y-5015700D01*
X15227300Y-5015700D02*
X15277300Y-4965700D01*
X15227300Y-4915700D01*
X15177300Y-4965700D01*
X15227300Y-5015700D01*
X15481300Y-5015700D02*
X15531300Y-4965700D01*
X15481300Y-4915700D01*
X15431300Y-4965700D01*
X15481300Y-5015700D01*
X16969030Y-9512500D02*
X17019030Y-9462500D01*
X16969030Y-9412500D01*
X16919030Y-9462500D01*
X16969030Y-9512500D01*
X16969030Y-13112500D02*
X17019030Y-13062500D01*
X16969030Y-13012500D01*
X16919030Y-13062500D01*
X16969030Y-13112500D01*
X17223030Y-9512500D02*
X17273030Y-9462500D01*
X17223030Y-9412500D01*
X17173030Y-9462500D01*
X17223030Y-9512500D01*
X17223030Y-13112500D02*
X17273030Y-13062500D01*
X17223030Y-13012500D01*
X17173030Y-13062500D01*
X17223030Y-13112500D01*
X17462780Y-11989550D02*
X17512780Y-11939550D01*
X17462780Y-11889550D01*
X17412780Y-11939550D01*
X17462780Y-11989550D01*
X17462780Y-12497550D02*
X17512780Y-12447550D01*
X17462780Y-12397550D01*
X17412780Y-12447550D01*
X17462780Y-12497550D01*
X17477030Y-9512500D02*
X17527030Y-9462500D01*
X17477030Y-9412500D01*
X17427030Y-9462500D01*
X17477030Y-9512500D01*
X17477030Y-10071300D02*
X17527030Y-10021300D01*
X17477030Y-9971300D01*
X17427030Y-10021300D01*
X17477030Y-10071300D01*
X17477030Y-10579300D02*
X17527030Y-10529300D01*
X17477030Y-10479300D01*
X17427030Y-10529300D01*
X17477030Y-10579300D01*
X17477030Y-13112500D02*
X17527030Y-13062500D01*
X17477030Y-13012500D01*
X17427030Y-13062500D01*
X17477030Y-13112500D01*
X17970780Y-11989550D02*
X18020780Y-11939550D01*
X17970780Y-11889550D01*
X17920780Y-11939550D01*
X17970780Y-11989550D01*
X17970780Y-12497550D02*
X18020780Y-12447550D01*
X17970780Y-12397550D01*
X17920780Y-12447550D01*
X17970780Y-12497550D01*
X17985030Y-10071300D02*
X18035030Y-10021300D01*
X17985030Y-9971300D01*
X17935030Y-10021300D01*
X17985030Y-10071300D01*
X17985030Y-10579300D02*
X18035030Y-10529300D01*
X17985030Y-10479300D01*
X17935030Y-10529300D01*
X17985030Y-10579300D01*
X18224780Y-11989550D02*
X18274780Y-11939550D01*
X18224780Y-11889550D01*
X18174780Y-11939550D01*
X18224780Y-11989550D01*
X18224780Y-12497550D02*
X18274780Y-12447550D01*
X18224780Y-12397550D01*
X18174780Y-12447550D01*
X18224780Y-12497550D01*
X18239030Y-10071300D02*
X18289030Y-10021300D01*
X18239030Y-9971300D01*
X18189030Y-10021300D01*
X18239030Y-10071300D01*
X18239030Y-10579300D02*
X18289030Y-10529300D01*
X18239030Y-10479300D01*
X18189030Y-10529300D01*
X18239030Y-10579300D01*
X18478780Y-11989550D02*
X18528780Y-11939550D01*
X18478780Y-11889550D01*
X18428780Y-11939550D01*
X18478780Y-11989550D01*
X18478780Y-12497550D02*
X18528780Y-12447550D01*
X18478780Y-12397550D01*
X18428780Y-12447550D01*
X18478780Y-12497550D01*
X18493030Y-10071300D02*
X18543030Y-10021300D01*
X18493030Y-9971300D01*
X18443030Y-10021300D01*
X18493030Y-10071300D01*
X18493030Y-10579300D02*
X18543030Y-10529300D01*
X18493030Y-10479300D01*
X18443030Y-10529300D01*
X18493030Y-10579300D01*
X18899430Y-9512500D02*
X18949430Y-9462500D01*
X18899430Y-9412500D01*
X18849430Y-9462500D01*
X18899430Y-9512500D01*
X18899430Y-13112500D02*
X18949430Y-13062500D01*
X18899430Y-13012500D01*
X18849430Y-13062500D01*
X18899430Y-13112500D01*
X19153430Y-9512500D02*
X19203430Y-9462500D01*
X19153430Y-9412500D01*
X19103430Y-9462500D01*
X19153430Y-9512500D01*
X19153430Y-13112500D02*
X19203430Y-13062500D01*
X19153430Y-13012500D01*
X19103430Y-13062500D01*
X19153430Y-13112500D01*
X19407430Y-9512500D02*
X19457430Y-9462500D01*
X19407430Y-9412500D01*
X19357430Y-9462500D01*
X19407430Y-9512500D01*
X19407430Y-13112500D02*
X19457430Y-13062500D01*
X19407430Y-13012500D01*
X19357430Y-13062500D01*
X19407430Y-13112500D01*
D16*
X20795600Y-7133900D02*
X20925600Y-7263900D01*
X20925600Y-7133900D02*
X20795600Y-7263900D01*
X20925600Y-7198900D02*
G75*
G03*
X20925600Y-7198900I-65000J0D01*
G01*
X20795600Y-7393900D02*
X20925600Y-7523900D01*
X20925600Y-7393900D02*
X20795600Y-7523900D01*
X20925600Y-7458900D02*
G75*
G03*
X20925600Y-7458900I-65000J0D01*
G01*
X20795600Y-7893900D02*
X20925600Y-8023900D01*
X20925600Y-7893900D02*
X20795600Y-8023900D01*
X20925600Y-7958900D02*
G75*
G03*
X20925600Y-7958900I-65000J0D01*
G01*
X20795600Y-8153900D02*
X20925600Y-8283900D01*
X20925600Y-8153900D02*
X20795600Y-8283900D01*
X20925600Y-8218900D02*
G75*
G03*
X20925600Y-8218900I-65000J0D01*
G01*
X21295600Y-7643900D02*
X21425600Y-7773900D01*
X21425600Y-7643900D02*
X21295600Y-7773900D01*
X21425600Y-7708900D02*
G75*
G03*
X21425600Y-7708900I-65000J0D01*
G01*
D17*
X7624000Y-13197200D02*
X7774000Y-13347200D01*
X7774000Y-13197200D02*
X7624000Y-13347200D01*
X7699000Y-13197200D02*
X7699000Y-13347200D01*
X7624000Y-13272200D02*
X7774000Y-13272200D01*
D11*
X7624000Y-13207200D02*
X7624000Y-13337200D01*
X7774000Y-13207200D02*
X7774000Y-13337200D01*
X7624000Y-13337200D02*
G75*
G03*
X7774000Y-13337200I75000J0D01*
G01*
X7774000Y-13207200D02*
G75*
G03*
X7624000Y-13207200I-75000J0D01*
G01*
D17*
X8744000Y-13197200D02*
X8894000Y-13347200D01*
X8894000Y-13197200D02*
X8744000Y-13347200D01*
X8819000Y-13197200D02*
X8819000Y-13347200D01*
X8744000Y-13272200D02*
X8894000Y-13272200D01*
D11*
X8744000Y-13207200D02*
X8744000Y-13337200D01*
X8894000Y-13207200D02*
X8894000Y-13337200D01*
X8744000Y-13337200D02*
G75*
G03*
X8894000Y-13337200I75000J0D01*
G01*
X8894000Y-13207200D02*
G75*
G03*
X8744000Y-13207200I-75000J0D01*
G01*
D17*
X9249600Y-13197200D02*
X9399600Y-13347200D01*
X9399600Y-13197200D02*
X9249600Y-13347200D01*
X9324600Y-13197200D02*
X9324600Y-13347200D01*
X9249600Y-13272200D02*
X9399600Y-13272200D01*
D11*
X9249600Y-13207200D02*
X9249600Y-13337200D01*
X9399600Y-13207200D02*
X9399600Y-13337200D01*
X9249600Y-13337200D02*
G75*
G03*
X9399600Y-13337200I75000J0D01*
G01*
X9399600Y-13207200D02*
G75*
G03*
X9249600Y-13207200I-75000J0D01*
G01*
D17*
X10369600Y-13197200D02*
X10519600Y-13347200D01*
X10519600Y-13197200D02*
X10369600Y-13347200D01*
X10444600Y-13197200D02*
X10444600Y-13347200D01*
X10369600Y-13272200D02*
X10519600Y-13272200D01*
D11*
X10369600Y-13207200D02*
X10369600Y-13337200D01*
X10519600Y-13207200D02*
X10519600Y-13337200D01*
X10369600Y-13337200D02*
G75*
G03*
X10519600Y-13337200I75000J0D01*
G01*
X10519600Y-13207200D02*
G75*
G03*
X10369600Y-13207200I-75000J0D01*
G01*
D18*
X21022800Y-9453100D02*
X21242800Y-9673100D01*
X21242800Y-9453100D02*
X21022800Y-9673100D01*
X21210583Y-9640883D02*
X21210583Y-9485318D01*
X21055018Y-9485318D01*
X21055018Y-9640883D01*
X21210583Y-9640883D01*
X21022800Y-10469100D02*
X21242800Y-10689100D01*
X21242800Y-10469100D02*
X21022800Y-10689100D01*
X21210583Y-10656883D02*
X21210583Y-10501318D01*
X21055018Y-10501318D01*
X21055018Y-10656883D01*
X21210583Y-10656883D01*
D19*
X11546300Y-12816300D02*
X11796300Y-13066300D01*
X11796300Y-12816300D02*
X11546300Y-13066300D01*
X11671300Y-13066300D02*
X11796300Y-12941300D01*
X11671300Y-12816300D01*
X11546300Y-12941300D01*
X11671300Y-13066300D01*
X11546300Y-13416300D02*
X11796300Y-13666300D01*
X11796300Y-13416300D02*
X11546300Y-13666300D01*
X11671300Y-13666300D02*
X11796300Y-13541300D01*
X11671300Y-13416300D01*
X11546300Y-13541300D01*
X11671300Y-13666300D01*
X12016300Y-13116300D02*
X12266300Y-13366300D01*
X12266300Y-13116300D02*
X12016300Y-13366300D01*
X12141300Y-13366300D02*
X12266300Y-13241300D01*
X12141300Y-13116300D01*
X12016300Y-13241300D01*
X12141300Y-13366300D01*
D20*
X7188200Y-13886200D02*
X7188200Y-14206200D01*
X7028200Y-14046200D02*
X7348200Y-14046200D01*
X7348200Y-14046200D02*
G75*
G03*
X7348200Y-14046200I-160000J0D01*
G01*
X7213600Y-4691400D02*
X7213600Y-5011400D01*
X7053600Y-4851400D02*
X7373600Y-4851400D01*
X7373600Y-4851400D02*
G75*
G03*
X7373600Y-4851400I-160000J0D01*
G01*
X21361400Y-4691400D02*
X21361400Y-5011400D01*
X21201400Y-4851400D02*
X21521400Y-4851400D01*
X21521400Y-4851400D02*
G75*
G03*
X21521400Y-4851400I-160000J0D01*
G01*
X21361400Y-13886200D02*
X21361400Y-14206200D01*
X21201400Y-14046200D02*
X21521400Y-14046200D01*
X21521400Y-14046200D02*
G75*
G03*
X21521400Y-14046200I-160000J0D01*
G01*
D11*
X7033119Y-14755376D02*
X7033119Y-14555376D01*
X7080738Y-14555376D01*
X7109309Y-14564900D01*
X7128357Y-14583948D01*
X7137881Y-14602995D01*
X7147405Y-14641090D01*
X7147405Y-14669662D01*
X7137881Y-14707757D01*
X7128357Y-14726805D01*
X7109309Y-14745852D01*
X7080738Y-14755376D01*
X7033119Y-14755376D01*
X7233119Y-14755376D02*
X7233119Y-14622043D01*
X7233119Y-14660138D02*
X7242643Y-14641090D01*
X7252167Y-14631567D01*
X7271214Y-14622043D01*
X7290262Y-14622043D01*
X7356928Y-14755376D02*
X7356928Y-14622043D01*
X7356928Y-14555376D02*
X7347405Y-14564900D01*
X7356928Y-14574424D01*
X7366452Y-14564900D01*
X7356928Y-14555376D01*
X7356928Y-14574424D01*
X7480738Y-14755376D02*
X7461690Y-14745852D01*
X7452167Y-14726805D01*
X7452167Y-14555376D01*
X7585500Y-14755376D02*
X7566452Y-14745852D01*
X7556928Y-14726805D01*
X7556928Y-14555376D01*
X7814071Y-14755376D02*
X7814071Y-14555376D01*
X7880738Y-14698233D01*
X7947405Y-14555376D01*
X7947405Y-14755376D01*
X8128357Y-14755376D02*
X8128357Y-14650614D01*
X8118833Y-14631567D01*
X8099786Y-14622043D01*
X8061690Y-14622043D01*
X8042643Y-14631567D01*
X8128357Y-14745852D02*
X8109309Y-14755376D01*
X8061690Y-14755376D01*
X8042643Y-14745852D01*
X8033119Y-14726805D01*
X8033119Y-14707757D01*
X8042643Y-14688709D01*
X8061690Y-14679186D01*
X8109309Y-14679186D01*
X8128357Y-14669662D01*
X8223595Y-14622043D02*
X8223595Y-14822043D01*
X8223595Y-14631567D02*
X8242643Y-14622043D01*
X8280738Y-14622043D01*
X8299786Y-14631567D01*
X8309309Y-14641090D01*
X8318833Y-14660138D01*
X8318833Y-14717281D01*
X8309309Y-14736328D01*
X8299786Y-14745852D01*
X8280738Y-14755376D01*
X8242643Y-14755376D01*
X8223595Y-14745852D01*
X8404548Y-14736328D02*
X8414071Y-14745852D01*
X8404548Y-14755376D01*
X8395024Y-14745852D01*
X8404548Y-14736328D01*
X8404548Y-14755376D01*
X8404548Y-14631567D02*
X8414071Y-14641090D01*
X8404548Y-14650614D01*
X8395024Y-14641090D01*
X8404548Y-14631567D01*
X8404548Y-14650614D01*
D12*
X6735500Y-15064900D02*
X6775500Y-15104900D01*
X6775500Y-15064900D02*
X6735500Y-15104900D01*
D11*
X7071214Y-14975376D02*
X7090262Y-14975376D01*
X7109309Y-14984900D01*
X7118833Y-14994424D01*
X7128357Y-15013471D01*
X7137881Y-15051567D01*
X7137881Y-15099186D01*
X7128357Y-15137281D01*
X7118833Y-15156328D01*
X7109309Y-15165852D01*
X7090262Y-15175376D01*
X7071214Y-15175376D01*
X7052167Y-15165852D01*
X7042643Y-15156328D01*
X7033119Y-15137281D01*
X7023595Y-15099186D01*
X7023595Y-15051567D01*
X7033119Y-15013471D01*
X7042643Y-14994424D01*
X7052167Y-14984900D01*
X7071214Y-14975376D01*
X7223595Y-15156328D02*
X7233119Y-15165852D01*
X7223595Y-15175376D01*
X7214071Y-15165852D01*
X7223595Y-15156328D01*
X7223595Y-15175376D01*
X7404548Y-15042043D02*
X7404548Y-15175376D01*
X7356928Y-14965852D02*
X7309309Y-15108709D01*
X7433119Y-15108709D01*
X7547405Y-14975376D02*
X7566452Y-14975376D01*
X7585500Y-14984900D01*
X7595024Y-14994424D01*
X7604548Y-15013471D01*
X7614071Y-15051567D01*
X7614071Y-15099186D01*
X7604548Y-15137281D01*
X7595024Y-15156328D01*
X7585500Y-15165852D01*
X7566452Y-15175376D01*
X7547405Y-15175376D01*
X7528357Y-15165852D01*
X7518833Y-15156328D01*
X7509309Y-15137281D01*
X7499786Y-15099186D01*
X7499786Y-15051567D01*
X7509309Y-15013471D01*
X7518833Y-14994424D01*
X7528357Y-14984900D01*
X7547405Y-14975376D01*
X7737881Y-14975376D02*
X7756928Y-14975376D01*
X7775976Y-14984900D01*
X7785500Y-14994424D01*
X7795024Y-15013471D01*
X7804548Y-15051567D01*
X7804548Y-15099186D01*
X7795024Y-15137281D01*
X7785500Y-15156328D01*
X7775976Y-15165852D01*
X7756928Y-15175376D01*
X7737881Y-15175376D01*
X7718833Y-15165852D01*
X7709309Y-15156328D01*
X7699786Y-15137281D01*
X7690262Y-15099186D01*
X7690262Y-15051567D01*
X7699786Y-15013471D01*
X7709309Y-14994424D01*
X7718833Y-14984900D01*
X7737881Y-14975376D01*
X7890262Y-15175376D02*
X7890262Y-15042043D01*
X7890262Y-15061090D02*
X7899786Y-15051567D01*
X7918833Y-15042043D01*
X7947405Y-15042043D01*
X7966452Y-15051567D01*
X7975976Y-15070614D01*
X7975976Y-15175376D01*
X7975976Y-15070614D02*
X7985500Y-15051567D01*
X8004548Y-15042043D01*
X8033119Y-15042043D01*
X8052167Y-15051567D01*
X8061690Y-15070614D01*
X8061690Y-15175376D01*
X8156928Y-15175376D02*
X8156928Y-15042043D01*
X8156928Y-15061090D02*
X8166452Y-15051567D01*
X8185500Y-15042043D01*
X8214071Y-15042043D01*
X8233119Y-15051567D01*
X8242643Y-15070614D01*
X8242643Y-15175376D01*
X8242643Y-15070614D02*
X8252167Y-15051567D01*
X8271214Y-15042043D01*
X8299786Y-15042043D01*
X8318833Y-15051567D01*
X8328357Y-15070614D01*
X8328357Y-15175376D01*
X8718833Y-14965852D02*
X8547405Y-15222995D01*
X8975976Y-14975376D02*
X8995024Y-14975376D01*
X9014071Y-14984900D01*
X9023595Y-14994424D01*
X9033119Y-15013471D01*
X9042643Y-15051567D01*
X9042643Y-15099186D01*
X9033119Y-15137281D01*
X9023595Y-15156328D01*
X9014071Y-15165852D01*
X8995024Y-15175376D01*
X8975976Y-15175376D01*
X8956929Y-15165852D01*
X8947405Y-15156328D01*
X8937881Y-15137281D01*
X8928357Y-15099186D01*
X8928357Y-15051567D01*
X8937881Y-15013471D01*
X8947405Y-14994424D01*
X8956929Y-14984900D01*
X8975976Y-14975376D01*
X9128357Y-15156328D02*
X9137881Y-15165852D01*
X9128357Y-15175376D01*
X9118833Y-15165852D01*
X9128357Y-15156328D01*
X9128357Y-15175376D01*
X9261690Y-14975376D02*
X9280738Y-14975376D01*
X9299786Y-14984900D01*
X9309310Y-14994424D01*
X9318833Y-15013471D01*
X9328357Y-15051567D01*
X9328357Y-15099186D01*
X9318833Y-15137281D01*
X9309310Y-15156328D01*
X9299786Y-15165852D01*
X9280738Y-15175376D01*
X9261690Y-15175376D01*
X9242643Y-15165852D01*
X9233119Y-15156328D01*
X9223595Y-15137281D01*
X9214071Y-15099186D01*
X9214071Y-15051567D01*
X9223595Y-15013471D01*
X9233119Y-14994424D01*
X9242643Y-14984900D01*
X9261690Y-14975376D01*
X9518833Y-15175376D02*
X9404548Y-15175376D01*
X9461690Y-15175376D02*
X9461690Y-14975376D01*
X9442643Y-15003948D01*
X9423595Y-15022995D01*
X9404548Y-15032519D01*
X9699786Y-14975376D02*
X9604548Y-14975376D01*
X9595024Y-15070614D01*
X9604548Y-15061090D01*
X9623595Y-15051567D01*
X9671214Y-15051567D01*
X9690262Y-15061090D01*
X9699786Y-15070614D01*
X9709310Y-15089662D01*
X9709310Y-15137281D01*
X9699786Y-15156328D01*
X9690262Y-15165852D01*
X9671214Y-15175376D01*
X9623595Y-15175376D01*
X9604548Y-15165852D01*
X9595024Y-15156328D01*
X9775976Y-14975376D02*
X9909310Y-14975376D01*
X9823595Y-15175376D01*
X9975976Y-14975376D02*
X9975976Y-15013471D01*
X10052167Y-14975376D02*
X10052167Y-15013471D01*
X10347405Y-15251567D02*
X10337881Y-15242043D01*
X10318833Y-15213471D01*
X10309310Y-15194424D01*
X10299786Y-15165852D01*
X10290262Y-15118233D01*
X10290262Y-15080138D01*
X10299786Y-15032519D01*
X10309310Y-15003948D01*
X10318833Y-14984900D01*
X10337881Y-14956328D01*
X10347405Y-14946805D01*
X10452167Y-15061090D02*
X10433119Y-15051567D01*
X10423595Y-15042043D01*
X10414071Y-15022995D01*
X10414071Y-15013471D01*
X10423595Y-14994424D01*
X10433119Y-14984900D01*
X10452167Y-14975376D01*
X10490262Y-14975376D01*
X10509310Y-14984900D01*
X10518833Y-14994424D01*
X10528357Y-15013471D01*
X10528357Y-15022995D01*
X10518833Y-15042043D01*
X10509310Y-15051567D01*
X10490262Y-15061090D01*
X10452167Y-15061090D01*
X10433119Y-15070614D01*
X10423595Y-15080138D01*
X10414071Y-15099186D01*
X10414071Y-15137281D01*
X10423595Y-15156328D01*
X10433119Y-15165852D01*
X10452167Y-15175376D01*
X10490262Y-15175376D01*
X10509310Y-15165852D01*
X10518833Y-15156328D01*
X10528357Y-15137281D01*
X10528357Y-15099186D01*
X10518833Y-15080138D01*
X10509310Y-15070614D01*
X10490262Y-15061090D01*
X10604548Y-14994424D02*
X10614071Y-14984900D01*
X10633119Y-14975376D01*
X10680738Y-14975376D01*
X10699786Y-14984900D01*
X10709310Y-14994424D01*
X10718833Y-15013471D01*
X10718833Y-15032519D01*
X10709310Y-15061090D01*
X10595024Y-15175376D01*
X10718833Y-15175376D01*
X10956929Y-15175376D02*
X10956929Y-14975376D01*
X11042643Y-15175376D02*
X11042643Y-15070614D01*
X11033119Y-15051567D01*
X11014071Y-15042043D01*
X10985500Y-15042043D01*
X10966452Y-15051567D01*
X10956929Y-15061090D01*
X11166452Y-15175376D02*
X11147405Y-15165852D01*
X11137881Y-15156328D01*
X11128357Y-15137281D01*
X11128357Y-15080138D01*
X11137881Y-15061090D01*
X11147405Y-15051567D01*
X11166452Y-15042043D01*
X11195024Y-15042043D01*
X11214071Y-15051567D01*
X11223595Y-15061090D01*
X11233119Y-15080138D01*
X11233119Y-15137281D01*
X11223595Y-15156328D01*
X11214071Y-15165852D01*
X11195024Y-15175376D01*
X11166452Y-15175376D01*
X11347405Y-15175376D02*
X11328357Y-15165852D01*
X11318833Y-15146805D01*
X11318833Y-14975376D01*
X11499786Y-15165852D02*
X11480738Y-15175376D01*
X11442643Y-15175376D01*
X11423595Y-15165852D01*
X11414071Y-15146805D01*
X11414071Y-15070614D01*
X11423595Y-15051567D01*
X11442643Y-15042043D01*
X11480738Y-15042043D01*
X11499786Y-15051567D01*
X11509309Y-15070614D01*
X11509309Y-15089662D01*
X11414071Y-15108709D01*
X11585500Y-15165852D02*
X11604548Y-15175376D01*
X11642643Y-15175376D01*
X11661690Y-15165852D01*
X11671214Y-15146805D01*
X11671214Y-15137281D01*
X11661690Y-15118233D01*
X11642643Y-15108709D01*
X11614071Y-15108709D01*
X11595024Y-15099186D01*
X11585500Y-15080138D01*
X11585500Y-15070614D01*
X11595024Y-15051567D01*
X11614071Y-15042043D01*
X11642643Y-15042043D01*
X11661690Y-15051567D01*
X11737881Y-15251567D02*
X11747405Y-15242043D01*
X11766452Y-15213471D01*
X11775976Y-15194424D01*
X11785500Y-15165852D01*
X11795024Y-15118233D01*
X11795024Y-15080138D01*
X11785500Y-15032519D01*
X11775976Y-15003948D01*
X11766452Y-14984900D01*
X11747405Y-14956328D01*
X11737881Y-14946805D01*
D13*
X6775500Y-15348900D02*
G75*
G03*
X6775500Y-15348900I-25000J0D01*
G01*
D11*
X7071214Y-15239376D02*
X7090262Y-15239376D01*
X7109309Y-15248900D01*
X7118833Y-15258424D01*
X7128357Y-15277471D01*
X7137881Y-15315567D01*
X7137881Y-15363186D01*
X7128357Y-15401281D01*
X7118833Y-15420328D01*
X7109309Y-15429852D01*
X7090262Y-15439376D01*
X7071214Y-15439376D01*
X7052167Y-15429852D01*
X7042643Y-15420328D01*
X7033119Y-15401281D01*
X7023595Y-15363186D01*
X7023595Y-15315567D01*
X7033119Y-15277471D01*
X7042643Y-15258424D01*
X7052167Y-15248900D01*
X7071214Y-15239376D01*
X7223595Y-15420328D02*
X7233119Y-15429852D01*
X7223595Y-15439376D01*
X7214071Y-15429852D01*
X7223595Y-15420328D01*
X7223595Y-15439376D01*
X7414071Y-15239376D02*
X7318833Y-15239376D01*
X7309309Y-15334614D01*
X7318833Y-15325090D01*
X7337881Y-15315567D01*
X7385500Y-15315567D01*
X7404548Y-15325090D01*
X7414071Y-15334614D01*
X7423595Y-15353662D01*
X7423595Y-15401281D01*
X7414071Y-15420328D01*
X7404548Y-15429852D01*
X7385500Y-15439376D01*
X7337881Y-15439376D01*
X7318833Y-15429852D01*
X7309309Y-15420328D01*
X7547405Y-15239376D02*
X7566452Y-15239376D01*
X7585500Y-15248900D01*
X7595024Y-15258424D01*
X7604548Y-15277471D01*
X7614071Y-15315567D01*
X7614071Y-15363186D01*
X7604548Y-15401281D01*
X7595024Y-15420328D01*
X7585500Y-15429852D01*
X7566452Y-15439376D01*
X7547405Y-15439376D01*
X7528357Y-15429852D01*
X7518833Y-15420328D01*
X7509309Y-15401281D01*
X7499786Y-15363186D01*
X7499786Y-15315567D01*
X7509309Y-15277471D01*
X7518833Y-15258424D01*
X7528357Y-15248900D01*
X7547405Y-15239376D01*
X7737881Y-15239376D02*
X7756928Y-15239376D01*
X7775976Y-15248900D01*
X7785500Y-15258424D01*
X7795024Y-15277471D01*
X7804548Y-15315567D01*
X7804548Y-15363186D01*
X7795024Y-15401281D01*
X7785500Y-15420328D01*
X7775976Y-15429852D01*
X7756928Y-15439376D01*
X7737881Y-15439376D01*
X7718833Y-15429852D01*
X7709309Y-15420328D01*
X7699786Y-15401281D01*
X7690262Y-15363186D01*
X7690262Y-15315567D01*
X7699786Y-15277471D01*
X7709309Y-15258424D01*
X7718833Y-15248900D01*
X7737881Y-15239376D01*
X7890262Y-15439376D02*
X7890262Y-15306043D01*
X7890262Y-15325090D02*
X7899786Y-15315567D01*
X7918833Y-15306043D01*
X7947405Y-15306043D01*
X7966452Y-15315567D01*
X7975976Y-15334614D01*
X7975976Y-15439376D01*
X7975976Y-15334614D02*
X7985500Y-15315567D01*
X8004548Y-15306043D01*
X8033119Y-15306043D01*
X8052167Y-15315567D01*
X8061690Y-15334614D01*
X8061690Y-15439376D01*
X8156928Y-15439376D02*
X8156928Y-15306043D01*
X8156928Y-15325090D02*
X8166452Y-15315567D01*
X8185500Y-15306043D01*
X8214071Y-15306043D01*
X8233119Y-15315567D01*
X8242643Y-15334614D01*
X8242643Y-15439376D01*
X8242643Y-15334614D02*
X8252167Y-15315567D01*
X8271214Y-15306043D01*
X8299786Y-15306043D01*
X8318833Y-15315567D01*
X8328357Y-15334614D01*
X8328357Y-15439376D01*
X8718833Y-15229852D02*
X8547405Y-15486995D01*
X8975976Y-15239376D02*
X8995024Y-15239376D01*
X9014071Y-15248900D01*
X9023595Y-15258424D01*
X9033119Y-15277471D01*
X9042643Y-15315567D01*
X9042643Y-15363186D01*
X9033119Y-15401281D01*
X9023595Y-15420328D01*
X9014071Y-15429852D01*
X8995024Y-15439376D01*
X8975976Y-15439376D01*
X8956929Y-15429852D01*
X8947405Y-15420328D01*
X8937881Y-15401281D01*
X8928357Y-15363186D01*
X8928357Y-15315567D01*
X8937881Y-15277471D01*
X8947405Y-15258424D01*
X8956929Y-15248900D01*
X8975976Y-15239376D01*
X9128357Y-15420328D02*
X9137881Y-15429852D01*
X9128357Y-15439376D01*
X9118833Y-15429852D01*
X9128357Y-15420328D01*
X9128357Y-15439376D01*
X9261690Y-15239376D02*
X9280738Y-15239376D01*
X9299786Y-15248900D01*
X9309310Y-15258424D01*
X9318833Y-15277471D01*
X9328357Y-15315567D01*
X9328357Y-15363186D01*
X9318833Y-15401281D01*
X9309310Y-15420328D01*
X9299786Y-15429852D01*
X9280738Y-15439376D01*
X9261690Y-15439376D01*
X9242643Y-15429852D01*
X9233119Y-15420328D01*
X9223595Y-15401281D01*
X9214071Y-15363186D01*
X9214071Y-15315567D01*
X9223595Y-15277471D01*
X9233119Y-15258424D01*
X9242643Y-15248900D01*
X9261690Y-15239376D01*
X9518833Y-15439376D02*
X9404548Y-15439376D01*
X9461690Y-15439376D02*
X9461690Y-15239376D01*
X9442643Y-15267948D01*
X9423595Y-15286995D01*
X9404548Y-15296519D01*
X9614071Y-15439376D02*
X9652167Y-15439376D01*
X9671214Y-15429852D01*
X9680738Y-15420328D01*
X9699786Y-15391757D01*
X9709310Y-15353662D01*
X9709310Y-15277471D01*
X9699786Y-15258424D01*
X9690262Y-15248900D01*
X9671214Y-15239376D01*
X9633119Y-15239376D01*
X9614071Y-15248900D01*
X9604548Y-15258424D01*
X9595024Y-15277471D01*
X9595024Y-15325090D01*
X9604548Y-15344138D01*
X9614071Y-15353662D01*
X9633119Y-15363186D01*
X9671214Y-15363186D01*
X9690262Y-15353662D01*
X9699786Y-15344138D01*
X9709310Y-15325090D01*
X9775976Y-15239376D02*
X9909310Y-15239376D01*
X9823595Y-15439376D01*
X9975976Y-15239376D02*
X9975976Y-15277471D01*
X10052167Y-15239376D02*
X10052167Y-15277471D01*
X10347405Y-15515567D02*
X10337881Y-15506043D01*
X10318833Y-15477471D01*
X10309310Y-15458424D01*
X10299786Y-15429852D01*
X10290262Y-15382233D01*
X10290262Y-15344138D01*
X10299786Y-15296519D01*
X10309310Y-15267948D01*
X10318833Y-15248900D01*
X10337881Y-15220328D01*
X10347405Y-15210805D01*
X10404548Y-15239376D02*
X10528357Y-15239376D01*
X10461690Y-15315567D01*
X10490262Y-15315567D01*
X10509310Y-15325090D01*
X10518833Y-15334614D01*
X10528357Y-15353662D01*
X10528357Y-15401281D01*
X10518833Y-15420328D01*
X10509310Y-15429852D01*
X10490262Y-15439376D01*
X10433119Y-15439376D01*
X10414071Y-15429852D01*
X10404548Y-15420328D01*
X10595024Y-15239376D02*
X10718833Y-15239376D01*
X10652167Y-15315567D01*
X10680738Y-15315567D01*
X10699786Y-15325090D01*
X10709310Y-15334614D01*
X10718833Y-15353662D01*
X10718833Y-15401281D01*
X10709310Y-15420328D01*
X10699786Y-15429852D01*
X10680738Y-15439376D01*
X10623595Y-15439376D01*
X10604548Y-15429852D01*
X10595024Y-15420328D01*
X10956929Y-15439376D02*
X10956929Y-15239376D01*
X11042643Y-15439376D02*
X11042643Y-15334614D01*
X11033119Y-15315567D01*
X11014071Y-15306043D01*
X10985500Y-15306043D01*
X10966452Y-15315567D01*
X10956929Y-15325090D01*
X11166452Y-15439376D02*
X11147405Y-15429852D01*
X11137881Y-15420328D01*
X11128357Y-15401281D01*
X11128357Y-15344138D01*
X11137881Y-15325090D01*
X11147405Y-15315567D01*
X11166452Y-15306043D01*
X11195024Y-15306043D01*
X11214071Y-15315567D01*
X11223595Y-15325090D01*
X11233119Y-15344138D01*
X11233119Y-15401281D01*
X11223595Y-15420328D01*
X11214071Y-15429852D01*
X11195024Y-15439376D01*
X11166452Y-15439376D01*
X11347405Y-15439376D02*
X11328357Y-15429852D01*
X11318833Y-15410805D01*
X11318833Y-15239376D01*
X11499786Y-15429852D02*
X11480738Y-15439376D01*
X11442643Y-15439376D01*
X11423595Y-15429852D01*
X11414071Y-15410805D01*
X11414071Y-15334614D01*
X11423595Y-15315567D01*
X11442643Y-15306043D01*
X11480738Y-15306043D01*
X11499786Y-15315567D01*
X11509309Y-15334614D01*
X11509309Y-15353662D01*
X11414071Y-15372709D01*
X11585500Y-15429852D02*
X11604548Y-15439376D01*
X11642643Y-15439376D01*
X11661690Y-15429852D01*
X11671214Y-15410805D01*
X11671214Y-15401281D01*
X11661690Y-15382233D01*
X11642643Y-15372709D01*
X11614071Y-15372709D01*
X11595024Y-15363186D01*
X11585500Y-15344138D01*
X11585500Y-15334614D01*
X11595024Y-15315567D01*
X11614071Y-15306043D01*
X11642643Y-15306043D01*
X11661690Y-15315567D01*
X11737881Y-15515567D02*
X11747405Y-15506043D01*
X11766452Y-15477471D01*
X11775976Y-15458424D01*
X11785500Y-15429852D01*
X11795024Y-15382233D01*
X11795024Y-15344138D01*
X11785500Y-15296519D01*
X11775976Y-15267948D01*
X11766452Y-15248900D01*
X11747405Y-15220328D01*
X11737881Y-15210805D01*
D14*
X6745500Y-15582900D02*
X6745500Y-15642900D01*
X6715500Y-15612900D02*
X6775500Y-15612900D01*
D11*
X7071214Y-15503376D02*
X7090262Y-15503376D01*
X7109309Y-15512900D01*
X7118833Y-15522424D01*
X7128357Y-15541471D01*
X7137881Y-15579567D01*
X7137881Y-15627186D01*
X7128357Y-15665281D01*
X7118833Y-15684328D01*
X7109309Y-15693852D01*
X7090262Y-15703376D01*
X7071214Y-15703376D01*
X7052167Y-15693852D01*
X7042643Y-15684328D01*
X7033119Y-15665281D01*
X7023595Y-15627186D01*
X7023595Y-15579567D01*
X7033119Y-15541471D01*
X7042643Y-15522424D01*
X7052167Y-15512900D01*
X7071214Y-15503376D01*
X7223595Y-15684328D02*
X7233119Y-15693852D01*
X7223595Y-15703376D01*
X7214071Y-15693852D01*
X7223595Y-15684328D01*
X7223595Y-15703376D01*
X7404548Y-15503376D02*
X7366452Y-15503376D01*
X7347405Y-15512900D01*
X7337881Y-15522424D01*
X7318833Y-15550995D01*
X7309309Y-15589090D01*
X7309309Y-15665281D01*
X7318833Y-15684328D01*
X7328357Y-15693852D01*
X7347405Y-15703376D01*
X7385500Y-15703376D01*
X7404548Y-15693852D01*
X7414071Y-15684328D01*
X7423595Y-15665281D01*
X7423595Y-15617662D01*
X7414071Y-15598614D01*
X7404548Y-15589090D01*
X7385500Y-15579567D01*
X7347405Y-15579567D01*
X7328357Y-15589090D01*
X7318833Y-15598614D01*
X7309309Y-15617662D01*
X7547405Y-15503376D02*
X7566452Y-15503376D01*
X7585500Y-15512900D01*
X7595024Y-15522424D01*
X7604548Y-15541471D01*
X7614071Y-15579567D01*
X7614071Y-15627186D01*
X7604548Y-15665281D01*
X7595024Y-15684328D01*
X7585500Y-15693852D01*
X7566452Y-15703376D01*
X7547405Y-15703376D01*
X7528357Y-15693852D01*
X7518833Y-15684328D01*
X7509309Y-15665281D01*
X7499786Y-15627186D01*
X7499786Y-15579567D01*
X7509309Y-15541471D01*
X7518833Y-15522424D01*
X7528357Y-15512900D01*
X7547405Y-15503376D01*
X7737881Y-15503376D02*
X7756928Y-15503376D01*
X7775976Y-15512900D01*
X7785500Y-15522424D01*
X7795024Y-15541471D01*
X7804548Y-15579567D01*
X7804548Y-15627186D01*
X7795024Y-15665281D01*
X7785500Y-15684328D01*
X7775976Y-15693852D01*
X7756928Y-15703376D01*
X7737881Y-15703376D01*
X7718833Y-15693852D01*
X7709309Y-15684328D01*
X7699786Y-15665281D01*
X7690262Y-15627186D01*
X7690262Y-15579567D01*
X7699786Y-15541471D01*
X7709309Y-15522424D01*
X7718833Y-15512900D01*
X7737881Y-15503376D01*
X7890262Y-15703376D02*
X7890262Y-15570043D01*
X7890262Y-15589090D02*
X7899786Y-15579567D01*
X7918833Y-15570043D01*
X7947405Y-15570043D01*
X7966452Y-15579567D01*
X7975976Y-15598614D01*
X7975976Y-15703376D01*
X7975976Y-15598614D02*
X7985500Y-15579567D01*
X8004548Y-15570043D01*
X8033119Y-15570043D01*
X8052167Y-15579567D01*
X8061690Y-15598614D01*
X8061690Y-15703376D01*
X8156928Y-15703376D02*
X8156928Y-15570043D01*
X8156928Y-15589090D02*
X8166452Y-15579567D01*
X8185500Y-15570043D01*
X8214071Y-15570043D01*
X8233119Y-15579567D01*
X8242643Y-15598614D01*
X8242643Y-15703376D01*
X8242643Y-15598614D02*
X8252167Y-15579567D01*
X8271214Y-15570043D01*
X8299786Y-15570043D01*
X8318833Y-15579567D01*
X8328357Y-15598614D01*
X8328357Y-15703376D01*
X8718833Y-15493852D02*
X8547405Y-15750995D01*
X8975976Y-15503376D02*
X8995024Y-15503376D01*
X9014071Y-15512900D01*
X9023595Y-15522424D01*
X9033119Y-15541471D01*
X9042643Y-15579567D01*
X9042643Y-15627186D01*
X9033119Y-15665281D01*
X9023595Y-15684328D01*
X9014071Y-15693852D01*
X8995024Y-15703376D01*
X8975976Y-15703376D01*
X8956929Y-15693852D01*
X8947405Y-15684328D01*
X8937881Y-15665281D01*
X8928357Y-15627186D01*
X8928357Y-15579567D01*
X8937881Y-15541471D01*
X8947405Y-15522424D01*
X8956929Y-15512900D01*
X8975976Y-15503376D01*
X9128357Y-15684328D02*
X9137881Y-15693852D01*
X9128357Y-15703376D01*
X9118833Y-15693852D01*
X9128357Y-15684328D01*
X9128357Y-15703376D01*
X9261690Y-15503376D02*
X9280738Y-15503376D01*
X9299786Y-15512900D01*
X9309310Y-15522424D01*
X9318833Y-15541471D01*
X9328357Y-15579567D01*
X9328357Y-15627186D01*
X9318833Y-15665281D01*
X9309310Y-15684328D01*
X9299786Y-15693852D01*
X9280738Y-15703376D01*
X9261690Y-15703376D01*
X9242643Y-15693852D01*
X9233119Y-15684328D01*
X9223595Y-15665281D01*
X9214071Y-15627186D01*
X9214071Y-15579567D01*
X9223595Y-15541471D01*
X9233119Y-15522424D01*
X9242643Y-15512900D01*
X9261690Y-15503376D01*
X9404548Y-15522424D02*
X9414071Y-15512900D01*
X9433119Y-15503376D01*
X9480738Y-15503376D01*
X9499786Y-15512900D01*
X9509310Y-15522424D01*
X9518833Y-15541471D01*
X9518833Y-15560519D01*
X9509310Y-15589090D01*
X9395024Y-15703376D01*
X9518833Y-15703376D01*
X9585500Y-15503376D02*
X9709310Y-15503376D01*
X9642643Y-15579567D01*
X9671214Y-15579567D01*
X9690262Y-15589090D01*
X9699786Y-15598614D01*
X9709310Y-15617662D01*
X9709310Y-15665281D01*
X9699786Y-15684328D01*
X9690262Y-15693852D01*
X9671214Y-15703376D01*
X9614071Y-15703376D01*
X9595024Y-15693852D01*
X9585500Y-15684328D01*
X9880738Y-15503376D02*
X9842643Y-15503376D01*
X9823595Y-15512900D01*
X9814071Y-15522424D01*
X9795024Y-15550995D01*
X9785500Y-15589090D01*
X9785500Y-15665281D01*
X9795024Y-15684328D01*
X9804548Y-15693852D01*
X9823595Y-15703376D01*
X9861690Y-15703376D01*
X9880738Y-15693852D01*
X9890262Y-15684328D01*
X9899786Y-15665281D01*
X9899786Y-15617662D01*
X9890262Y-15598614D01*
X9880738Y-15589090D01*
X9861690Y-15579567D01*
X9823595Y-15579567D01*
X9804548Y-15589090D01*
X9795024Y-15598614D01*
X9785500Y-15617662D01*
X9975976Y-15503376D02*
X9975976Y-15541471D01*
X10052167Y-15503376D02*
X10052167Y-15541471D01*
X10347405Y-15779567D02*
X10337881Y-15770043D01*
X10318833Y-15741471D01*
X10309310Y-15722424D01*
X10299786Y-15693852D01*
X10290262Y-15646233D01*
X10290262Y-15608138D01*
X10299786Y-15560519D01*
X10309310Y-15531948D01*
X10318833Y-15512900D01*
X10337881Y-15484328D01*
X10347405Y-15474805D01*
X10528357Y-15703376D02*
X10414071Y-15703376D01*
X10471214Y-15703376D02*
X10471214Y-15503376D01*
X10452167Y-15531948D01*
X10433119Y-15550995D01*
X10414071Y-15560519D01*
X10699786Y-15570043D02*
X10699786Y-15703376D01*
X10652167Y-15493852D02*
X10604548Y-15636709D01*
X10728357Y-15636709D01*
X10956929Y-15703376D02*
X10956929Y-15503376D01*
X11042643Y-15703376D02*
X11042643Y-15598614D01*
X11033119Y-15579567D01*
X11014071Y-15570043D01*
X10985500Y-15570043D01*
X10966452Y-15579567D01*
X10956929Y-15589090D01*
X11166452Y-15703376D02*
X11147405Y-15693852D01*
X11137881Y-15684328D01*
X11128357Y-15665281D01*
X11128357Y-15608138D01*
X11137881Y-15589090D01*
X11147405Y-15579567D01*
X11166452Y-15570043D01*
X11195024Y-15570043D01*
X11214071Y-15579567D01*
X11223595Y-15589090D01*
X11233119Y-15608138D01*
X11233119Y-15665281D01*
X11223595Y-15684328D01*
X11214071Y-15693852D01*
X11195024Y-15703376D01*
X11166452Y-15703376D01*
X11347405Y-15703376D02*
X11328357Y-15693852D01*
X11318833Y-15674805D01*
X11318833Y-15503376D01*
X11499786Y-15693852D02*
X11480738Y-15703376D01*
X11442643Y-15703376D01*
X11423595Y-15693852D01*
X11414071Y-15674805D01*
X11414071Y-15598614D01*
X11423595Y-15579567D01*
X11442643Y-15570043D01*
X11480738Y-15570043D01*
X11499786Y-15579567D01*
X11509309Y-15598614D01*
X11509309Y-15617662D01*
X11414071Y-15636709D01*
X11585500Y-15693852D02*
X11604548Y-15703376D01*
X11642643Y-15703376D01*
X11661690Y-15693852D01*
X11671214Y-15674805D01*
X11671214Y-15665281D01*
X11661690Y-15646233D01*
X11642643Y-15636709D01*
X11614071Y-15636709D01*
X11595024Y-15627186D01*
X11585500Y-15608138D01*
X11585500Y-15598614D01*
X11595024Y-15579567D01*
X11614071Y-15570043D01*
X11642643Y-15570043D01*
X11661690Y-15579567D01*
X11737881Y-15779567D02*
X11747405Y-15770043D01*
X11766452Y-15741471D01*
X11775976Y-15722424D01*
X11785500Y-15693852D01*
X11795024Y-15646233D01*
X11795024Y-15608138D01*
X11785500Y-15560519D01*
X11775976Y-15531948D01*
X11766452Y-15512900D01*
X11747405Y-15484328D01*
X11737881Y-15474805D01*
D15*
X6763784Y-15905184D02*
X6763784Y-15848615D01*
X6707215Y-15848615D01*
X6707215Y-15905184D01*
X6763784Y-15905184D01*
D11*
X7071214Y-15767376D02*
X7090262Y-15767376D01*
X7109309Y-15776900D01*
X7118833Y-15786424D01*
X7128357Y-15805471D01*
X7137881Y-15843567D01*
X7137881Y-15891186D01*
X7128357Y-15929281D01*
X7118833Y-15948328D01*
X7109309Y-15957852D01*
X7090262Y-15967376D01*
X7071214Y-15967376D01*
X7052167Y-15957852D01*
X7042643Y-15948328D01*
X7033119Y-15929281D01*
X7023595Y-15891186D01*
X7023595Y-15843567D01*
X7033119Y-15805471D01*
X7042643Y-15786424D01*
X7052167Y-15776900D01*
X7071214Y-15767376D01*
X7223595Y-15948328D02*
X7233119Y-15957852D01*
X7223595Y-15967376D01*
X7214071Y-15957852D01*
X7223595Y-15948328D01*
X7223595Y-15967376D01*
X7347405Y-15853090D02*
X7328357Y-15843567D01*
X7318833Y-15834043D01*
X7309309Y-15814995D01*
X7309309Y-15805471D01*
X7318833Y-15786424D01*
X7328357Y-15776900D01*
X7347405Y-15767376D01*
X7385500Y-15767376D01*
X7404548Y-15776900D01*
X7414071Y-15786424D01*
X7423595Y-15805471D01*
X7423595Y-15814995D01*
X7414071Y-15834043D01*
X7404548Y-15843567D01*
X7385500Y-15853090D01*
X7347405Y-15853090D01*
X7328357Y-15862614D01*
X7318833Y-15872138D01*
X7309309Y-15891186D01*
X7309309Y-15929281D01*
X7318833Y-15948328D01*
X7328357Y-15957852D01*
X7347405Y-15967376D01*
X7385500Y-15967376D01*
X7404548Y-15957852D01*
X7414071Y-15948328D01*
X7423595Y-15929281D01*
X7423595Y-15891186D01*
X7414071Y-15872138D01*
X7404548Y-15862614D01*
X7385500Y-15853090D01*
X7547405Y-15767376D02*
X7566452Y-15767376D01*
X7585500Y-15776900D01*
X7595024Y-15786424D01*
X7604548Y-15805471D01*
X7614071Y-15843567D01*
X7614071Y-15891186D01*
X7604548Y-15929281D01*
X7595024Y-15948328D01*
X7585500Y-15957852D01*
X7566452Y-15967376D01*
X7547405Y-15967376D01*
X7528357Y-15957852D01*
X7518833Y-15948328D01*
X7509309Y-15929281D01*
X7499786Y-15891186D01*
X7499786Y-15843567D01*
X7509309Y-15805471D01*
X7518833Y-15786424D01*
X7528357Y-15776900D01*
X7547405Y-15767376D01*
X7737881Y-15767376D02*
X7756928Y-15767376D01*
X7775976Y-15776900D01*
X7785500Y-15786424D01*
X7795024Y-15805471D01*
X7804548Y-15843567D01*
X7804548Y-15891186D01*
X7795024Y-15929281D01*
X7785500Y-15948328D01*
X7775976Y-15957852D01*
X7756928Y-15967376D01*
X7737881Y-15967376D01*
X7718833Y-15957852D01*
X7709309Y-15948328D01*
X7699786Y-15929281D01*
X7690262Y-15891186D01*
X7690262Y-15843567D01*
X7699786Y-15805471D01*
X7709309Y-15786424D01*
X7718833Y-15776900D01*
X7737881Y-15767376D01*
X7890262Y-15967376D02*
X7890262Y-15834043D01*
X7890262Y-15853090D02*
X7899786Y-15843567D01*
X7918833Y-15834043D01*
X7947405Y-15834043D01*
X7966452Y-15843567D01*
X7975976Y-15862614D01*
X7975976Y-15967376D01*
X7975976Y-15862614D02*
X7985500Y-15843567D01*
X8004548Y-15834043D01*
X8033119Y-15834043D01*
X8052167Y-15843567D01*
X8061690Y-15862614D01*
X8061690Y-15967376D01*
X8156928Y-15967376D02*
X8156928Y-15834043D01*
X8156928Y-15853090D02*
X8166452Y-15843567D01*
X8185500Y-15834043D01*
X8214071Y-15834043D01*
X8233119Y-15843567D01*
X8242643Y-15862614D01*
X8242643Y-15967376D01*
X8242643Y-15862614D02*
X8252167Y-15843567D01*
X8271214Y-15834043D01*
X8299786Y-15834043D01*
X8318833Y-15843567D01*
X8328357Y-15862614D01*
X8328357Y-15967376D01*
X8718833Y-15757852D02*
X8547405Y-16014995D01*
X8975976Y-15767376D02*
X8995024Y-15767376D01*
X9014071Y-15776900D01*
X9023595Y-15786424D01*
X9033119Y-15805471D01*
X9042643Y-15843567D01*
X9042643Y-15891186D01*
X9033119Y-15929281D01*
X9023595Y-15948328D01*
X9014071Y-15957852D01*
X8995024Y-15967376D01*
X8975976Y-15967376D01*
X8956929Y-15957852D01*
X8947405Y-15948328D01*
X8937881Y-15929281D01*
X8928357Y-15891186D01*
X8928357Y-15843567D01*
X8937881Y-15805471D01*
X8947405Y-15786424D01*
X8956929Y-15776900D01*
X8975976Y-15767376D01*
X9128357Y-15948328D02*
X9137881Y-15957852D01*
X9128357Y-15967376D01*
X9118833Y-15957852D01*
X9128357Y-15948328D01*
X9128357Y-15967376D01*
X9261690Y-15767376D02*
X9280738Y-15767376D01*
X9299786Y-15776900D01*
X9309310Y-15786424D01*
X9318833Y-15805471D01*
X9328357Y-15843567D01*
X9328357Y-15891186D01*
X9318833Y-15929281D01*
X9309310Y-15948328D01*
X9299786Y-15957852D01*
X9280738Y-15967376D01*
X9261690Y-15967376D01*
X9242643Y-15957852D01*
X9233119Y-15948328D01*
X9223595Y-15929281D01*
X9214071Y-15891186D01*
X9214071Y-15843567D01*
X9223595Y-15805471D01*
X9233119Y-15786424D01*
X9242643Y-15776900D01*
X9261690Y-15767376D01*
X9395024Y-15767376D02*
X9518833Y-15767376D01*
X9452167Y-15843567D01*
X9480738Y-15843567D01*
X9499786Y-15853090D01*
X9509310Y-15862614D01*
X9518833Y-15881662D01*
X9518833Y-15929281D01*
X9509310Y-15948328D01*
X9499786Y-15957852D01*
X9480738Y-15967376D01*
X9423595Y-15967376D01*
X9404548Y-15957852D01*
X9395024Y-15948328D01*
X9709310Y-15967376D02*
X9595024Y-15967376D01*
X9652167Y-15967376D02*
X9652167Y-15767376D01*
X9633119Y-15795948D01*
X9614071Y-15814995D01*
X9595024Y-15824519D01*
X9890262Y-15767376D02*
X9795024Y-15767376D01*
X9785500Y-15862614D01*
X9795024Y-15853090D01*
X9814071Y-15843567D01*
X9861690Y-15843567D01*
X9880738Y-15853090D01*
X9890262Y-15862614D01*
X9899786Y-15881662D01*
X9899786Y-15929281D01*
X9890262Y-15948328D01*
X9880738Y-15957852D01*
X9861690Y-15967376D01*
X9814071Y-15967376D01*
X9795024Y-15957852D01*
X9785500Y-15948328D01*
X9975976Y-15767376D02*
X9975976Y-15805471D01*
X10052167Y-15767376D02*
X10052167Y-15805471D01*
X10347405Y-16043567D02*
X10337881Y-16034043D01*
X10318833Y-16005471D01*
X10309310Y-15986424D01*
X10299786Y-15957852D01*
X10290262Y-15910233D01*
X10290262Y-15872138D01*
X10299786Y-15824519D01*
X10309310Y-15795948D01*
X10318833Y-15776900D01*
X10337881Y-15748328D01*
X10347405Y-15738805D01*
X10414071Y-15786424D02*
X10423595Y-15776900D01*
X10442643Y-15767376D01*
X10490262Y-15767376D01*
X10509310Y-15776900D01*
X10518833Y-15786424D01*
X10528357Y-15805471D01*
X10528357Y-15824519D01*
X10518833Y-15853090D01*
X10404548Y-15967376D01*
X10528357Y-15967376D01*
X10766452Y-15967376D02*
X10766452Y-15767376D01*
X10852167Y-15967376D02*
X10852167Y-15862614D01*
X10842643Y-15843567D01*
X10823595Y-15834043D01*
X10795024Y-15834043D01*
X10775976Y-15843567D01*
X10766452Y-15853090D01*
X10975976Y-15967376D02*
X10956929Y-15957852D01*
X10947405Y-15948328D01*
X10937881Y-15929281D01*
X10937881Y-15872138D01*
X10947405Y-15853090D01*
X10956929Y-15843567D01*
X10975976Y-15834043D01*
X11004548Y-15834043D01*
X11023595Y-15843567D01*
X11033119Y-15853090D01*
X11042643Y-15872138D01*
X11042643Y-15929281D01*
X11033119Y-15948328D01*
X11023595Y-15957852D01*
X11004548Y-15967376D01*
X10975976Y-15967376D01*
X11156929Y-15967376D02*
X11137881Y-15957852D01*
X11128357Y-15938805D01*
X11128357Y-15767376D01*
X11309309Y-15957852D02*
X11290262Y-15967376D01*
X11252167Y-15967376D01*
X11233119Y-15957852D01*
X11223595Y-15938805D01*
X11223595Y-15862614D01*
X11233119Y-15843567D01*
X11252167Y-15834043D01*
X11290262Y-15834043D01*
X11309309Y-15843567D01*
X11318833Y-15862614D01*
X11318833Y-15881662D01*
X11223595Y-15900709D01*
X11395024Y-15957852D02*
X11414071Y-15967376D01*
X11452167Y-15967376D01*
X11471214Y-15957852D01*
X11480738Y-15938805D01*
X11480738Y-15929281D01*
X11471214Y-15910233D01*
X11452167Y-15900709D01*
X11423595Y-15900709D01*
X11404548Y-15891186D01*
X11395024Y-15872138D01*
X11395024Y-15862614D01*
X11404548Y-15843567D01*
X11423595Y-15834043D01*
X11452167Y-15834043D01*
X11471214Y-15843567D01*
X11547405Y-16043567D02*
X11556928Y-16034043D01*
X11575976Y-16005471D01*
X11585500Y-15986424D01*
X11595024Y-15957852D01*
X11604548Y-15910233D01*
X11604548Y-15872138D01*
X11595024Y-15824519D01*
X11585500Y-15795948D01*
X11575976Y-15776900D01*
X11556928Y-15748328D01*
X11547405Y-15738805D01*
D10*
X6725500Y-16190900D02*
X6775500Y-16140900D01*
X6725500Y-16090900D01*
X6675500Y-16140900D01*
X6725500Y-16190900D01*
D11*
X7137881Y-16231376D02*
X7023595Y-16231376D01*
X7080738Y-16231376D02*
X7080738Y-16031376D01*
X7061690Y-16059948D01*
X7042643Y-16078995D01*
X7023595Y-16088519D01*
X7223595Y-16212328D02*
X7233119Y-16221852D01*
X7223595Y-16231376D01*
X7214071Y-16221852D01*
X7223595Y-16212328D01*
X7223595Y-16231376D01*
X7356928Y-16031376D02*
X7375976Y-16031376D01*
X7395024Y-16040900D01*
X7404548Y-16050424D01*
X7414071Y-16069471D01*
X7423595Y-16107567D01*
X7423595Y-16155186D01*
X7414071Y-16193281D01*
X7404548Y-16212328D01*
X7395024Y-16221852D01*
X7375976Y-16231376D01*
X7356928Y-16231376D01*
X7337881Y-16221852D01*
X7328357Y-16212328D01*
X7318833Y-16193281D01*
X7309309Y-16155186D01*
X7309309Y-16107567D01*
X7318833Y-16069471D01*
X7328357Y-16050424D01*
X7337881Y-16040900D01*
X7356928Y-16031376D01*
X7547405Y-16031376D02*
X7566452Y-16031376D01*
X7585500Y-16040900D01*
X7595024Y-16050424D01*
X7604548Y-16069471D01*
X7614071Y-16107567D01*
X7614071Y-16155186D01*
X7604548Y-16193281D01*
X7595024Y-16212328D01*
X7585500Y-16221852D01*
X7566452Y-16231376D01*
X7547405Y-16231376D01*
X7528357Y-16221852D01*
X7518833Y-16212328D01*
X7509309Y-16193281D01*
X7499786Y-16155186D01*
X7499786Y-16107567D01*
X7509309Y-16069471D01*
X7518833Y-16050424D01*
X7528357Y-16040900D01*
X7547405Y-16031376D01*
X7737881Y-16031376D02*
X7756928Y-16031376D01*
X7775976Y-16040900D01*
X7785500Y-16050424D01*
X7795024Y-16069471D01*
X7804548Y-16107567D01*
X7804548Y-16155186D01*
X7795024Y-16193281D01*
X7785500Y-16212328D01*
X7775976Y-16221852D01*
X7756928Y-16231376D01*
X7737881Y-16231376D01*
X7718833Y-16221852D01*
X7709309Y-16212328D01*
X7699786Y-16193281D01*
X7690262Y-16155186D01*
X7690262Y-16107567D01*
X7699786Y-16069471D01*
X7709309Y-16050424D01*
X7718833Y-16040900D01*
X7737881Y-16031376D01*
X7890262Y-16231376D02*
X7890262Y-16098043D01*
X7890262Y-16117090D02*
X7899786Y-16107567D01*
X7918833Y-16098043D01*
X7947405Y-16098043D01*
X7966452Y-16107567D01*
X7975976Y-16126614D01*
X7975976Y-16231376D01*
X7975976Y-16126614D02*
X7985500Y-16107567D01*
X8004548Y-16098043D01*
X8033119Y-16098043D01*
X8052167Y-16107567D01*
X8061690Y-16126614D01*
X8061690Y-16231376D01*
X8156928Y-16231376D02*
X8156928Y-16098043D01*
X8156928Y-16117090D02*
X8166452Y-16107567D01*
X8185500Y-16098043D01*
X8214071Y-16098043D01*
X8233119Y-16107567D01*
X8242643Y-16126614D01*
X8242643Y-16231376D01*
X8242643Y-16126614D02*
X8252167Y-16107567D01*
X8271214Y-16098043D01*
X8299786Y-16098043D01*
X8318833Y-16107567D01*
X8328357Y-16126614D01*
X8328357Y-16231376D01*
X8718833Y-16021852D02*
X8547405Y-16278995D01*
X8975976Y-16031376D02*
X8995024Y-16031376D01*
X9014071Y-16040900D01*
X9023595Y-16050424D01*
X9033119Y-16069471D01*
X9042643Y-16107567D01*
X9042643Y-16155186D01*
X9033119Y-16193281D01*
X9023595Y-16212328D01*
X9014071Y-16221852D01*
X8995024Y-16231376D01*
X8975976Y-16231376D01*
X8956929Y-16221852D01*
X8947405Y-16212328D01*
X8937881Y-16193281D01*
X8928357Y-16155186D01*
X8928357Y-16107567D01*
X8937881Y-16069471D01*
X8947405Y-16050424D01*
X8956929Y-16040900D01*
X8975976Y-16031376D01*
X9128357Y-16212328D02*
X9137881Y-16221852D01*
X9128357Y-16231376D01*
X9118833Y-16221852D01*
X9128357Y-16212328D01*
X9128357Y-16231376D01*
X9261690Y-16031376D02*
X9280738Y-16031376D01*
X9299786Y-16040900D01*
X9309310Y-16050424D01*
X9318833Y-16069471D01*
X9328357Y-16107567D01*
X9328357Y-16155186D01*
X9318833Y-16193281D01*
X9309310Y-16212328D01*
X9299786Y-16221852D01*
X9280738Y-16231376D01*
X9261690Y-16231376D01*
X9242643Y-16221852D01*
X9233119Y-16212328D01*
X9223595Y-16193281D01*
X9214071Y-16155186D01*
X9214071Y-16107567D01*
X9223595Y-16069471D01*
X9233119Y-16050424D01*
X9242643Y-16040900D01*
X9261690Y-16031376D01*
X9395024Y-16031376D02*
X9518833Y-16031376D01*
X9452167Y-16107567D01*
X9480738Y-16107567D01*
X9499786Y-16117090D01*
X9509310Y-16126614D01*
X9518833Y-16145662D01*
X9518833Y-16193281D01*
X9509310Y-16212328D01*
X9499786Y-16221852D01*
X9480738Y-16231376D01*
X9423595Y-16231376D01*
X9404548Y-16221852D01*
X9395024Y-16212328D01*
X9614071Y-16231376D02*
X9652167Y-16231376D01*
X9671214Y-16221852D01*
X9680738Y-16212328D01*
X9699786Y-16183757D01*
X9709310Y-16145662D01*
X9709310Y-16069471D01*
X9699786Y-16050424D01*
X9690262Y-16040900D01*
X9671214Y-16031376D01*
X9633119Y-16031376D01*
X9614071Y-16040900D01*
X9604548Y-16050424D01*
X9595024Y-16069471D01*
X9595024Y-16117090D01*
X9604548Y-16136138D01*
X9614071Y-16145662D01*
X9633119Y-16155186D01*
X9671214Y-16155186D01*
X9690262Y-16145662D01*
X9699786Y-16136138D01*
X9709310Y-16117090D01*
X9880738Y-16098043D02*
X9880738Y-16231376D01*
X9833119Y-16021852D02*
X9785500Y-16164709D01*
X9909310Y-16164709D01*
X9975976Y-16031376D02*
X9975976Y-16069471D01*
X10052167Y-16031376D02*
X10052167Y-16069471D01*
X10347405Y-16307567D02*
X10337881Y-16298043D01*
X10318833Y-16269471D01*
X10309310Y-16250424D01*
X10299786Y-16221852D01*
X10290262Y-16174233D01*
X10290262Y-16136138D01*
X10299786Y-16088519D01*
X10309310Y-16059948D01*
X10318833Y-16040900D01*
X10337881Y-16012328D01*
X10347405Y-16002805D01*
X10433119Y-16231376D02*
X10471214Y-16231376D01*
X10490262Y-16221852D01*
X10499786Y-16212328D01*
X10518833Y-16183757D01*
X10528357Y-16145662D01*
X10528357Y-16069471D01*
X10518833Y-16050424D01*
X10509310Y-16040900D01*
X10490262Y-16031376D01*
X10452167Y-16031376D01*
X10433119Y-16040900D01*
X10423595Y-16050424D01*
X10414071Y-16069471D01*
X10414071Y-16117090D01*
X10423595Y-16136138D01*
X10433119Y-16145662D01*
X10452167Y-16155186D01*
X10490262Y-16155186D01*
X10509310Y-16145662D01*
X10518833Y-16136138D01*
X10528357Y-16117090D01*
X10709310Y-16031376D02*
X10614071Y-16031376D01*
X10604548Y-16126614D01*
X10614071Y-16117090D01*
X10633119Y-16107567D01*
X10680738Y-16107567D01*
X10699786Y-16117090D01*
X10709310Y-16126614D01*
X10718833Y-16145662D01*
X10718833Y-16193281D01*
X10709310Y-16212328D01*
X10699786Y-16221852D01*
X10680738Y-16231376D01*
X10633119Y-16231376D01*
X10614071Y-16221852D01*
X10604548Y-16212328D01*
X10956929Y-16231376D02*
X10956929Y-16031376D01*
X11042643Y-16231376D02*
X11042643Y-16126614D01*
X11033119Y-16107567D01*
X11014071Y-16098043D01*
X10985500Y-16098043D01*
X10966452Y-16107567D01*
X10956929Y-16117090D01*
X11166452Y-16231376D02*
X11147405Y-16221852D01*
X11137881Y-16212328D01*
X11128357Y-16193281D01*
X11128357Y-16136138D01*
X11137881Y-16117090D01*
X11147405Y-16107567D01*
X11166452Y-16098043D01*
X11195024Y-16098043D01*
X11214071Y-16107567D01*
X11223595Y-16117090D01*
X11233119Y-16136138D01*
X11233119Y-16193281D01*
X11223595Y-16212328D01*
X11214071Y-16221852D01*
X11195024Y-16231376D01*
X11166452Y-16231376D01*
X11347405Y-16231376D02*
X11328357Y-16221852D01*
X11318833Y-16202805D01*
X11318833Y-16031376D01*
X11499786Y-16221852D02*
X11480738Y-16231376D01*
X11442643Y-16231376D01*
X11423595Y-16221852D01*
X11414071Y-16202805D01*
X11414071Y-16126614D01*
X11423595Y-16107567D01*
X11442643Y-16098043D01*
X11480738Y-16098043D01*
X11499786Y-16107567D01*
X11509309Y-16126614D01*
X11509309Y-16145662D01*
X11414071Y-16164709D01*
X11585500Y-16221852D02*
X11604548Y-16231376D01*
X11642643Y-16231376D01*
X11661690Y-16221852D01*
X11671214Y-16202805D01*
X11671214Y-16193281D01*
X11661690Y-16174233D01*
X11642643Y-16164709D01*
X11614071Y-16164709D01*
X11595024Y-16155186D01*
X11585500Y-16136138D01*
X11585500Y-16126614D01*
X11595024Y-16107567D01*
X11614071Y-16098043D01*
X11642643Y-16098043D01*
X11661690Y-16107567D01*
X11737881Y-16307567D02*
X11747405Y-16298043D01*
X11766452Y-16269471D01*
X11775976Y-16250424D01*
X11785500Y-16221852D01*
X11795024Y-16174233D01*
X11795024Y-16136138D01*
X11785500Y-16088519D01*
X11775976Y-16059948D01*
X11766452Y-16040900D01*
X11747405Y-16012328D01*
X11737881Y-16002805D01*
D16*
X6645500Y-16339900D02*
X6775500Y-16469900D01*
X6775500Y-16339900D02*
X6645500Y-16469900D01*
X6775500Y-16404900D02*
G75*
G03*
X6775500Y-16404900I-65000J0D01*
G01*
D11*
X7137881Y-16495376D02*
X7023595Y-16495376D01*
X7080738Y-16495376D02*
X7080738Y-16295376D01*
X7061690Y-16323948D01*
X7042643Y-16342995D01*
X7023595Y-16352519D01*
X7223595Y-16476328D02*
X7233119Y-16485852D01*
X7223595Y-16495376D01*
X7214071Y-16485852D01*
X7223595Y-16476328D01*
X7223595Y-16495376D01*
X7299786Y-16295376D02*
X7423595Y-16295376D01*
X7356928Y-16371567D01*
X7385500Y-16371567D01*
X7404548Y-16381090D01*
X7414071Y-16390614D01*
X7423595Y-16409662D01*
X7423595Y-16457281D01*
X7414071Y-16476328D01*
X7404548Y-16485852D01*
X7385500Y-16495376D01*
X7328357Y-16495376D01*
X7309309Y-16485852D01*
X7299786Y-16476328D01*
X7547405Y-16295376D02*
X7566452Y-16295376D01*
X7585500Y-16304900D01*
X7595024Y-16314424D01*
X7604548Y-16333471D01*
X7614071Y-16371567D01*
X7614071Y-16419186D01*
X7604548Y-16457281D01*
X7595024Y-16476328D01*
X7585500Y-16485852D01*
X7566452Y-16495376D01*
X7547405Y-16495376D01*
X7528357Y-16485852D01*
X7518833Y-16476328D01*
X7509309Y-16457281D01*
X7499786Y-16419186D01*
X7499786Y-16371567D01*
X7509309Y-16333471D01*
X7518833Y-16314424D01*
X7528357Y-16304900D01*
X7547405Y-16295376D01*
X7737881Y-16295376D02*
X7756928Y-16295376D01*
X7775976Y-16304900D01*
X7785500Y-16314424D01*
X7795024Y-16333471D01*
X7804548Y-16371567D01*
X7804548Y-16419186D01*
X7795024Y-16457281D01*
X7785500Y-16476328D01*
X7775976Y-16485852D01*
X7756928Y-16495376D01*
X7737881Y-16495376D01*
X7718833Y-16485852D01*
X7709309Y-16476328D01*
X7699786Y-16457281D01*
X7690262Y-16419186D01*
X7690262Y-16371567D01*
X7699786Y-16333471D01*
X7709309Y-16314424D01*
X7718833Y-16304900D01*
X7737881Y-16295376D01*
X7890262Y-16495376D02*
X7890262Y-16362043D01*
X7890262Y-16381090D02*
X7899786Y-16371567D01*
X7918833Y-16362043D01*
X7947405Y-16362043D01*
X7966452Y-16371567D01*
X7975976Y-16390614D01*
X7975976Y-16495376D01*
X7975976Y-16390614D02*
X7985500Y-16371567D01*
X8004548Y-16362043D01*
X8033119Y-16362043D01*
X8052167Y-16371567D01*
X8061690Y-16390614D01*
X8061690Y-16495376D01*
X8156928Y-16495376D02*
X8156928Y-16362043D01*
X8156928Y-16381090D02*
X8166452Y-16371567D01*
X8185500Y-16362043D01*
X8214071Y-16362043D01*
X8233119Y-16371567D01*
X8242643Y-16390614D01*
X8242643Y-16495376D01*
X8242643Y-16390614D02*
X8252167Y-16371567D01*
X8271214Y-16362043D01*
X8299786Y-16362043D01*
X8318833Y-16371567D01*
X8328357Y-16390614D01*
X8328357Y-16495376D01*
X8718833Y-16285852D02*
X8547405Y-16542995D01*
X8975976Y-16295376D02*
X8995024Y-16295376D01*
X9014071Y-16304900D01*
X9023595Y-16314424D01*
X9033119Y-16333471D01*
X9042643Y-16371567D01*
X9042643Y-16419186D01*
X9033119Y-16457281D01*
X9023595Y-16476328D01*
X9014071Y-16485852D01*
X8995024Y-16495376D01*
X8975976Y-16495376D01*
X8956929Y-16485852D01*
X8947405Y-16476328D01*
X8937881Y-16457281D01*
X8928357Y-16419186D01*
X8928357Y-16371567D01*
X8937881Y-16333471D01*
X8947405Y-16314424D01*
X8956929Y-16304900D01*
X8975976Y-16295376D01*
X9128357Y-16476328D02*
X9137881Y-16485852D01*
X9128357Y-16495376D01*
X9118833Y-16485852D01*
X9128357Y-16476328D01*
X9128357Y-16495376D01*
X9261690Y-16295376D02*
X9280738Y-16295376D01*
X9299786Y-16304900D01*
X9309310Y-16314424D01*
X9318833Y-16333471D01*
X9328357Y-16371567D01*
X9328357Y-16419186D01*
X9318833Y-16457281D01*
X9309310Y-16476328D01*
X9299786Y-16485852D01*
X9280738Y-16495376D01*
X9261690Y-16495376D01*
X9242643Y-16485852D01*
X9233119Y-16476328D01*
X9223595Y-16457281D01*
X9214071Y-16419186D01*
X9214071Y-16371567D01*
X9223595Y-16333471D01*
X9233119Y-16314424D01*
X9242643Y-16304900D01*
X9261690Y-16295376D01*
X9509310Y-16295376D02*
X9414071Y-16295376D01*
X9404548Y-16390614D01*
X9414071Y-16381090D01*
X9433119Y-16371567D01*
X9480738Y-16371567D01*
X9499786Y-16381090D01*
X9509310Y-16390614D01*
X9518833Y-16409662D01*
X9518833Y-16457281D01*
X9509310Y-16476328D01*
X9499786Y-16485852D01*
X9480738Y-16495376D01*
X9433119Y-16495376D01*
X9414071Y-16485852D01*
X9404548Y-16476328D01*
X9709310Y-16495376D02*
X9595024Y-16495376D01*
X9652167Y-16495376D02*
X9652167Y-16295376D01*
X9633119Y-16323948D01*
X9614071Y-16342995D01*
X9595024Y-16352519D01*
X9785500Y-16314424D02*
X9795024Y-16304900D01*
X9814071Y-16295376D01*
X9861690Y-16295376D01*
X9880738Y-16304900D01*
X9890262Y-16314424D01*
X9899786Y-16333471D01*
X9899786Y-16352519D01*
X9890262Y-16381090D01*
X9775976Y-16495376D01*
X9899786Y-16495376D01*
X9975976Y-16295376D02*
X9975976Y-16333471D01*
X10052167Y-16295376D02*
X10052167Y-16333471D01*
X10347405Y-16571567D02*
X10337881Y-16562043D01*
X10318833Y-16533471D01*
X10309310Y-16514424D01*
X10299786Y-16485852D01*
X10290262Y-16438233D01*
X10290262Y-16400138D01*
X10299786Y-16352519D01*
X10309310Y-16323948D01*
X10318833Y-16304900D01*
X10337881Y-16276328D01*
X10347405Y-16266805D01*
X10518833Y-16295376D02*
X10423595Y-16295376D01*
X10414071Y-16390614D01*
X10423595Y-16381090D01*
X10442643Y-16371567D01*
X10490262Y-16371567D01*
X10509310Y-16381090D01*
X10518833Y-16390614D01*
X10528357Y-16409662D01*
X10528357Y-16457281D01*
X10518833Y-16476328D01*
X10509310Y-16485852D01*
X10490262Y-16495376D01*
X10442643Y-16495376D01*
X10423595Y-16485852D01*
X10414071Y-16476328D01*
X10766452Y-16495376D02*
X10766452Y-16295376D01*
X10852167Y-16495376D02*
X10852167Y-16390614D01*
X10842643Y-16371567D01*
X10823595Y-16362043D01*
X10795024Y-16362043D01*
X10775976Y-16371567D01*
X10766452Y-16381090D01*
X10975976Y-16495376D02*
X10956929Y-16485852D01*
X10947405Y-16476328D01*
X10937881Y-16457281D01*
X10937881Y-16400138D01*
X10947405Y-16381090D01*
X10956929Y-16371567D01*
X10975976Y-16362043D01*
X11004548Y-16362043D01*
X11023595Y-16371567D01*
X11033119Y-16381090D01*
X11042643Y-16400138D01*
X11042643Y-16457281D01*
X11033119Y-16476328D01*
X11023595Y-16485852D01*
X11004548Y-16495376D01*
X10975976Y-16495376D01*
X11156929Y-16495376D02*
X11137881Y-16485852D01*
X11128357Y-16466805D01*
X11128357Y-16295376D01*
X11309309Y-16485852D02*
X11290262Y-16495376D01*
X11252167Y-16495376D01*
X11233119Y-16485852D01*
X11223595Y-16466805D01*
X11223595Y-16390614D01*
X11233119Y-16371567D01*
X11252167Y-16362043D01*
X11290262Y-16362043D01*
X11309309Y-16371567D01*
X11318833Y-16390614D01*
X11318833Y-16409662D01*
X11223595Y-16428709D01*
X11395024Y-16485852D02*
X11414071Y-16495376D01*
X11452167Y-16495376D01*
X11471214Y-16485852D01*
X11480738Y-16466805D01*
X11480738Y-16457281D01*
X11471214Y-16438233D01*
X11452167Y-16428709D01*
X11423595Y-16428709D01*
X11404548Y-16419186D01*
X11395024Y-16400138D01*
X11395024Y-16390614D01*
X11404548Y-16371567D01*
X11423595Y-16362043D01*
X11452167Y-16362043D01*
X11471214Y-16371567D01*
X11547405Y-16571567D02*
X11556928Y-16562043D01*
X11575976Y-16533471D01*
X11585500Y-16514424D01*
X11595024Y-16485852D01*
X11604548Y-16438233D01*
X11604548Y-16400138D01*
X11595024Y-16352519D01*
X11585500Y-16323948D01*
X11575976Y-16304900D01*
X11556928Y-16276328D01*
X11547405Y-16266805D01*
D17*
X6625500Y-16593900D02*
X6775500Y-16743900D01*
X6775500Y-16593900D02*
X6625500Y-16743900D01*
X6700500Y-16593900D02*
X6700500Y-16743900D01*
X6625500Y-16668900D02*
X6775500Y-16668900D01*
D11*
X7137881Y-16759376D02*
X7023595Y-16759376D01*
X7080738Y-16759376D02*
X7080738Y-16559376D01*
X7061690Y-16587948D01*
X7042643Y-16606995D01*
X7023595Y-16616519D01*
X7223595Y-16740328D02*
X7233119Y-16749852D01*
X7223595Y-16759376D01*
X7214071Y-16749852D01*
X7223595Y-16740328D01*
X7223595Y-16759376D01*
X7414071Y-16559376D02*
X7318833Y-16559376D01*
X7309309Y-16654614D01*
X7318833Y-16645090D01*
X7337881Y-16635567D01*
X7385500Y-16635567D01*
X7404548Y-16645090D01*
X7414071Y-16654614D01*
X7423595Y-16673662D01*
X7423595Y-16721281D01*
X7414071Y-16740328D01*
X7404548Y-16749852D01*
X7385500Y-16759376D01*
X7337881Y-16759376D01*
X7318833Y-16749852D01*
X7309309Y-16740328D01*
X7547405Y-16559376D02*
X7566452Y-16559376D01*
X7585500Y-16568900D01*
X7595024Y-16578424D01*
X7604548Y-16597471D01*
X7614071Y-16635567D01*
X7614071Y-16683186D01*
X7604548Y-16721281D01*
X7595024Y-16740328D01*
X7585500Y-16749852D01*
X7566452Y-16759376D01*
X7547405Y-16759376D01*
X7528357Y-16749852D01*
X7518833Y-16740328D01*
X7509309Y-16721281D01*
X7499786Y-16683186D01*
X7499786Y-16635567D01*
X7509309Y-16597471D01*
X7518833Y-16578424D01*
X7528357Y-16568900D01*
X7547405Y-16559376D01*
X7737881Y-16559376D02*
X7756928Y-16559376D01*
X7775976Y-16568900D01*
X7785500Y-16578424D01*
X7795024Y-16597471D01*
X7804548Y-16635567D01*
X7804548Y-16683186D01*
X7795024Y-16721281D01*
X7785500Y-16740328D01*
X7775976Y-16749852D01*
X7756928Y-16759376D01*
X7737881Y-16759376D01*
X7718833Y-16749852D01*
X7709309Y-16740328D01*
X7699786Y-16721281D01*
X7690262Y-16683186D01*
X7690262Y-16635567D01*
X7699786Y-16597471D01*
X7709309Y-16578424D01*
X7718833Y-16568900D01*
X7737881Y-16559376D01*
X7890262Y-16759376D02*
X7890262Y-16626043D01*
X7890262Y-16645090D02*
X7899786Y-16635567D01*
X7918833Y-16626043D01*
X7947405Y-16626043D01*
X7966452Y-16635567D01*
X7975976Y-16654614D01*
X7975976Y-16759376D01*
X7975976Y-16654614D02*
X7985500Y-16635567D01*
X8004548Y-16626043D01*
X8033119Y-16626043D01*
X8052167Y-16635567D01*
X8061690Y-16654614D01*
X8061690Y-16759376D01*
X8156928Y-16759376D02*
X8156928Y-16626043D01*
X8156928Y-16645090D02*
X8166452Y-16635567D01*
X8185500Y-16626043D01*
X8214071Y-16626043D01*
X8233119Y-16635567D01*
X8242643Y-16654614D01*
X8242643Y-16759376D01*
X8242643Y-16654614D02*
X8252167Y-16635567D01*
X8271214Y-16626043D01*
X8299786Y-16626043D01*
X8318833Y-16635567D01*
X8328357Y-16654614D01*
X8328357Y-16759376D01*
X8718833Y-16549852D02*
X8547405Y-16806995D01*
X8975976Y-16559376D02*
X8995024Y-16559376D01*
X9014071Y-16568900D01*
X9023595Y-16578424D01*
X9033119Y-16597471D01*
X9042643Y-16635567D01*
X9042643Y-16683186D01*
X9033119Y-16721281D01*
X9023595Y-16740328D01*
X9014071Y-16749852D01*
X8995024Y-16759376D01*
X8975976Y-16759376D01*
X8956929Y-16749852D01*
X8947405Y-16740328D01*
X8937881Y-16721281D01*
X8928357Y-16683186D01*
X8928357Y-16635567D01*
X8937881Y-16597471D01*
X8947405Y-16578424D01*
X8956929Y-16568900D01*
X8975976Y-16559376D01*
X9128357Y-16740328D02*
X9137881Y-16749852D01*
X9128357Y-16759376D01*
X9118833Y-16749852D01*
X9128357Y-16740328D01*
X9128357Y-16759376D01*
X9261690Y-16559376D02*
X9280738Y-16559376D01*
X9299786Y-16568900D01*
X9309310Y-16578424D01*
X9318833Y-16597471D01*
X9328357Y-16635567D01*
X9328357Y-16683186D01*
X9318833Y-16721281D01*
X9309310Y-16740328D01*
X9299786Y-16749852D01*
X9280738Y-16759376D01*
X9261690Y-16759376D01*
X9242643Y-16749852D01*
X9233119Y-16740328D01*
X9223595Y-16721281D01*
X9214071Y-16683186D01*
X9214071Y-16635567D01*
X9223595Y-16597471D01*
X9233119Y-16578424D01*
X9242643Y-16568900D01*
X9261690Y-16559376D01*
X9509310Y-16559376D02*
X9414071Y-16559376D01*
X9404548Y-16654614D01*
X9414071Y-16645090D01*
X9433119Y-16635567D01*
X9480738Y-16635567D01*
X9499786Y-16645090D01*
X9509310Y-16654614D01*
X9518833Y-16673662D01*
X9518833Y-16721281D01*
X9509310Y-16740328D01*
X9499786Y-16749852D01*
X9480738Y-16759376D01*
X9433119Y-16759376D01*
X9414071Y-16749852D01*
X9404548Y-16740328D01*
X9614071Y-16759376D02*
X9652167Y-16759376D01*
X9671214Y-16749852D01*
X9680738Y-16740328D01*
X9699786Y-16711757D01*
X9709310Y-16673662D01*
X9709310Y-16597471D01*
X9699786Y-16578424D01*
X9690262Y-16568900D01*
X9671214Y-16559376D01*
X9633119Y-16559376D01*
X9614071Y-16568900D01*
X9604548Y-16578424D01*
X9595024Y-16597471D01*
X9595024Y-16645090D01*
X9604548Y-16664138D01*
X9614071Y-16673662D01*
X9633119Y-16683186D01*
X9671214Y-16683186D01*
X9690262Y-16673662D01*
X9699786Y-16664138D01*
X9709310Y-16645090D01*
X9899786Y-16759376D02*
X9785500Y-16759376D01*
X9842643Y-16759376D02*
X9842643Y-16559376D01*
X9823595Y-16587948D01*
X9804548Y-16606995D01*
X9785500Y-16616519D01*
X9975976Y-16559376D02*
X9975976Y-16597471D01*
X10052167Y-16559376D02*
X10052167Y-16597471D01*
X10347405Y-16835567D02*
X10337881Y-16826043D01*
X10318833Y-16797471D01*
X10309310Y-16778424D01*
X10299786Y-16749852D01*
X10290262Y-16702233D01*
X10290262Y-16664138D01*
X10299786Y-16616519D01*
X10309310Y-16587948D01*
X10318833Y-16568900D01*
X10337881Y-16540328D01*
X10347405Y-16530805D01*
X10461690Y-16559376D02*
X10480738Y-16559376D01*
X10499786Y-16568900D01*
X10509310Y-16578424D01*
X10518833Y-16597471D01*
X10528357Y-16635567D01*
X10528357Y-16683186D01*
X10518833Y-16721281D01*
X10509310Y-16740328D01*
X10499786Y-16749852D01*
X10480738Y-16759376D01*
X10461690Y-16759376D01*
X10442643Y-16749852D01*
X10433119Y-16740328D01*
X10423595Y-16721281D01*
X10414071Y-16683186D01*
X10414071Y-16635567D01*
X10423595Y-16597471D01*
X10433119Y-16578424D01*
X10442643Y-16568900D01*
X10461690Y-16559376D01*
X10766452Y-16759376D02*
X10766452Y-16559376D01*
X10852167Y-16759376D02*
X10852167Y-16654614D01*
X10842643Y-16635567D01*
X10823595Y-16626043D01*
X10795024Y-16626043D01*
X10775976Y-16635567D01*
X10766452Y-16645090D01*
X10975976Y-16759376D02*
X10956929Y-16749852D01*
X10947405Y-16740328D01*
X10937881Y-16721281D01*
X10937881Y-16664138D01*
X10947405Y-16645090D01*
X10956929Y-16635567D01*
X10975976Y-16626043D01*
X11004548Y-16626043D01*
X11023595Y-16635567D01*
X11033119Y-16645090D01*
X11042643Y-16664138D01*
X11042643Y-16721281D01*
X11033119Y-16740328D01*
X11023595Y-16749852D01*
X11004548Y-16759376D01*
X10975976Y-16759376D01*
X11156929Y-16759376D02*
X11137881Y-16749852D01*
X11128357Y-16730805D01*
X11128357Y-16559376D01*
X11309309Y-16749852D02*
X11290262Y-16759376D01*
X11252167Y-16759376D01*
X11233119Y-16749852D01*
X11223595Y-16730805D01*
X11223595Y-16654614D01*
X11233119Y-16635567D01*
X11252167Y-16626043D01*
X11290262Y-16626043D01*
X11309309Y-16635567D01*
X11318833Y-16654614D01*
X11318833Y-16673662D01*
X11223595Y-16692709D01*
X11395024Y-16749852D02*
X11414071Y-16759376D01*
X11452167Y-16759376D01*
X11471214Y-16749852D01*
X11480738Y-16730805D01*
X11480738Y-16721281D01*
X11471214Y-16702233D01*
X11452167Y-16692709D01*
X11423595Y-16692709D01*
X11404548Y-16683186D01*
X11395024Y-16664138D01*
X11395024Y-16654614D01*
X11404548Y-16635567D01*
X11423595Y-16626043D01*
X11452167Y-16626043D01*
X11471214Y-16635567D01*
X11718833Y-16683186D02*
X11871214Y-16683186D01*
X11795024Y-16759376D02*
X11795024Y-16606995D01*
X12204548Y-16626043D02*
X12204548Y-16759376D01*
X12156928Y-16549852D02*
X12109309Y-16692709D01*
X12233119Y-16692709D01*
X12452167Y-16749852D02*
X12471214Y-16759376D01*
X12509309Y-16759376D01*
X12528357Y-16749852D01*
X12537881Y-16730805D01*
X12537881Y-16721281D01*
X12528357Y-16702233D01*
X12509309Y-16692709D01*
X12480738Y-16692709D01*
X12461690Y-16683186D01*
X12452167Y-16664138D01*
X12452167Y-16654614D01*
X12461690Y-16635567D01*
X12480738Y-16626043D01*
X12509309Y-16626043D01*
X12528357Y-16635567D01*
X12652167Y-16759376D02*
X12633119Y-16749852D01*
X12623595Y-16730805D01*
X12623595Y-16559376D01*
X12756928Y-16759376D02*
X12737881Y-16749852D01*
X12728357Y-16740328D01*
X12718833Y-16721281D01*
X12718833Y-16664138D01*
X12728357Y-16645090D01*
X12737881Y-16635567D01*
X12756928Y-16626043D01*
X12785500Y-16626043D01*
X12804548Y-16635567D01*
X12814071Y-16645090D01*
X12823595Y-16664138D01*
X12823595Y-16721281D01*
X12814071Y-16740328D01*
X12804548Y-16749852D01*
X12785500Y-16759376D01*
X12756928Y-16759376D01*
X12880738Y-16626043D02*
X12956928Y-16626043D01*
X12909309Y-16559376D02*
X12909309Y-16730805D01*
X12918833Y-16749852D01*
X12937881Y-16759376D01*
X12956928Y-16759376D01*
X13014071Y-16749852D02*
X13033119Y-16759376D01*
X13071214Y-16759376D01*
X13090262Y-16749852D01*
X13099786Y-16730805D01*
X13099786Y-16721281D01*
X13090262Y-16702233D01*
X13071214Y-16692709D01*
X13042643Y-16692709D01*
X13023595Y-16683186D01*
X13014071Y-16664138D01*
X13014071Y-16654614D01*
X13023595Y-16635567D01*
X13042643Y-16626043D01*
X13071214Y-16626043D01*
X13090262Y-16635567D01*
X13166452Y-16835567D02*
X13175976Y-16826043D01*
X13195024Y-16797471D01*
X13204548Y-16778424D01*
X13214071Y-16749852D01*
X13223595Y-16702233D01*
X13223595Y-16664138D01*
X13214071Y-16616519D01*
X13204548Y-16587948D01*
X13195024Y-16568900D01*
X13175976Y-16540328D01*
X13166452Y-16530805D01*
X6575500Y-16838900D02*
X6775500Y-17038900D01*
X6775500Y-16838900D02*
X6575500Y-17038900D01*
X6746211Y-17009611D02*
X6746211Y-16868189D01*
X6604789Y-16868189D01*
X6604789Y-17009611D01*
X6746211Y-17009611D01*
X7023595Y-16848424D02*
X7033119Y-16838900D01*
X7052167Y-16829376D01*
X7099786Y-16829376D01*
X7118833Y-16838900D01*
X7128357Y-16848424D01*
X7137881Y-16867471D01*
X7137881Y-16886519D01*
X7128357Y-16915090D01*
X7014071Y-17029376D01*
X7137881Y-17029376D01*
X7223595Y-17010329D02*
X7233119Y-17019852D01*
X7223595Y-17029376D01*
X7214071Y-17019852D01*
X7223595Y-17010329D01*
X7223595Y-17029376D01*
X7309309Y-16848424D02*
X7318833Y-16838900D01*
X7337881Y-16829376D01*
X7385500Y-16829376D01*
X7404548Y-16838900D01*
X7414071Y-16848424D01*
X7423595Y-16867471D01*
X7423595Y-16886519D01*
X7414071Y-16915090D01*
X7299786Y-17029376D01*
X7423595Y-17029376D01*
X7547405Y-16829376D02*
X7566452Y-16829376D01*
X7585500Y-16838900D01*
X7595024Y-16848424D01*
X7604548Y-16867471D01*
X7614071Y-16905567D01*
X7614071Y-16953186D01*
X7604548Y-16991281D01*
X7595024Y-17010329D01*
X7585500Y-17019852D01*
X7566452Y-17029376D01*
X7547405Y-17029376D01*
X7528357Y-17019852D01*
X7518833Y-17010329D01*
X7509309Y-16991281D01*
X7499786Y-16953186D01*
X7499786Y-16905567D01*
X7509309Y-16867471D01*
X7518833Y-16848424D01*
X7528357Y-16838900D01*
X7547405Y-16829376D01*
X7737881Y-16829376D02*
X7756928Y-16829376D01*
X7775976Y-16838900D01*
X7785500Y-16848424D01*
X7795024Y-16867471D01*
X7804548Y-16905567D01*
X7804548Y-16953186D01*
X7795024Y-16991281D01*
X7785500Y-17010329D01*
X7775976Y-17019852D01*
X7756928Y-17029376D01*
X7737881Y-17029376D01*
X7718833Y-17019852D01*
X7709309Y-17010329D01*
X7699786Y-16991281D01*
X7690262Y-16953186D01*
X7690262Y-16905567D01*
X7699786Y-16867471D01*
X7709309Y-16848424D01*
X7718833Y-16838900D01*
X7737881Y-16829376D01*
X7890262Y-17029376D02*
X7890262Y-16896043D01*
X7890262Y-16915090D02*
X7899786Y-16905567D01*
X7918833Y-16896043D01*
X7947405Y-16896043D01*
X7966452Y-16905567D01*
X7975976Y-16924614D01*
X7975976Y-17029376D01*
X7975976Y-16924614D02*
X7985500Y-16905567D01*
X8004548Y-16896043D01*
X8033119Y-16896043D01*
X8052167Y-16905567D01*
X8061690Y-16924614D01*
X8061690Y-17029376D01*
X8156928Y-17029376D02*
X8156928Y-16896043D01*
X8156928Y-16915090D02*
X8166452Y-16905567D01*
X8185500Y-16896043D01*
X8214071Y-16896043D01*
X8233119Y-16905567D01*
X8242643Y-16924614D01*
X8242643Y-17029376D01*
X8242643Y-16924614D02*
X8252167Y-16905567D01*
X8271214Y-16896043D01*
X8299786Y-16896043D01*
X8318833Y-16905567D01*
X8328357Y-16924614D01*
X8328357Y-17029376D01*
X8718833Y-16819852D02*
X8547405Y-17076995D01*
X8975976Y-16829376D02*
X8995024Y-16829376D01*
X9014071Y-16838900D01*
X9023595Y-16848424D01*
X9033119Y-16867471D01*
X9042643Y-16905567D01*
X9042643Y-16953186D01*
X9033119Y-16991281D01*
X9023595Y-17010329D01*
X9014071Y-17019852D01*
X8995024Y-17029376D01*
X8975976Y-17029376D01*
X8956929Y-17019852D01*
X8947405Y-17010329D01*
X8937881Y-16991281D01*
X8928357Y-16953186D01*
X8928357Y-16905567D01*
X8937881Y-16867471D01*
X8947405Y-16848424D01*
X8956929Y-16838900D01*
X8975976Y-16829376D01*
X9128357Y-17010329D02*
X9137881Y-17019852D01*
X9128357Y-17029376D01*
X9118833Y-17019852D01*
X9128357Y-17010329D01*
X9128357Y-17029376D01*
X9261690Y-16829376D02*
X9280738Y-16829376D01*
X9299786Y-16838900D01*
X9309310Y-16848424D01*
X9318833Y-16867471D01*
X9328357Y-16905567D01*
X9328357Y-16953186D01*
X9318833Y-16991281D01*
X9309310Y-17010329D01*
X9299786Y-17019852D01*
X9280738Y-17029376D01*
X9261690Y-17029376D01*
X9242643Y-17019852D01*
X9233119Y-17010329D01*
X9223595Y-16991281D01*
X9214071Y-16953186D01*
X9214071Y-16905567D01*
X9223595Y-16867471D01*
X9233119Y-16848424D01*
X9242643Y-16838900D01*
X9261690Y-16829376D01*
X9442643Y-16915090D02*
X9423595Y-16905567D01*
X9414071Y-16896043D01*
X9404548Y-16876995D01*
X9404548Y-16867471D01*
X9414071Y-16848424D01*
X9423595Y-16838900D01*
X9442643Y-16829376D01*
X9480738Y-16829376D01*
X9499786Y-16838900D01*
X9509310Y-16848424D01*
X9518833Y-16867471D01*
X9518833Y-16876995D01*
X9509310Y-16896043D01*
X9499786Y-16905567D01*
X9480738Y-16915090D01*
X9442643Y-16915090D01*
X9423595Y-16924614D01*
X9414071Y-16934138D01*
X9404548Y-16953186D01*
X9404548Y-16991281D01*
X9414071Y-17010329D01*
X9423595Y-17019852D01*
X9442643Y-17029376D01*
X9480738Y-17029376D01*
X9499786Y-17019852D01*
X9509310Y-17010329D01*
X9518833Y-16991281D01*
X9518833Y-16953186D01*
X9509310Y-16934138D01*
X9499786Y-16924614D01*
X9480738Y-16915090D01*
X9690262Y-16829376D02*
X9652167Y-16829376D01*
X9633119Y-16838900D01*
X9623595Y-16848424D01*
X9604548Y-16876995D01*
X9595024Y-16915090D01*
X9595024Y-16991281D01*
X9604548Y-17010329D01*
X9614071Y-17019852D01*
X9633119Y-17029376D01*
X9671214Y-17029376D01*
X9690262Y-17019852D01*
X9699786Y-17010329D01*
X9709310Y-16991281D01*
X9709310Y-16943662D01*
X9699786Y-16924614D01*
X9690262Y-16915090D01*
X9671214Y-16905567D01*
X9633119Y-16905567D01*
X9614071Y-16915090D01*
X9604548Y-16924614D01*
X9595024Y-16943662D01*
X9880738Y-16829376D02*
X9842643Y-16829376D01*
X9823595Y-16838900D01*
X9814071Y-16848424D01*
X9795024Y-16876995D01*
X9785500Y-16915090D01*
X9785500Y-16991281D01*
X9795024Y-17010329D01*
X9804548Y-17019852D01*
X9823595Y-17029376D01*
X9861690Y-17029376D01*
X9880738Y-17019852D01*
X9890262Y-17010329D01*
X9899786Y-16991281D01*
X9899786Y-16943662D01*
X9890262Y-16924614D01*
X9880738Y-16915090D01*
X9861690Y-16905567D01*
X9823595Y-16905567D01*
X9804548Y-16915090D01*
X9795024Y-16924614D01*
X9785500Y-16943662D01*
X9975976Y-16829376D02*
X9975976Y-16867471D01*
X10052167Y-16829376D02*
X10052167Y-16867471D01*
X10347405Y-17105567D02*
X10337881Y-17096043D01*
X10318833Y-17067471D01*
X10309310Y-17048424D01*
X10299786Y-17019852D01*
X10290262Y-16972233D01*
X10290262Y-16934138D01*
X10299786Y-16886519D01*
X10309310Y-16857948D01*
X10318833Y-16838900D01*
X10337881Y-16810329D01*
X10347405Y-16800805D01*
X10414071Y-16848424D02*
X10423595Y-16838900D01*
X10442643Y-16829376D01*
X10490262Y-16829376D01*
X10509310Y-16838900D01*
X10518833Y-16848424D01*
X10528357Y-16867471D01*
X10528357Y-16886519D01*
X10518833Y-16915090D01*
X10404548Y-17029376D01*
X10528357Y-17029376D01*
X10766452Y-17029376D02*
X10766452Y-16829376D01*
X10852167Y-17029376D02*
X10852167Y-16924614D01*
X10842643Y-16905567D01*
X10823595Y-16896043D01*
X10795024Y-16896043D01*
X10775976Y-16905567D01*
X10766452Y-16915090D01*
X10975976Y-17029376D02*
X10956929Y-17019852D01*
X10947405Y-17010329D01*
X10937881Y-16991281D01*
X10937881Y-16934138D01*
X10947405Y-16915090D01*
X10956929Y-16905567D01*
X10975976Y-16896043D01*
X11004548Y-16896043D01*
X11023595Y-16905567D01*
X11033119Y-16915090D01*
X11042643Y-16934138D01*
X11042643Y-16991281D01*
X11033119Y-17010329D01*
X11023595Y-17019852D01*
X11004548Y-17029376D01*
X10975976Y-17029376D01*
X11156929Y-17029376D02*
X11137881Y-17019852D01*
X11128357Y-17000805D01*
X11128357Y-16829376D01*
X11309309Y-17019852D02*
X11290262Y-17029376D01*
X11252167Y-17029376D01*
X11233119Y-17019852D01*
X11223595Y-17000805D01*
X11223595Y-16924614D01*
X11233119Y-16905567D01*
X11252167Y-16896043D01*
X11290262Y-16896043D01*
X11309309Y-16905567D01*
X11318833Y-16924614D01*
X11318833Y-16943662D01*
X11223595Y-16962710D01*
X11395024Y-17019852D02*
X11414071Y-17029376D01*
X11452167Y-17029376D01*
X11471214Y-17019852D01*
X11480738Y-17000805D01*
X11480738Y-16991281D01*
X11471214Y-16972233D01*
X11452167Y-16962710D01*
X11423595Y-16962710D01*
X11404548Y-16953186D01*
X11395024Y-16934138D01*
X11395024Y-16924614D01*
X11404548Y-16905567D01*
X11423595Y-16896043D01*
X11452167Y-16896043D01*
X11471214Y-16905567D01*
X11547405Y-17105567D02*
X11556928Y-17096043D01*
X11575976Y-17067471D01*
X11585500Y-17048424D01*
X11595024Y-17019852D01*
X11604548Y-16972233D01*
X11604548Y-16934138D01*
X11595024Y-16886519D01*
X11585500Y-16857948D01*
X11575976Y-16838900D01*
X11556928Y-16810329D01*
X11547405Y-16800805D01*
X6575500Y-17158900D02*
X6775500Y-17358900D01*
X6775500Y-17158900D02*
X6575500Y-17358900D01*
X6675500Y-17358900D02*
X6775500Y-17258900D01*
X6675500Y-17158900D01*
X6575500Y-17258900D01*
X6675500Y-17358900D01*
X7023595Y-17168424D02*
X7033119Y-17158900D01*
X7052167Y-17149376D01*
X7099786Y-17149376D01*
X7118833Y-17158900D01*
X7128357Y-17168424D01*
X7137881Y-17187471D01*
X7137881Y-17206519D01*
X7128357Y-17235090D01*
X7014071Y-17349376D01*
X7137881Y-17349376D01*
X7223595Y-17330329D02*
X7233119Y-17339852D01*
X7223595Y-17349376D01*
X7214071Y-17339852D01*
X7223595Y-17330329D01*
X7223595Y-17349376D01*
X7414071Y-17149376D02*
X7318833Y-17149376D01*
X7309309Y-17244614D01*
X7318833Y-17235090D01*
X7337881Y-17225567D01*
X7385500Y-17225567D01*
X7404548Y-17235090D01*
X7414071Y-17244614D01*
X7423595Y-17263662D01*
X7423595Y-17311281D01*
X7414071Y-17330329D01*
X7404548Y-17339852D01*
X7385500Y-17349376D01*
X7337881Y-17349376D01*
X7318833Y-17339852D01*
X7309309Y-17330329D01*
X7547405Y-17149376D02*
X7566452Y-17149376D01*
X7585500Y-17158900D01*
X7595024Y-17168424D01*
X7604548Y-17187471D01*
X7614071Y-17225567D01*
X7614071Y-17273186D01*
X7604548Y-17311281D01*
X7595024Y-17330329D01*
X7585500Y-17339852D01*
X7566452Y-17349376D01*
X7547405Y-17349376D01*
X7528357Y-17339852D01*
X7518833Y-17330329D01*
X7509309Y-17311281D01*
X7499786Y-17273186D01*
X7499786Y-17225567D01*
X7509309Y-17187471D01*
X7518833Y-17168424D01*
X7528357Y-17158900D01*
X7547405Y-17149376D01*
X7737881Y-17149376D02*
X7756928Y-17149376D01*
X7775976Y-17158900D01*
X7785500Y-17168424D01*
X7795024Y-17187471D01*
X7804548Y-17225567D01*
X7804548Y-17273186D01*
X7795024Y-17311281D01*
X7785500Y-17330329D01*
X7775976Y-17339852D01*
X7756928Y-17349376D01*
X7737881Y-17349376D01*
X7718833Y-17339852D01*
X7709309Y-17330329D01*
X7699786Y-17311281D01*
X7690262Y-17273186D01*
X7690262Y-17225567D01*
X7699786Y-17187471D01*
X7709309Y-17168424D01*
X7718833Y-17158900D01*
X7737881Y-17149376D01*
X7890262Y-17349376D02*
X7890262Y-17216043D01*
X7890262Y-17235090D02*
X7899786Y-17225567D01*
X7918833Y-17216043D01*
X7947405Y-17216043D01*
X7966452Y-17225567D01*
X7975976Y-17244614D01*
X7975976Y-17349376D01*
X7975976Y-17244614D02*
X7985500Y-17225567D01*
X8004548Y-17216043D01*
X8033119Y-17216043D01*
X8052167Y-17225567D01*
X8061690Y-17244614D01*
X8061690Y-17349376D01*
X8156928Y-17349376D02*
X8156928Y-17216043D01*
X8156928Y-17235090D02*
X8166452Y-17225567D01*
X8185500Y-17216043D01*
X8214071Y-17216043D01*
X8233119Y-17225567D01*
X8242643Y-17244614D01*
X8242643Y-17349376D01*
X8242643Y-17244614D02*
X8252167Y-17225567D01*
X8271214Y-17216043D01*
X8299786Y-17216043D01*
X8318833Y-17225567D01*
X8328357Y-17244614D01*
X8328357Y-17349376D01*
X8718833Y-17139852D02*
X8547405Y-17396995D01*
X8975976Y-17149376D02*
X8995024Y-17149376D01*
X9014071Y-17158900D01*
X9023595Y-17168424D01*
X9033119Y-17187471D01*
X9042643Y-17225567D01*
X9042643Y-17273186D01*
X9033119Y-17311281D01*
X9023595Y-17330329D01*
X9014071Y-17339852D01*
X8995024Y-17349376D01*
X8975976Y-17349376D01*
X8956929Y-17339852D01*
X8947405Y-17330329D01*
X8937881Y-17311281D01*
X8928357Y-17273186D01*
X8928357Y-17225567D01*
X8937881Y-17187471D01*
X8947405Y-17168424D01*
X8956929Y-17158900D01*
X8975976Y-17149376D01*
X9128357Y-17330329D02*
X9137881Y-17339852D01*
X9128357Y-17349376D01*
X9118833Y-17339852D01*
X9128357Y-17330329D01*
X9128357Y-17349376D01*
X9261690Y-17149376D02*
X9280738Y-17149376D01*
X9299786Y-17158900D01*
X9309310Y-17168424D01*
X9318833Y-17187471D01*
X9328357Y-17225567D01*
X9328357Y-17273186D01*
X9318833Y-17311281D01*
X9309310Y-17330329D01*
X9299786Y-17339852D01*
X9280738Y-17349376D01*
X9261690Y-17349376D01*
X9242643Y-17339852D01*
X9233119Y-17330329D01*
X9223595Y-17311281D01*
X9214071Y-17273186D01*
X9214071Y-17225567D01*
X9223595Y-17187471D01*
X9233119Y-17168424D01*
X9242643Y-17158900D01*
X9261690Y-17149376D01*
X9423595Y-17349376D02*
X9461690Y-17349376D01*
X9480738Y-17339852D01*
X9490262Y-17330329D01*
X9509310Y-17301757D01*
X9518833Y-17263662D01*
X9518833Y-17187471D01*
X9509310Y-17168424D01*
X9499786Y-17158900D01*
X9480738Y-17149376D01*
X9442643Y-17149376D01*
X9423595Y-17158900D01*
X9414071Y-17168424D01*
X9404548Y-17187471D01*
X9404548Y-17235090D01*
X9414071Y-17254138D01*
X9423595Y-17263662D01*
X9442643Y-17273186D01*
X9480738Y-17273186D01*
X9499786Y-17263662D01*
X9509310Y-17254138D01*
X9518833Y-17235090D01*
X9633119Y-17235090D02*
X9614071Y-17225567D01*
X9604548Y-17216043D01*
X9595024Y-17196995D01*
X9595024Y-17187471D01*
X9604548Y-17168424D01*
X9614071Y-17158900D01*
X9633119Y-17149376D01*
X9671214Y-17149376D01*
X9690262Y-17158900D01*
X9699786Y-17168424D01*
X9709310Y-17187471D01*
X9709310Y-17196995D01*
X9699786Y-17216043D01*
X9690262Y-17225567D01*
X9671214Y-17235090D01*
X9633119Y-17235090D01*
X9614071Y-17244614D01*
X9604548Y-17254138D01*
X9595024Y-17273186D01*
X9595024Y-17311281D01*
X9604548Y-17330329D01*
X9614071Y-17339852D01*
X9633119Y-17349376D01*
X9671214Y-17349376D01*
X9690262Y-17339852D01*
X9699786Y-17330329D01*
X9709310Y-17311281D01*
X9709310Y-17273186D01*
X9699786Y-17254138D01*
X9690262Y-17244614D01*
X9671214Y-17235090D01*
X9880738Y-17216043D02*
X9880738Y-17349376D01*
X9833119Y-17139852D02*
X9785500Y-17282710D01*
X9909310Y-17282710D01*
X9975976Y-17149376D02*
X9975976Y-17187471D01*
X10052167Y-17149376D02*
X10052167Y-17187471D01*
X10347405Y-17425567D02*
X10337881Y-17416043D01*
X10318833Y-17387471D01*
X10309310Y-17368424D01*
X10299786Y-17339852D01*
X10290262Y-17292233D01*
X10290262Y-17254138D01*
X10299786Y-17206519D01*
X10309310Y-17177948D01*
X10318833Y-17158900D01*
X10337881Y-17130329D01*
X10347405Y-17120805D01*
X10404548Y-17149376D02*
X10528357Y-17149376D01*
X10461690Y-17225567D01*
X10490262Y-17225567D01*
X10509310Y-17235090D01*
X10518833Y-17244614D01*
X10528357Y-17263662D01*
X10528357Y-17311281D01*
X10518833Y-17330329D01*
X10509310Y-17339852D01*
X10490262Y-17349376D01*
X10433119Y-17349376D01*
X10414071Y-17339852D01*
X10404548Y-17330329D01*
X10766452Y-17349376D02*
X10766452Y-17149376D01*
X10852167Y-17349376D02*
X10852167Y-17244614D01*
X10842643Y-17225567D01*
X10823595Y-17216043D01*
X10795024Y-17216043D01*
X10775976Y-17225567D01*
X10766452Y-17235090D01*
X10975976Y-17349376D02*
X10956929Y-17339852D01*
X10947405Y-17330329D01*
X10937881Y-17311281D01*
X10937881Y-17254138D01*
X10947405Y-17235090D01*
X10956929Y-17225567D01*
X10975976Y-17216043D01*
X11004548Y-17216043D01*
X11023595Y-17225567D01*
X11033119Y-17235090D01*
X11042643Y-17254138D01*
X11042643Y-17311281D01*
X11033119Y-17330329D01*
X11023595Y-17339852D01*
X11004548Y-17349376D01*
X10975976Y-17349376D01*
X11156929Y-17349376D02*
X11137881Y-17339852D01*
X11128357Y-17320805D01*
X11128357Y-17149376D01*
X11309309Y-17339852D02*
X11290262Y-17349376D01*
X11252167Y-17349376D01*
X11233119Y-17339852D01*
X11223595Y-17320805D01*
X11223595Y-17244614D01*
X11233119Y-17225567D01*
X11252167Y-17216043D01*
X11290262Y-17216043D01*
X11309309Y-17225567D01*
X11318833Y-17244614D01*
X11318833Y-17263662D01*
X11223595Y-17282710D01*
X11395024Y-17339852D02*
X11414071Y-17349376D01*
X11452167Y-17349376D01*
X11471214Y-17339852D01*
X11480738Y-17320805D01*
X11480738Y-17311281D01*
X11471214Y-17292233D01*
X11452167Y-17282710D01*
X11423595Y-17282710D01*
X11404548Y-17273186D01*
X11395024Y-17254138D01*
X11395024Y-17244614D01*
X11404548Y-17225567D01*
X11423595Y-17216043D01*
X11452167Y-17216043D01*
X11471214Y-17225567D01*
X11547405Y-17425567D02*
X11556928Y-17416043D01*
X11575976Y-17387471D01*
X11585500Y-17368424D01*
X11595024Y-17339852D01*
X11604548Y-17292233D01*
X11604548Y-17254138D01*
X11595024Y-17206519D01*
X11585500Y-17177948D01*
X11575976Y-17158900D01*
X11556928Y-17130329D01*
X11547405Y-17120805D01*
X6675500Y-17478900D02*
X6675500Y-17678900D01*
X6575500Y-17578900D02*
X6775500Y-17578900D01*
X6775500Y-17578900D02*
G75*
G03*
X6775500Y-17578900I-100000J0D01*
G01*
X7014071Y-17469376D02*
X7137881Y-17469376D01*
X7071214Y-17545567D01*
X7099786Y-17545567D01*
X7118833Y-17555090D01*
X7128357Y-17564614D01*
X7137881Y-17583662D01*
X7137881Y-17631281D01*
X7128357Y-17650329D01*
X7118833Y-17659852D01*
X7099786Y-17669376D01*
X7042643Y-17669376D01*
X7023595Y-17659852D01*
X7014071Y-17650329D01*
X7223595Y-17650329D02*
X7233119Y-17659852D01*
X7223595Y-17669376D01*
X7214071Y-17659852D01*
X7223595Y-17650329D01*
X7223595Y-17669376D01*
X7309309Y-17488424D02*
X7318833Y-17478900D01*
X7337881Y-17469376D01*
X7385500Y-17469376D01*
X7404548Y-17478900D01*
X7414071Y-17488424D01*
X7423595Y-17507471D01*
X7423595Y-17526519D01*
X7414071Y-17555090D01*
X7299786Y-17669376D01*
X7423595Y-17669376D01*
X7547405Y-17469376D02*
X7566452Y-17469376D01*
X7585500Y-17478900D01*
X7595024Y-17488424D01*
X7604548Y-17507471D01*
X7614071Y-17545567D01*
X7614071Y-17593186D01*
X7604548Y-17631281D01*
X7595024Y-17650329D01*
X7585500Y-17659852D01*
X7566452Y-17669376D01*
X7547405Y-17669376D01*
X7528357Y-17659852D01*
X7518833Y-17650329D01*
X7509309Y-17631281D01*
X7499786Y-17593186D01*
X7499786Y-17545567D01*
X7509309Y-17507471D01*
X7518833Y-17488424D01*
X7528357Y-17478900D01*
X7547405Y-17469376D01*
X7737881Y-17469376D02*
X7756928Y-17469376D01*
X7775976Y-17478900D01*
X7785500Y-17488424D01*
X7795024Y-17507471D01*
X7804548Y-17545567D01*
X7804548Y-17593186D01*
X7795024Y-17631281D01*
X7785500Y-17650329D01*
X7775976Y-17659852D01*
X7756928Y-17669376D01*
X7737881Y-17669376D01*
X7718833Y-17659852D01*
X7709309Y-17650329D01*
X7699786Y-17631281D01*
X7690262Y-17593186D01*
X7690262Y-17545567D01*
X7699786Y-17507471D01*
X7709309Y-17488424D01*
X7718833Y-17478900D01*
X7737881Y-17469376D01*
X7890262Y-17669376D02*
X7890262Y-17536043D01*
X7890262Y-17555090D02*
X7899786Y-17545567D01*
X7918833Y-17536043D01*
X7947405Y-17536043D01*
X7966452Y-17545567D01*
X7975976Y-17564614D01*
X7975976Y-17669376D01*
X7975976Y-17564614D02*
X7985500Y-17545567D01*
X8004548Y-17536043D01*
X8033119Y-17536043D01*
X8052167Y-17545567D01*
X8061690Y-17564614D01*
X8061690Y-17669376D01*
X8156928Y-17669376D02*
X8156928Y-17536043D01*
X8156928Y-17555090D02*
X8166452Y-17545567D01*
X8185500Y-17536043D01*
X8214071Y-17536043D01*
X8233119Y-17545567D01*
X8242643Y-17564614D01*
X8242643Y-17669376D01*
X8242643Y-17564614D02*
X8252167Y-17545567D01*
X8271214Y-17536043D01*
X8299786Y-17536043D01*
X8318833Y-17545567D01*
X8328357Y-17564614D01*
X8328357Y-17669376D01*
X8718833Y-17459852D02*
X8547405Y-17716995D01*
X8975976Y-17469376D02*
X8995024Y-17469376D01*
X9014071Y-17478900D01*
X9023595Y-17488424D01*
X9033119Y-17507471D01*
X9042643Y-17545567D01*
X9042643Y-17593186D01*
X9033119Y-17631281D01*
X9023595Y-17650329D01*
X9014071Y-17659852D01*
X8995024Y-17669376D01*
X8975976Y-17669376D01*
X8956929Y-17659852D01*
X8947405Y-17650329D01*
X8937881Y-17631281D01*
X8928357Y-17593186D01*
X8928357Y-17545567D01*
X8937881Y-17507471D01*
X8947405Y-17488424D01*
X8956929Y-17478900D01*
X8975976Y-17469376D01*
X9128357Y-17650329D02*
X9137881Y-17659852D01*
X9128357Y-17669376D01*
X9118833Y-17659852D01*
X9128357Y-17650329D01*
X9128357Y-17669376D01*
X9328357Y-17669376D02*
X9214071Y-17669376D01*
X9271214Y-17669376D02*
X9271214Y-17469376D01*
X9252167Y-17497948D01*
X9233119Y-17516995D01*
X9214071Y-17526519D01*
X9404548Y-17488424D02*
X9414071Y-17478900D01*
X9433119Y-17469376D01*
X9480738Y-17469376D01*
X9499786Y-17478900D01*
X9509310Y-17488424D01*
X9518833Y-17507471D01*
X9518833Y-17526519D01*
X9509310Y-17555090D01*
X9395024Y-17669376D01*
X9518833Y-17669376D01*
X9690262Y-17469376D02*
X9652167Y-17469376D01*
X9633119Y-17478900D01*
X9623595Y-17488424D01*
X9604548Y-17516995D01*
X9595024Y-17555090D01*
X9595024Y-17631281D01*
X9604548Y-17650329D01*
X9614071Y-17659852D01*
X9633119Y-17669376D01*
X9671214Y-17669376D01*
X9690262Y-17659852D01*
X9699786Y-17650329D01*
X9709310Y-17631281D01*
X9709310Y-17583662D01*
X9699786Y-17564614D01*
X9690262Y-17555090D01*
X9671214Y-17545567D01*
X9633119Y-17545567D01*
X9614071Y-17555090D01*
X9604548Y-17564614D01*
X9595024Y-17583662D01*
X9833119Y-17469376D02*
X9852167Y-17469376D01*
X9871214Y-17478900D01*
X9880738Y-17488424D01*
X9890262Y-17507471D01*
X9899786Y-17545567D01*
X9899786Y-17593186D01*
X9890262Y-17631281D01*
X9880738Y-17650329D01*
X9871214Y-17659852D01*
X9852167Y-17669376D01*
X9833119Y-17669376D01*
X9814071Y-17659852D01*
X9804548Y-17650329D01*
X9795024Y-17631281D01*
X9785500Y-17593186D01*
X9785500Y-17545567D01*
X9795024Y-17507471D01*
X9804548Y-17488424D01*
X9814071Y-17478900D01*
X9833119Y-17469376D01*
X9975976Y-17469376D02*
X9975976Y-17507471D01*
X10052167Y-17469376D02*
X10052167Y-17507471D01*
X10347405Y-17745567D02*
X10337881Y-17736043D01*
X10318833Y-17707471D01*
X10309310Y-17688424D01*
X10299786Y-17659852D01*
X10290262Y-17612233D01*
X10290262Y-17574138D01*
X10299786Y-17526519D01*
X10309310Y-17497948D01*
X10318833Y-17478900D01*
X10337881Y-17450329D01*
X10347405Y-17440805D01*
X10509310Y-17536043D02*
X10509310Y-17669376D01*
X10461690Y-17459852D02*
X10414071Y-17602710D01*
X10537881Y-17602710D01*
X10766452Y-17669376D02*
X10766452Y-17469376D01*
X10852167Y-17669376D02*
X10852167Y-17564614D01*
X10842643Y-17545567D01*
X10823595Y-17536043D01*
X10795024Y-17536043D01*
X10775976Y-17545567D01*
X10766452Y-17555090D01*
X10975976Y-17669376D02*
X10956929Y-17659852D01*
X10947405Y-17650329D01*
X10937881Y-17631281D01*
X10937881Y-17574138D01*
X10947405Y-17555090D01*
X10956929Y-17545567D01*
X10975976Y-17536043D01*
X11004548Y-17536043D01*
X11023595Y-17545567D01*
X11033119Y-17555090D01*
X11042643Y-17574138D01*
X11042643Y-17631281D01*
X11033119Y-17650329D01*
X11023595Y-17659852D01*
X11004548Y-17669376D01*
X10975976Y-17669376D01*
X11156929Y-17669376D02*
X11137881Y-17659852D01*
X11128357Y-17640805D01*
X11128357Y-17469376D01*
X11309309Y-17659852D02*
X11290262Y-17669376D01*
X11252167Y-17669376D01*
X11233119Y-17659852D01*
X11223595Y-17640805D01*
X11223595Y-17564614D01*
X11233119Y-17545567D01*
X11252167Y-17536043D01*
X11290262Y-17536043D01*
X11309309Y-17545567D01*
X11318833Y-17564614D01*
X11318833Y-17583662D01*
X11223595Y-17602710D01*
X11395024Y-17659852D02*
X11414071Y-17669376D01*
X11452167Y-17669376D01*
X11471214Y-17659852D01*
X11480738Y-17640805D01*
X11480738Y-17631281D01*
X11471214Y-17612233D01*
X11452167Y-17602710D01*
X11423595Y-17602710D01*
X11404548Y-17593186D01*
X11395024Y-17574138D01*
X11395024Y-17564614D01*
X11404548Y-17545567D01*
X11423595Y-17536043D01*
X11452167Y-17536043D01*
X11471214Y-17545567D01*
X11547405Y-17745567D02*
X11556928Y-17736043D01*
X11575976Y-17707471D01*
X11585500Y-17688424D01*
X11595024Y-17659852D01*
X11604548Y-17612233D01*
X11604548Y-17574138D01*
X11595024Y-17526519D01*
X11585500Y-17497948D01*
X11575976Y-17478900D01*
X11556928Y-17450329D01*
X11547405Y-17440805D01*
M02*
