G04 #@! TF.GenerationSoftware,KiCad,Pcbnew,6.0.10-86aedd382b~118~ubuntu20.04.1*
G04 #@! TF.CreationDate,2023-02-20T07:12:02-05:00*
G04 #@! TF.ProjectId,SDR-Transceiver,5344522d-5472-4616-9e73-636569766572,rev?*
G04 #@! TF.SameCoordinates,Original*
G04 #@! TF.FileFunction,Soldermask,Bot*
G04 #@! TF.FilePolarity,Negative*
%FSLAX46Y46*%
G04 Gerber Fmt 4.6, Leading zero omitted, Abs format (unit mm)*
G04 Created by KiCad (PCBNEW 6.0.10-86aedd382b~118~ubuntu20.04.1) date 2023-02-20 07:12:02*
%MOMM*%
%LPD*%
G01*
G04 APERTURE LIST*
G04 Aperture macros list*
%AMRoundRect*
0 Rectangle with rounded corners*
0 $1 Rounding radius*
0 $2 $3 $4 $5 $6 $7 $8 $9 X,Y pos of 4 corners*
0 Add a 4 corners polygon primitive as box body*
4,1,4,$2,$3,$4,$5,$6,$7,$8,$9,$2,$3,0*
0 Add four circle primitives for the rounded corners*
1,1,$1+$1,$2,$3*
1,1,$1+$1,$4,$5*
1,1,$1+$1,$6,$7*
1,1,$1+$1,$8,$9*
0 Add four rect primitives between the rounded corners*
20,1,$1+$1,$2,$3,$4,$5,0*
20,1,$1+$1,$4,$5,$6,$7,0*
20,1,$1+$1,$6,$7,$8,$9,0*
20,1,$1+$1,$8,$9,$2,$3,0*%
G04 Aperture macros list end*
%ADD10C,1.219200*%
%ADD11C,0.800000*%
%ADD12C,6.400000*%
%ADD13RoundRect,0.350000X-2.150000X-0.350000X2.150000X-0.350000X2.150000X0.350000X-2.150000X0.350000X0*%
%ADD14C,1.200000*%
%ADD15C,2.503200*%
%ADD16R,1.700000X1.700000*%
%ADD17O,1.700000X1.700000*%
%ADD18R,2.000000X2.000000*%
%ADD19C,2.000000*%
%ADD20C,1.981200*%
%ADD21R,4.200000X4.200000*%
%ADD22C,4.200000*%
%ADD23C,4.000000*%
%ADD24R,1.000000X1.000000*%
%ADD25R,2.000000X3.200000*%
%ADD26C,3.419200*%
%ADD27O,2.819200X1.511200*%
%ADD28RoundRect,0.150000X-0.150000X0.587500X-0.150000X-0.587500X0.150000X-0.587500X0.150000X0.587500X0*%
%ADD29RoundRect,0.250000X0.262500X0.450000X-0.262500X0.450000X-0.262500X-0.450000X0.262500X-0.450000X0*%
%ADD30RoundRect,0.150000X0.150000X-0.587500X0.150000X0.587500X-0.150000X0.587500X-0.150000X-0.587500X0*%
%ADD31R,1.200000X0.900000*%
%ADD32RoundRect,0.250000X0.650000X-0.325000X0.650000X0.325000X-0.650000X0.325000X-0.650000X-0.325000X0*%
%ADD33RoundRect,0.250000X-0.262500X-0.450000X0.262500X-0.450000X0.262500X0.450000X-0.262500X0.450000X0*%
G04 APERTURE END LIST*
D10*
X209215600Y-79589000D02*
G75*
G03*
X209215600Y-79589000I-609600J0D01*
G01*
X209215600Y-74589000D02*
G75*
G03*
X209215600Y-74589000I-609600J0D01*
G01*
X209215600Y-71989000D02*
G75*
G03*
X209215600Y-71989000I-609600J0D01*
G01*
X214215600Y-77089000D02*
G75*
G03*
X214215600Y-77089000I-609600J0D01*
G01*
X209215600Y-82189000D02*
G75*
G03*
X209215600Y-82189000I-609600J0D01*
G01*
D11*
X211916944Y-46816944D03*
X213614000Y-46114000D03*
X216014000Y-48514000D03*
X213614000Y-50914000D03*
D12*
X213614000Y-48514000D03*
D11*
X211916944Y-50211056D03*
X215311056Y-50211056D03*
X211214000Y-48514000D03*
X215311056Y-46816944D03*
D13*
X215016080Y-130662680D03*
X215023700Y-125834140D03*
D14*
X208606000Y-77089000D03*
X216106000Y-82089000D03*
X213606000Y-82089000D03*
X213606000Y-72089000D03*
X216106000Y-72089000D03*
D15*
X208606000Y-82189000D03*
X208606000Y-79589000D03*
X213606000Y-77089000D03*
X208606000Y-71989000D03*
X208606000Y-74589000D03*
D16*
X154813000Y-49657000D03*
D17*
X152273000Y-49657000D03*
X149733000Y-49657000D03*
X147193000Y-49657000D03*
D18*
X174627800Y-124475500D03*
D19*
X179707800Y-124475500D03*
X182247800Y-124475500D03*
X184787800Y-124475500D03*
X184787800Y-119395500D03*
X182247800Y-119395500D03*
X179707800Y-119395500D03*
X174627800Y-119395500D03*
D16*
X87015000Y-49886000D03*
D17*
X89555000Y-49886000D03*
X92095000Y-49886000D03*
X94635000Y-49886000D03*
X97175000Y-49886000D03*
X99715000Y-49886000D03*
X102255000Y-49886000D03*
D20*
X150217000Y-93716594D03*
X157837000Y-101336594D03*
X152757000Y-93716594D03*
X160377000Y-101336594D03*
X155297000Y-93716594D03*
X162917000Y-101336594D03*
D11*
X73579056Y-142159056D03*
X70184944Y-142159056D03*
X71882000Y-138062000D03*
X71882000Y-142862000D03*
D12*
X71882000Y-140462000D03*
D11*
X69482000Y-140462000D03*
X73579056Y-138764944D03*
X70184944Y-138764944D03*
X74282000Y-140462000D03*
D17*
X130538000Y-49657000D03*
X127998000Y-49657000D03*
X125458000Y-49657000D03*
X117838000Y-49657000D03*
X122918000Y-49657000D03*
X120378000Y-49657000D03*
D16*
X115298000Y-49657000D03*
D20*
X199773800Y-113553500D03*
X199773800Y-110759500D03*
D21*
X116713000Y-129413000D03*
D22*
X116713000Y-135413000D03*
D23*
X121413000Y-132413000D03*
D16*
X188994300Y-130625000D03*
D17*
X191534300Y-130625000D03*
X194074300Y-130625000D03*
D16*
X169690300Y-130625000D03*
D17*
X172230300Y-130625000D03*
X174770300Y-130625000D03*
D11*
X213614000Y-142862000D03*
X211916944Y-142159056D03*
X211916944Y-138764944D03*
X216014000Y-140462000D03*
X215311056Y-138764944D03*
D12*
X213614000Y-140462000D03*
D11*
X215311056Y-142159056D03*
X213614000Y-138062000D03*
X211214000Y-140462000D03*
X72136000Y-50914000D03*
X72136000Y-46114000D03*
D12*
X72136000Y-48514000D03*
D11*
X74536000Y-48514000D03*
X73833056Y-46816944D03*
X69736000Y-48514000D03*
X70438944Y-46816944D03*
X70438944Y-50211056D03*
X73833056Y-50211056D03*
D24*
X205615800Y-118125500D03*
D13*
X215016080Y-120248680D03*
X215023700Y-115420140D03*
D18*
X101346000Y-125222000D03*
D19*
X96346000Y-125222000D03*
X98846000Y-125222000D03*
D25*
X104446000Y-132722000D03*
X93246000Y-132722000D03*
D19*
X96346000Y-139722000D03*
X101346000Y-139722000D03*
D16*
X132969000Y-141605000D03*
D17*
X135509000Y-141605000D03*
X138049000Y-141605000D03*
X140589000Y-141605000D03*
X143129000Y-141605000D03*
X145669000Y-141605000D03*
X148209000Y-141605000D03*
D16*
X169690300Y-94625000D03*
D17*
X172230300Y-94625000D03*
X174770300Y-94625000D03*
D16*
X188994300Y-94625000D03*
D17*
X191534300Y-94625000D03*
X194074300Y-94625000D03*
D18*
X174770300Y-105293000D03*
D19*
X179850300Y-105293000D03*
X182390300Y-105293000D03*
X184930300Y-105293000D03*
X184930300Y-100213000D03*
X182390300Y-100213000D03*
X179850300Y-100213000D03*
X174770300Y-100213000D03*
D20*
X184785000Y-61134000D03*
X177165000Y-53514000D03*
X182245000Y-61134000D03*
X174625000Y-53514000D03*
X179705000Y-61134000D03*
X172085000Y-53514000D03*
D26*
X211328000Y-95631000D03*
X211328000Y-105791000D03*
D27*
X206248000Y-98171000D03*
X206248000Y-100711000D03*
D18*
X85090000Y-125222000D03*
D19*
X80090000Y-125222000D03*
X82590000Y-125222000D03*
D25*
X76990000Y-132722000D03*
X88190000Y-132722000D03*
D19*
X80090000Y-139722000D03*
X85090000Y-139722000D03*
D16*
X78105000Y-74246000D03*
D17*
X78105000Y-76786000D03*
X78105000Y-79326000D03*
X78105000Y-81866000D03*
X78105000Y-84406000D03*
X78105000Y-86946000D03*
X78105000Y-89486000D03*
X78105000Y-92026000D03*
X78105000Y-94566000D03*
X78105000Y-97106000D03*
X78105000Y-99646000D03*
X78105000Y-102186000D03*
X78105000Y-104726000D03*
X78105000Y-107266000D03*
X78105000Y-109806000D03*
X78105000Y-112346000D03*
X111125000Y-112346000D03*
X111125000Y-109806000D03*
X111125000Y-107266000D03*
X111125000Y-104726000D03*
X111125000Y-102186000D03*
X111125000Y-99646000D03*
X111125000Y-97106000D03*
X111125000Y-94566000D03*
X111125000Y-92026000D03*
X111125000Y-89486000D03*
X111125000Y-86946000D03*
X111125000Y-84406000D03*
X111125000Y-81866000D03*
X111125000Y-79326000D03*
X111125000Y-76786000D03*
D16*
X111125000Y-74246000D03*
D28*
X168153000Y-114935000D03*
X170053000Y-114935000D03*
X169103000Y-116810000D03*
D29*
X170706300Y-109347000D03*
X168881300Y-109347000D03*
D30*
X203957000Y-78867000D03*
X202057000Y-78867000D03*
X203007000Y-76992000D03*
D31*
X171214300Y-104521000D03*
X171214300Y-101221000D03*
D32*
X139611000Y-64641000D03*
X139611000Y-61691000D03*
X139066298Y-80314000D03*
X139066298Y-77364000D03*
D33*
X202057000Y-82423000D03*
X203882000Y-82423000D03*
D31*
X171214300Y-123571000D03*
X171214300Y-120271000D03*
M02*
