%TF.GenerationSoftware,KiCad,Pcbnew,6.0.11-2627ca5db0~126~ubuntu20.04.1*%
%TF.CreationDate,2023-06-25T12:50:43-04:00*%
%TF.ProjectId,SDR-Transceiver,5344522d-5472-4616-9e73-636569766572,rev?*%
%TF.SameCoordinates,Original*%
%TF.FileFunction,Drillmap*%
%TF.FilePolarity,Positive*%
%FSLAX45Y45*%
G04 Gerber Fmt 4.5, Leading zero omitted, Abs format (unit mm)*
G04 Created by KiCad (PCBNEW 6.0.11-2627ca5db0~126~ubuntu20.04.1) date 2023-06-25 12:50:43*
%MOMM*%
%LPD*%
G01*
G04 APERTURE LIST*
%ADD10C,0.100000*%
%ADD11C,0.200000*%
%ADD12C,0.120000*%
G04 APERTURE END LIST*
D10*
X5400000Y-4400000D02*
X21800000Y-4400000D01*
X21800000Y-4400000D02*
X21800000Y-14400000D01*
X21800000Y-14400000D02*
X5400000Y-14400000D01*
X5400000Y-14400000D02*
X5400000Y-4400000D01*
D11*
D12*
X9118460Y-4440000D02*
X9238460Y-4560000D01*
X9238460Y-4440000D02*
X9118460Y-4560000D01*
X9118460Y-4690000D02*
X9238460Y-4810000D01*
X9238460Y-4690000D02*
X9118460Y-4810000D01*
X9618460Y-5190000D02*
X9738460Y-5310000D01*
X9738460Y-5190000D02*
X9618460Y-5310000D01*
X10118460Y-4440000D02*
X10238460Y-4560000D01*
X10238460Y-4440000D02*
X10118460Y-4560000D01*
X10118460Y-4690000D02*
X10238460Y-4810000D01*
X10238460Y-4690000D02*
X10118460Y-4810000D01*
X20775340Y-8511040D02*
X20895340Y-8631040D01*
X20895340Y-8511040D02*
X20775340Y-8631040D01*
X21275340Y-8011040D02*
X21395340Y-8131040D01*
X21395340Y-8011040D02*
X21275340Y-8131040D01*
X21275340Y-9011040D02*
X21395340Y-9131040D01*
X21395340Y-9011040D02*
X21275340Y-9131040D01*
X21525340Y-8011040D02*
X21645340Y-8131040D01*
X21645340Y-8011040D02*
X21525340Y-8131040D01*
X21525340Y-9011040D02*
X21645340Y-9131040D01*
X21645340Y-9011040D02*
X21525340Y-9131040D01*
D11*
X5652619Y-14715476D02*
X5652619Y-14515476D01*
X5700238Y-14515476D01*
X5728809Y-14525000D01*
X5747857Y-14544048D01*
X5757381Y-14563095D01*
X5766905Y-14601190D01*
X5766905Y-14629762D01*
X5757381Y-14667857D01*
X5747857Y-14686905D01*
X5728809Y-14705952D01*
X5700238Y-14715476D01*
X5652619Y-14715476D01*
X5852619Y-14715476D02*
X5852619Y-14582143D01*
X5852619Y-14620238D02*
X5862143Y-14601190D01*
X5871667Y-14591667D01*
X5890714Y-14582143D01*
X5909762Y-14582143D01*
X5976428Y-14715476D02*
X5976428Y-14582143D01*
X5976428Y-14515476D02*
X5966905Y-14525000D01*
X5976428Y-14534524D01*
X5985952Y-14525000D01*
X5976428Y-14515476D01*
X5976428Y-14534524D01*
X6100238Y-14715476D02*
X6081190Y-14705952D01*
X6071667Y-14686905D01*
X6071667Y-14515476D01*
X6205000Y-14715476D02*
X6185952Y-14705952D01*
X6176428Y-14686905D01*
X6176428Y-14515476D01*
X6433571Y-14715476D02*
X6433571Y-14515476D01*
X6500238Y-14658333D01*
X6566905Y-14515476D01*
X6566905Y-14715476D01*
X6747857Y-14715476D02*
X6747857Y-14610714D01*
X6738333Y-14591667D01*
X6719286Y-14582143D01*
X6681190Y-14582143D01*
X6662143Y-14591667D01*
X6747857Y-14705952D02*
X6728809Y-14715476D01*
X6681190Y-14715476D01*
X6662143Y-14705952D01*
X6652619Y-14686905D01*
X6652619Y-14667857D01*
X6662143Y-14648809D01*
X6681190Y-14639286D01*
X6728809Y-14639286D01*
X6747857Y-14629762D01*
X6843095Y-14582143D02*
X6843095Y-14782143D01*
X6843095Y-14591667D02*
X6862143Y-14582143D01*
X6900238Y-14582143D01*
X6919286Y-14591667D01*
X6928809Y-14601190D01*
X6938333Y-14620238D01*
X6938333Y-14677381D01*
X6928809Y-14696428D01*
X6919286Y-14705952D01*
X6900238Y-14715476D01*
X6862143Y-14715476D01*
X6843095Y-14705952D01*
X7024048Y-14696428D02*
X7033571Y-14705952D01*
X7024048Y-14715476D01*
X7014524Y-14705952D01*
X7024048Y-14696428D01*
X7024048Y-14715476D01*
X7024048Y-14591667D02*
X7033571Y-14601190D01*
X7024048Y-14610714D01*
X7014524Y-14601190D01*
X7024048Y-14591667D01*
X7024048Y-14610714D01*
D12*
X5275000Y-14985000D02*
X5395000Y-15105000D01*
X5395000Y-14985000D02*
X5275000Y-15105000D01*
D11*
X5757381Y-15135476D02*
X5643095Y-15135476D01*
X5700238Y-15135476D02*
X5700238Y-14935476D01*
X5681190Y-14964048D01*
X5662143Y-14983095D01*
X5643095Y-14992619D01*
X5843095Y-15116428D02*
X5852619Y-15125952D01*
X5843095Y-15135476D01*
X5833571Y-15125952D01*
X5843095Y-15116428D01*
X5843095Y-15135476D01*
X5928809Y-14954524D02*
X5938333Y-14945000D01*
X5957381Y-14935476D01*
X6005000Y-14935476D01*
X6024048Y-14945000D01*
X6033571Y-14954524D01*
X6043095Y-14973571D01*
X6043095Y-14992619D01*
X6033571Y-15021190D01*
X5919286Y-15135476D01*
X6043095Y-15135476D01*
X6166905Y-14935476D02*
X6185952Y-14935476D01*
X6205000Y-14945000D01*
X6214524Y-14954524D01*
X6224048Y-14973571D01*
X6233571Y-15011667D01*
X6233571Y-15059286D01*
X6224048Y-15097381D01*
X6214524Y-15116428D01*
X6205000Y-15125952D01*
X6185952Y-15135476D01*
X6166905Y-15135476D01*
X6147857Y-15125952D01*
X6138333Y-15116428D01*
X6128809Y-15097381D01*
X6119286Y-15059286D01*
X6119286Y-15011667D01*
X6128809Y-14973571D01*
X6138333Y-14954524D01*
X6147857Y-14945000D01*
X6166905Y-14935476D01*
X6357381Y-14935476D02*
X6376428Y-14935476D01*
X6395476Y-14945000D01*
X6405000Y-14954524D01*
X6414524Y-14973571D01*
X6424048Y-15011667D01*
X6424048Y-15059286D01*
X6414524Y-15097381D01*
X6405000Y-15116428D01*
X6395476Y-15125952D01*
X6376428Y-15135476D01*
X6357381Y-15135476D01*
X6338333Y-15125952D01*
X6328809Y-15116428D01*
X6319286Y-15097381D01*
X6309762Y-15059286D01*
X6309762Y-15011667D01*
X6319286Y-14973571D01*
X6328809Y-14954524D01*
X6338333Y-14945000D01*
X6357381Y-14935476D01*
X6509762Y-15135476D02*
X6509762Y-15002143D01*
X6509762Y-15021190D02*
X6519286Y-15011667D01*
X6538333Y-15002143D01*
X6566905Y-15002143D01*
X6585952Y-15011667D01*
X6595476Y-15030714D01*
X6595476Y-15135476D01*
X6595476Y-15030714D02*
X6605000Y-15011667D01*
X6624048Y-15002143D01*
X6652619Y-15002143D01*
X6671667Y-15011667D01*
X6681190Y-15030714D01*
X6681190Y-15135476D01*
X6776428Y-15135476D02*
X6776428Y-15002143D01*
X6776428Y-15021190D02*
X6785952Y-15011667D01*
X6805000Y-15002143D01*
X6833571Y-15002143D01*
X6852619Y-15011667D01*
X6862143Y-15030714D01*
X6862143Y-15135476D01*
X6862143Y-15030714D02*
X6871667Y-15011667D01*
X6890714Y-15002143D01*
X6919286Y-15002143D01*
X6938333Y-15011667D01*
X6947857Y-15030714D01*
X6947857Y-15135476D01*
X7338333Y-14925952D02*
X7166905Y-15183095D01*
X7595476Y-14935476D02*
X7614524Y-14935476D01*
X7633571Y-14945000D01*
X7643095Y-14954524D01*
X7652619Y-14973571D01*
X7662143Y-15011667D01*
X7662143Y-15059286D01*
X7652619Y-15097381D01*
X7643095Y-15116428D01*
X7633571Y-15125952D01*
X7614524Y-15135476D01*
X7595476Y-15135476D01*
X7576428Y-15125952D01*
X7566905Y-15116428D01*
X7557381Y-15097381D01*
X7547857Y-15059286D01*
X7547857Y-15011667D01*
X7557381Y-14973571D01*
X7566905Y-14954524D01*
X7576428Y-14945000D01*
X7595476Y-14935476D01*
X7747857Y-15116428D02*
X7757381Y-15125952D01*
X7747857Y-15135476D01*
X7738333Y-15125952D01*
X7747857Y-15116428D01*
X7747857Y-15135476D01*
X7881190Y-14935476D02*
X7900238Y-14935476D01*
X7919286Y-14945000D01*
X7928809Y-14954524D01*
X7938333Y-14973571D01*
X7947857Y-15011667D01*
X7947857Y-15059286D01*
X7938333Y-15097381D01*
X7928809Y-15116428D01*
X7919286Y-15125952D01*
X7900238Y-15135476D01*
X7881190Y-15135476D01*
X7862143Y-15125952D01*
X7852619Y-15116428D01*
X7843095Y-15097381D01*
X7833571Y-15059286D01*
X7833571Y-15011667D01*
X7843095Y-14973571D01*
X7852619Y-14954524D01*
X7862143Y-14945000D01*
X7881190Y-14935476D01*
X8119286Y-15002143D02*
X8119286Y-15135476D01*
X8071667Y-14925952D02*
X8024048Y-15068809D01*
X8147857Y-15068809D01*
X8205000Y-14935476D02*
X8338333Y-14935476D01*
X8252619Y-15135476D01*
X8405000Y-14954524D02*
X8414524Y-14945000D01*
X8433571Y-14935476D01*
X8481190Y-14935476D01*
X8500238Y-14945000D01*
X8509762Y-14954524D01*
X8519286Y-14973571D01*
X8519286Y-14992619D01*
X8509762Y-15021190D01*
X8395476Y-15135476D01*
X8519286Y-15135476D01*
X8595476Y-14935476D02*
X8595476Y-14973571D01*
X8671667Y-14935476D02*
X8671667Y-14973571D01*
X8966905Y-15211667D02*
X8957381Y-15202143D01*
X8938333Y-15173571D01*
X8928810Y-15154524D01*
X8919286Y-15125952D01*
X8909762Y-15078333D01*
X8909762Y-15040238D01*
X8919286Y-14992619D01*
X8928810Y-14964048D01*
X8938333Y-14945000D01*
X8957381Y-14916428D01*
X8966905Y-14906905D01*
X9147857Y-15135476D02*
X9033571Y-15135476D01*
X9090714Y-15135476D02*
X9090714Y-14935476D01*
X9071667Y-14964048D01*
X9052619Y-14983095D01*
X9033571Y-14992619D01*
X9271667Y-14935476D02*
X9290714Y-14935476D01*
X9309762Y-14945000D01*
X9319286Y-14954524D01*
X9328810Y-14973571D01*
X9338333Y-15011667D01*
X9338333Y-15059286D01*
X9328810Y-15097381D01*
X9319286Y-15116428D01*
X9309762Y-15125952D01*
X9290714Y-15135476D01*
X9271667Y-15135476D01*
X9252619Y-15125952D01*
X9243095Y-15116428D01*
X9233571Y-15097381D01*
X9224048Y-15059286D01*
X9224048Y-15011667D01*
X9233571Y-14973571D01*
X9243095Y-14954524D01*
X9252619Y-14945000D01*
X9271667Y-14935476D01*
X9576429Y-15135476D02*
X9576429Y-14935476D01*
X9662143Y-15135476D02*
X9662143Y-15030714D01*
X9652619Y-15011667D01*
X9633571Y-15002143D01*
X9605000Y-15002143D01*
X9585952Y-15011667D01*
X9576429Y-15021190D01*
X9785952Y-15135476D02*
X9766905Y-15125952D01*
X9757381Y-15116428D01*
X9747857Y-15097381D01*
X9747857Y-15040238D01*
X9757381Y-15021190D01*
X9766905Y-15011667D01*
X9785952Y-15002143D01*
X9814524Y-15002143D01*
X9833571Y-15011667D01*
X9843095Y-15021190D01*
X9852619Y-15040238D01*
X9852619Y-15097381D01*
X9843095Y-15116428D01*
X9833571Y-15125952D01*
X9814524Y-15135476D01*
X9785952Y-15135476D01*
X9966905Y-15135476D02*
X9947857Y-15125952D01*
X9938333Y-15106905D01*
X9938333Y-14935476D01*
X10119286Y-15125952D02*
X10100238Y-15135476D01*
X10062143Y-15135476D01*
X10043095Y-15125952D01*
X10033571Y-15106905D01*
X10033571Y-15030714D01*
X10043095Y-15011667D01*
X10062143Y-15002143D01*
X10100238Y-15002143D01*
X10119286Y-15011667D01*
X10128810Y-15030714D01*
X10128810Y-15049762D01*
X10033571Y-15068809D01*
X10205000Y-15125952D02*
X10224048Y-15135476D01*
X10262143Y-15135476D01*
X10281190Y-15125952D01*
X10290714Y-15106905D01*
X10290714Y-15097381D01*
X10281190Y-15078333D01*
X10262143Y-15068809D01*
X10233571Y-15068809D01*
X10214524Y-15059286D01*
X10205000Y-15040238D01*
X10205000Y-15030714D01*
X10214524Y-15011667D01*
X10233571Y-15002143D01*
X10262143Y-15002143D01*
X10281190Y-15011667D01*
X10357381Y-15211667D02*
X10366905Y-15202143D01*
X10385952Y-15173571D01*
X10395476Y-15154524D01*
X10405000Y-15125952D01*
X10414524Y-15078333D01*
X10414524Y-15040238D01*
X10405000Y-14992619D01*
X10395476Y-14964048D01*
X10385952Y-14945000D01*
X10366905Y-14916428D01*
X10357381Y-14906905D01*
X10719286Y-15211667D02*
X10709762Y-15202143D01*
X10690714Y-15173571D01*
X10681190Y-15154524D01*
X10671667Y-15125952D01*
X10662143Y-15078333D01*
X10662143Y-15040238D01*
X10671667Y-14992619D01*
X10681190Y-14964048D01*
X10690714Y-14945000D01*
X10709762Y-14916428D01*
X10719286Y-14906905D01*
X10795476Y-15002143D02*
X10795476Y-15135476D01*
X10795476Y-15021190D02*
X10805000Y-15011667D01*
X10824048Y-15002143D01*
X10852619Y-15002143D01*
X10871667Y-15011667D01*
X10881190Y-15030714D01*
X10881190Y-15135476D01*
X11005000Y-15135476D02*
X10985952Y-15125952D01*
X10976429Y-15116428D01*
X10966905Y-15097381D01*
X10966905Y-15040238D01*
X10976429Y-15021190D01*
X10985952Y-15011667D01*
X11005000Y-15002143D01*
X11033571Y-15002143D01*
X11052619Y-15011667D01*
X11062143Y-15021190D01*
X11071667Y-15040238D01*
X11071667Y-15097381D01*
X11062143Y-15116428D01*
X11052619Y-15125952D01*
X11033571Y-15135476D01*
X11005000Y-15135476D01*
X11128810Y-15002143D02*
X11205000Y-15002143D01*
X11157381Y-14935476D02*
X11157381Y-15106905D01*
X11166905Y-15125952D01*
X11185952Y-15135476D01*
X11205000Y-15135476D01*
X11424048Y-15002143D02*
X11424048Y-15202143D01*
X11424048Y-15011667D02*
X11443095Y-15002143D01*
X11481190Y-15002143D01*
X11500238Y-15011667D01*
X11509762Y-15021190D01*
X11519286Y-15040238D01*
X11519286Y-15097381D01*
X11509762Y-15116428D01*
X11500238Y-15125952D01*
X11481190Y-15135476D01*
X11443095Y-15135476D01*
X11424048Y-15125952D01*
X11633571Y-15135476D02*
X11614524Y-15125952D01*
X11605000Y-15106905D01*
X11605000Y-14935476D01*
X11795476Y-15135476D02*
X11795476Y-15030714D01*
X11785952Y-15011667D01*
X11766905Y-15002143D01*
X11728809Y-15002143D01*
X11709762Y-15011667D01*
X11795476Y-15125952D02*
X11776428Y-15135476D01*
X11728809Y-15135476D01*
X11709762Y-15125952D01*
X11700238Y-15106905D01*
X11700238Y-15087857D01*
X11709762Y-15068809D01*
X11728809Y-15059286D01*
X11776428Y-15059286D01*
X11795476Y-15049762D01*
X11862143Y-15002143D02*
X11938333Y-15002143D01*
X11890714Y-14935476D02*
X11890714Y-15106905D01*
X11900238Y-15125952D01*
X11919286Y-15135476D01*
X11938333Y-15135476D01*
X12081190Y-15125952D02*
X12062143Y-15135476D01*
X12024048Y-15135476D01*
X12005000Y-15125952D01*
X11995476Y-15106905D01*
X11995476Y-15030714D01*
X12005000Y-15011667D01*
X12024048Y-15002143D01*
X12062143Y-15002143D01*
X12081190Y-15011667D01*
X12090714Y-15030714D01*
X12090714Y-15049762D01*
X11995476Y-15068809D01*
X12262143Y-15135476D02*
X12262143Y-14935476D01*
X12262143Y-15125952D02*
X12243095Y-15135476D01*
X12205000Y-15135476D01*
X12185952Y-15125952D01*
X12176428Y-15116428D01*
X12166905Y-15097381D01*
X12166905Y-15040238D01*
X12176428Y-15021190D01*
X12185952Y-15011667D01*
X12205000Y-15002143D01*
X12243095Y-15002143D01*
X12262143Y-15011667D01*
X12338333Y-15211667D02*
X12347857Y-15202143D01*
X12366905Y-15173571D01*
X12376428Y-15154524D01*
X12385952Y-15125952D01*
X12395476Y-15078333D01*
X12395476Y-15040238D01*
X12385952Y-14992619D01*
X12376428Y-14964048D01*
X12366905Y-14945000D01*
X12347857Y-14916428D01*
X12338333Y-14906905D01*
M02*
