%TF.GenerationSoftware,KiCad,Pcbnew,6.0.10-86aedd382b~118~ubuntu20.04.1*%
%TF.CreationDate,2023-02-20T07:12:31-05:00*%
%TF.ProjectId,SDR-Transceiver,5344522d-5472-4616-9e73-636569766572,rev?*%
%TF.SameCoordinates,Original*%
%TF.FileFunction,Drillmap*%
%TF.FilePolarity,Positive*%
%FSLAX45Y45*%
G04 Gerber Fmt 4.5, Leading zero omitted, Abs format (unit mm)*
G04 Created by KiCad (PCBNEW 6.0.10-86aedd382b~118~ubuntu20.04.1) date 2023-02-20 07:12:31*
%MOMM*%
%LPD*%
G01*
G04 APERTURE LIST*
%ADD10C,0.100000*%
%ADD11C,0.200000*%
%ADD12C,0.120000*%
G04 APERTURE END LIST*
D10*
X6780500Y-4439900D02*
X21780500Y-4439900D01*
X21780500Y-4439900D02*
X21780500Y-14439900D01*
X21780500Y-14439900D02*
X6780500Y-14439900D01*
X6780500Y-14439900D02*
X6780500Y-4439900D01*
D11*
D12*
X20800600Y-7648900D02*
X20920600Y-7768900D01*
X20920600Y-7648900D02*
X20800600Y-7768900D01*
X21300600Y-7148900D02*
X21420600Y-7268900D01*
X21420600Y-7148900D02*
X21300600Y-7268900D01*
X21300600Y-8148900D02*
X21420600Y-8268900D01*
X21420600Y-8148900D02*
X21300600Y-8268900D01*
X21550600Y-7148900D02*
X21670600Y-7268900D01*
X21670600Y-7148900D02*
X21550600Y-7268900D01*
X21550600Y-8148900D02*
X21670600Y-8268900D01*
X21670600Y-8148900D02*
X21550600Y-8268900D01*
D11*
X7033119Y-14755376D02*
X7033119Y-14555376D01*
X7080738Y-14555376D01*
X7109309Y-14564900D01*
X7128357Y-14583948D01*
X7137881Y-14602995D01*
X7147405Y-14641090D01*
X7147405Y-14669662D01*
X7137881Y-14707757D01*
X7128357Y-14726805D01*
X7109309Y-14745852D01*
X7080738Y-14755376D01*
X7033119Y-14755376D01*
X7233119Y-14755376D02*
X7233119Y-14622043D01*
X7233119Y-14660138D02*
X7242643Y-14641090D01*
X7252167Y-14631567D01*
X7271214Y-14622043D01*
X7290262Y-14622043D01*
X7356928Y-14755376D02*
X7356928Y-14622043D01*
X7356928Y-14555376D02*
X7347405Y-14564900D01*
X7356928Y-14574424D01*
X7366452Y-14564900D01*
X7356928Y-14555376D01*
X7356928Y-14574424D01*
X7480738Y-14755376D02*
X7461690Y-14745852D01*
X7452167Y-14726805D01*
X7452167Y-14555376D01*
X7585500Y-14755376D02*
X7566452Y-14745852D01*
X7556928Y-14726805D01*
X7556928Y-14555376D01*
X7814071Y-14755376D02*
X7814071Y-14555376D01*
X7880738Y-14698233D01*
X7947405Y-14555376D01*
X7947405Y-14755376D01*
X8128357Y-14755376D02*
X8128357Y-14650614D01*
X8118833Y-14631567D01*
X8099786Y-14622043D01*
X8061690Y-14622043D01*
X8042643Y-14631567D01*
X8128357Y-14745852D02*
X8109309Y-14755376D01*
X8061690Y-14755376D01*
X8042643Y-14745852D01*
X8033119Y-14726805D01*
X8033119Y-14707757D01*
X8042643Y-14688709D01*
X8061690Y-14679186D01*
X8109309Y-14679186D01*
X8128357Y-14669662D01*
X8223595Y-14622043D02*
X8223595Y-14822043D01*
X8223595Y-14631567D02*
X8242643Y-14622043D01*
X8280738Y-14622043D01*
X8299786Y-14631567D01*
X8309309Y-14641090D01*
X8318833Y-14660138D01*
X8318833Y-14717281D01*
X8309309Y-14736328D01*
X8299786Y-14745852D01*
X8280738Y-14755376D01*
X8242643Y-14755376D01*
X8223595Y-14745852D01*
X8404548Y-14736328D02*
X8414071Y-14745852D01*
X8404548Y-14755376D01*
X8395024Y-14745852D01*
X8404548Y-14736328D01*
X8404548Y-14755376D01*
X8404548Y-14631567D02*
X8414071Y-14641090D01*
X8404548Y-14650614D01*
X8395024Y-14641090D01*
X8404548Y-14631567D01*
X8404548Y-14650614D01*
D12*
X6655500Y-15024900D02*
X6775500Y-15144900D01*
X6775500Y-15024900D02*
X6655500Y-15144900D01*
D11*
X7137881Y-15175376D02*
X7023595Y-15175376D01*
X7080738Y-15175376D02*
X7080738Y-14975376D01*
X7061690Y-15003948D01*
X7042643Y-15022995D01*
X7023595Y-15032519D01*
X7223595Y-15156328D02*
X7233119Y-15165852D01*
X7223595Y-15175376D01*
X7214071Y-15165852D01*
X7223595Y-15156328D01*
X7223595Y-15175376D01*
X7309309Y-14994424D02*
X7318833Y-14984900D01*
X7337881Y-14975376D01*
X7385500Y-14975376D01*
X7404548Y-14984900D01*
X7414071Y-14994424D01*
X7423595Y-15013471D01*
X7423595Y-15032519D01*
X7414071Y-15061090D01*
X7299786Y-15175376D01*
X7423595Y-15175376D01*
X7547405Y-14975376D02*
X7566452Y-14975376D01*
X7585500Y-14984900D01*
X7595024Y-14994424D01*
X7604548Y-15013471D01*
X7614071Y-15051567D01*
X7614071Y-15099186D01*
X7604548Y-15137281D01*
X7595024Y-15156328D01*
X7585500Y-15165852D01*
X7566452Y-15175376D01*
X7547405Y-15175376D01*
X7528357Y-15165852D01*
X7518833Y-15156328D01*
X7509309Y-15137281D01*
X7499786Y-15099186D01*
X7499786Y-15051567D01*
X7509309Y-15013471D01*
X7518833Y-14994424D01*
X7528357Y-14984900D01*
X7547405Y-14975376D01*
X7737881Y-14975376D02*
X7756928Y-14975376D01*
X7775976Y-14984900D01*
X7785500Y-14994424D01*
X7795024Y-15013471D01*
X7804548Y-15051567D01*
X7804548Y-15099186D01*
X7795024Y-15137281D01*
X7785500Y-15156328D01*
X7775976Y-15165852D01*
X7756928Y-15175376D01*
X7737881Y-15175376D01*
X7718833Y-15165852D01*
X7709309Y-15156328D01*
X7699786Y-15137281D01*
X7690262Y-15099186D01*
X7690262Y-15051567D01*
X7699786Y-15013471D01*
X7709309Y-14994424D01*
X7718833Y-14984900D01*
X7737881Y-14975376D01*
X7890262Y-15175376D02*
X7890262Y-15042043D01*
X7890262Y-15061090D02*
X7899786Y-15051567D01*
X7918833Y-15042043D01*
X7947405Y-15042043D01*
X7966452Y-15051567D01*
X7975976Y-15070614D01*
X7975976Y-15175376D01*
X7975976Y-15070614D02*
X7985500Y-15051567D01*
X8004548Y-15042043D01*
X8033119Y-15042043D01*
X8052167Y-15051567D01*
X8061690Y-15070614D01*
X8061690Y-15175376D01*
X8156928Y-15175376D02*
X8156928Y-15042043D01*
X8156928Y-15061090D02*
X8166452Y-15051567D01*
X8185500Y-15042043D01*
X8214071Y-15042043D01*
X8233119Y-15051567D01*
X8242643Y-15070614D01*
X8242643Y-15175376D01*
X8242643Y-15070614D02*
X8252167Y-15051567D01*
X8271214Y-15042043D01*
X8299786Y-15042043D01*
X8318833Y-15051567D01*
X8328357Y-15070614D01*
X8328357Y-15175376D01*
X8718833Y-14965852D02*
X8547405Y-15222995D01*
X8975976Y-14975376D02*
X8995024Y-14975376D01*
X9014071Y-14984900D01*
X9023595Y-14994424D01*
X9033119Y-15013471D01*
X9042643Y-15051567D01*
X9042643Y-15099186D01*
X9033119Y-15137281D01*
X9023595Y-15156328D01*
X9014071Y-15165852D01*
X8995024Y-15175376D01*
X8975976Y-15175376D01*
X8956929Y-15165852D01*
X8947405Y-15156328D01*
X8937881Y-15137281D01*
X8928357Y-15099186D01*
X8928357Y-15051567D01*
X8937881Y-15013471D01*
X8947405Y-14994424D01*
X8956929Y-14984900D01*
X8975976Y-14975376D01*
X9128357Y-15156328D02*
X9137881Y-15165852D01*
X9128357Y-15175376D01*
X9118833Y-15165852D01*
X9128357Y-15156328D01*
X9128357Y-15175376D01*
X9261690Y-14975376D02*
X9280738Y-14975376D01*
X9299786Y-14984900D01*
X9309310Y-14994424D01*
X9318833Y-15013471D01*
X9328357Y-15051567D01*
X9328357Y-15099186D01*
X9318833Y-15137281D01*
X9309310Y-15156328D01*
X9299786Y-15165852D01*
X9280738Y-15175376D01*
X9261690Y-15175376D01*
X9242643Y-15165852D01*
X9233119Y-15156328D01*
X9223595Y-15137281D01*
X9214071Y-15099186D01*
X9214071Y-15051567D01*
X9223595Y-15013471D01*
X9233119Y-14994424D01*
X9242643Y-14984900D01*
X9261690Y-14975376D01*
X9499786Y-15042043D02*
X9499786Y-15175376D01*
X9452167Y-14965852D02*
X9404548Y-15108709D01*
X9528357Y-15108709D01*
X9585500Y-14975376D02*
X9718833Y-14975376D01*
X9633119Y-15175376D01*
X9785500Y-14994424D02*
X9795024Y-14984900D01*
X9814071Y-14975376D01*
X9861690Y-14975376D01*
X9880738Y-14984900D01*
X9890262Y-14994424D01*
X9899786Y-15013471D01*
X9899786Y-15032519D01*
X9890262Y-15061090D01*
X9775976Y-15175376D01*
X9899786Y-15175376D01*
X9975976Y-14975376D02*
X9975976Y-15013471D01*
X10052167Y-14975376D02*
X10052167Y-15013471D01*
X10347405Y-15251567D02*
X10337881Y-15242043D01*
X10318833Y-15213471D01*
X10309310Y-15194424D01*
X10299786Y-15165852D01*
X10290262Y-15118233D01*
X10290262Y-15080138D01*
X10299786Y-15032519D01*
X10309310Y-15003948D01*
X10318833Y-14984900D01*
X10337881Y-14956328D01*
X10347405Y-14946805D01*
X10518833Y-14975376D02*
X10423595Y-14975376D01*
X10414071Y-15070614D01*
X10423595Y-15061090D01*
X10442643Y-15051567D01*
X10490262Y-15051567D01*
X10509310Y-15061090D01*
X10518833Y-15070614D01*
X10528357Y-15089662D01*
X10528357Y-15137281D01*
X10518833Y-15156328D01*
X10509310Y-15165852D01*
X10490262Y-15175376D01*
X10442643Y-15175376D01*
X10423595Y-15165852D01*
X10414071Y-15156328D01*
X10766452Y-15175376D02*
X10766452Y-14975376D01*
X10852167Y-15175376D02*
X10852167Y-15070614D01*
X10842643Y-15051567D01*
X10823595Y-15042043D01*
X10795024Y-15042043D01*
X10775976Y-15051567D01*
X10766452Y-15061090D01*
X10975976Y-15175376D02*
X10956929Y-15165852D01*
X10947405Y-15156328D01*
X10937881Y-15137281D01*
X10937881Y-15080138D01*
X10947405Y-15061090D01*
X10956929Y-15051567D01*
X10975976Y-15042043D01*
X11004548Y-15042043D01*
X11023595Y-15051567D01*
X11033119Y-15061090D01*
X11042643Y-15080138D01*
X11042643Y-15137281D01*
X11033119Y-15156328D01*
X11023595Y-15165852D01*
X11004548Y-15175376D01*
X10975976Y-15175376D01*
X11156929Y-15175376D02*
X11137881Y-15165852D01*
X11128357Y-15146805D01*
X11128357Y-14975376D01*
X11309309Y-15165852D02*
X11290262Y-15175376D01*
X11252167Y-15175376D01*
X11233119Y-15165852D01*
X11223595Y-15146805D01*
X11223595Y-15070614D01*
X11233119Y-15051567D01*
X11252167Y-15042043D01*
X11290262Y-15042043D01*
X11309309Y-15051567D01*
X11318833Y-15070614D01*
X11318833Y-15089662D01*
X11223595Y-15108709D01*
X11395024Y-15165852D02*
X11414071Y-15175376D01*
X11452167Y-15175376D01*
X11471214Y-15165852D01*
X11480738Y-15146805D01*
X11480738Y-15137281D01*
X11471214Y-15118233D01*
X11452167Y-15108709D01*
X11423595Y-15108709D01*
X11404548Y-15099186D01*
X11395024Y-15080138D01*
X11395024Y-15070614D01*
X11404548Y-15051567D01*
X11423595Y-15042043D01*
X11452167Y-15042043D01*
X11471214Y-15051567D01*
X11547405Y-15251567D02*
X11556928Y-15242043D01*
X11575976Y-15213471D01*
X11585500Y-15194424D01*
X11595024Y-15165852D01*
X11604548Y-15118233D01*
X11604548Y-15080138D01*
X11595024Y-15032519D01*
X11585500Y-15003948D01*
X11575976Y-14984900D01*
X11556928Y-14956328D01*
X11547405Y-14946805D01*
X11909309Y-15251567D02*
X11899786Y-15242043D01*
X11880738Y-15213471D01*
X11871214Y-15194424D01*
X11861690Y-15165852D01*
X11852167Y-15118233D01*
X11852167Y-15080138D01*
X11861690Y-15032519D01*
X11871214Y-15003948D01*
X11880738Y-14984900D01*
X11899786Y-14956328D01*
X11909309Y-14946805D01*
X11985500Y-15042043D02*
X11985500Y-15175376D01*
X11985500Y-15061090D02*
X11995024Y-15051567D01*
X12014071Y-15042043D01*
X12042643Y-15042043D01*
X12061690Y-15051567D01*
X12071214Y-15070614D01*
X12071214Y-15175376D01*
X12195024Y-15175376D02*
X12175976Y-15165852D01*
X12166452Y-15156328D01*
X12156928Y-15137281D01*
X12156928Y-15080138D01*
X12166452Y-15061090D01*
X12175976Y-15051567D01*
X12195024Y-15042043D01*
X12223595Y-15042043D01*
X12242643Y-15051567D01*
X12252167Y-15061090D01*
X12261690Y-15080138D01*
X12261690Y-15137281D01*
X12252167Y-15156328D01*
X12242643Y-15165852D01*
X12223595Y-15175376D01*
X12195024Y-15175376D01*
X12318833Y-15042043D02*
X12395024Y-15042043D01*
X12347405Y-14975376D02*
X12347405Y-15146805D01*
X12356928Y-15165852D01*
X12375976Y-15175376D01*
X12395024Y-15175376D01*
X12614071Y-15042043D02*
X12614071Y-15242043D01*
X12614071Y-15051567D02*
X12633119Y-15042043D01*
X12671214Y-15042043D01*
X12690262Y-15051567D01*
X12699786Y-15061090D01*
X12709309Y-15080138D01*
X12709309Y-15137281D01*
X12699786Y-15156328D01*
X12690262Y-15165852D01*
X12671214Y-15175376D01*
X12633119Y-15175376D01*
X12614071Y-15165852D01*
X12823595Y-15175376D02*
X12804548Y-15165852D01*
X12795024Y-15146805D01*
X12795024Y-14975376D01*
X12985500Y-15175376D02*
X12985500Y-15070614D01*
X12975976Y-15051567D01*
X12956928Y-15042043D01*
X12918833Y-15042043D01*
X12899786Y-15051567D01*
X12985500Y-15165852D02*
X12966452Y-15175376D01*
X12918833Y-15175376D01*
X12899786Y-15165852D01*
X12890262Y-15146805D01*
X12890262Y-15127757D01*
X12899786Y-15108709D01*
X12918833Y-15099186D01*
X12966452Y-15099186D01*
X12985500Y-15089662D01*
X13052167Y-15042043D02*
X13128357Y-15042043D01*
X13080738Y-14975376D02*
X13080738Y-15146805D01*
X13090262Y-15165852D01*
X13109309Y-15175376D01*
X13128357Y-15175376D01*
X13271214Y-15165852D02*
X13252167Y-15175376D01*
X13214071Y-15175376D01*
X13195024Y-15165852D01*
X13185500Y-15146805D01*
X13185500Y-15070614D01*
X13195024Y-15051567D01*
X13214071Y-15042043D01*
X13252167Y-15042043D01*
X13271214Y-15051567D01*
X13280738Y-15070614D01*
X13280738Y-15089662D01*
X13185500Y-15108709D01*
X13452167Y-15175376D02*
X13452167Y-14975376D01*
X13452167Y-15165852D02*
X13433119Y-15175376D01*
X13395024Y-15175376D01*
X13375976Y-15165852D01*
X13366452Y-15156328D01*
X13356928Y-15137281D01*
X13356928Y-15080138D01*
X13366452Y-15061090D01*
X13375976Y-15051567D01*
X13395024Y-15042043D01*
X13433119Y-15042043D01*
X13452167Y-15051567D01*
X13528357Y-15251567D02*
X13537881Y-15242043D01*
X13556928Y-15213471D01*
X13566452Y-15194424D01*
X13575976Y-15165852D01*
X13585500Y-15118233D01*
X13585500Y-15080138D01*
X13575976Y-15032519D01*
X13566452Y-15003948D01*
X13556928Y-14984900D01*
X13537881Y-14956328D01*
X13528357Y-14946805D01*
M02*
