M48
; DRILL file {KiCad 6.0.11-2627ca5db0~126~ubuntu20.04.1} date Sun 25 Jun 2023 12:50:43 PM EDT
; FORMAT={-:-/ absolute / metric / decimal}
; #@! TF.CreationDate,2023-06-25T12:50:43-04:00
; #@! TF.GenerationSoftware,Kicad,Pcbnew,6.0.11-2627ca5db0~126~ubuntu20.04.1
; #@! TF.FileFunction,Plated,1,2,PTH
FMAT,2
METRIC
; #@! TA.AperFunction,Plated,PTH,ViaDrill
T1C0.400
; #@! TA.AperFunction,Plated,PTH,ComponentDrill
T2C0.500
; #@! TA.AperFunction,Plated,PTH,ComponentDrill
T3C0.600
; #@! TA.AperFunction,Plated,PTH,ComponentDrill
T4C0.800
; #@! TA.AperFunction,Plated,PTH,ComponentDrill
T5C1.000
; #@! TA.AperFunction,Plated,PTH,ComponentDrill
T6C1.300
; #@! TA.AperFunction,Plated,PTH,ComponentDrill
T7C1.500
; #@! TA.AperFunction,Plated,PTH,ComponentDrill
T8C2.200
; #@! TA.AperFunction,Plated,PTH,ComponentDrill
T9C2.500
; #@! TA.AperFunction,Plated,PTH,ComponentDrill
T10C3.200
%
G90
G05
T1
X57.0Y-57.0
X57.0Y-60.0
X57.0Y-63.0
X57.0Y-66.0
X57.0Y-69.0
X57.0Y-72.0
X57.0Y-75.0
X57.0Y-78.0
X57.0Y-81.0
X57.0Y-84.0
X57.0Y-87.0
X57.0Y-90.0
X57.0Y-93.0
X57.0Y-96.0
X57.0Y-99.0
X57.0Y-102.0
X57.0Y-105.0
X57.0Y-108.0
X57.0Y-111.0
X57.0Y-114.0
X57.0Y-117.0
X57.0Y-120.0
X57.0Y-123.0
X57.0Y-127.0
X57.0Y-131.0
X61.0Y-117.0
X61.0Y-120.0
X61.0Y-123.0
X61.0Y-127.0
X61.0Y-131.0
X65.0Y-117.0
X66.0Y-57.0
X66.0Y-72.0
X66.0Y-75.0
X66.0Y-78.0
X66.0Y-81.0
X66.0Y-84.0
X66.0Y-87.0
X66.0Y-90.0
X66.0Y-93.0
X69.0Y-57.0
X72.0Y-57.0
X72.0Y-60.0
X75.0Y-57.0
X75.0Y-60.0
X75.0Y-63.0
X76.0Y-76.0
X76.0Y-79.0
X76.0Y-82.0
X76.0Y-85.0
X76.0Y-88.0
X76.0Y-91.0
X76.0Y-94.0
X76.0Y-97.0
X76.0Y-100.0
X78.0Y-57.0
X78.0Y-60.0
X78.0Y-63.0
X78.0Y-66.0
X79.0Y-76.0
X79.0Y-79.0
X79.0Y-82.0
X79.0Y-85.0
X79.0Y-88.0
X79.0Y-91.0
X79.0Y-94.0
X79.0Y-97.0
X79.0Y-100.0
X81.0Y-57.0
X81.0Y-60.0
X81.0Y-63.0
X81.0Y-66.0
X90.0Y-90.0
X90.0Y-93.0
X90.0Y-96.0
X90.0Y-99.0
X93.0Y-90.0
X93.0Y-93.0
X93.0Y-96.0
X93.0Y-99.0
X94.0Y-121.0
X95.0Y-63.0
X95.0Y-66.0
X95.0Y-69.0
X96.0Y-85.0
X96.0Y-90.0
X96.0Y-93.0
X97.0Y-99.0
X97.0Y-121.0
X97.0Y-124.0
X99.0Y-82.0
X99.0Y-85.0
X99.0Y-90.0
X99.0Y-93.0
X100.0Y-121.0
X100.0Y-124.0
X100.0Y-127.0
X100.0Y-130.0
X100.0Y-133.0
X100.0Y-136.0
X100.0Y-139.0
X100.0Y-142.0
X101.0Y-66.0
X101.0Y-69.0
X103.0Y-121.0
X103.0Y-124.0
X103.0Y-127.0
X103.0Y-130.0
X103.0Y-133.0
X103.0Y-136.0
X103.0Y-139.0
X103.0Y-142.0
X105.0Y-60.0
X105.0Y-63.0
X105.0Y-66.0
X105.0Y-69.0
X105.0Y-76.0
X105.0Y-79.0
X105.0Y-82.0
X105.0Y-85.0
X105.0Y-88.0
X106.0Y-47.0
X106.0Y-124.0
X106.0Y-127.0
X106.0Y-130.0
X106.0Y-133.0
X106.0Y-136.0
X106.0Y-139.0
X106.0Y-142.0
X108.0Y-57.0
X108.0Y-60.0
X108.0Y-63.0
X108.0Y-66.0
X108.0Y-69.0
X108.0Y-79.0
X108.0Y-82.0
X108.0Y-85.0
X108.903Y-102.097
X109.0Y-47.0
X109.0Y-127.0
X109.0Y-130.0
X109.0Y-133.0
X109.0Y-136.0
X109.0Y-139.0
X109.0Y-142.0
X111.0Y-57.0
X111.0Y-60.0
X112.0Y-47.0
X115.0Y-47.0
X118.0Y-47.0
X118.712Y-75.298
X119.0Y-56.0
X120.015Y-86.487
X121.0Y-47.0
X122.0Y-56.0
X122.047Y-90.043
X123.825Y-67.175
X125.0Y-56.0
X125.349Y-84.709
X126.111Y-92.583
X126.365Y-72.283
X128.0Y-56.0
X129.286Y-125.984
X129.413Y-114.681
X130.048Y-87.884
X130.175Y-133.223
X131.0Y-56.0
X131.699Y-106.299
X131.953Y-71.501
X132.0Y-47.0
X133.0Y-62.0
X133.0Y-88.519
X134.0Y-56.0
X134.0Y-80.0
X136.0Y-76.0
X137.287Y-115.189
X140.0Y-59.0
X140.0Y-71.0
X140.154Y-95.049
X143.383Y-109.093
X144.0Y-50.0
X144.208Y-60.944
X144.272Y-76.501
X147.296Y-115.307
X148.63Y-104.829
X148.717Y-83.74
X148.947Y-108.322
X149.0Y-120.0
X149.861Y-70.914
X149.987Y-58.594
X150.749Y-115.189
X150.852Y-105.782
X154.0Y-135.0
X154.0Y-138.0
X154.813Y-74.549
X154.813Y-130.429
X155.321Y-102.489
X157.0Y-126.0
X157.0Y-129.0
X157.0Y-132.0
X157.0Y-135.0
X157.0Y-138.0
X158.623Y-54.991
X160.0Y-121.0
X160.0Y-126.0
X160.0Y-129.0
X160.0Y-132.0
X160.0Y-135.0
X160.0Y-138.0
X160.368Y-110.871
X160.401Y-113.411
X161.647Y-109.592
X162.917Y-108.322
X163.0Y-121.0
X163.0Y-126.0
X163.0Y-129.0
X163.0Y-132.0
X163.0Y-135.0
X163.0Y-138.0
X166.0Y-138.0
X166.0Y-141.0
X166.751Y-88.265
X167.513Y-64.182
X168.021Y-107.061
X169.0Y-138.0
X169.0Y-141.0
X169.037Y-67.183
X169.037Y-123.571
X169.671Y-69.388
X169.938Y-75.323
X170.0Y-50.0
X170.307Y-72.564
X170.307Y-112.395
X170.561Y-64.944
X171.069Y-79.121
X172.0Y-138.0
X172.0Y-141.0
X173.0Y-50.0
X174.879Y-115.697
X175.0Y-138.0
X175.0Y-141.0
X176.0Y-50.0
X178.0Y-87.0
X178.0Y-90.0
X178.0Y-93.0
X178.0Y-138.0
X178.0Y-141.0
X179.0Y-50.0
X180.213Y-73.326
X180.213Y-131.699
X180.721Y-71.802
X181.0Y-84.0
X181.0Y-87.0
X181.0Y-90.0
X181.0Y-93.0
X181.0Y-138.0
X181.0Y-141.0
X181.229Y-69.262
X182.0Y-50.0
X182.499Y-133.477
X184.0Y-67.0
X184.0Y-70.0
X184.0Y-81.0
X184.0Y-84.0
X184.0Y-87.0
X184.0Y-135.0
X184.0Y-138.0
X184.0Y-141.0
X185.0Y-50.0
X185.166Y-113.538
X187.0Y-67.0
X187.0Y-70.0
X187.0Y-78.0
X187.0Y-81.0
X187.0Y-84.0
X187.0Y-87.0
X187.0Y-135.0
X187.0Y-138.0
X187.0Y-141.0
X187.579Y-74.041
X190.0Y-64.0
X190.0Y-67.0
X190.0Y-70.0
X190.0Y-78.0
X190.0Y-81.0
X190.0Y-84.0
X190.0Y-87.0
X190.0Y-135.0
X190.0Y-138.0
X190.0Y-141.0
X191.392Y-121.173
X193.0Y-64.0
X193.0Y-67.0
X193.0Y-70.0
X193.0Y-78.0
X193.0Y-81.0
X193.0Y-84.0
X193.0Y-87.0
X193.0Y-135.0
X193.0Y-138.0
X193.0Y-141.0
X194.826Y-128.262
X196.0Y-132.0
X196.0Y-135.0
X196.0Y-138.0
X196.0Y-141.0
X197.0Y-58.0
X197.0Y-61.0
X199.0Y-132.0
X199.0Y-135.0
X199.0Y-138.0
X199.0Y-141.0
X200.0Y-58.0
X200.0Y-61.0
X200.0Y-64.0
X200.0Y-67.0
X200.0Y-70.0
X200.0Y-78.0
X200.0Y-81.0
X200.0Y-84.0
X202.0Y-132.0
X202.0Y-135.0
X202.0Y-138.0
X202.0Y-141.0
X203.0Y-58.0
X203.0Y-61.0
X203.0Y-64.0
X203.0Y-67.0
X203.0Y-70.0
X203.0Y-78.0
X203.0Y-81.0
X205.0Y-132.0
X205.0Y-135.0
X205.0Y-138.0
X205.0Y-141.0
X206.0Y-61.0
X206.0Y-64.0
X206.0Y-67.0
X206.0Y-70.0
X206.0Y-78.0
X208.0Y-132.0
X208.0Y-135.0
X208.0Y-138.0
X208.0Y-141.0
X209.0Y-64.0
X209.0Y-67.0
X209.0Y-78.0
X210.0Y-58.0
T2
X55.6Y-48.0
X55.6Y-140.0
X56.303Y-46.303
X56.303Y-49.697
X56.303Y-138.303
X56.303Y-141.697
X58.0Y-45.6
X58.0Y-50.4
X58.0Y-137.6
X58.0Y-142.4
X59.697Y-46.303
X59.697Y-49.697
X59.697Y-138.303
X59.697Y-141.697
X60.4Y-48.0
X60.4Y-140.0
X205.616Y-118.125
X211.6Y-48.0
X211.6Y-140.0
X212.303Y-46.303
X212.303Y-49.697
X212.303Y-138.303
X212.303Y-141.697
X214.0Y-45.6
X214.0Y-50.4
X214.0Y-137.6
X214.0Y-142.4
X215.697Y-46.303
X215.697Y-49.697
X215.697Y-138.303
X215.697Y-141.697
X216.4Y-48.0
X216.4Y-140.0
T3
X150.217Y-93.717
X152.757Y-93.717
X155.297Y-93.717
X157.837Y-101.337
X160.377Y-101.337
X162.917Y-101.337
X172.085Y-53.514
X174.625Y-53.514
X177.165Y-53.514
X179.705Y-61.134
X182.245Y-61.134
X184.785Y-61.134
X199.774Y-110.759
X199.774Y-113.553
T4
X206.248Y-100.711
X206.248Y-103.251
T5
X61.375Y-60.07
X61.375Y-62.61
X61.375Y-65.15
X61.375Y-67.69
X61.375Y-70.23
X61.375Y-72.77
X61.375Y-75.31
X61.375Y-77.85
X61.375Y-80.39
X61.375Y-82.93
X61.375Y-85.47
X61.375Y-88.01
X61.375Y-90.55
X61.375Y-93.09
X61.375Y-95.63
X61.375Y-98.17
X61.375Y-100.71
X61.375Y-103.25
X61.375Y-105.79
X61.375Y-108.33
X61.375Y-110.87
X61.375Y-113.41
X68.0Y-125.222
X68.0Y-139.722
X70.5Y-125.222
X73.0Y-125.222
X73.0Y-139.722
X86.375Y-60.07
X86.375Y-62.61
X86.375Y-65.15
X86.375Y-67.69
X86.375Y-70.23
X86.375Y-72.77
X86.375Y-75.31
X86.375Y-77.85
X86.375Y-80.39
X86.375Y-82.93
X86.375Y-85.47
X86.375Y-88.01
X86.375Y-90.55
X86.375Y-93.09
X86.375Y-95.63
X86.375Y-98.17
X86.375Y-100.71
X86.375Y-103.25
X86.375Y-105.79
X86.375Y-108.33
X86.375Y-110.87
X86.375Y-113.41
X89.0Y-125.222
X89.0Y-139.722
X91.5Y-62.38
X91.5Y-64.92
X91.5Y-67.46
X91.5Y-70.0
X91.5Y-72.54
X91.5Y-75.08
X91.5Y-77.62
X91.5Y-80.16
X91.5Y-82.7
X91.5Y-85.24
X91.5Y-125.222
X94.0Y-125.222
X94.0Y-139.722
X112.25Y-62.38
X112.25Y-64.92
X112.25Y-67.46
X112.25Y-70.0
X112.25Y-72.54
X112.25Y-75.08
X112.25Y-77.62
X112.25Y-80.16
X112.25Y-82.7
X112.25Y-85.24
X132.969Y-141.605
X135.509Y-141.605
X138.049Y-141.605
X140.589Y-141.605
X143.129Y-141.605
X145.669Y-141.605
X147.193Y-49.657
X148.209Y-141.605
X149.733Y-49.657
X152.273Y-49.657
X154.813Y-49.657
X169.69Y-94.625
X169.69Y-130.625
X172.23Y-94.625
X172.23Y-130.625
X174.628Y-119.395
X174.628Y-124.475
X174.77Y-94.625
X174.77Y-100.213
X174.77Y-105.293
X174.77Y-130.625
X179.708Y-119.395
X179.708Y-124.475
X179.85Y-100.213
X179.85Y-105.293
X182.248Y-119.395
X182.248Y-124.475
X182.39Y-100.213
X182.39Y-105.293
X184.788Y-119.395
X184.788Y-124.475
X184.93Y-100.213
X184.93Y-105.293
X188.994Y-94.625
X188.994Y-130.625
X191.534Y-94.625
X191.534Y-130.625
X194.074Y-94.625
X194.074Y-130.625
X214.0Y-55.435
X214.0Y-57.975
X214.0Y-60.515
X214.0Y-63.055
X214.0Y-65.595
X214.0Y-68.135
X214.0Y-70.675
T6
X91.685Y-52.5
X94.285Y-52.5
X96.785Y-47.5
X99.285Y-52.5
X101.885Y-52.5
X208.353Y-80.61
X208.353Y-83.21
X208.353Y-88.21
X208.353Y-90.81
X213.353Y-85.71
T8
X211.328Y-98.171
X211.328Y-108.331
T9
X116.713Y-129.413
X116.713Y-135.413
X121.413Y-132.413
T10
X58.0Y-48.0
X58.0Y-140.0
X214.0Y-48.0
X214.0Y-140.0
T7
X64.9Y-132.072G85X64.9Y-133.372
G05
X76.1Y-132.072G85X76.1Y-133.372
G05
X85.9Y-132.072G85X85.9Y-133.372
G05
X97.1Y-132.072G85X97.1Y-133.372
G05
T0
M30
