%TF.GenerationSoftware,KiCad,Pcbnew,(6.0.10)*%
%TF.CreationDate,2023-02-15T21:48:44-05:00*%
%TF.ProjectId,SDR-Transceiver,5344522d-5472-4616-9e73-636569766572,rev?*%
%TF.SameCoordinates,Original*%
%TF.FileFunction,Legend,Bot*%
%TF.FilePolarity,Positive*%
%FSLAX46Y46*%
G04 Gerber Fmt 4.6, Leading zero omitted, Abs format (unit mm)*
G04 Created by KiCad (PCBNEW (6.0.10)) date 2023-02-15 21:48:44*
%MOMM*%
%LPD*%
G01*
G04 APERTURE LIST*
%ADD10C,0.150000*%
%ADD11C,0.120000*%
G04 APERTURE END LIST*
D10*
%TO.C,U6*%
X117379404Y-108950380D02*
X117379404Y-109759904D01*
X117331785Y-109855142D01*
X117284166Y-109902761D01*
X117188928Y-109950380D01*
X116998452Y-109950380D01*
X116903214Y-109902761D01*
X116855595Y-109855142D01*
X116807976Y-109759904D01*
X116807976Y-108950380D01*
X115903214Y-108950380D02*
X116093690Y-108950380D01*
X116188928Y-108998000D01*
X116236547Y-109045619D01*
X116331785Y-109188476D01*
X116379404Y-109378952D01*
X116379404Y-109759904D01*
X116331785Y-109855142D01*
X116284166Y-109902761D01*
X116188928Y-109950380D01*
X115998452Y-109950380D01*
X115903214Y-109902761D01*
X115855595Y-109855142D01*
X115807976Y-109759904D01*
X115807976Y-109521809D01*
X115855595Y-109426571D01*
X115903214Y-109378952D01*
X115998452Y-109331333D01*
X116188928Y-109331333D01*
X116284166Y-109378952D01*
X116331785Y-109426571D01*
X116379404Y-109521809D01*
%TO.C,Q1*%
X167250619Y-115777261D02*
X167203000Y-115682023D01*
X167107761Y-115586785D01*
X166964904Y-115443928D01*
X166917285Y-115348690D01*
X166917285Y-115253452D01*
X167155380Y-115301071D02*
X167107761Y-115205833D01*
X167012523Y-115110595D01*
X166822047Y-115062976D01*
X166488714Y-115062976D01*
X166298238Y-115110595D01*
X166203000Y-115205833D01*
X166155380Y-115301071D01*
X166155380Y-115491547D01*
X166203000Y-115586785D01*
X166298238Y-115682023D01*
X166488714Y-115729642D01*
X166822047Y-115729642D01*
X167012523Y-115682023D01*
X167107761Y-115586785D01*
X167155380Y-115491547D01*
X167155380Y-115301071D01*
X167155380Y-116682023D02*
X167155380Y-116110595D01*
X167155380Y-116396309D02*
X166155380Y-116396309D01*
X166298238Y-116301071D01*
X166393476Y-116205833D01*
X166441095Y-116110595D01*
%TO.C,R31*%
X170436657Y-108149380D02*
X170769990Y-107673190D01*
X171008085Y-108149380D02*
X171008085Y-107149380D01*
X170627133Y-107149380D01*
X170531895Y-107197000D01*
X170484276Y-107244619D01*
X170436657Y-107339857D01*
X170436657Y-107482714D01*
X170484276Y-107577952D01*
X170531895Y-107625571D01*
X170627133Y-107673190D01*
X171008085Y-107673190D01*
X170103323Y-107149380D02*
X169484276Y-107149380D01*
X169817609Y-107530333D01*
X169674752Y-107530333D01*
X169579514Y-107577952D01*
X169531895Y-107625571D01*
X169484276Y-107720809D01*
X169484276Y-107958904D01*
X169531895Y-108054142D01*
X169579514Y-108101761D01*
X169674752Y-108149380D01*
X169960466Y-108149380D01*
X170055704Y-108101761D01*
X170103323Y-108054142D01*
X168531895Y-108149380D02*
X169103323Y-108149380D01*
X168817609Y-108149380D02*
X168817609Y-107149380D01*
X168912847Y-107292238D01*
X169008085Y-107387476D01*
X169103323Y-107435095D01*
%TO.C,Q2*%
X205954619Y-77834261D02*
X205907000Y-77739023D01*
X205811761Y-77643785D01*
X205668904Y-77500928D01*
X205621285Y-77405690D01*
X205621285Y-77310452D01*
X205859380Y-77358071D02*
X205811761Y-77262833D01*
X205716523Y-77167595D01*
X205526047Y-77119976D01*
X205192714Y-77119976D01*
X205002238Y-77167595D01*
X204907000Y-77262833D01*
X204859380Y-77358071D01*
X204859380Y-77548547D01*
X204907000Y-77643785D01*
X205002238Y-77739023D01*
X205192714Y-77786642D01*
X205526047Y-77786642D01*
X205716523Y-77739023D01*
X205811761Y-77643785D01*
X205859380Y-77548547D01*
X205859380Y-77358071D01*
X204954619Y-78167595D02*
X204907000Y-78215214D01*
X204859380Y-78310452D01*
X204859380Y-78548547D01*
X204907000Y-78643785D01*
X204954619Y-78691404D01*
X205049857Y-78739023D01*
X205145095Y-78739023D01*
X205287952Y-78691404D01*
X205859380Y-78119976D01*
X205859380Y-78739023D01*
%TO.C,D2*%
X173666680Y-102132904D02*
X172666680Y-102132904D01*
X172666680Y-102371000D01*
X172714300Y-102513857D01*
X172809538Y-102609095D01*
X172904776Y-102656714D01*
X173095252Y-102704333D01*
X173238109Y-102704333D01*
X173428585Y-102656714D01*
X173523823Y-102609095D01*
X173619061Y-102513857D01*
X173666680Y-102371000D01*
X173666680Y-102132904D01*
X172761919Y-103085285D02*
X172714300Y-103132904D01*
X172666680Y-103228142D01*
X172666680Y-103466238D01*
X172714300Y-103561476D01*
X172761919Y-103609095D01*
X172857157Y-103656714D01*
X172952395Y-103656714D01*
X173095252Y-103609095D01*
X173666680Y-103037666D01*
X173666680Y-103656714D01*
%TO.C,C18*%
X141818142Y-62523142D02*
X141865761Y-62475523D01*
X141913380Y-62332666D01*
X141913380Y-62237428D01*
X141865761Y-62094571D01*
X141770523Y-61999333D01*
X141675285Y-61951714D01*
X141484809Y-61904095D01*
X141341952Y-61904095D01*
X141151476Y-61951714D01*
X141056238Y-61999333D01*
X140961000Y-62094571D01*
X140913380Y-62237428D01*
X140913380Y-62332666D01*
X140961000Y-62475523D01*
X141008619Y-62523142D01*
X141913380Y-63475523D02*
X141913380Y-62904095D01*
X141913380Y-63189809D02*
X140913380Y-63189809D01*
X141056238Y-63094571D01*
X141151476Y-62999333D01*
X141199095Y-62904095D01*
X141341952Y-64046952D02*
X141294333Y-63951714D01*
X141246714Y-63904095D01*
X141151476Y-63856476D01*
X141103857Y-63856476D01*
X141008619Y-63904095D01*
X140961000Y-63951714D01*
X140913380Y-64046952D01*
X140913380Y-64237428D01*
X140961000Y-64332666D01*
X141008619Y-64380285D01*
X141103857Y-64427904D01*
X141151476Y-64427904D01*
X141246714Y-64380285D01*
X141294333Y-64332666D01*
X141341952Y-64237428D01*
X141341952Y-64046952D01*
X141389571Y-63951714D01*
X141437190Y-63904095D01*
X141532428Y-63856476D01*
X141722904Y-63856476D01*
X141818142Y-63904095D01*
X141865761Y-63951714D01*
X141913380Y-64046952D01*
X141913380Y-64237428D01*
X141865761Y-64332666D01*
X141818142Y-64380285D01*
X141722904Y-64427904D01*
X141532428Y-64427904D01*
X141437190Y-64380285D01*
X141389571Y-64332666D01*
X141341952Y-64237428D01*
%TO.C,C23*%
X141273440Y-78196142D02*
X141321059Y-78148523D01*
X141368678Y-78005666D01*
X141368678Y-77910428D01*
X141321059Y-77767571D01*
X141225821Y-77672333D01*
X141130583Y-77624714D01*
X140940107Y-77577095D01*
X140797250Y-77577095D01*
X140606774Y-77624714D01*
X140511536Y-77672333D01*
X140416298Y-77767571D01*
X140368678Y-77910428D01*
X140368678Y-78005666D01*
X140416298Y-78148523D01*
X140463917Y-78196142D01*
X140463917Y-78577095D02*
X140416298Y-78624714D01*
X140368678Y-78719952D01*
X140368678Y-78958047D01*
X140416298Y-79053285D01*
X140463917Y-79100904D01*
X140559155Y-79148523D01*
X140654393Y-79148523D01*
X140797250Y-79100904D01*
X141368678Y-78529476D01*
X141368678Y-79148523D01*
X140368678Y-79481857D02*
X140368678Y-80100904D01*
X140749631Y-79767571D01*
X140749631Y-79910428D01*
X140797250Y-80005666D01*
X140844869Y-80053285D01*
X140940107Y-80100904D01*
X141178202Y-80100904D01*
X141273440Y-80053285D01*
X141321059Y-80005666D01*
X141368678Y-79910428D01*
X141368678Y-79624714D01*
X141321059Y-79529476D01*
X141273440Y-79481857D01*
%TO.C,R32*%
X203612357Y-84525380D02*
X203945690Y-84049190D01*
X204183785Y-84525380D02*
X204183785Y-83525380D01*
X203802833Y-83525380D01*
X203707595Y-83573000D01*
X203659976Y-83620619D01*
X203612357Y-83715857D01*
X203612357Y-83858714D01*
X203659976Y-83953952D01*
X203707595Y-84001571D01*
X203802833Y-84049190D01*
X204183785Y-84049190D01*
X203279023Y-83525380D02*
X202659976Y-83525380D01*
X202993309Y-83906333D01*
X202850452Y-83906333D01*
X202755214Y-83953952D01*
X202707595Y-84001571D01*
X202659976Y-84096809D01*
X202659976Y-84334904D01*
X202707595Y-84430142D01*
X202755214Y-84477761D01*
X202850452Y-84525380D01*
X203136166Y-84525380D01*
X203231404Y-84477761D01*
X203279023Y-84430142D01*
X202279023Y-83620619D02*
X202231404Y-83573000D01*
X202136166Y-83525380D01*
X201898071Y-83525380D01*
X201802833Y-83573000D01*
X201755214Y-83620619D01*
X201707595Y-83715857D01*
X201707595Y-83811095D01*
X201755214Y-83953952D01*
X202326642Y-84525380D01*
X201707595Y-84525380D01*
%TO.C,D1*%
X173666680Y-121182904D02*
X172666680Y-121182904D01*
X172666680Y-121421000D01*
X172714300Y-121563857D01*
X172809538Y-121659095D01*
X172904776Y-121706714D01*
X173095252Y-121754333D01*
X173238109Y-121754333D01*
X173428585Y-121706714D01*
X173523823Y-121659095D01*
X173619061Y-121563857D01*
X173666680Y-121421000D01*
X173666680Y-121182904D01*
X173666680Y-122706714D02*
X173666680Y-122135285D01*
X173666680Y-122421000D02*
X172666680Y-122421000D01*
X172809538Y-122325761D01*
X172904776Y-122230523D01*
X172952395Y-122135285D01*
D11*
%TO.C,Q1*%
X167543000Y-115872500D02*
X167543000Y-114197500D01*
X170663000Y-115872500D02*
X170663000Y-116522500D01*
X167543000Y-115872500D02*
X167543000Y-116522500D01*
X170663000Y-115872500D02*
X170663000Y-115222500D01*
%TO.C,R31*%
X170020864Y-108612000D02*
X169566736Y-108612000D01*
X170020864Y-110082000D02*
X169566736Y-110082000D01*
%TO.C,Q2*%
X204567000Y-77929500D02*
X204567000Y-77279500D01*
X204567000Y-77929500D02*
X204567000Y-79604500D01*
X201447000Y-77929500D02*
X201447000Y-77279500D01*
X201447000Y-77929500D02*
X201447000Y-78579500D01*
%TO.C,D2*%
X172214300Y-105121000D02*
X170214300Y-105121000D01*
X170214300Y-105121000D02*
X170214300Y-101221000D01*
X172214300Y-105121000D02*
X172214300Y-101221000D01*
%TO.C,C18*%
X138701000Y-63877252D02*
X138701000Y-62454748D01*
X140521000Y-63877252D02*
X140521000Y-62454748D01*
%TO.C,C23*%
X139976298Y-79550252D02*
X139976298Y-78127748D01*
X138156298Y-79550252D02*
X138156298Y-78127748D01*
%TO.C,R32*%
X202742436Y-81688000D02*
X203196564Y-81688000D01*
X202742436Y-83158000D02*
X203196564Y-83158000D01*
%TO.C,D1*%
X170214300Y-124171000D02*
X170214300Y-120271000D01*
X172214300Y-124171000D02*
X172214300Y-120271000D01*
X172214300Y-124171000D02*
X170214300Y-124171000D01*
%TD*%
M02*
