M48
; DRILL file {KiCad 6.0.10-86aedd382b~118~ubuntu20.04.1} date Mon 20 Feb 2023 07:12:28 AM EST
; FORMAT={-:-/ absolute / inch / decimal}
; #@! TF.CreationDate,2023-02-20T07:12:28-05:00
; #@! TF.GenerationSoftware,Kicad,Pcbnew,6.0.10-86aedd382b~118~ubuntu20.04.1
; #@! TF.FileFunction,Plated,1,2,PTH
FMAT,2
INCH
; #@! TA.AperFunction,Plated,PTH,ViaDrill
T1C0.0157
; #@! TA.AperFunction,Plated,PTH,ComponentDrill
T2C0.0197
; #@! TA.AperFunction,Plated,PTH,ComponentDrill
T3C0.0236
; #@! TA.AperFunction,Plated,PTH,ComponentDrill
T4C0.0315
; #@! TA.AperFunction,Plated,PTH,ComponentDrill
T5C0.0394
; #@! TA.AperFunction,Plated,PTH,ComponentDrill
T6C0.0512
; #@! TA.AperFunction,Plated,PTH,ComponentDrill
T7C0.0591
; #@! TA.AperFunction,Plated,PTH,ComponentDrill
T8C0.0866
; #@! TA.AperFunction,Plated,PTH,ComponentDrill
T9C0.0984
; #@! TA.AperFunction,Plated,PTH,ComponentDrill
T10C0.1260
%
G90
G05
T1
X2.905Y-3.235
X3.295Y-3.1731
X3.375Y-3.295
X3.595Y-2.965
X3.735Y-3.305
X3.915Y-3.875
X4.135Y-3.1231
X4.175Y-3.295
X4.245Y-2.115
X4.48Y-4.23
X4.485Y-4.335
X4.49Y-3.82
X4.4913Y-3.9231
X4.625Y-4.425
X4.6737Y-2.9645
X4.725Y-3.405
X4.765Y-4.225
X4.765Y-4.335
X4.805Y-3.545
X4.835Y-2.095
X4.865Y-4.735
X4.875Y-2.6158
X4.935Y-3.335
X4.965Y-3.645
X4.975Y-2.8458
X5.025Y-2.455
X5.075Y-3.955
X5.085Y-3.855
X5.085Y-4.085
X5.09Y-4.96
X5.095Y-4.515
X5.12Y-3.46
X5.125Y-5.245
X5.185Y-4.185
X5.195Y-2.815
X5.205Y-3.485
X5.265Y-2.865
X5.295Y-2.495
X5.385Y-3.115
X5.405Y-4.535
X5.5179Y-3.7421
X5.645Y-4.295
X5.6775Y-2.3994
X5.68Y-3.0119
X5.7991Y-4.5396
X5.8516Y-4.1271
X5.855Y-3.2969
X5.8641Y-4.2646
X5.9001Y-2.7919
X5.905Y-2.3069
X5.935Y-4.535
X5.9391Y-4.1646
X6.095Y-2.935
X6.095Y-5.135
X6.115Y-4.035
X6.245Y-2.165
X6.28Y-1.87
X6.3137Y-4.365
X6.315Y-4.465
X6.3641Y-4.3146
X6.4141Y-4.2646
X6.565Y-3.475
X6.595Y-2.5269
X6.615Y-4.215
X6.655Y-2.645
X6.655Y-4.865
X6.6799Y-2.7318
X6.6905Y-2.9655
X6.705Y-2.8569
X6.705Y-4.425
X6.715Y-2.5569
X6.735Y-3.115
X6.885Y-4.555
X7.095Y-2.8869
X7.095Y-5.185
X7.115Y-2.8269
X7.135Y-2.7269
X7.185Y-5.255
X7.29Y-4.47
X7.385Y-2.915
X7.5351Y-4.7706
X7.6703Y-5.0497
T2
X2.7355Y-5.53
X2.7455Y-1.91
X2.7632Y-5.4632
X2.7632Y-5.5968
X2.7732Y-1.8432
X2.7732Y-1.9768
X2.83Y-5.4355
X2.83Y-5.6245
X2.84Y-1.8155
X2.84Y-2.0045
X2.8968Y-5.4632
X2.8968Y-5.5968
X2.9068Y-1.8432
X2.9068Y-1.9768
X2.9245Y-5.53
X2.9345Y-1.91
X8.0951Y-4.6506
X8.3155Y-1.91
X8.3155Y-5.53
X8.3432Y-1.8432
X8.3432Y-1.9768
X8.3432Y-5.4632
X8.3432Y-5.5968
X8.41Y-1.8155
X8.41Y-2.0045
X8.41Y-5.4355
X8.41Y-5.6245
X8.4768Y-1.8432
X8.4768Y-1.9768
X8.4768Y-5.4632
X8.4768Y-5.5968
X8.5045Y-1.91
X8.5045Y-5.53
T3
X5.9141Y-3.6896
X6.0141Y-3.6896
X6.1141Y-3.6896
X6.2141Y-3.9896
X6.3141Y-3.9896
X6.4141Y-3.9896
X6.775Y-2.1069
X6.875Y-2.1069
X6.975Y-2.1069
X7.075Y-2.4069
X7.175Y-2.4069
X7.275Y-2.4069
X7.8651Y-4.3606
X7.8651Y-4.4706
T4
X8.12Y-3.865
X8.12Y-3.965
T5
X3.075Y-2.9231
X3.075Y-3.0231
X3.075Y-3.1231
X3.075Y-3.2231
X3.075Y-3.3231
X3.075Y-3.4231
X3.075Y-3.5231
X3.075Y-3.6231
X3.075Y-3.7231
X3.075Y-3.8231
X3.075Y-3.9231
X3.075Y-4.0231
X3.075Y-4.1231
X3.075Y-4.2231
X3.075Y-4.3231
X3.075Y-4.4231
X3.1531Y-4.93
X3.1531Y-5.5009
X3.2516Y-4.93
X3.35Y-4.93
X3.35Y-5.5009
X3.4258Y-1.964
X3.5258Y-1.964
X3.6258Y-1.964
X3.7258Y-1.964
X3.7931Y-4.93
X3.7931Y-5.5009
X3.8258Y-1.964
X3.8916Y-4.93
X3.9258Y-1.964
X3.99Y-4.93
X3.99Y-5.5009
X4.0258Y-1.964
X4.375Y-2.9231
X4.375Y-3.0231
X4.375Y-3.1231
X4.375Y-3.2231
X4.375Y-3.3231
X4.375Y-3.4231
X4.375Y-3.5231
X4.375Y-3.6231
X4.375Y-3.7231
X4.375Y-3.8231
X4.375Y-3.9231
X4.375Y-4.0231
X4.375Y-4.1231
X4.375Y-4.2231
X4.375Y-4.3231
X4.375Y-4.4231
X4.5393Y-1.955
X4.6393Y-1.955
X4.7393Y-1.955
X4.8393Y-1.955
X4.9393Y-1.955
X5.0393Y-1.955
X5.1393Y-1.955
X5.235Y-5.575
X5.335Y-5.575
X5.435Y-5.575
X5.535Y-5.575
X5.635Y-5.575
X5.735Y-5.575
X5.795Y-1.955
X5.835Y-5.575
X5.895Y-1.955
X5.995Y-1.955
X6.095Y-1.955
X6.6807Y-3.7254
X6.6807Y-5.1427
X6.7807Y-3.7254
X6.7807Y-5.1427
X6.8751Y-4.7006
X6.8751Y-4.9006
X6.8807Y-3.7254
X6.8807Y-3.9454
X6.8807Y-4.1454
X6.8807Y-5.1427
X7.0751Y-4.7006
X7.0751Y-4.9006
X7.0807Y-3.9454
X7.0807Y-4.1454
X7.1751Y-4.7006
X7.1751Y-4.9006
X7.1807Y-3.9454
X7.1807Y-4.1454
X7.2751Y-4.7006
X7.2751Y-4.9006
X7.2807Y-3.9454
X7.2807Y-4.1454
X7.4407Y-3.7254
X7.4407Y-5.1427
X7.5407Y-3.7254
X7.5407Y-5.1427
X7.6407Y-3.7254
X7.6407Y-5.1427
T6
X8.2128Y-2.8342
X8.2128Y-2.9366
X8.2128Y-3.1334
X8.2128Y-3.2358
X8.4097Y-3.035
T8
X8.32Y-3.765
X8.32Y-4.165
T9
X4.595Y-5.095
X4.595Y-5.3312
X4.78Y-5.2131
T10
X2.83Y-5.53
X2.84Y-1.91
X8.41Y-1.91
X8.41Y-5.53
T7
X3.0311Y-5.1997G85X3.0311Y-5.2509
G05
X3.472Y-5.1997G85X3.472Y-5.2509
G05
X3.6711Y-5.1997G85X3.6711Y-5.2509
G05
X4.112Y-5.1997G85X4.112Y-5.2509
G05
T0
M30
