G04 #@! TF.GenerationSoftware,KiCad,Pcbnew,6.0.10-86aedd382b~118~ubuntu20.04.1*
G04 #@! TF.CreationDate,2023-02-20T07:12:02-05:00*
G04 #@! TF.ProjectId,SDR-Transceiver,5344522d-5472-4616-9e73-636569766572,rev?*
G04 #@! TF.SameCoordinates,Original*
G04 #@! TF.FileFunction,Soldermask,Top*
G04 #@! TF.FilePolarity,Negative*
%FSLAX46Y46*%
G04 Gerber Fmt 4.6, Leading zero omitted, Abs format (unit mm)*
G04 Created by KiCad (PCBNEW 6.0.10-86aedd382b~118~ubuntu20.04.1) date 2023-02-20 07:12:02*
%MOMM*%
%LPD*%
G01*
G04 APERTURE LIST*
G04 Aperture macros list*
%AMRoundRect*
0 Rectangle with rounded corners*
0 $1 Rounding radius*
0 $2 $3 $4 $5 $6 $7 $8 $9 X,Y pos of 4 corners*
0 Add a 4 corners polygon primitive as box body*
4,1,4,$2,$3,$4,$5,$6,$7,$8,$9,$2,$3,0*
0 Add four circle primitives for the rounded corners*
1,1,$1+$1,$2,$3*
1,1,$1+$1,$4,$5*
1,1,$1+$1,$6,$7*
1,1,$1+$1,$8,$9*
0 Add four rect primitives between the rounded corners*
20,1,$1+$1,$2,$3,$4,$5,0*
20,1,$1+$1,$4,$5,$6,$7,0*
20,1,$1+$1,$6,$7,$8,$9,0*
20,1,$1+$1,$8,$9,$2,$3,0*%
G04 Aperture macros list end*
%ADD10C,0.660400*%
%ADD11C,0.800000*%
%ADD12C,6.400000*%
%ADD13RoundRect,0.250000X0.450000X-0.262500X0.450000X0.262500X-0.450000X0.262500X-0.450000X-0.262500X0*%
%ADD14RoundRect,0.250000X-0.650000X0.325000X-0.650000X-0.325000X0.650000X-0.325000X0.650000X0.325000X0*%
%ADD15RoundRect,0.250000X0.262500X0.450000X-0.262500X0.450000X-0.262500X-0.450000X0.262500X-0.450000X0*%
%ADD16RoundRect,0.250000X0.650000X-0.325000X0.650000X0.325000X-0.650000X0.325000X-0.650000X-0.325000X0*%
%ADD17RoundRect,0.101600X-0.300000X-0.600000X0.300000X-0.600000X0.300000X0.600000X-0.300000X0.600000X0*%
%ADD18RoundRect,0.101600X0.600000X-0.300000X0.600000X0.300000X-0.600000X0.300000X-0.600000X-0.300000X0*%
%ADD19RoundRect,0.250000X-0.262500X-0.450000X0.262500X-0.450000X0.262500X0.450000X-0.262500X0.450000X0*%
%ADD20RoundRect,0.250000X0.550000X-1.050000X0.550000X1.050000X-0.550000X1.050000X-0.550000X-1.050000X0*%
%ADD21RoundRect,0.250000X-1.050000X-0.550000X1.050000X-0.550000X1.050000X0.550000X-1.050000X0.550000X0*%
%ADD22RoundRect,0.350000X-2.150000X-0.350000X2.150000X-0.350000X2.150000X0.350000X-2.150000X0.350000X0*%
%ADD23RoundRect,0.250000X-0.475000X0.250000X-0.475000X-0.250000X0.475000X-0.250000X0.475000X0.250000X0*%
%ADD24C,1.200000*%
%ADD25C,2.503200*%
%ADD26R,1.700000X1.700000*%
%ADD27O,1.700000X1.700000*%
%ADD28RoundRect,0.250000X-0.450000X0.262500X-0.450000X-0.262500X0.450000X-0.262500X0.450000X0.262500X0*%
%ADD29RoundRect,0.250000X-0.325000X-0.650000X0.325000X-0.650000X0.325000X0.650000X-0.325000X0.650000X0*%
%ADD30RoundRect,0.250000X0.325000X0.650000X-0.325000X0.650000X-0.325000X-0.650000X0.325000X-0.650000X0*%
%ADD31R,2.000000X2.000000*%
%ADD32C,2.000000*%
%ADD33RoundRect,0.150000X-0.587500X-0.150000X0.587500X-0.150000X0.587500X0.150000X-0.587500X0.150000X0*%
%ADD34C,1.981200*%
%ADD35R,1.700000X0.900000*%
%ADD36RoundRect,0.250000X1.500000X0.550000X-1.500000X0.550000X-1.500000X-0.550000X1.500000X-0.550000X0*%
%ADD37R,4.200000X4.200000*%
%ADD38C,4.200000*%
%ADD39C,4.000000*%
%ADD40RoundRect,0.250000X0.475000X-0.250000X0.475000X0.250000X-0.475000X0.250000X-0.475000X-0.250000X0*%
%ADD41R,1.000000X1.000000*%
%ADD42RoundRect,0.250000X-0.250000X-0.475000X0.250000X-0.475000X0.250000X0.475000X-0.250000X0.475000X0*%
%ADD43RoundRect,0.150000X0.587500X0.150000X-0.587500X0.150000X-0.587500X-0.150000X0.587500X-0.150000X0*%
%ADD44R,2.000000X3.200000*%
%ADD45R,2.200000X1.200000*%
%ADD46R,6.400000X5.800000*%
%ADD47RoundRect,0.250000X-0.550000X1.050000X-0.550000X-1.050000X0.550000X-1.050000X0.550000X1.050000X0*%
%ADD48RoundRect,0.250000X0.250000X0.475000X-0.250000X0.475000X-0.250000X-0.475000X0.250000X-0.475000X0*%
%ADD49RoundRect,0.243750X-0.243750X-0.456250X0.243750X-0.456250X0.243750X0.456250X-0.243750X0.456250X0*%
%ADD50R,1.500000X2.000000*%
%ADD51R,3.800000X2.000000*%
%ADD52C,3.419200*%
%ADD53O,2.819200X1.511200*%
%ADD54RoundRect,0.150000X-0.150000X0.825000X-0.150000X-0.825000X0.150000X-0.825000X0.150000X0.825000X0*%
%ADD55RoundRect,0.243750X0.243750X0.456250X-0.243750X0.456250X-0.243750X-0.456250X0.243750X-0.456250X0*%
%ADD56R,0.400000X0.400000*%
G04 APERTURE END LIST*
D10*
X208936200Y-71989000D02*
G75*
G03*
X208936200Y-71989000I-330200J0D01*
G01*
X208936200Y-82189000D02*
G75*
G03*
X208936200Y-82189000I-330200J0D01*
G01*
X208936200Y-79589000D02*
G75*
G03*
X208936200Y-79589000I-330200J0D01*
G01*
X213936200Y-77089000D02*
G75*
G03*
X213936200Y-77089000I-330200J0D01*
G01*
X208936200Y-74589000D02*
G75*
G03*
X208936200Y-74589000I-330200J0D01*
G01*
D11*
X211916944Y-46816944D03*
X213614000Y-46114000D03*
X216014000Y-48514000D03*
X213614000Y-50914000D03*
D12*
X213614000Y-48514000D03*
D11*
X211916944Y-50211056D03*
X215311056Y-50211056D03*
X211214000Y-48514000D03*
X215311056Y-46816944D03*
D13*
X176149000Y-63420000D03*
X176149000Y-61595000D03*
D14*
X165227000Y-57832000D03*
X165227000Y-60782000D03*
D15*
X94869000Y-80850000D03*
X93044000Y-80850000D03*
D16*
X165227000Y-66976000D03*
X165227000Y-64026000D03*
D17*
X132693993Y-113535314D03*
X133963993Y-113535314D03*
X135233993Y-113535314D03*
X136503993Y-113535314D03*
X136503993Y-107935314D03*
X135233993Y-107935314D03*
X133963993Y-107935314D03*
X132693993Y-107935314D03*
D13*
X122047000Y-86487000D03*
X122047000Y-84662000D03*
D18*
X158127000Y-113411000D03*
X158127000Y-112141000D03*
X158127000Y-110871000D03*
X158127000Y-109601000D03*
X158127000Y-108331000D03*
X158127000Y-107061000D03*
X158127000Y-105791000D03*
X158127000Y-104521000D03*
X152527000Y-104521000D03*
X152527000Y-105791000D03*
X152527000Y-107061000D03*
X152527000Y-108331000D03*
X152527000Y-109601000D03*
X152527000Y-110871000D03*
X152527000Y-112141000D03*
X152527000Y-113411000D03*
D13*
X123571000Y-98679000D03*
X123571000Y-96854000D03*
D19*
X146177000Y-136909000D03*
X148002000Y-136909000D03*
D15*
X134262000Y-116576594D03*
X132437000Y-116576594D03*
D13*
X172593000Y-63420000D03*
X172593000Y-61595000D03*
D20*
X139319000Y-136823000D03*
X139319000Y-133223000D03*
D19*
X97616000Y-90805000D03*
X99441000Y-90805000D03*
D21*
X99143000Y-105283000D03*
X102743000Y-105283000D03*
D19*
X166704000Y-53514000D03*
X168529000Y-53514000D03*
D15*
X198503800Y-121305500D03*
X196678800Y-121305500D03*
D19*
X142074500Y-83994000D03*
X143899500Y-83994000D03*
D22*
X215028780Y-128262380D03*
X215011000Y-125841760D03*
X215028780Y-130683000D03*
D16*
X152781000Y-130429000D03*
X152781000Y-127479000D03*
D23*
X119507000Y-66187000D03*
X119507000Y-68087000D03*
D24*
X208606000Y-77089000D03*
X216106000Y-82089000D03*
X213606000Y-82089000D03*
X213606000Y-72089000D03*
X216106000Y-72089000D03*
D25*
X208606000Y-82189000D03*
X208606000Y-79589000D03*
X213606000Y-77089000D03*
X208606000Y-71989000D03*
X208606000Y-74589000D03*
D15*
X141962000Y-105146594D03*
X140137000Y-105146594D03*
D26*
X154813000Y-49657000D03*
D27*
X152273000Y-49657000D03*
X149733000Y-49657000D03*
X147193000Y-49657000D03*
D28*
X142211000Y-95281000D03*
X142211000Y-97106000D03*
D13*
X143129000Y-81200000D03*
X143129000Y-79375000D03*
D29*
X115951000Y-110109000D03*
X118901000Y-110109000D03*
D30*
X135102000Y-119535314D03*
X132152000Y-119535314D03*
D16*
X145137000Y-108096594D03*
X145137000Y-105146594D03*
D13*
X194439800Y-113299500D03*
X194439800Y-111474500D03*
X145513000Y-97106000D03*
X145513000Y-95281000D03*
D31*
X174627800Y-124475500D03*
D32*
X179707800Y-124475500D03*
X182247800Y-124475500D03*
X184787800Y-124475500D03*
X184787800Y-119395500D03*
X182247800Y-119395500D03*
X179707800Y-119395500D03*
X174627800Y-119395500D03*
D26*
X87015000Y-49886000D03*
D27*
X89555000Y-49886000D03*
X92095000Y-49886000D03*
X94635000Y-49886000D03*
X97175000Y-49886000D03*
X99715000Y-49886000D03*
X102255000Y-49886000D03*
D19*
X139065000Y-130175000D03*
X140890000Y-130175000D03*
D23*
X129413000Y-70876500D03*
X129413000Y-72776500D03*
D28*
X152781000Y-72771000D03*
X152781000Y-74596000D03*
D14*
X165481000Y-76472000D03*
X165481000Y-79422000D03*
D15*
X148336000Y-58086000D03*
X146511000Y-58086000D03*
X193320300Y-119141500D03*
X191495300Y-119141500D03*
D33*
X97487500Y-78376000D03*
X97487500Y-80276000D03*
X99362500Y-79326000D03*
D14*
X126365000Y-95725000D03*
X126365000Y-98675000D03*
D34*
X150217000Y-93716594D03*
X157837000Y-101336594D03*
X152757000Y-93716594D03*
X160377000Y-101336594D03*
X155297000Y-93716594D03*
X162917000Y-101336594D03*
D15*
X134032000Y-133985000D03*
X132207000Y-133985000D03*
D11*
X73579056Y-142159056D03*
X70184944Y-142159056D03*
X71882000Y-138062000D03*
X71882000Y-142862000D03*
D12*
X71882000Y-140462000D03*
D11*
X69482000Y-140462000D03*
X73579056Y-138764944D03*
X70184944Y-138764944D03*
X74282000Y-140462000D03*
D15*
X148568798Y-73554000D03*
X146743798Y-73554000D03*
D13*
X131953000Y-75199000D03*
X131953000Y-73374000D03*
D19*
X161154500Y-84502000D03*
X162979500Y-84502000D03*
D27*
X130538000Y-49657000D03*
X127998000Y-49657000D03*
X125458000Y-49657000D03*
X117838000Y-49657000D03*
X122918000Y-49657000D03*
X120378000Y-49657000D03*
D26*
X115298000Y-49657000D03*
D23*
X121539000Y-69743000D03*
X121539000Y-71643000D03*
D28*
X126111000Y-69056000D03*
X126111000Y-70881000D03*
D13*
X143256000Y-65348500D03*
X143256000Y-63523500D03*
D35*
X83947000Y-61858000D03*
X83947000Y-65258000D03*
D36*
X96606000Y-112908000D03*
X91006000Y-112908000D03*
D19*
X142066000Y-68246000D03*
X143891000Y-68246000D03*
D34*
X199773800Y-113553500D03*
X199773800Y-110759500D03*
D29*
X115951000Y-107315000D03*
X118901000Y-107315000D03*
D15*
X135124064Y-103966594D03*
X133299064Y-103966594D03*
D19*
X132239000Y-136779000D03*
X134064000Y-136779000D03*
D13*
X133477000Y-83843500D03*
X133477000Y-82018500D03*
D23*
X128651000Y-67203000D03*
X128651000Y-69103000D03*
D30*
X176403000Y-79168000D03*
X173453000Y-79168000D03*
D37*
X116713000Y-129413000D03*
D38*
X116713000Y-135413000D03*
D39*
X121413000Y-132413000D03*
D30*
X148365000Y-134369000D03*
X145415000Y-134369000D03*
X136045759Y-101426594D03*
X133095759Y-101426594D03*
D26*
X188994300Y-130625000D03*
D27*
X191534300Y-130625000D03*
X194074300Y-130625000D03*
D26*
X169690300Y-130625000D03*
D27*
X172230300Y-130625000D03*
X174770300Y-130625000D03*
D17*
X146051298Y-81974000D03*
X147321298Y-81974000D03*
X148591298Y-81974000D03*
X149861298Y-81974000D03*
X149861298Y-76374000D03*
X148591298Y-76374000D03*
X147321298Y-76374000D03*
X146051298Y-76374000D03*
D14*
X145137000Y-100066594D03*
X145137000Y-103016594D03*
D11*
X213614000Y-142862000D03*
X211916944Y-142159056D03*
X211916944Y-138764944D03*
X216014000Y-140462000D03*
X215311056Y-138764944D03*
D12*
X213614000Y-140462000D03*
D11*
X215311056Y-142159056D03*
X213614000Y-138062000D03*
X211214000Y-140462000D03*
D14*
X126619000Y-102079000D03*
X126619000Y-105029000D03*
D21*
X116459000Y-97155000D03*
X120059000Y-97155000D03*
D16*
X129262000Y-112541594D03*
X129262000Y-109591594D03*
D23*
X116967000Y-77043000D03*
X116967000Y-78943000D03*
D11*
X72136000Y-50914000D03*
X72136000Y-46114000D03*
D12*
X72136000Y-48514000D03*
D11*
X74536000Y-48514000D03*
X73833056Y-46816944D03*
X69736000Y-48514000D03*
X70438944Y-46816944D03*
X70438944Y-50211056D03*
X73833056Y-50211056D03*
D15*
X141962000Y-107686594D03*
X140137000Y-107686594D03*
D14*
X145137000Y-110375342D03*
X145137000Y-113325342D03*
D40*
X115697000Y-85593000D03*
X115697000Y-83693000D03*
D13*
X131191000Y-83882000D03*
X131191000Y-82057000D03*
D41*
X205615800Y-118125500D03*
D19*
X160655000Y-64182000D03*
X162480000Y-64182000D03*
D42*
X200789800Y-118125500D03*
X202689800Y-118125500D03*
D19*
X160608000Y-58594000D03*
X162433000Y-58594000D03*
D22*
X215028780Y-117848380D03*
X215028780Y-120269000D03*
X215011000Y-115427760D03*
D43*
X99491000Y-87691000D03*
X99491000Y-85791000D03*
X97616000Y-86741000D03*
D14*
X102489000Y-62054000D03*
X102489000Y-65004000D03*
D15*
X104521000Y-87503000D03*
X102696000Y-87503000D03*
D20*
X157607000Y-73370000D03*
X157607000Y-69770000D03*
D31*
X101346000Y-125222000D03*
D32*
X96346000Y-125222000D03*
X98846000Y-125222000D03*
D44*
X104446000Y-132722000D03*
X93246000Y-132722000D03*
D32*
X96346000Y-139722000D03*
X101346000Y-139722000D03*
D35*
X106553000Y-61956000D03*
X106553000Y-65356000D03*
D19*
X166657000Y-50720000D03*
X168482000Y-50720000D03*
D17*
X120397298Y-80823000D03*
X121667298Y-80823000D03*
X122937298Y-80823000D03*
X124207298Y-80823000D03*
X125477298Y-80823000D03*
X126747298Y-80823000D03*
X128017298Y-80823000D03*
X129287298Y-80823000D03*
X129287298Y-75223000D03*
X128017298Y-75223000D03*
X126747298Y-75223000D03*
X125477298Y-75223000D03*
X124207298Y-75223000D03*
X122937298Y-75223000D03*
X121667298Y-75223000D03*
X120397298Y-75223000D03*
D45*
X95377000Y-106807000D03*
X95377000Y-104527000D03*
D46*
X89077000Y-104527000D03*
D45*
X95377000Y-102247000D03*
D47*
X162640000Y-50422000D03*
X162640000Y-54022000D03*
D19*
X93044000Y-78310000D03*
X94869000Y-78310000D03*
D48*
X136017000Y-75057000D03*
X134117000Y-75057000D03*
D19*
X130937000Y-67965000D03*
X132762000Y-67965000D03*
D26*
X132969000Y-141605000D03*
D27*
X135509000Y-141605000D03*
X138049000Y-141605000D03*
X140589000Y-141605000D03*
X143129000Y-141605000D03*
X145669000Y-141605000D03*
X148209000Y-141605000D03*
D26*
X169690300Y-94625000D03*
D27*
X172230300Y-94625000D03*
X174770300Y-94625000D03*
D30*
X156567000Y-116576594D03*
X153617000Y-116576594D03*
D21*
X153889000Y-64182000D03*
X157489000Y-64182000D03*
D40*
X126111000Y-66939000D03*
X126111000Y-65039000D03*
D17*
X145796000Y-66226000D03*
X147066000Y-66226000D03*
X148336000Y-66226000D03*
X149606000Y-66226000D03*
X149606000Y-60626000D03*
X148336000Y-60626000D03*
X147066000Y-60626000D03*
X145796000Y-60626000D03*
D33*
X196882800Y-117175500D03*
X196882800Y-119075500D03*
X198757800Y-118125500D03*
D26*
X188994300Y-94625000D03*
D27*
X191534300Y-94625000D03*
X194074300Y-94625000D03*
D31*
X174770300Y-105293000D03*
D32*
X179850300Y-105293000D03*
X182390300Y-105293000D03*
X184930300Y-105293000D03*
X184930300Y-100213000D03*
X182390300Y-100213000D03*
X179850300Y-100213000D03*
X174770300Y-100213000D03*
D40*
X128651000Y-86497000D03*
X128651000Y-84597000D03*
D49*
X99143000Y-109251000D03*
X101018000Y-109251000D03*
D40*
X203329800Y-112659500D03*
X203329800Y-110759500D03*
D28*
X124079000Y-101934000D03*
X124079000Y-103759000D03*
D19*
X161163000Y-79168000D03*
X162988000Y-79168000D03*
X128397000Y-64785000D03*
X130222000Y-64785000D03*
D29*
X131699000Y-127381000D03*
X134649000Y-127381000D03*
D34*
X184785000Y-61134000D03*
X177165000Y-53514000D03*
X182245000Y-61134000D03*
X174625000Y-53514000D03*
X179705000Y-61134000D03*
X172085000Y-53514000D03*
D16*
X145137000Y-118481594D03*
X145137000Y-115531594D03*
D50*
X89420000Y-98380000D03*
X91720000Y-98380000D03*
D51*
X91720000Y-92080000D03*
D50*
X94020000Y-98380000D03*
D16*
X165735000Y-85928000D03*
X165735000Y-82978000D03*
D52*
X211328000Y-95631000D03*
X211328000Y-105791000D03*
D53*
X206248000Y-98171000D03*
X206248000Y-100711000D03*
D54*
X148717000Y-126241000D03*
X147447000Y-126241000D03*
X146177000Y-126241000D03*
X144907000Y-126241000D03*
X144907000Y-131191000D03*
X146177000Y-131191000D03*
X147447000Y-131191000D03*
X148717000Y-131191000D03*
D21*
X141659000Y-90043000D03*
X145259000Y-90043000D03*
D13*
X132969000Y-79121000D03*
X132969000Y-77296000D03*
D21*
X154051000Y-84502000D03*
X157651000Y-84502000D03*
D40*
X191645800Y-117043500D03*
X191645800Y-115143500D03*
D28*
X123825000Y-69056000D03*
X123825000Y-70881000D03*
D15*
X141962000Y-110226594D03*
X140137000Y-110226594D03*
D40*
X117983000Y-86863000D03*
X117983000Y-84963000D03*
D15*
X123571000Y-63769000D03*
X121746000Y-63769000D03*
D18*
X177963000Y-75737702D03*
X177963000Y-74467702D03*
X177963000Y-73197702D03*
X177963000Y-71927702D03*
X177963000Y-70657702D03*
X177963000Y-69387702D03*
X177963000Y-68117702D03*
X177963000Y-66847702D03*
X172363000Y-66847702D03*
X172363000Y-68117702D03*
X172363000Y-69387702D03*
X172363000Y-70657702D03*
X172363000Y-71927702D03*
X172363000Y-73197702D03*
X172363000Y-74467702D03*
X172363000Y-75737702D03*
D48*
X133599000Y-86121000D03*
X131699000Y-86121000D03*
D15*
X141962000Y-112766594D03*
X140137000Y-112766594D03*
D13*
X125349000Y-88312000D03*
X125349000Y-86487000D03*
D14*
X87757000Y-62054000D03*
X87757000Y-65004000D03*
D21*
X116669000Y-102235000D03*
X120269000Y-102235000D03*
D40*
X129159000Y-91435000D03*
X129159000Y-89535000D03*
D28*
X128651000Y-135208000D03*
X128651000Y-137033000D03*
D15*
X119253000Y-63769000D03*
X117428000Y-63769000D03*
D28*
X152781000Y-68961000D03*
X152781000Y-70786000D03*
D40*
X124079000Y-92329000D03*
X124079000Y-90429000D03*
D15*
X198503800Y-123845500D03*
X196678800Y-123845500D03*
D43*
X90218500Y-80530000D03*
X90218500Y-78630000D03*
X88343500Y-79580000D03*
D19*
X142621000Y-58086000D03*
X144446000Y-58086000D03*
D40*
X200789800Y-123327500D03*
X200789800Y-121427500D03*
D21*
X154051000Y-79168000D03*
X157651000Y-79168000D03*
D55*
X91260000Y-88016000D03*
X89385000Y-88016000D03*
D21*
X153775000Y-58594000D03*
X157375000Y-58594000D03*
D31*
X85090000Y-125222000D03*
D32*
X80090000Y-125222000D03*
X82590000Y-125222000D03*
D44*
X76990000Y-132722000D03*
X88190000Y-132722000D03*
D32*
X80090000Y-139722000D03*
X85090000Y-139722000D03*
D13*
X194439800Y-117006000D03*
X194439800Y-115181000D03*
D19*
X142670000Y-73554000D03*
X144495000Y-73554000D03*
D26*
X78105000Y-74246000D03*
D27*
X78105000Y-76786000D03*
D56*
X79125000Y-70106000D03*
X77125000Y-71106000D03*
D27*
X78105000Y-79326000D03*
X78105000Y-81866000D03*
X78105000Y-84406000D03*
X78105000Y-86946000D03*
X78105000Y-89486000D03*
X78105000Y-92026000D03*
X78105000Y-94566000D03*
X78105000Y-97106000D03*
X78105000Y-99646000D03*
X78105000Y-102186000D03*
X78105000Y-104726000D03*
X78105000Y-107266000D03*
X78105000Y-109806000D03*
X78105000Y-112346000D03*
D56*
X77125000Y-70106000D03*
D27*
X111125000Y-112346000D03*
X111125000Y-109806000D03*
X111125000Y-107266000D03*
D56*
X78125000Y-71106000D03*
D27*
X111125000Y-104726000D03*
D56*
X79125000Y-71106000D03*
D27*
X111125000Y-102186000D03*
X111125000Y-99646000D03*
X111125000Y-97106000D03*
X111125000Y-94566000D03*
X111125000Y-92026000D03*
X111125000Y-89486000D03*
X111125000Y-86946000D03*
X111125000Y-84406000D03*
X111125000Y-81866000D03*
X111125000Y-79326000D03*
X111125000Y-76786000D03*
D26*
X111125000Y-74246000D03*
D56*
X78125000Y-70106000D03*
M02*
